<svg width="290" height="290" viewBox="0 0 290 290" fill="none" xmlns="http://www.w3.org/2000/svg">
<rect width="290" height="290" fill="white"/>
<path d="M27.8877 156.559H34.244V139.147H41.1317V133.441H21V139.042H27.8877V156.559ZM43.0024 156.559H49.3586V147.832H57.5856V156.538H63.9419V133.441H57.5856V142.063H49.3586V133.441H43.0024V156.559ZM65.9189 156.559H84.6263V151.126H72.2752V147.476H83.372V142.42H72.2752V138.958H84.5412V133.441H65.9402V156.559H65.9189ZM105.459 157C109.137 157 112.709 155.762 115.472 153.455V143.049H104.822V147.769H109.392V150.517C108.329 151.147 107.075 151.503 105.715 151.399C102.037 151.399 99.4433 148.734 99.4433 145C99.4433 141.35 102.037 138.601 105.353 138.601C107.415 138.601 109.477 139.399 110.902 140.825L114.664 136.378C112.262 134.238 109.392 133 105.268 133C98.1041 133 92.832 138.245 92.832 145C92.9383 152.028 98.2104 157 105.459 157ZM117.003 156.559H123.359V149.531H126.123L130.778 156.559H138.112L132.649 148.566C135.519 147.329 137.39 145.021 137.39 141.538C137.39 139.231 136.667 137.448 135.327 136.126C133.818 134.594 131.395 133.629 127.823 133.629H116.918L117.003 156.559ZM123.359 144.559V139.042H127.568C129.715 139.042 131.055 139.923 131.055 141.79C131.055 143.573 129.8 144.538 127.653 144.538H123.359V144.559ZM136.773 156.559H143.491L145.106 152.469H154.056L155.757 156.559H162.559L152.696 133.357H146.531L136.773 156.559ZM147.062 147.392L149.656 140.825L152.249 147.392H147.062ZM162.092 156.559H170.85C179.162 156.559 184.009 151.671 184.009 145C184.009 138.245 179.183 133.545 171.041 133.545H162.092V156.559ZM168.448 150.853V139.126H171.041C174.804 139.126 177.398 141.35 177.398 145C177.398 148.734 174.889 150.874 171.041 150.874H168.448V150.853ZM185.625 156.559H192.066V133.441H185.625V156.559ZM194.022 156.559H223.72V151.126H200.378V147.476H222.487V142.42H200.378V138.958H223.635V133.441H194.128V156.538H194.022V156.559ZM225.335 156.559H231.692V143.846L241.534 156.559H247.168V133.441H240.811V145.608L231.33 133.441H225.42L225.335 156.559ZM255.756 156.559H262.112V139.147H269V133.441H248.783V139.042H255.671V156.559H255.756Z" fill="#010101"/>
</svg>
