<svg width="290" height="290" viewBox="0 0 290 290" fill="none" xmlns="http://www.w3.org/2000/svg">
<rect width="290" height="290" fill="white"/>
<path d="M45.0083 149.953C45.0083 148.831 44.8103 148.04 44.3485 147.578C43.8866 147.116 43.4907 146.72 43.0289 146.523C42.0392 146.061 40.9175 145.599 39.6639 145.269C38.4103 144.939 37.2227 144.477 36.101 143.884C34.9794 143.29 34.0557 142.498 33.3299 141.443C32.6041 140.453 32.2083 139.002 32.2083 137.221C32.2083 134.714 33 132.735 34.5835 131.283C36.167 129.832 38.2784 129.106 40.9835 129.106C41.5113 129.106 42.2371 129.172 43.0289 129.238C43.8866 129.304 44.6784 129.502 45.5361 129.7C46.3278 129.898 47.0536 130.228 47.5814 130.69C48.1753 131.086 48.4392 131.679 48.4392 132.339C48.4392 132.867 48.2412 133.329 47.8454 133.724C47.4495 134.12 46.9217 134.318 46.1959 134.318C45.866 134.318 45.5361 134.252 45.2062 134.186C44.8763 134.054 44.5464 133.922 44.1505 133.79C43.7546 133.658 43.3588 133.526 42.8969 133.394C42.4351 133.263 41.8412 133.263 41.1815 133.263C40.5876 133.263 40.0598 133.329 39.532 133.46C39.0041 133.592 38.5423 133.79 38.0804 134.054C37.6845 134.318 37.3546 134.714 37.0907 135.242C36.8268 135.769 36.7608 136.363 36.7608 137.089C36.7608 137.683 36.8268 138.144 36.9588 138.474C37.0907 138.87 37.2887 139.2 37.4866 139.464C37.6845 139.728 37.8825 139.926 38.1464 140.057C38.4103 140.189 38.6083 140.321 38.8062 140.453C39.7959 140.981 40.9835 141.377 42.2371 141.773C43.4907 142.168 44.6784 142.63 45.734 143.158C46.8557 143.752 47.7794 144.543 48.5052 145.533C49.2309 146.523 49.6268 147.908 49.6268 149.755C49.6268 151.14 49.3629 152.328 48.901 153.383C48.4392 154.439 47.7794 155.362 46.9217 156.088C46.0639 156.814 45.0742 157.408 43.8866 157.737C42.699 158.133 41.5113 158.331 40.1258 158.331C39.4 158.331 38.6083 158.265 37.6845 158.133C36.7608 158.001 35.9031 157.803 35.0454 157.539C34.2536 157.276 33.5278 156.946 32.934 156.484C32.3402 156.022 32.0763 155.56 32.0763 154.901C32.0763 154.373 32.2742 153.911 32.6701 153.449C33.066 153.054 33.5278 152.856 34.1217 152.856C34.3856 152.856 34.7155 152.922 35.1113 153.054C35.4412 153.185 35.9031 153.317 36.365 153.515C36.8268 153.713 37.3546 153.845 38.0144 153.977C38.6083 154.109 39.334 154.175 40.1258 154.175C41.7093 154.175 42.9629 153.845 43.7546 153.12C44.6124 152.328 45.0083 151.338 45.0083 149.953Z" fill="#542E91"/>
<path d="M90.8639 133.263C88.8845 133.263 87.4989 133.856 86.6412 134.978C85.8495 136.165 85.3876 137.683 85.3876 139.53V147.842C85.3876 149.755 85.8494 151.272 86.7072 152.394C87.5649 153.581 88.9505 154.175 90.8639 154.175C92.7113 154.175 94.0969 153.581 94.9546 152.394C95.8123 151.206 96.2742 149.689 96.2742 147.842V139.53C96.2742 137.617 95.8783 136.099 95.0206 134.978C94.2288 133.856 92.8433 133.263 90.8639 133.263ZM90.8639 158.331C89.2144 158.331 87.7629 158.067 86.5752 157.474C85.3216 156.946 84.3319 156.154 83.4742 155.231C82.6824 154.307 82.0226 153.185 81.6268 151.932C81.2309 150.679 81.033 149.293 81.033 147.842V139.53C81.033 138.078 81.2309 136.759 81.5608 135.506C81.9567 134.252 82.4845 133.131 83.2763 132.207C84.068 131.283 85.1237 130.492 86.3113 129.964C87.5649 129.436 89.0824 129.106 90.8639 129.106C92.6453 129.106 94.1629 129.37 95.4165 129.964C96.6701 130.492 97.6598 131.283 98.4515 132.207C99.2433 133.131 99.8371 134.252 100.167 135.506C100.563 136.759 100.695 138.078 100.695 139.53V147.842C100.695 149.293 100.497 150.679 100.101 151.932C99.7051 153.185 99.0453 154.307 98.2536 155.231C97.4618 156.154 96.4062 156.946 95.1525 157.474C93.9649 158.067 92.5134 158.331 90.8639 158.331Z" fill="#542E91"/>
<path d="M110.262 130.69C111.384 134.187 112.439 137.683 113.561 141.179C114.683 144.61 115.672 148.106 116.53 151.669C116.728 150.877 116.926 150.085 117.124 149.294C117.322 148.502 117.52 147.71 117.784 146.919L122.798 130.69C122.93 130.228 123.194 129.833 123.656 129.569C124.118 129.305 124.513 129.173 124.909 129.173C125.569 129.173 126.163 129.371 126.559 129.767C126.955 130.162 127.219 130.69 127.219 131.284C127.219 131.35 127.219 131.482 127.219 131.614C127.219 131.746 127.153 131.878 127.153 131.944L119.301 155.825C119.037 156.55 118.707 157.144 118.311 157.606C117.916 158.068 117.322 158.266 116.53 158.266C115.738 158.266 115.144 158.068 114.749 157.606C114.353 157.144 114.023 156.55 113.825 155.891L105.973 131.944C105.907 131.878 105.907 131.746 105.841 131.614C105.841 131.482 105.841 131.35 105.841 131.284C105.841 130.69 106.039 130.162 106.501 129.767C106.963 129.371 107.491 129.173 108.085 129.173C108.48 129.173 108.876 129.305 109.272 129.569C109.8 129.833 110.064 130.228 110.262 130.69Z" fill="#542E91"/>
<path d="M142.196 133.263C140.217 133.263 138.831 133.856 137.973 134.978C137.181 136.165 136.72 137.683 136.72 139.53V147.842C136.72 149.755 137.181 151.272 138.039 152.394C138.897 153.581 140.283 154.175 142.196 154.175C144.043 154.175 145.429 153.581 146.287 152.394C147.144 151.206 147.606 149.689 147.606 147.842V139.53C147.606 137.617 147.21 136.099 146.353 134.978C145.627 133.856 144.241 133.263 142.196 133.263ZM142.196 158.331C140.546 158.331 139.095 158.067 137.907 157.474C136.654 156.946 135.664 156.154 134.806 155.231C134.014 154.307 133.355 153.185 132.959 151.932C132.563 150.679 132.365 149.293 132.365 147.842V139.53C132.365 138.078 132.563 136.759 132.893 135.506C133.223 134.252 133.817 133.131 134.608 132.207C135.4 131.283 136.39 130.492 137.643 129.964C138.897 129.436 140.414 129.106 142.196 129.106C143.977 129.106 145.495 129.37 146.748 129.964C148.002 130.492 148.992 131.283 149.784 132.207C150.575 133.131 151.169 134.252 151.499 135.506C151.895 136.759 152.027 138.078 152.027 139.53V147.842C152.027 149.293 151.829 150.679 151.433 151.932C151.037 153.185 150.377 154.307 149.586 155.231C148.794 156.154 147.738 156.946 146.485 157.474C145.297 158.067 143.845 158.331 142.196 158.331Z" fill="#542E91"/>
<path d="M174.13 137.815C174.13 137.287 174.064 136.826 173.932 136.298C173.8 135.77 173.536 135.374 173.14 134.978C172.744 134.583 172.217 134.253 171.557 134.055C170.897 133.791 170.039 133.725 168.984 133.725H164.101V141.839H169.247C170.831 141.839 172.019 141.509 172.876 140.784C173.668 140.124 174.13 139.135 174.13 137.815ZM178.551 137.815C178.551 139.926 178.023 141.575 176.967 142.895C175.911 144.214 174.46 145.072 172.612 145.534C173.602 147.117 174.592 148.7 175.582 150.283C176.571 151.801 177.561 153.384 178.551 155.033C178.683 155.165 178.749 155.297 178.815 155.561C178.88 155.825 178.88 156.023 178.88 156.155C178.88 156.749 178.617 157.276 178.155 157.738C177.627 158.134 177.165 158.332 176.571 158.332C175.713 158.332 175.12 158.002 174.724 157.342L167.73 145.995H164.035V156.221C164.035 156.814 163.837 157.276 163.375 157.738C162.913 158.2 162.386 158.398 161.792 158.398C161.198 158.398 160.67 158.2 160.274 157.804C159.812 157.408 159.615 156.88 159.615 156.287V131.944C159.615 131.284 159.878 130.756 160.34 130.229C160.802 129.767 161.396 129.503 162.056 129.503H169.05C170.831 129.503 172.283 129.767 173.536 130.229C174.724 130.69 175.713 131.35 176.439 132.142C177.165 132.933 177.693 133.791 178.023 134.781C178.419 135.77 178.551 136.76 178.551 137.815Z" fill="#542E91"/>
<path d="M195.309 133.263C193.33 133.263 191.944 133.856 191.087 134.978C190.295 136.165 189.833 137.683 189.833 139.53V147.842C189.833 149.755 190.295 151.272 191.153 152.394C192.01 153.581 193.396 154.175 195.309 154.175C197.157 154.175 198.542 153.581 199.4 152.394C200.258 151.206 200.72 149.689 200.72 147.842V139.53C200.72 137.617 200.324 136.099 199.466 134.978C198.74 133.856 197.289 133.263 195.309 133.263ZM195.309 158.331C193.66 158.331 192.208 158.067 191.021 157.474C189.767 156.946 188.777 156.154 187.92 155.231C187.128 154.307 186.468 153.185 186.072 151.932C185.676 150.679 185.478 149.293 185.478 147.842V139.53C185.478 138.078 185.676 136.759 186.006 135.506C186.336 134.252 186.93 133.131 187.722 132.207C188.513 131.283 189.569 130.492 190.757 129.964C192.01 129.436 193.528 129.106 195.309 129.106C197.091 129.106 198.608 129.37 199.862 129.964C201.116 130.492 202.105 131.283 202.897 132.207C203.689 133.131 204.283 134.252 204.612 135.506C204.942 136.759 205.14 138.078 205.14 139.53V147.842C205.14 149.293 204.942 150.679 204.546 151.932C204.151 153.185 203.491 154.307 202.699 155.231C201.907 156.154 200.852 156.946 199.598 157.474C198.41 158.067 196.959 158.331 195.309 158.331Z" fill="#542E91"/>
<path d="M227.111 147.182V139.926C227.111 139.068 226.979 138.211 226.782 137.419C226.584 136.627 226.188 135.968 225.66 135.44C225.132 134.846 224.472 134.45 223.614 134.12C222.823 133.791 221.767 133.659 220.579 133.659H217.215V153.845H220.579C221.767 153.845 222.823 153.647 223.614 153.318C224.472 152.988 225.132 152.46 225.66 151.866C226.188 151.273 226.518 150.547 226.782 149.755C226.979 148.964 227.111 148.106 227.111 147.182ZM231.532 147.182C231.532 148.568 231.334 149.953 230.938 151.207C230.542 152.526 229.883 153.647 228.959 154.637C228.035 155.627 226.847 156.418 225.396 157.012C223.878 157.606 222.097 157.87 219.92 157.87H215.367C214.641 157.87 214.047 157.606 213.586 157.144C213.058 156.682 212.86 156.088 212.86 155.429V131.877C212.86 131.218 213.124 130.69 213.586 130.162C214.113 129.7 214.707 129.437 215.367 129.437H219.92C222.097 129.437 223.944 129.7 225.396 130.294C226.847 130.888 228.101 131.614 228.959 132.603C229.883 133.527 230.542 134.648 230.938 135.902C231.334 137.155 231.532 138.474 231.532 139.86V147.182Z" fill="#542E91"/>
<path d="M247.169 135.77C246.641 137.947 246.113 139.992 245.52 141.971C244.926 143.95 244.332 145.995 243.672 148.04H250.666C250.072 145.995 249.412 143.95 248.819 141.971C248.159 139.926 247.631 137.881 247.169 135.77ZM242.419 151.932L240.901 156.748C240.769 157.21 240.505 157.606 240.043 157.87C239.581 158.134 239.186 158.266 238.79 158.266C238.196 158.266 237.602 158.068 237.206 157.672C236.744 157.276 236.546 156.814 236.546 156.155C236.546 156.023 236.546 155.891 236.546 155.759C236.546 155.627 236.612 155.495 236.612 155.429L244.464 131.548C244.662 130.822 244.992 130.294 245.388 129.833C245.783 129.371 246.377 129.173 247.169 129.173C247.961 129.173 248.555 129.371 248.951 129.833C249.346 130.294 249.676 130.888 249.874 131.548L257.726 155.429C257.792 155.495 257.792 155.627 257.858 155.759C257.858 155.891 257.858 156.023 257.858 156.155C257.858 156.748 257.66 157.276 257.198 157.672C256.736 158.068 256.208 158.266 255.548 158.266C254.823 158.266 254.295 158.068 253.965 157.606C253.635 157.144 253.371 156.55 253.107 155.825L251.788 151.932H242.419Z" fill="#542E91"/>
<path d="M72.0598 129.107C70.8061 129.107 69.7505 130.163 69.7505 131.416V140.85L58.468 129.767C57.5443 128.843 56.0927 128.909 55.235 129.767C54.3113 130.69 54.3773 132.142 55.235 132.999L66.0556 143.62L55.169 154.11C54.2453 154.967 54.2453 156.485 55.1031 157.342C55.5649 157.804 56.1587 158.068 56.7525 158.068C57.3464 158.068 57.8742 157.87 58.336 157.408L69.6845 146.523V155.891C69.6845 157.144 70.7402 158.2 71.9938 158.2C73.2474 158.2 74.3031 157.144 74.3031 155.891V131.416C74.369 130.163 73.3134 129.107 72.0598 129.107Z" fill="#542E91"/>
<path d="M54.3773 136.627V150.217C54.3773 151.009 55.367 151.47 55.9608 150.877L63.9443 143.488L55.9608 135.901C55.367 135.374 54.3773 135.769 54.3773 136.627Z" fill="#36B0A7"/>
<path d="M189.899 120.993C189.899 120.927 189.899 120.795 189.833 120.729C189.833 120.663 189.767 120.531 189.701 120.465C189.635 120.399 189.503 120.333 189.371 120.267C189.239 120.201 189.041 120.201 188.843 120.201H187.854V121.718H188.909C189.239 121.718 189.503 121.652 189.635 121.521C189.833 121.389 189.899 121.191 189.899 120.993ZM191.219 120.993C191.219 121.455 191.087 121.784 190.889 122.114C190.625 122.378 190.361 122.642 189.899 122.708L191.219 124.555C191.285 124.687 191.35 124.753 191.35 124.885C191.35 125.017 191.285 125.083 191.219 125.215C191.153 125.281 191.087 125.347 190.955 125.413C190.823 125.479 190.757 125.479 190.625 125.479C190.361 125.479 190.163 125.413 190.031 125.215L188.447 122.84H187.788V124.885C187.788 124.951 187.788 125.017 187.722 125.083C187.656 125.149 187.656 125.215 187.59 125.281C187.524 125.347 187.458 125.347 187.392 125.413C187.326 125.413 187.194 125.479 187.128 125.479C186.93 125.479 186.798 125.413 186.666 125.281C186.534 125.149 186.468 125.017 186.468 124.885V119.673C186.468 119.607 186.468 119.475 186.534 119.409C186.6 119.344 186.6 119.278 186.666 119.212C186.732 119.146 186.798 119.08 186.93 119.08C186.996 119.014 187.128 119.014 187.194 119.014H188.843C189.305 119.014 189.635 119.08 189.965 119.212C190.295 119.344 190.493 119.475 190.691 119.673C190.889 119.871 191.021 120.069 191.087 120.267C191.219 120.531 191.219 120.729 191.219 120.993Z" fill="#36B0A7"/>
<path d="M206.13 121.586C206.064 121.454 206.064 121.322 205.998 121.124C205.998 120.992 205.932 120.794 205.932 120.662C205.932 120.794 205.866 120.926 205.866 121.124C205.866 121.256 205.8 121.454 205.734 121.586L205.206 123.103H206.526L206.13 121.586ZM204.612 125.082C204.546 125.214 204.48 125.346 204.348 125.412C204.217 125.478 204.085 125.544 204.019 125.544C203.821 125.544 203.689 125.478 203.557 125.412C203.425 125.28 203.359 125.148 203.359 125.017C203.359 125.017 203.359 124.951 203.359 124.885C203.359 124.819 203.359 124.819 203.359 124.753L205.206 119.607C205.272 119.409 205.338 119.277 205.47 119.145C205.602 119.013 205.734 118.947 205.998 118.947C206.196 118.947 206.394 119.013 206.526 119.145C206.658 119.277 206.724 119.409 206.79 119.607L208.637 124.753C208.637 124.753 208.637 124.819 208.637 124.885C208.637 124.951 208.637 124.951 208.637 125.017C208.637 125.214 208.571 125.346 208.439 125.412C208.307 125.544 208.175 125.544 207.977 125.544C207.845 125.544 207.713 125.478 207.581 125.412C207.45 125.346 207.384 125.214 207.318 125.082L206.988 124.159H204.942L204.612 125.082Z" fill="#36B0A7"/>
<path d="M224.208 121.389C224.208 121.191 224.208 121.059 224.142 120.927C224.076 120.795 224.01 120.663 223.878 120.531C223.746 120.399 223.614 120.333 223.416 120.267C223.219 120.201 223.021 120.201 222.757 120.201H222.097V124.291H222.757C223.021 124.291 223.219 124.225 223.416 124.159C223.614 124.093 223.746 124.027 223.878 123.895C224.01 123.764 224.076 123.632 224.142 123.5C224.208 123.368 224.208 123.17 224.208 122.972V121.389ZM225.528 122.972C225.528 123.302 225.462 123.566 225.396 123.895C225.33 124.159 225.132 124.423 224.934 124.687C224.736 124.885 224.406 125.083 224.01 125.215C223.614 125.347 223.219 125.413 222.625 125.413H221.569C221.437 125.413 221.371 125.413 221.305 125.347C221.239 125.281 221.107 125.281 221.041 125.215C220.975 125.149 220.909 125.083 220.909 125.017C220.843 124.951 220.843 124.885 220.843 124.753V119.673C220.843 119.607 220.843 119.475 220.909 119.409C220.975 119.344 220.975 119.278 221.041 119.212C221.107 119.146 221.173 119.08 221.305 119.08C221.371 119.014 221.503 119.014 221.569 119.014H222.625C223.153 119.014 223.614 119.08 224.01 119.212C224.406 119.344 224.67 119.541 224.934 119.739C225.132 119.937 225.33 120.201 225.396 120.465C225.462 120.729 225.528 121.059 225.528 121.389V122.972Z" fill="#36B0A7"/>
<path d="M237.932 119.541C237.932 119.409 237.998 119.277 238.13 119.145C238.262 119.013 238.394 118.947 238.592 118.947C238.79 118.947 238.922 119.013 239.054 119.145C239.186 119.277 239.252 119.409 239.252 119.541V124.885C239.252 125.017 239.186 125.148 239.054 125.28C238.922 125.412 238.79 125.478 238.592 125.478C238.394 125.478 238.262 125.412 238.13 125.28C237.998 125.148 237.932 125.017 237.932 124.885V119.541Z" fill="#36B0A7"/>
<path d="M254.163 120.135C253.767 120.135 253.437 120.267 253.305 120.465C253.107 120.662 253.041 120.992 253.041 121.322V123.103C253.041 123.433 253.107 123.763 253.305 123.961C253.503 124.159 253.767 124.291 254.163 124.291C254.559 124.291 254.823 124.159 255.021 123.961C255.219 123.763 255.285 123.433 255.285 123.103V121.322C255.285 120.926 255.219 120.662 255.021 120.465C254.889 120.267 254.625 120.135 254.163 120.135ZM254.163 125.478C253.767 125.478 253.371 125.412 253.107 125.28C252.777 125.148 252.513 125.017 252.315 124.753C252.118 124.555 251.986 124.291 251.854 124.027C251.722 123.763 251.722 123.433 251.722 123.103V121.322C251.722 120.992 251.788 120.728 251.854 120.399C251.92 120.135 252.118 119.871 252.315 119.673C252.513 119.475 252.777 119.277 253.107 119.145C253.437 119.013 253.833 118.947 254.229 118.947C254.691 118.947 255.021 119.013 255.351 119.145C255.68 119.277 255.944 119.475 256.142 119.673C256.34 119.871 256.472 120.135 256.604 120.399C256.67 120.662 256.736 120.992 256.736 121.322V123.103C256.736 123.433 256.67 123.763 256.604 124.027C256.472 124.291 256.34 124.555 256.142 124.753C255.944 124.951 255.68 125.148 255.351 125.28C254.955 125.412 254.625 125.478 254.163 125.478Z" fill="#36B0A7"/>
<path d="M35.2433 167.435V169.414H36.6289C36.7608 169.414 36.8928 169.414 37.0247 169.348C37.1567 169.282 37.2227 169.216 37.3546 169.15C37.4206 169.084 37.4866 168.952 37.5526 168.82C37.6185 168.688 37.6185 168.556 37.6185 168.425C37.6185 168.293 37.6185 168.161 37.5526 168.029C37.4866 167.897 37.4206 167.831 37.3546 167.699C37.2886 167.633 37.1567 167.567 37.0247 167.501C36.8928 167.435 36.7608 167.435 36.6289 167.435H35.2433ZM35.2433 171.921H34.7155V166.907H36.7608C37.0247 166.907 37.2227 166.973 37.4206 167.039C37.6185 167.105 37.7505 167.237 37.8825 167.369C38.0144 167.501 38.0804 167.633 38.1464 167.831C38.2124 168.029 38.2124 168.161 38.2124 168.359C38.2124 168.491 38.2124 168.622 38.1464 168.754C38.0804 168.886 38.0144 169.018 37.9484 169.15C37.8825 169.282 37.7505 169.348 37.6845 169.48C37.5526 169.546 37.4206 169.678 37.2886 169.678L38.2783 171.855H37.6845L36.8268 169.81H35.3093V171.921H35.2433Z" fill="#231F20"/>
<path d="M49.4949 167.633C49.4289 167.765 49.3629 167.963 49.2969 168.227C49.231 168.491 49.165 168.754 49.033 169.018C48.967 169.282 48.8351 169.546 48.7691 169.81C48.7031 170.074 48.6372 170.272 48.5712 170.404H50.4186C50.3526 170.272 50.2866 170.074 50.2207 169.81C50.1547 169.546 50.0227 169.282 49.9567 169.018C49.8908 168.754 49.7588 168.491 49.6928 168.227C49.6268 167.963 49.5609 167.765 49.4949 167.633ZM50.9464 171.921C50.8804 171.723 50.8145 171.525 50.7485 171.327C50.6825 171.129 50.6165 170.931 50.5506 170.733H48.4392L48.0433 171.921H47.5155C47.7794 171.063 48.1093 170.272 48.3732 169.414C48.6372 168.556 48.967 167.765 49.231 166.907H49.7588L51.4743 171.921H50.9464Z" fill="#231F20"/>
<path d="M64.0103 168.688C64.0103 168.424 63.9444 168.292 63.8784 168.094C63.8124 167.962 63.6804 167.83 63.6145 167.698C63.4825 167.566 63.3505 167.5 63.2186 167.5C63.0866 167.5 62.9547 167.434 62.7567 167.434H61.5031V171.525H62.6907C62.8227 171.525 63.0206 171.525 63.1526 171.459C63.2846 171.393 63.4165 171.327 63.5485 171.261C63.6804 171.129 63.7464 170.997 63.8784 170.865C63.9444 170.733 64.0103 170.535 64.0103 170.271V168.688ZM64.5382 170.337C64.5382 170.601 64.4722 170.799 64.4062 170.997C64.3402 171.195 64.2083 171.393 64.0763 171.525C63.9444 171.657 63.7464 171.788 63.5485 171.854C63.3505 171.92 63.0866 171.986 62.8887 171.986H61.0413V166.973H62.8887C63.1526 166.973 63.3505 167.039 63.5485 167.105C63.7464 167.171 63.9444 167.303 64.0763 167.434C64.2083 167.566 64.3402 167.764 64.4062 167.962C64.4722 168.16 64.5382 168.358 64.5382 168.622V170.337Z" fill="#231F20"/>
<path d="M74.4351 171.92V166.973H74.9629V171.92H74.4351Z" fill="#231F20"/>
<path d="M87.9608 168.622C87.9608 168.425 87.8949 168.227 87.8289 168.029C87.7629 167.897 87.6969 167.765 87.565 167.633C87.433 167.501 87.301 167.435 87.1691 167.369C87.0371 167.303 86.8392 167.303 86.7072 167.303C86.5093 167.303 86.3773 167.303 86.1794 167.369C86.0474 167.435 85.9155 167.501 85.7835 167.633C85.6516 167.765 85.5856 167.897 85.5196 168.029C85.4536 168.161 85.3876 168.359 85.3876 168.622V170.272C85.3876 170.47 85.4536 170.668 85.5196 170.865C85.5856 170.997 85.7175 171.129 85.7835 171.261C85.9155 171.393 86.0474 171.459 86.1794 171.459C86.3114 171.525 86.5093 171.525 86.6412 171.525C86.8392 171.525 86.9711 171.525 87.1691 171.459C87.301 171.393 87.433 171.327 87.565 171.261C87.6969 171.129 87.7629 170.997 87.8289 170.865C87.8949 170.733 87.9608 170.536 87.9608 170.272V168.622ZM88.4887 170.338C88.4887 170.602 88.4227 170.799 88.3567 171.063C88.2907 171.261 88.1588 171.459 87.9608 171.591C87.8289 171.723 87.6309 171.855 87.367 171.921C87.1691 171.987 86.9052 172.053 86.6412 172.053C86.3773 172.053 86.1134 171.987 85.9155 171.921C85.7175 171.855 85.5196 171.723 85.3217 171.591C85.1897 171.459 85.0577 171.261 84.9258 171.063C84.8598 170.865 84.7938 170.602 84.7938 170.338V168.556C84.7938 168.293 84.8598 168.095 84.9258 167.897C84.9918 167.699 85.1237 167.501 85.2557 167.369C85.3876 167.237 85.5856 167.105 85.8495 167.039C86.0474 166.973 86.3113 166.907 86.5753 166.907C86.8392 166.907 87.1031 166.973 87.301 167.039C87.499 167.105 87.6969 167.237 87.8949 167.369C88.0268 167.501 88.1588 167.699 88.2907 167.897C88.3567 168.095 88.4227 168.359 88.4227 168.556V170.338H88.4887Z" fill="#231F20"/>
<path d="M101.553 170.602C101.553 170.8 101.487 170.997 101.421 171.195C101.355 171.393 101.223 171.525 101.091 171.657C100.959 171.789 100.761 171.855 100.563 171.921C100.365 171.987 100.101 171.987 99.8371 171.987C99.5072 171.987 99.1773 171.921 98.9134 171.855C98.6495 171.789 98.3196 171.591 98.0557 171.459L98.3196 171.063C98.5175 171.195 98.7814 171.327 99.0454 171.393C99.3093 171.459 99.5732 171.525 99.8371 171.525C100.233 171.525 100.497 171.459 100.695 171.261C100.893 171.129 101.025 170.866 101.025 170.536C101.025 170.338 100.959 170.206 100.893 170.074C100.827 169.942 100.695 169.876 100.563 169.81C100.431 169.744 100.299 169.678 100.167 169.678C100.035 169.612 99.8371 169.612 99.7052 169.546C99.5072 169.48 99.3093 169.48 99.1113 169.414C98.9134 169.348 98.7814 169.282 98.5835 169.15C98.4515 169.018 98.3196 168.886 98.2536 168.754C98.1876 168.623 98.1216 168.425 98.1216 168.161C98.1216 167.963 98.1876 167.765 98.2536 167.633C98.3196 167.435 98.4515 167.303 98.5835 167.171C98.7155 167.039 98.9134 166.973 99.1113 166.907C99.3093 166.841 99.5072 166.775 99.7711 166.775C100.035 166.775 100.299 166.775 100.563 166.841C100.827 166.907 101.091 166.973 101.289 167.105L101.025 167.567C100.827 167.435 100.563 167.369 100.365 167.303C100.101 167.237 99.9031 167.237 99.7052 167.237C99.5732 167.237 99.4412 167.237 99.3093 167.303C99.1773 167.369 99.0454 167.369 98.9794 167.501C98.9134 167.567 98.7814 167.699 98.7155 167.765C98.6495 167.897 98.6495 168.029 98.6495 168.161C98.6495 168.293 98.7155 168.425 98.7814 168.557C98.8474 168.689 98.9794 168.754 99.0454 168.82C99.1773 168.886 99.3093 168.952 99.4412 168.952C99.5732 169.018 99.7052 169.018 99.8371 169.084C100.035 169.15 100.233 169.216 100.431 169.216C100.629 169.282 100.827 169.348 100.959 169.48C101.091 169.612 101.223 169.744 101.289 169.876C101.487 170.14 101.553 170.338 101.553 170.602Z" fill="#231F20"/>
<path d="M111.713 169.809L114.023 166.973H114.616C114.55 167.039 114.485 167.105 114.419 167.237C114.353 167.368 114.221 167.434 114.155 167.566C114.023 167.698 113.957 167.83 113.825 167.962C113.693 168.094 113.627 168.226 113.495 168.358C113.363 168.49 113.297 168.622 113.231 168.688C113.165 168.82 113.099 168.886 113.033 168.952L114.814 171.986H114.221C114.155 171.92 114.089 171.788 114.023 171.657C113.957 171.525 113.825 171.393 113.759 171.195C113.693 170.997 113.561 170.865 113.429 170.667C113.297 170.469 113.231 170.337 113.099 170.139C113.033 169.941 112.901 169.809 112.835 169.677C112.769 169.545 112.703 169.414 112.637 169.348L111.581 170.601V171.986H111.186V166.973H111.713V169.809Z" fill="#231F20"/>
<path d="M127.219 168.622C127.219 168.425 127.153 168.227 127.087 168.029C127.021 167.897 126.955 167.765 126.823 167.633C126.691 167.501 126.559 167.435 126.427 167.369C126.295 167.303 126.097 167.303 125.965 167.303C125.767 167.303 125.635 167.303 125.437 167.369C125.305 167.435 125.173 167.501 125.041 167.633C124.909 167.765 124.843 167.897 124.777 168.029C124.711 168.161 124.645 168.359 124.645 168.622V170.272C124.645 170.47 124.711 170.668 124.777 170.865C124.843 170.997 124.975 171.129 125.041 171.261C125.173 171.393 125.305 171.459 125.437 171.459C125.569 171.525 125.767 171.525 125.899 171.525C126.097 171.525 126.229 171.525 126.427 171.459C126.559 171.393 126.691 171.327 126.823 171.261C126.955 171.129 127.021 170.997 127.087 170.865C127.153 170.733 127.219 170.536 127.219 170.272V168.622ZM127.746 170.338C127.746 170.602 127.68 170.799 127.614 171.063C127.548 171.261 127.416 171.459 127.219 171.591C127.087 171.723 126.889 171.855 126.625 171.921C126.427 171.987 126.163 172.053 125.899 172.053C125.635 172.053 125.371 171.987 125.173 171.921C124.975 171.855 124.777 171.723 124.579 171.591C124.447 171.459 124.315 171.261 124.183 171.063C124.117 170.865 124.052 170.602 124.052 170.338V168.556C124.052 168.293 124.117 168.095 124.183 167.897C124.249 167.699 124.381 167.501 124.513 167.369C124.645 167.237 124.843 167.105 125.107 167.039C125.305 166.973 125.569 166.907 125.833 166.907C126.097 166.907 126.361 166.973 126.559 167.039C126.757 167.105 126.955 167.237 127.153 167.369C127.284 167.501 127.416 167.699 127.548 167.897C127.614 168.095 127.68 168.359 127.68 168.556V170.338H127.746Z" fill="#231F20"/>
<path d="M139.095 171.195C139.161 170.865 139.293 170.536 139.359 170.206C139.425 169.876 139.557 169.546 139.623 169.216L140.349 166.907H140.876C140.612 167.765 140.349 168.556 140.085 169.414C139.821 170.206 139.557 171.063 139.293 171.921H138.699L137.05 166.907H137.577C137.709 167.303 137.841 167.699 137.973 168.095C138.105 168.491 138.237 168.886 138.369 169.282L139.095 171.195Z" fill="#231F20"/>
<path d="M153.412 168.622C153.412 168.425 153.346 168.227 153.28 168.029C153.215 167.897 153.149 167.765 153.017 167.633C152.885 167.501 152.753 167.435 152.621 167.369C152.489 167.303 152.291 167.303 152.159 167.303C151.961 167.303 151.829 167.303 151.631 167.369C151.499 167.435 151.367 167.501 151.235 167.633C151.103 167.765 151.037 167.897 150.971 168.029C150.905 168.161 150.839 168.359 150.839 168.622V170.272C150.839 170.47 150.905 170.668 150.971 170.865C151.037 170.997 151.169 171.129 151.235 171.261C151.367 171.393 151.499 171.459 151.631 171.459C151.763 171.525 151.961 171.525 152.093 171.525C152.291 171.525 152.423 171.525 152.621 171.459C152.753 171.393 152.885 171.327 153.017 171.261C153.149 171.129 153.215 170.997 153.28 170.865C153.346 170.733 153.412 170.536 153.412 170.272V168.622ZM153.874 170.338C153.874 170.602 153.808 170.799 153.742 171.063C153.676 171.261 153.544 171.459 153.346 171.591C153.214 171.723 153.017 171.855 152.753 171.921C152.555 171.987 152.291 172.053 152.027 172.053C151.763 172.053 151.499 171.987 151.301 171.921C151.103 171.855 150.905 171.723 150.707 171.591C150.575 171.459 150.443 171.261 150.311 171.063C150.245 170.865 150.179 170.602 150.179 170.338V168.556C150.179 168.293 150.245 168.095 150.311 167.897C150.377 167.699 150.509 167.501 150.641 167.369C150.773 167.237 150.971 167.105 151.235 167.039C151.499 166.973 151.697 166.907 151.961 166.907C152.225 166.907 152.489 166.973 152.687 167.039C152.885 167.105 153.083 167.237 153.28 167.369C153.412 167.501 153.544 167.699 153.676 167.897C153.742 168.095 153.808 168.359 153.808 168.556V170.338H153.874Z" fill="#231F20"/>
<path d="M164.167 167.435V169.414H165.553C165.685 169.414 165.816 169.414 165.948 169.348C166.08 169.282 166.146 169.216 166.278 169.15C166.344 169.084 166.41 168.952 166.476 168.82C166.542 168.688 166.542 168.556 166.542 168.425C166.542 168.293 166.542 168.161 166.476 168.029C166.41 167.897 166.344 167.831 166.278 167.699C166.212 167.633 166.08 167.567 165.948 167.501C165.816 167.435 165.685 167.435 165.553 167.435H164.167ZM164.167 171.921H163.639V166.907H165.685C165.948 166.907 166.146 166.973 166.344 167.039C166.542 167.105 166.674 167.237 166.806 167.369C166.938 167.501 167.004 167.633 167.07 167.831C167.136 168.029 167.136 168.161 167.136 168.359C167.136 168.491 167.136 168.622 167.07 168.754C167.004 168.886 166.938 169.018 166.872 169.15C166.806 169.282 166.674 169.348 166.608 169.48C166.476 169.546 166.344 169.678 166.212 169.678L167.202 171.855H166.608L165.75 169.81H164.233V171.921H164.167Z" fill="#231F20"/>
<path d="M179.738 168.622C179.738 168.425 179.672 168.227 179.606 168.029C179.54 167.897 179.474 167.765 179.342 167.633C179.21 167.501 179.078 167.435 178.946 167.369C178.814 167.303 178.617 167.303 178.485 167.303C178.287 167.303 178.155 167.303 177.957 167.369C177.759 167.435 177.693 167.501 177.561 167.633C177.429 167.765 177.363 167.897 177.297 168.029C177.231 168.161 177.165 168.359 177.165 168.622V170.272C177.165 170.47 177.231 170.668 177.297 170.865C177.363 170.997 177.495 171.129 177.561 171.261C177.693 171.393 177.825 171.459 177.957 171.459C178.089 171.525 178.287 171.525 178.419 171.525C178.617 171.525 178.748 171.525 178.946 171.459C179.078 171.393 179.21 171.327 179.342 171.261C179.474 171.129 179.54 170.997 179.606 170.865C179.672 170.733 179.738 170.536 179.738 170.272V168.622ZM180.266 170.338C180.266 170.602 180.2 170.799 180.134 171.063C180.068 171.261 179.936 171.459 179.738 171.591C179.606 171.723 179.408 171.855 179.144 171.921C178.946 171.987 178.683 172.053 178.419 172.053C178.155 172.053 177.891 171.987 177.693 171.921C177.495 171.855 177.297 171.723 177.099 171.591C176.967 171.459 176.835 171.261 176.703 171.063C176.637 170.865 176.571 170.602 176.571 170.338V168.556C176.571 168.293 176.637 168.095 176.703 167.897C176.769 167.699 176.901 167.501 177.033 167.369C177.165 167.237 177.363 167.105 177.627 167.039C177.825 166.973 178.089 166.907 178.353 166.907C178.617 166.907 178.88 166.973 179.078 167.039C179.276 167.105 179.474 167.237 179.672 167.369C179.804 167.501 179.936 167.699 180.068 167.897C180.134 168.095 180.2 168.359 180.2 168.556V170.338H180.266Z" fill="#231F20"/>
<path d="M193 168.688C193 168.424 192.934 168.292 192.868 168.094C192.802 167.962 192.67 167.83 192.604 167.698C192.472 167.566 192.34 167.5 192.208 167.5C192.076 167.434 191.944 167.434 191.746 167.434H190.493V171.525H191.68C191.812 171.525 192.01 171.525 192.142 171.459C192.274 171.393 192.406 171.327 192.538 171.261C192.67 171.129 192.736 170.997 192.868 170.865C192.934 170.733 193 170.535 193 170.271V168.688ZM193.528 170.337C193.528 170.601 193.462 170.799 193.396 170.997C193.33 171.195 193.198 171.393 193.066 171.525C192.934 171.657 192.736 171.788 192.538 171.854C192.34 171.92 192.076 171.986 191.878 171.986H190.031V166.973H191.878C192.142 166.973 192.34 167.039 192.538 167.105C192.736 167.171 192.934 167.303 193.066 167.434C193.198 167.566 193.33 167.764 193.396 167.962C193.462 168.16 193.528 168.358 193.528 168.622V170.337Z" fill="#231F20"/>
<path d="M205.008 167.633C204.942 167.765 204.876 167.963 204.81 168.227C204.744 168.491 204.678 168.754 204.546 169.018C204.48 169.282 204.349 169.546 204.283 169.81C204.217 170.074 204.151 170.272 204.085 170.404H205.932C205.866 170.272 205.8 170.074 205.734 169.81C205.668 169.546 205.536 169.282 205.47 169.018C205.404 168.754 205.272 168.491 205.206 168.227C205.074 167.963 205.074 167.765 205.008 167.633ZM206.46 171.921C206.394 171.723 206.328 171.525 206.262 171.327C206.196 171.129 206.13 170.931 206.064 170.733H203.953L203.557 171.921H203.029C203.293 171.063 203.623 170.272 203.887 169.414C204.151 168.556 204.48 167.765 204.744 166.907H205.272L206.988 171.921H206.46Z" fill="#231F20"/>
<path d="M216.489 171.591C216.489 171.525 216.489 171.459 216.555 171.327C216.621 171.261 216.687 171.195 216.819 171.195C216.951 171.195 217.016 171.261 217.082 171.327C217.148 171.393 217.148 171.459 217.148 171.591C217.148 171.723 217.148 171.789 217.082 171.855C217.016 171.921 216.951 171.987 216.819 171.987C216.687 171.987 216.621 171.921 216.555 171.855C216.489 171.789 216.489 171.723 216.489 171.591Z" fill="#231F20"/>
<path d="M228.695 166.907C229.223 166.907 229.685 167.039 230.014 167.303L229.751 167.699C229.619 167.567 229.421 167.501 229.223 167.435C229.025 167.369 228.827 167.369 228.629 167.369C228.497 167.369 228.299 167.369 228.167 167.435C228.035 167.501 227.903 167.567 227.771 167.633C227.639 167.765 227.573 167.897 227.507 168.029C227.441 168.161 227.375 168.359 227.375 168.622V170.206C227.375 170.404 227.441 170.602 227.507 170.799C227.573 170.931 227.705 171.063 227.771 171.195C227.903 171.327 228.035 171.393 228.167 171.459C228.299 171.525 228.497 171.525 228.629 171.525C228.827 171.525 229.025 171.525 229.223 171.459C229.421 171.393 229.619 171.327 229.751 171.195L230.014 171.591C229.883 171.723 229.685 171.789 229.421 171.921C229.157 171.987 228.893 172.053 228.629 172.053C228.365 172.053 228.167 171.987 227.903 171.921C227.705 171.855 227.507 171.723 227.309 171.591C227.177 171.459 227.045 171.261 226.913 171.063C226.847 170.865 226.781 170.602 226.781 170.404V168.622C226.781 168.359 226.847 168.161 226.913 167.963C226.979 167.765 227.111 167.567 227.309 167.435C227.441 167.303 227.639 167.171 227.903 167.105C228.167 166.907 228.431 166.907 228.695 166.907Z" fill="#231F20"/>
<path d="M242.682 168.622C242.682 168.425 242.617 168.227 242.551 168.029C242.485 167.897 242.353 167.765 242.287 167.633C242.155 167.501 242.023 167.435 241.891 167.369C241.759 167.303 241.561 167.303 241.429 167.303C241.231 167.303 241.099 167.303 240.901 167.369C240.769 167.435 240.637 167.501 240.505 167.633C240.373 167.765 240.307 167.897 240.241 168.029C240.175 168.161 240.109 168.359 240.109 168.622V170.272C240.109 170.47 240.175 170.668 240.241 170.865C240.307 170.997 240.439 171.129 240.505 171.261C240.637 171.393 240.769 171.459 240.901 171.459C241.033 171.525 241.231 171.525 241.363 171.525C241.561 171.525 241.693 171.525 241.891 171.459C242.023 171.393 242.155 171.327 242.287 171.261C242.419 171.129 242.485 170.997 242.551 170.865C242.617 170.733 242.682 170.536 242.682 170.272V168.622ZM243.21 170.338C243.21 170.602 243.144 170.799 243.078 171.063C243.012 171.261 242.88 171.459 242.682 171.591C242.551 171.723 242.353 171.855 242.089 171.921C241.891 171.987 241.627 172.053 241.363 172.053C241.099 172.053 240.835 171.987 240.637 171.921C240.439 171.855 240.241 171.723 240.043 171.591C239.911 171.459 239.779 171.261 239.647 171.063C239.581 170.865 239.516 170.602 239.516 170.338V168.556C239.516 168.293 239.581 168.095 239.647 167.897C239.713 167.699 239.845 167.501 239.977 167.369C240.109 167.237 240.307 167.105 240.571 167.039C240.769 166.973 241.033 166.907 241.297 166.907C241.561 166.907 241.825 166.973 242.023 167.039C242.221 167.105 242.419 167.237 242.617 167.369C242.748 167.501 242.88 167.699 243.012 167.897C243.078 168.095 243.144 168.359 243.144 168.556V170.338H243.21Z" fill="#231F20"/>
<path d="M255.219 170.535L256.934 166.973H257.396V171.92H256.868V168.16L255.351 171.195H254.955L253.503 168.226L253.437 171.92H252.909V166.973H253.437L255.153 170.535H255.219Z" fill="#231F20"/>
</svg>
