<svg width="290" height="290" viewBox="0 0 290 290" fill="none" xmlns="http://www.w3.org/2000/svg">
<rect width="290" height="290" fill="white"/>
<path d="M290 24H0V266H290V24Z" fill="white"/>
<path d="M114.568 102.56C114.227 102.56 113.886 102.389 113.715 102.218C113.204 101.706 113.204 101.023 113.715 100.51L136.902 77.2837C137.413 76.7713 138.095 76.7713 138.607 77.2837C139.118 77.796 139.118 78.4792 138.607 78.9915L115.42 102.218C115.25 102.56 114.909 102.56 114.568 102.56Z" fill="#F05455"/>
<path d="M179.012 102.56C178.671 102.56 178.33 102.389 178.16 102.218L155.144 79.1624C154.633 78.6501 154.633 77.9669 155.144 77.4546C155.656 76.9422 156.338 76.9422 156.849 77.4546L179.865 100.51C180.376 101.023 180.376 101.706 179.865 102.218C179.694 102.389 179.353 102.56 179.012 102.56Z" fill="#F05455"/>
<path d="M111.158 115.88C110.817 115.88 110.476 115.71 110.306 115.539C109.794 115.026 109.794 114.343 110.306 113.831L145.938 78.1372C146.449 77.6248 147.131 77.6248 147.643 78.1372L183.275 113.831C183.786 114.343 183.786 115.026 183.275 115.539C182.763 116.051 182.081 116.051 181.57 115.539L146.79 80.6989L112.011 115.539C111.84 115.71 111.499 115.88 111.158 115.88Z" fill="#F05455"/>
<path d="M114.909 122.199C114.568 122.199 114.227 122.028 114.056 121.858C113.545 121.345 113.545 120.662 114.056 120.15L146.108 88.0425C146.62 87.5301 147.302 87.5301 147.813 88.0425L179.865 120.15C180.376 120.662 180.376 121.345 179.865 121.858C179.353 122.37 178.671 122.37 178.16 121.858L146.79 90.6042L115.761 121.858C115.42 122.028 115.079 122.199 114.909 122.199Z" fill="#F05455"/>
<path d="M118.489 128.519C118.148 128.519 117.807 128.348 117.637 128.177C117.125 127.665 117.125 126.982 117.637 126.47L145.938 98.1196C146.449 97.6073 147.131 97.6073 147.643 98.1196L175.944 126.47C176.455 126.982 176.455 127.665 175.944 128.177C175.432 128.69 174.75 128.69 174.239 128.177L146.79 100.511L119.342 128.007C119.001 128.348 118.83 128.519 118.489 128.519Z" fill="#F05455"/>
<path d="M122.069 134.667C121.728 134.667 121.387 134.496 121.217 134.325C120.705 133.813 120.705 133.13 121.217 132.618L145.938 107.854C146.449 107.342 147.131 107.342 147.642 107.854L172.363 132.618C172.875 133.13 172.875 133.813 172.363 134.325C171.852 134.838 171.17 134.838 170.658 134.325L146.79 110.416L122.922 134.325C122.751 134.667 122.41 134.667 122.069 134.667Z" fill="#F05455"/>
<path d="M125.65 140.986C125.309 140.986 124.968 140.815 124.797 140.644C124.286 140.132 124.286 139.449 124.797 138.936L145.938 117.759C146.449 117.247 147.131 117.247 147.643 117.759L168.783 138.936C169.295 139.449 169.295 140.132 168.783 140.644C168.272 141.157 167.59 141.157 167.078 140.644L146.79 120.321L126.502 140.644C126.332 140.815 125.991 140.986 125.65 140.986Z" fill="#F05455"/>
<path d="M161.963 144.914C161.623 144.914 161.282 144.743 161.111 144.572L146.79 130.226L132.469 144.572C131.958 145.084 131.276 145.084 130.764 144.572C130.253 144.06 130.253 143.377 130.764 142.864L145.938 127.665C146.449 127.152 147.131 127.152 147.643 127.665L162.816 142.864C163.327 143.377 163.327 144.06 162.816 144.572C162.645 144.743 162.304 144.914 161.963 144.914Z" fill="#F05455"/>
<path d="M152.075 144.913C151.734 144.913 151.393 144.743 151.223 144.572L146.79 140.132L142.358 144.572C141.846 145.084 141.164 145.084 140.653 144.572C140.141 144.06 140.141 143.376 140.653 142.864L145.938 137.57C146.449 137.057 147.131 137.057 147.643 137.57L152.928 142.864C153.439 143.376 153.439 144.06 152.928 144.572C152.757 144.743 152.416 144.913 152.075 144.913Z" fill="#F05455"/>
<path d="M89.1654 204.006H92.5751C93.0866 204.006 93.4276 204.006 93.7685 204.177C94.1095 204.347 94.4505 204.347 94.7915 204.689C95.1324 204.86 95.3029 205.201 95.4734 205.543C95.6439 205.884 95.8144 206.397 95.8144 206.909C95.8144 207.592 95.6439 208.105 95.3029 208.446C94.9619 208.788 94.4505 209.129 93.939 209.3L96.1554 213.057H93.7685L91.8932 209.471H90.8702V213.057H88.9949V204.006H89.1654ZM91.0407 207.592H92.2341C92.4046 207.592 92.5751 207.592 92.7456 207.592C92.9161 207.592 93.0866 207.592 93.2571 207.422C93.4276 207.422 93.598 207.251 93.598 207.08C93.7685 206.909 93.7685 206.738 93.7685 206.568C93.7685 206.397 93.7685 206.226 93.598 206.055C93.4276 205.884 93.4276 205.884 93.2571 205.714C93.0866 205.714 92.9161 205.543 92.7456 205.543C92.5751 205.543 92.4046 205.543 92.2341 205.543H91.0407V207.592Z" fill="#4D4D4F"/>
<path d="M100.247 204.006H106.214V205.714H102.122V207.422H105.873V209.129H102.122V210.837H106.385V212.545H100.247V204.006Z" fill="#4D4D4F"/>
<path d="M110.988 204.006H113.545L117.296 210.154V204.006H119.342V212.887H116.784L113.034 206.568V212.887H111.158V204.006H110.988Z" fill="#4D4D4F"/>
<path d="M123.604 208.446C123.604 207.763 123.774 207.08 123.945 206.567C124.115 206.055 124.456 205.543 124.968 205.03C125.309 204.689 125.82 204.347 126.502 204.177C127.184 204.006 127.696 203.835 128.378 203.835C129.06 203.835 129.742 204.006 130.253 204.177C130.765 204.347 131.276 204.689 131.787 205.03C132.128 205.372 132.469 205.884 132.81 206.567C132.981 207.08 133.151 207.763 133.151 208.446C133.151 209.129 132.981 209.812 132.81 210.325C132.64 210.837 132.299 211.349 131.787 211.862C131.446 212.203 130.935 212.545 130.253 212.716C129.742 212.886 129.06 213.057 128.378 213.057C127.696 213.057 127.014 212.886 126.502 212.716C125.991 212.545 125.479 212.203 124.968 211.862C124.627 211.52 124.286 211.008 123.945 210.325C123.774 209.812 123.604 209.129 123.604 208.446ZM125.65 208.446C125.65 208.788 125.65 209.3 125.82 209.642C125.991 209.983 126.161 210.325 126.332 210.496C126.502 210.666 126.843 211.008 127.184 211.008C127.525 211.179 127.866 211.179 128.378 211.179C128.719 211.179 129.23 211.179 129.571 211.008C129.912 210.837 130.253 210.666 130.424 210.496C130.594 210.325 130.765 209.983 130.935 209.642C131.105 209.3 131.105 208.958 131.105 208.446C131.105 208.105 131.105 207.592 130.935 207.251C130.765 206.909 130.594 206.567 130.424 206.397C130.253 206.226 129.912 205.884 129.571 205.884C129.23 205.714 128.889 205.714 128.378 205.714C128.037 205.714 127.525 205.714 127.184 205.884C126.843 206.055 126.502 206.226 126.332 206.397C126.161 206.567 125.991 206.909 125.82 207.251C125.65 207.592 125.65 207.934 125.65 208.446Z" fill="#4D4D4F"/>
<path d="M136.561 204.006H138.777L140.994 209.813L143.21 204.006H145.256L141.676 212.887H140.141L136.561 204.006Z" fill="#4D4D4F"/>
<path d="M151.223 204.006H152.757L156.508 212.887H154.292L153.61 211.008H150.2L149.518 212.887H147.302L151.223 204.006ZM152.075 206.568L151.052 209.3H153.269L152.075 206.568Z" fill="#4D4D4F"/>
<path d="M161.111 205.714H158.554V204.006H165.544V205.714H162.987V212.716H161.111V205.714Z" fill="#4D4D4F"/>
<path d="M169.465 204.006H171.34V212.887H169.465V204.006Z" fill="#4D4D4F"/>
<path d="M175.773 208.446C175.773 207.763 175.944 207.08 176.114 206.567C176.285 206.055 176.626 205.543 177.137 205.03C177.478 204.689 177.99 204.347 178.671 204.177C179.353 204.006 179.865 203.835 180.547 203.835C181.229 203.835 181.911 204.006 182.422 204.177C182.934 204.347 183.445 204.689 183.957 205.03C184.298 205.372 184.639 205.884 184.98 206.567C185.15 207.08 185.321 207.763 185.321 208.446C185.321 209.129 185.15 209.812 184.98 210.325C184.809 210.837 184.468 211.349 183.957 211.862C183.616 212.203 183.104 212.545 182.422 212.716C181.911 212.886 181.229 213.057 180.547 213.057C179.865 213.057 179.183 212.886 178.671 212.716C178.16 212.545 177.649 212.203 177.137 211.862C176.796 211.52 176.455 211.008 176.114 210.325C175.773 209.812 175.773 209.129 175.773 208.446ZM177.649 208.446C177.649 208.788 177.649 209.3 177.819 209.642C177.99 209.983 178.16 210.325 178.331 210.496C178.501 210.666 178.842 211.008 179.183 211.008C179.524 211.179 179.865 211.179 180.376 211.179C180.717 211.179 181.229 211.179 181.57 211.008C181.911 210.837 182.252 210.666 182.422 210.496C182.593 210.325 182.763 209.983 182.934 209.642C183.104 209.3 183.104 208.958 183.104 208.446C183.104 208.105 183.104 207.592 182.934 207.251C182.763 206.909 182.593 206.567 182.422 206.397C182.252 206.226 181.911 205.884 181.57 205.884C181.229 205.714 180.888 205.714 180.376 205.714C180.035 205.714 179.524 205.714 179.183 205.884C178.842 206.055 178.501 206.226 178.331 206.397C178.16 206.567 177.99 206.909 177.819 207.251C177.819 207.592 177.649 207.934 177.649 208.446Z" fill="#4D4D4F"/>
<path d="M189.412 204.006H191.969L195.72 210.154V204.006H197.596V212.887H195.038L191.287 206.568V212.887H189.412V204.006Z" fill="#4D4D4F"/>
<path d="M38.5303 191.538H40.7466V184.707H51.4874V173.265H38.5303V191.538ZM40.7466 175.485H49.4415V182.829H40.7466V175.485Z" fill="#4D4D4F"/>
<path d="M72.2869 184.536V173.265H59.3298V191.368H61.5462V184.536H67.1723L70.7525 191.538H73.1394L69.5591 184.536H72.2869ZM61.5462 182.658V175.314H70.2411V182.658H61.5462Z" fill="#4D4D4F"/>
<path d="M114.909 181.975L108.601 173.265H105.873V191.538H108.089V176.339L114.738 185.39H114.909L121.558 176.339V191.538H123.774V173.265H121.046L114.909 181.975Z" fill="#4D4D4F"/>
<path d="M131.958 191.538H134.174V184.707H144.915V173.265H131.958V191.538ZM134.174 175.485H142.869V182.829H134.174V175.485Z" fill="#4D4D4F"/>
<path d="M165.714 184.536V173.265H152.757V191.368H154.973V184.536H160.6L164.18 191.538H166.567L162.986 184.536H165.714ZM154.973 182.658V175.314H163.668V182.658H154.973Z" fill="#4D4D4F"/>
<path d="M180.206 182.487L174.921 173.265H172.534L179.183 184.878V191.538H181.399V184.878L188.048 173.265H185.662L180.206 182.487Z" fill="#4D4D4F"/>
<path d="M197.084 173.265H194.868V191.538H205.779V189.489H197.084V173.265Z" fill="#4D4D4F"/>
<path d="M212.599 191.538H214.815V184.366H224.703V191.538H226.92V173.265H212.769V191.538H212.599ZM214.815 175.485H224.703V182.316H214.815V175.485Z" fill="#4D4D4F"/>
<path d="M94.2799 173.265H83.8801L78.595 182.316L83.8801 191.368H94.2799L99.565 182.316L94.2799 173.265ZM92.916 189.489H85.244L81.1523 182.487L85.244 175.485H92.916L97.0077 182.487L92.916 189.489Z" fill="#4D4D4F"/>
<path d="M246.185 173.265H234.932V191.368H246.185L251.47 182.316L246.185 173.265ZM244.821 189.489H237.149V175.485H244.991L249.083 182.487L244.821 189.489Z" fill="#4D4D4F"/>
</svg>
