<svg width="290" height="290" viewBox="0 0 290 290" fill="none" xmlns="http://www.w3.org/2000/svg">
<rect width="290" height="290" fill="white"/>
<g clip-path="url(#clip0)">
<path d="M152.353 89.8945H139.026L126.14 127.148H138.143L139.385 122.796H151.995L153.236 127.148H165.239L152.353 89.8945ZM142.227 112.956L145.704 100.954L149.18 112.956H142.227Z" fill="#A81D42"/>
<path d="M58.3721 197.248L49.3493 172.662H40.0229L31 197.248H39.4158L40.2988 194.365H49.1009L49.9839 197.248H58.3721ZM47.1142 187.879H42.2579L44.6861 179.952L47.1142 187.879ZM71.1752 197.692C75.5901 197.692 78.9564 194.449 78.9564 188.323C78.9564 182.253 75.5901 179.619 71.1752 179.619C69.3265 179.619 67.6158 179.01 66.1809 180.7V179.425H59.5862V204.011H66.1809V196.583C67.6434 198.274 69.3265 197.692 71.1752 197.692ZM68.885 191.815C67.8641 191.788 66.8708 191.344 66.1809 190.596V186.687C66.8156 185.911 68.0572 184.858 68.885 184.858C69.768 184.886 70.6234 185.274 71.258 185.939C71.8927 186.577 72.2238 187.464 72.2238 188.351C72.2238 189.265 71.8651 190.125 71.258 190.762C70.6234 191.4 69.7956 191.788 68.885 191.815ZM87.731 197.248L93.4151 188.794V197.248H100.01V179.453H93.3599L88.0345 187.38V179.453H81.4398V197.248H87.731ZM112.454 197.692C116.483 197.692 118.994 195.807 119.987 194.338L115.71 190.263C115.379 190.734 114.938 191.15 114.413 191.4C113.889 191.677 113.31 191.815 112.73 191.815C111.82 191.815 110.937 191.455 110.274 190.79C109.612 190.125 109.253 189.238 109.253 188.323C109.253 187.408 109.612 186.521 110.274 185.856C110.937 185.191 111.82 184.83 112.73 184.83C113.31 184.803 113.889 184.941 114.413 185.191C114.938 185.468 115.379 185.856 115.71 186.327L119.959 182.308C118.966 180.784 116.483 178.954 112.427 178.954C106.798 178.954 102.493 182.641 102.493 188.295C102.493 194.005 106.825 197.692 112.454 197.692ZM132.211 197.248V185.191H136.874V179.425H120.87V185.191H125.616V197.248H132.211ZM147.994 197.692C154.313 197.692 157.982 193.312 157.982 188.323C157.982 183.334 154.313 178.982 147.994 178.982C141.73 178.982 138.06 183.334 138.06 188.323C138.06 193.284 141.703 197.692 147.994 197.692ZM147.994 191.815C145.98 191.815 144.848 190.291 144.848 188.323C144.848 186.355 145.98 184.858 147.994 184.858C150.036 184.858 151.195 186.383 151.195 188.323C151.195 190.319 150.036 191.815 147.994 191.815ZM179.505 197.248L173.021 187.547L179.119 179.425H171.144L167.061 185.773V179.425H160.466V197.22H167.061V193.201L168.357 191.483L171.393 197.22H179.505V197.248ZM192.501 197.082C196.916 197.082 200.282 194.449 200.282 188.323C200.282 182.253 196.916 179.619 192.501 179.619C190.652 179.619 188.942 179.01 187.507 180.7V179.425H180.912V204.011H187.507V195.973C188.969 197.664 190.652 197.082 192.501 197.082ZM190.239 191.815C189.218 191.788 188.224 191.344 187.534 190.596V186.05C187.893 185.69 188.307 185.385 188.776 185.163C189.245 184.941 189.742 184.83 190.266 184.83C191.149 184.858 192.004 185.246 192.639 185.911C193.274 186.549 193.605 187.436 193.605 188.323C193.605 189.21 193.246 190.097 192.639 190.734C191.977 191.4 191.122 191.788 190.239 191.815ZM219.597 197.248V186.466C219.597 180.534 215.293 178.982 210.906 178.982C208.229 178.982 204.918 179.758 202.545 181.671L204.78 185.773C206.187 184.692 207.926 184.082 209.692 184.027C211.844 184.027 213.003 184.997 213.003 186.244V186.854C212.037 185.634 209.967 186.133 207.65 186.133C205.001 186.133 201.552 187.38 201.552 191.815C201.552 195.862 205.001 197.692 207.65 197.692C209.857 197.692 212.009 197.414 213.003 196.167V197.248H219.597ZM210.381 193.368C209.278 193.368 208.064 193.035 208.064 191.926C208.064 190.818 209.278 190.457 210.381 190.457C211.402 190.457 212.534 190.79 212.975 191.427V192.425C212.561 193.035 211.402 193.368 210.381 193.368ZM233.339 197.248V185.191H238.002V179.425H221.998V185.191H226.744V197.248H233.339ZM246.721 197.248L252.405 188.794V197.248H259V179.453H252.323L246.997 187.38V179.453H240.402V197.248H246.721Z" fill="#010101"/>
<path d="M78.2114 217.038H76.0592V221.833H73.3827V208.723H78.239C79.7842 208.723 80.9707 209.055 81.7985 209.748C82.6263 210.441 83.0402 211.411 83.0402 212.686C83.0402 213.573 82.847 214.322 82.4607 214.932C82.0744 215.514 81.495 216.013 80.7224 216.345L83.5369 221.695V221.833H80.6672L78.2114 217.038ZM76.0868 214.848H78.2666C78.9289 214.848 79.4531 214.682 79.8394 214.322C80.1981 213.961 80.3913 213.49 80.3913 212.88C80.3913 212.271 80.2257 211.772 79.867 211.411C79.5083 211.051 78.984 210.885 78.2666 210.885H76.1144V214.848H76.0868Z" fill="#010101"/>
<path d="M90.5731 221.834C90.4627 221.612 90.38 221.307 90.3248 220.947C89.6901 221.64 88.8899 222 87.869 222C86.9309 222 86.1307 221.723 85.496 221.169C84.8614 220.614 84.5579 219.921 84.5579 219.09C84.5579 218.064 84.9442 217.261 85.6892 216.706C86.4618 216.152 87.5655 215.875 89.0003 215.875H90.1868V215.32C90.1868 214.877 90.0764 214.516 89.8281 214.239C89.6074 213.962 89.2487 213.823 88.752 213.823C88.3105 213.823 87.9794 213.934 87.731 214.128C87.4827 214.35 87.3723 214.627 87.3723 214.988H84.7786C84.7786 214.433 84.9442 213.907 85.3029 213.408C85.6616 212.936 86.1307 212.548 86.7653 212.271C87.3999 211.994 88.1173 211.855 88.8899 211.855C90.0764 211.855 91.0422 212.16 91.732 212.77C92.4494 213.38 92.7805 214.212 92.7805 215.32V219.533C92.7805 220.448 92.9185 221.169 93.1668 221.64V221.806H90.5731V221.834ZM88.4209 220.032C88.8072 220.032 89.1659 219.949 89.4694 219.783C89.8005 219.617 90.0213 219.367 90.1868 219.09V217.427H89.2211C87.9242 217.427 87.2344 217.87 87.1516 218.785V218.951C87.1516 219.284 87.262 219.533 87.4827 219.755C87.731 219.921 88.0346 220.032 88.4209 220.032Z" fill="#010101"/>
<path d="M94.3809 216.872C94.3809 215.348 94.712 214.156 95.4018 213.241C96.0916 212.354 97.0022 211.883 98.1887 211.883C99.1268 211.883 99.8994 212.243 100.534 212.936V207.975H103.128V221.806H100.782L100.644 220.78C100.01 221.584 99.1544 222 98.1611 222C97.0298 222 96.0916 221.557 95.4018 220.642C94.7396 219.755 94.3809 218.508 94.3809 216.872ZM96.9746 217.066C96.9746 217.981 97.1401 218.674 97.4437 219.173C97.7472 219.672 98.2163 219.893 98.8233 219.893C99.6235 219.893 100.175 219.561 100.506 218.868V215.015C100.175 214.35 99.6235 213.989 98.8233 213.989C97.6092 214.017 96.9746 215.043 96.9746 217.066Z" fill="#010101"/>
<path d="M107.874 221.833H105.28V212.076H107.874V221.833ZM105.115 209.554C105.115 209.165 105.252 208.833 105.501 208.583C105.777 208.334 106.108 208.195 106.577 208.195C107.018 208.195 107.377 208.334 107.625 208.583C107.901 208.833 108.012 209.165 108.012 209.554C108.012 209.942 107.874 210.274 107.598 210.524C107.322 210.773 106.991 210.912 106.549 210.912C106.108 210.912 105.749 210.773 105.501 210.524C105.252 210.274 105.115 209.969 105.115 209.554Z" fill="#010101"/>
<path d="M109.612 216.871C109.612 215.901 109.805 215.042 110.164 214.294C110.523 213.545 111.074 212.963 111.764 212.547C112.454 212.132 113.282 211.938 114.192 211.938C115.489 211.938 116.565 212.353 117.393 213.157C118.221 213.961 118.69 215.042 118.773 216.428L118.8 217.093C118.8 218.59 118.387 219.782 117.559 220.696C116.731 221.583 115.6 222.055 114.22 222.055C112.813 222.055 111.709 221.611 110.854 220.696C110.026 219.809 109.612 218.562 109.612 217.01V216.871ZM112.206 217.065C112.206 217.98 112.371 218.701 112.73 219.2C113.089 219.699 113.585 219.92 114.22 219.92C114.855 219.92 115.351 219.671 115.682 219.2C116.041 218.701 116.207 217.925 116.207 216.871C116.207 215.957 116.041 215.264 115.682 214.765C115.324 214.266 114.827 214.016 114.192 214.016C113.558 214.016 113.061 214.266 112.73 214.765C112.371 215.264 112.206 216.012 112.206 217.065Z" fill="#010101"/>
<path d="M124.623 218.286C124.623 217.677 124.788 217.122 125.119 216.596C125.45 216.069 126.085 215.515 126.996 214.877C126.609 214.35 126.306 213.852 126.085 213.408C125.864 212.937 125.754 212.466 125.754 211.967C125.754 210.941 126.085 210.11 126.72 209.472C127.354 208.835 128.237 208.502 129.313 208.502C130.279 208.502 131.079 208.807 131.714 209.389C132.349 209.971 132.652 210.692 132.652 211.579C132.652 212.632 132.128 213.547 131.079 214.35L130.086 215.071L132.349 217.704C132.707 217.011 132.873 216.235 132.873 215.404H135.08C135.08 217.122 134.694 218.48 133.894 219.534L135.853 221.807H132.9L132.238 221.031C131.272 221.668 130.169 221.973 128.927 221.973C127.63 221.973 126.609 221.64 125.837 220.947C125.009 220.31 124.623 219.423 124.623 218.286ZM129.01 219.922C129.644 219.922 130.224 219.756 130.776 219.395L128.21 216.402L128.016 216.54C127.492 216.984 127.216 217.538 127.216 218.148C127.216 218.675 127.382 219.09 127.713 219.423C128.044 219.756 128.458 219.922 129.01 219.922ZM128.044 211.939C128.044 212.383 128.32 212.965 128.844 213.63L129.534 213.159C129.893 212.937 130.141 212.715 130.252 212.493C130.389 212.272 130.445 212.022 130.445 211.717C130.445 211.412 130.334 211.163 130.114 210.941C129.893 210.719 129.617 210.609 129.258 210.609C128.899 210.609 128.596 210.719 128.375 210.969C128.154 211.246 128.044 211.551 128.044 211.939Z" fill="#010101"/>
<path d="M144.462 217.204V221.833H141.785V208.723H146.89C147.883 208.723 148.739 208.917 149.484 209.249C150.229 209.61 150.808 210.136 151.195 210.802C151.608 211.467 151.802 212.215 151.802 213.074C151.802 214.349 151.36 215.375 150.477 216.123C149.594 216.872 148.408 217.232 146.835 217.232H144.462V217.204ZM144.462 215.015H146.862C147.58 215.015 148.104 214.848 148.49 214.516C148.877 214.183 149.042 213.712 149.042 213.074C149.042 212.437 148.849 211.91 148.49 211.522C148.104 211.134 147.608 210.912 146.918 210.912H144.462V215.015Z" fill="#010101"/>
<path d="M152.905 216.871C152.905 215.901 153.099 215.042 153.457 214.294C153.816 213.545 154.368 212.963 155.058 212.547C155.747 212.132 156.575 211.938 157.486 211.938C158.783 211.938 159.859 212.353 160.687 213.157C161.514 213.961 161.983 215.042 162.066 216.428L162.094 217.093C162.094 218.59 161.68 219.782 160.852 220.696C160.024 221.583 158.893 222.055 157.513 222.055C156.106 222.055 155.002 221.611 154.147 220.696C153.319 219.809 152.905 218.562 152.905 217.01V216.871ZM155.499 217.065C155.499 217.98 155.665 218.701 156.023 219.2C156.382 219.699 156.879 219.92 157.513 219.92C158.148 219.92 158.645 219.671 158.976 219.2C159.335 218.701 159.5 217.925 159.5 216.871C159.5 215.957 159.335 215.264 158.976 214.765C158.617 214.266 158.12 214.016 157.486 214.016C156.851 214.016 156.355 214.266 156.023 214.765C155.665 215.264 155.499 216.012 155.499 217.065Z" fill="#010101"/>
<path d="M163.308 216.872C163.308 215.348 163.639 214.156 164.329 213.241C165.019 212.354 165.929 211.883 167.116 211.883C168.054 211.883 168.854 212.243 169.461 212.936V207.975H172.055V221.806H169.709L169.571 220.78C168.937 221.584 168.081 222 167.088 222C165.957 222 165.019 221.557 164.329 220.642C163.639 219.755 163.308 218.508 163.308 216.872ZM165.874 217.066C165.874 217.981 166.04 218.674 166.343 219.173C166.647 219.672 167.116 219.893 167.723 219.893C168.523 219.893 169.075 219.561 169.406 218.868V215.015C169.075 214.35 168.523 213.989 167.723 213.989C166.509 214.017 165.874 215.043 165.874 217.066Z" fill="#010101"/>
<path d="M178.07 219.921C178.539 219.921 178.926 219.782 179.229 219.533C179.533 219.255 179.671 218.923 179.698 218.479H182.126C182.126 219.145 181.933 219.754 181.602 220.309C181.243 220.863 180.774 221.279 180.14 221.584C179.533 221.889 178.843 222.027 178.125 222.027C176.746 222.027 175.642 221.584 174.842 220.697C174.042 219.81 173.628 218.59 173.628 217.01V216.844C173.628 215.347 174.014 214.155 174.814 213.241C175.614 212.354 176.69 211.91 178.098 211.91C179.312 211.91 180.278 212.27 181.023 212.963C181.768 213.656 182.126 214.571 182.154 215.735H179.726C179.726 215.236 179.56 214.821 179.257 214.516C178.953 214.211 178.567 214.044 178.07 214.044C177.463 214.044 177.022 214.266 176.69 214.71C176.387 215.153 176.221 215.874 176.221 216.844V217.121C176.221 218.119 176.387 218.84 176.69 219.283C176.994 219.699 177.463 219.921 178.07 219.921Z" fill="#010101"/>
<path d="M189.245 221.834C189.135 221.612 189.052 221.307 188.997 220.947C188.362 221.64 187.562 222 186.541 222C185.603 222 184.803 221.723 184.168 221.169C183.533 220.614 183.23 219.921 183.23 219.09C183.23 218.064 183.616 217.261 184.361 216.706C185.134 216.152 186.238 215.875 187.672 215.875H188.859V215.32C188.859 214.877 188.749 214.516 188.5 214.239C188.279 213.962 187.921 213.823 187.424 213.823C186.983 213.823 186.651 213.934 186.403 214.128C186.155 214.35 186.044 214.627 186.044 214.988H183.451C183.451 214.433 183.616 213.907 183.975 213.408C184.334 212.936 184.803 212.548 185.437 212.271C186.072 211.994 186.789 211.855 187.562 211.855C188.749 211.855 189.714 212.16 190.404 212.77C191.122 213.38 191.453 214.212 191.453 215.32V219.533C191.453 220.448 191.591 221.169 191.839 221.64V221.806H189.245V221.834ZM187.093 220.032C187.479 220.032 187.838 219.949 188.142 219.783C188.473 219.617 188.693 219.367 188.859 219.09V217.427H187.893C186.596 217.427 185.906 217.87 185.824 218.785V218.951C185.824 219.284 185.934 219.533 186.155 219.755C186.403 219.921 186.707 220.032 187.093 220.032Z" fill="#010101"/>
<path d="M198.71 219.145C198.71 218.84 198.544 218.591 198.24 218.397C197.937 218.203 197.44 218.036 196.723 217.898C194.405 217.399 193.274 216.429 193.274 214.932C193.274 214.073 193.632 213.352 194.35 212.77C195.067 212.188 196.005 211.883 197.164 211.883C198.406 211.883 199.372 212.188 200.117 212.77C200.862 213.352 201.221 214.1 201.221 215.043H198.627C198.627 214.682 198.516 214.377 198.268 214.128C198.02 213.879 197.661 213.768 197.137 213.768C196.695 213.768 196.364 213.879 196.116 214.073C195.867 214.267 195.757 214.516 195.757 214.821C195.757 215.098 195.895 215.348 196.171 215.514C196.447 215.68 196.916 215.847 197.551 215.985C198.185 216.124 198.737 216.262 199.179 216.429C200.558 216.928 201.221 217.815 201.221 219.062C201.221 219.949 200.834 220.67 200.089 221.224C199.317 221.778 198.351 222.055 197.137 222.055C196.337 222.055 195.592 221.917 194.957 221.612C194.322 221.307 193.826 220.919 193.467 220.42C193.108 219.921 192.943 219.367 192.943 218.785H195.398C195.426 219.256 195.592 219.589 195.923 219.838C196.226 220.087 196.668 220.198 197.192 220.198C197.689 220.198 198.075 220.115 198.323 219.921C198.599 219.699 198.71 219.45 198.71 219.145Z" fill="#010101"/>
<path d="M206.022 209.694V212.077H207.677V213.99H206.022V218.841C206.022 219.201 206.077 219.451 206.215 219.617C206.353 219.783 206.601 219.839 207.015 219.839C207.291 219.839 207.567 219.811 207.788 219.783V221.751C207.291 221.917 206.767 221.973 206.215 221.973C204.394 221.973 203.483 221.058 203.428 219.201V213.962H202.021V212.05H203.428V209.666H206.022V209.694Z" fill="#010101"/>
<path d="M214.382 219.145C214.382 218.84 214.217 218.591 213.913 218.397C213.61 218.203 213.113 218.036 212.396 217.898C210.078 217.399 208.946 216.429 208.946 214.932C208.946 214.073 209.305 213.352 210.023 212.77C210.74 212.188 211.678 211.883 212.837 211.883C214.079 211.883 215.045 212.188 215.79 212.77C216.535 213.352 216.893 214.1 216.893 215.043H214.299C214.299 214.682 214.189 214.377 213.941 214.128C213.692 213.879 213.334 213.768 212.809 213.768C212.368 213.768 212.037 213.879 211.789 214.073C211.54 214.267 211.43 214.516 211.43 214.821C211.43 215.098 211.568 215.348 211.844 215.514C212.12 215.68 212.589 215.847 213.223 215.985C213.858 216.124 214.41 216.262 214.851 216.429C216.231 216.928 216.893 217.815 216.893 219.062C216.893 219.949 216.507 220.67 215.762 221.224C214.989 221.778 214.024 222.055 212.809 222.055C212.009 222.055 211.264 221.917 210.63 221.612C209.995 221.307 209.498 220.919 209.14 220.42C208.781 219.921 208.588 219.367 208.588 218.785H211.044C211.071 219.256 211.237 219.589 211.568 219.838C211.871 220.087 212.313 220.198 212.837 220.198C213.334 220.198 213.72 220.115 213.968 219.921C214.244 219.699 214.382 219.45 214.382 219.145Z" fill="#010101"/>
<path d="M145.704 154.423C132.376 154.423 119.959 148.409 111.654 137.903L117.89 132.914C124.678 141.479 134.832 146.413 145.704 146.413C156.354 146.413 166.343 141.673 173.131 133.441L179.284 138.541C170.979 148.63 158.727 154.423 145.704 154.423Z" fill="#A81D42"/>
<path d="M118.056 88.2598L111.847 83.2151C120.18 72.904 132.514 67 145.704 67C158.396 67 170.427 72.5436 178.705 82.2173L172.662 87.456C165.902 79.5563 156.079 75.0383 145.704 75.0383C134.942 75.0106 124.871 79.8335 118.056 88.2598Z" fill="#A81D42"/>
</g>
<defs>
<clipPath id="clip0">
<rect width="228" height="155" fill="white" transform="translate(31 67)"/>
</clipPath>
</defs>
</svg>
