<svg width="290" height="290" viewBox="0 0 290 290" fill="none" xmlns="http://www.w3.org/2000/svg">
<rect width="290" height="290" fill="white"/>
<g clip-path="url(#clip0)">
<path d="M80.8 204.1H76V225.9H80.7C82 225.9 82.6 225.3 82.6 224V215C82.6 214 82.2 214 82 214V213.9V213.8C82.2 213.8 82.6 213.7 82.6 213V206.1C82.6 204.8 82 204.1 80.8 204.1ZM80.8 224.1H77.8V214.9H80.8V224.1ZM80.8 213.1H77.8V206H80.8V213.1Z" fill="#0A0505"/>
<path d="M87 225.9H92.3V224.1H88.8V214.9H92.3V213.1H88.8V206H92.3V204.1H87V225.9Z" fill="#0A0505"/>
<path d="M96.6 225.9H101.9V224.1H98.5V214.9H101.9V213.1H98.5V206H101.9V204.1H96.6V225.9Z" fill="#0A0505"/>
<path d="M111 204.1H106.2V225.9H108V214.9H111V225.9H112.8V215C112.8 214 112.4 214 112.2 214V213.9V213.8C112.4 213.8 112.8 213.7 112.8 213V206.1C112.9 204.8 112.3 204.1 111 204.1ZM111.1 213.1H108.1V206H111.1V213.1Z" fill="#0A0505"/>
<path d="M135.1 224.1H132.1V204.1H130.3V224.1H127.3V204.1H125.5V224C125.5 225.3 126.1 225.9 127.4 225.9H130.2C130.9 225.9 131.2 225.6 131.2 225.1H131.3H131.4C131.4 225.2 131.5 225.4 131.7 225.6C131.9 225.8 132.1 225.9 132.2 225.9H135C136.2 225.9 136.8 225.3 136.8 224V204.1H135V224.1H135.1Z" fill="#0A0505"/>
<path d="M146 204.1H143.1C141.9 204.1 141.2 204.7 141.2 206V224C141.2 225.3 141.8 225.9 143.1 225.9H145.8C147.1 225.9 147.8 225.3 147.8 224V206.1C147.9 204.8 147.3 204.1 146 204.1ZM146.1 224.1H143.1V206H146.1V224.1Z" fill="#0A0505"/>
<path d="M157.1 204.1H152.3V225.9H154.1V214.9H157.1V225.9H158.9V215C158.9 214 158.5 214 158.3 214V213.9V213.8C158.5 213.8 158.9 213.7 158.9 213V206.1C158.9 204.8 158.3 204.1 157.1 204.1ZM157.1 213.1H154.1V206H157.1V213.1Z" fill="#0A0505"/>
<path d="M169.9 204.1H168.1L165.1 216.1V204.1H163.3V225.9H165.1V216.3L168.1 225.9H169.9L166.7 216H166.8L169.9 204.1Z" fill="#0A0505"/>
<path d="M179 204.1H176.1C174.9 204.1 174.3 204.7 174.3 206V212.9C174.3 214.2 174.9 214.9 176.2 214.9H179.1V224.1H176.1V217.9H174.3V224C174.3 225.3 174.9 225.9 176.2 225.9H178.9C180.2 225.9 180.8 225.3 180.8 224V215C180.8 213.7 180.2 213.1 178.9 213.1H176V206H179V209.4H180.8V206.1C180.9 204.8 180.3 204.1 179 204.1Z" fill="#0A0505"/>
<path d="M190.1 213.1H187.1V204.1H185.3V225.9H187.1V214.9H190.1V225.9H191.9V204.1H190.1V213.1Z" fill="#0A0505"/>
<path d="M201.1 204.1H198.2C197 204.1 196.3 204.7 196.3 206V224C196.3 225.3 196.9 225.9 198.2 225.9H200.9C202.2 225.9 202.8 225.3 202.8 224V206.1C202.9 204.8 202.3 204.1 201.1 204.1ZM201.1 224.1H198.1V206H201.1V224.1Z" fill="#0A0505"/>
<path d="M212.1 204.1H207.3V225.9H209.1V214.9H212C213.3 214.9 213.9 214.3 213.9 212.9V206C213.9 204.8 213.3 204.1 212.1 204.1ZM212.1 213.1H209.1V206H212.1V213.1Z" fill="#0A0505"/>
<path d="M76.3 37V194.2H213.7V37H76.3ZM169.4 47.3H181.6V51.9H174V67.1H181.6V71.7H174V91.4H181.6V96H169.4V47.3ZM149.1 47.3H159.9C162.8 47.3 164.3 48.8 164.3 51.9V67.1C164.3 70.1 162.8 71.7 159.7 71.7H153.7V96H149.1V47.3ZM88 51.9C88 48.9 89.5 47.3 92.4 47.3H98.8C101.7 47.3 103.2 48.8 103.2 51.9V59.5H98.6V51.9H92.6V91.4H98.6V77.7H103.2V91.3C103.2 94.4 101.7 95.9 98.6 95.9H92.6C89.6 95.9 88 94.4 88 91.3V51.9ZM111.6 183.3H104.5V145.6H95.1V183.3H88V107.7H95.1V138.5H104.5V107.7H111.6V183.3ZM112.9 95.9C109.9 95.9 108.3 94.4 108.3 91.3V51.9C108.3 48.9 109.8 47.3 112.7 47.3H119.1C122 47.3 123.5 48.8 123.5 51.9V91.4C123.5 94.5 122 96 118.9 96H112.9V95.9ZM138.6 114.8H126.8V138.5H138.6V145.6H126.8V176.2H138.6V183.3H119.7V107.7H138.6V114.8ZM143.6 67.1C143.6 70.1 142.1 71.7 139 71.7H133V96H128.4V47.3H139.2C142.1 47.3 143.6 48.8 143.6 51.9V67.1ZM170.2 183.3H163.1V145.6H153.7V183.3H146.6V114.8C146.6 110.1 148.9 107.7 153.4 107.7H163.4C167.9 107.7 170.2 110.1 170.2 114.8V183.3ZM201.9 176.2C201.9 180.9 199.5 183.3 194.8 183.3H178.3V107.7H195.1C199.6 107.7 201.9 110.1 201.9 114.8V176.2ZM201.9 67.1C201.9 68.5 201.4 69.2 200.4 69.2C201.4 69.2 201.9 70 201.9 71.7V96H197.3V71.7H191.3V96H186.7V47.3H197.5C200.4 47.3 201.9 48.8 201.9 51.9V67.1Z" fill="#0A0505"/>
<path d="M159.6 51.9004H153.6V67.1004H159.6V51.9004Z" fill="#0A0505"/>
<path d="M139 51.9004H133V67.1004H139V51.9004Z" fill="#0A0505"/>
<path d="M197.3 51.9004H191.3V67.1004H197.3V51.9004Z" fill="#0A0505"/>
<path d="M118.9 51.9004H112.9V91.4004H118.9V51.9004Z" fill="#0A0505"/>
<path d="M118.9 91.4004H112.9V51.9004H118.9V91.4004Z" fill="#0A0505"/>
<path d="M118.9 91.4004H112.9V51.9004H118.9V91.4004Z" fill="#0A0505"/>
<path d="M139 67.1004H133V51.9004H139V67.1004Z" fill="#0A0505"/>
<path d="M139 67.1004H133V51.9004H139V67.1004Z" fill="#0A0505"/>
<path d="M163.2 114.801H153.8V138.501H163.2V114.801Z" fill="#0A0505"/>
<path d="M194.8 114.801H185.4V176.201H194.8V114.801Z" fill="#0A0505"/>
<path d="M76.9 237.1H78.4V251.7H76.9V237.1Z" fill="#0A0505"/>
<path d="M79.6 237.1H81.1L82.2 249.3H82.3L83.4 237.1H84.9L83.3 251.7H81.3L79.6 237.1Z" fill="#0A0505"/>
<path d="M86.9001 237.1H88.9001L90.5001 251.7H89.1001L88.8001 248.9H86.9001L86.6001 251.7H85.2001L86.9001 237.1ZM88.7001 247.7L87.9001 239.5H87.8001L87.0001 247.7H88.7001Z" fill="#0A0505"/>
<path d="M91.8 237.1H93.3L95.4 246.7V237.1H96.9V251.7H95.4L93.3 242.1V251.7H91.8V237.1Z" fill="#0A0505"/>
<path d="M98.5 238.499C98.5 237.799 99.2 237.199 99.8 237.199H101.7C102.3 237.199 102.9 237.899 102.9 238.499V250.399C102.9 251.099 102.3 251.699 101.7 251.699H99.8C99.1 251.699 98.5 250.999 98.5 250.399V238.499ZM101.2 250.599C101.3 250.599 101.5 250.499 101.5 250.299V238.399C101.5 238.299 101.4 238.099 101.2 238.099H100.3C100.1 238.099 100 238.199 100 238.399V250.299C100 250.399 100.1 250.599 100.3 250.599H101.2Z" fill="#0A0505"/>
<path d="M104.3 244.799H108.7V245.999H104.3V244.799Z" fill="#0A0505"/>
<path d="M110 237.1H113.9V238.4H111.6V243.2H113.5V244.4H111.6V251.7H110V237.1Z" fill="#0A0505"/>
<path d="M115.1 237.1H118.2C118.9 237.1 119.5 237.8 119.5 238.5V243.7C119.5 244 119.2 244.4 118.8 244.6C119.2 244.8 119.5 245.1 119.5 245.5V251.7H118V245.4C118 245.3 117.9 245.1 117.7 245.1H116.5V251.7H115V237.1H115.1ZM117.8 244.1C117.9 244.1 118.1 243.9 118.1 243.8V238.5C118.1 238.4 118 238.2 117.8 238.2H116.6V244.1H117.8Z" fill="#0A0505"/>
<path d="M122.5 237.1H124.5L126.1 251.7H124.7L124.4 248.9H122.5L122.2 251.7H120.8L122.5 237.1ZM124.3 247.7L123.5 239.5H123.4L122.6 247.7H124.3Z" fill="#0A0505"/>
<path d="M127.4 237.1H128.9L131 246.7V237.1H132.5V251.7H131L128.9 242.1V251.7H127.4V237.1Z" fill="#0A0505"/>
<path d="M134.2 237.1H135.7V243.3L137.9 237.1H139.5L137.3 243.2L139.3 251.7H137.8L136.2 245.2L135.7 246.4V251.7H134.2V237.1Z" fill="#0A0505"/>
<path d="M140.6 237.1H142.1V251.7H140.6V237.1Z" fill="#0A0505"/>
<path d="M143.4 237.1H144.9L146 249.3L147.1 237.1H148.6L147 251.7H145L143.4 237.1Z" fill="#0A0505"/>
<path d="M149.9 246.5H151.4V250.3C151.4 250.4 151.5 250.6 151.7 250.6H152.6C152.7 250.6 152.8 250.5 152.8 250.4V246C152.8 245.8 152.7 245.6 152.6 245.5L150.9 244.4C150.2 244 149.9 243.3 149.9 242.5V239C149.9 237.9 150.6 237.1 151.7 237.1H152.7C153.8 237.1 154.4 237.9 154.4 238.7V242.2H152.9V238.5C152.9 238.4 152.8 238.2 152.6 238.2H151.7C151.5 238.2 151.4 238.3 151.4 238.5V242.6C151.4 242.8 151.5 243 151.7 243.1L153.3 244.2C153.9 244.6 154.4 245.1 154.4 246.1V249.8C154.4 250.8 153.7 251.6 152.6 251.6H151.6C150.5 251.6 149.9 250.8 149.9 250V246.5Z" fill="#0A0505"/>
<path d="M156 237.1H157.5V243.3L159.7 237.1H161.3L159.1 243.2L161.1 251.7H159.6L158 245.2L157.5 246.4V251.7H156V237.1Z" fill="#0A0505"/>
<path d="M162.9 251.699H162.3V250.199H163.7V251.699L163 253.499H162.3L162.9 251.699Z" fill="#0A0505"/>
<path d="M167.5 237.1H169.3L171 246.8L172.7 237.1H174.5V251.7H173V242.3H172.9L172.2 246.1L171.5 251.6H170.5L169.8 246L169.1 242.1V251.5H167.6V237.1H167.5Z" fill="#0A0505"/>
<path d="M177.4 237.1H179.4L181 251.7H179.6L179.3 248.9H177.4L177.1 251.7H175.7L177.4 237.1ZM179.2 247.7L178.4 239.5H178.3L177.5 247.7H179.2Z" fill="#0A0505"/>
<path d="M184.4 238.4H182.1V237.1H186.2L183.9 250.4H186.2V251.7H182.2L184.4 238.4Z" fill="#0A0505"/>
<path d="M187.6 237.1H191.5V238.4H189.2V243.2H191.1V244.4H189.2V250.4H191.5V251.7H187.6V237.1Z" fill="#0A0505"/>
<path d="M193 237.1H196.1C196.8 237.1 197.4 237.8 197.4 238.5V244.7C197.4 245.4 196.8 246.1 196.1 246.1H194.4V251.6H193V237.1ZM195.7 245.1C195.8 245.1 196 245 196 244.8V238.5C196 238.4 195.9 238.2 195.7 238.2H194.5V245.1H195.7Z" fill="#0A0505"/>
<path d="M200.6 246L198.5 237.1H200L200.9 241.2L201.4 244H201.5L202.1 241.2L202.9 237.1H204.3L202.2 246V251.7H200.7V246H200.6Z" fill="#0A0505"/>
<path d="M204.4 251.699H203.8V250.199H205.2V251.699L204.5 253.499H203.8L204.4 251.699Z" fill="#0A0505"/>
<path d="M208.9 238.499C208.9 237.799 209.5 237.199 210.2 237.199H211.8C212.4 237.199 213 237.899 213 238.499V240.499H211.6V238.299C211.6 238.199 211.5 238.099 211.4 238.099H210.5C210.4 238.099 210.3 238.199 210.3 238.299V242.099C210.6 241.799 211.2 241.499 211.7 241.499H211.8C212.5 241.499 213 242.099 213 242.699V250.299C213 250.999 212.4 251.599 211.8 251.599H210.1C209.5 251.599 208.9 250.899 208.9 250.299V238.499ZM211.4 250.699C211.5 250.699 211.6 250.599 211.6 250.499V242.799C211.6 242.699 211.5 242.599 211.4 242.599H210.5C210.4 242.599 210.3 242.699 210.3 242.799V250.499C210.3 250.599 210.4 250.699 210.5 250.699H211.4Z" fill="#0A0505"/>
</g>
<defs>
<clipPath id="clip0">
<rect width="137.9" height="216.4" fill="white" transform="translate(76 37)"/>
</clipPath>
</defs>
</svg>
