<svg width="290" height="290" viewBox="0 0 290 290" fill="none" xmlns="http://www.w3.org/2000/svg">
<rect width="290" height="290" fill="white"/>
<g clip-path="url(#clip0)">
<path d="M60.1606 70.5108C51.2731 72.0635 39 80.9063 39 97.1245C39 122.28 59.5546 129.57 72.2894 130.801C91.132 132.581 103.174 119.639 103.174 104.736C103.126 68.4185 69.048 69.0055 60.1606 70.5108ZM70.712 117.272C60.0644 116.543 54.0433 112.216 54.0433 98.6298C54.0433 91.6995 56.496 87.1929 65.3449 85.0911C74.1843 82.9987 88.5831 86.142 88.5831 102.275C88.5446 109.073 83.3507 118.133 70.712 117.272Z" fill="#FFCD2F"/>
<path d="M127.057 220.811L135.896 186.311L139.138 186.538C139.138 186.538 144.976 220.811 144.928 220.811H141.456C141.456 220.811 136.733 192.739 136.733 192.786H136.502C136.502 192.786 132.616 212.706 129.788 220.811H127.057Z" fill="#1A1A1A"/>
<path d="M143.591 217.487L143.177 220.81H128.355V217.487H143.591Z" fill="#1A1A1A"/>
<path d="M183.729 111.524L184.7 89.6064H181.18L179.698 125.016L185.114 124.968C185.114 124.968 192.433 124.334 192.433 118.038C192.385 113.484 186.922 111.713 183.729 111.524ZM183.267 122.374L183.681 114.175C185.489 114.08 188.865 114.128 188.865 118.417C188.875 121.465 184.931 122.469 183.267 122.374Z" fill="#1A1A1A"/>
<path d="M172.802 98.8094L176.178 98.4023C176.178 98.4023 177.477 89.105 170.811 89.3322C164.146 89.5594 162.058 98.4023 162.106 107.605C162.154 116.807 162.982 125.65 169.974 125.47C176.967 125.29 175.486 116.268 175.486 116.268L171.965 116.637C171.965 116.637 173.398 121.967 170.205 121.967C166.406 121.967 165.252 117.271 165.579 107.842C165.906 98.2697 166.319 92.7122 170.811 92.7122C173.312 92.7027 172.802 98.8094 172.802 98.8094Z" fill="#1A1A1A"/>
<path d="M96.6433 116.088C94.9793 111.44 90.5356 111.392 87.9386 112.036L88.2176 104.746C97.8456 103.695 98.4516 90.4404 98.4516 90.4404H94.9313C94.9313 100.467 89.9297 102.019 88.3522 102.019L88.6793 90.4404H85.0724L84.1009 125.035H87.7559L87.9867 114.602C95.5757 112.14 94.7485 124.95 94.7485 124.95H98.1727C98.1727 125.016 98.7305 121.873 96.6433 116.088Z" fill="#1A1A1A"/>
<path d="M78.7723 164.307C77.1083 159.658 72.6646 159.611 70.0676 160.255L70.3465 152.965C80.6286 151.829 80.9941 138.157 80.9941 138.157H77.4738C77.4738 148.184 72.0586 150.238 70.4812 150.238L70.8082 138.205H67.2013L66.2202 173.282H69.8752L70.1061 162.849C77.695 160.387 76.8678 173.197 76.8678 173.197H80.292C80.2535 173.235 80.8114 170.092 78.7723 164.307Z" fill="#1A1A1A"/>
<path d="M207.255 116.088C205.591 111.44 201.148 111.392 198.551 112.036L198.83 104.746C208.458 103.695 209.064 90.4404 209.064 90.4404H205.543C205.543 100.467 200.542 102.019 198.964 102.019L199.291 90.4404H195.684L194.713 125.035H198.368L198.599 114.602C206.188 112.14 205.361 124.95 205.361 124.95H208.785C208.775 125.016 209.333 121.873 207.255 116.088Z" fill="#1A1A1A"/>
<path d="M104.146 125.206H100.856L101.876 90.9805H105.348L104.146 125.206Z" fill="#1A1A1A"/>
<path d="M104.194 104.964C104.194 104.964 115.072 105.144 115.072 97.2191C115.072 92.3906 109.147 91.1125 105.261 90.7432C103.319 90.6107 101.885 90.6486 101.885 90.6486L101.837 93.3374L105.127 93.2427C105.127 93.2427 111.658 92.3338 111.658 97.2949C111.658 100.258 108.551 102.218 104.338 102.218L104.194 104.964Z" fill="#1A1A1A"/>
<path d="M173.081 173.103H169.792L170.811 138.877L174.235 138.83L173.081 173.103Z" fill="#1A1A1A"/>
<path d="M173.129 152.861C173.129 152.861 184.008 153.041 184.008 145.117C184.008 140.288 178.083 139.01 174.197 138.641C172.254 138.508 170.821 138.546 170.821 138.546L170.773 141.235L174.062 141.14C174.062 141.14 180.593 140.231 180.593 145.192C180.593 148.156 177.486 150.116 173.274 150.116L173.129 152.861Z" fill="#1A1A1A"/>
<path d="M135.761 124.969H132.251L133.636 90.4307L137.204 90.478L135.761 124.969Z" fill="#1A1A1A"/>
<path d="M139.051 80.9915C137.666 81.3607 136.454 82.2696 136.454 84.2768C136.454 87.3727 139.003 88.1964 140.532 88.4236C141.09 88.5183 141.225 88.471 141.225 88.471C141.504 88.4236 141.735 88.4236 142.013 88.3384C143.264 87.9313 144.283 87.0603 144.283 85.2425C144.332 80.7169 139.051 80.9915 139.051 80.9915ZM141.042 85.962C140.994 85.962 140.946 86.0094 140.907 86.0094C140.773 86.0567 140.628 86.0567 140.494 86.0567C139.57 86.0094 138.916 85.7348 138.916 84.504C138.916 83.9075 139.291 83.4531 139.792 83.3679C141.042 83.3679 141.917 83.5004 141.917 84.9206C141.879 85.5076 141.456 85.8295 141.042 85.962Z" fill="#1A1A1A"/>
<path d="M129.009 80.9915C127.624 81.3607 126.412 82.2696 126.412 84.2768C126.412 87.3727 128.961 88.1964 130.491 88.4236C131.048 88.5183 131.183 88.471 131.183 88.471C131.462 88.4236 131.693 88.4236 131.972 88.3384C133.222 87.9313 134.242 87.0603 134.242 85.2425C134.28 80.7169 129.009 80.9915 129.009 80.9915ZM131 85.962C130.952 85.962 130.904 86.0094 130.866 86.0094C130.731 86.0567 130.587 86.0567 130.452 86.0567C129.529 86.0094 128.875 85.7348 128.875 84.504C128.875 83.9075 129.25 83.4531 129.75 83.3679C131 83.3679 131.876 83.5004 131.876 84.9206C131.876 85.5076 131.462 85.8295 131 85.962Z" fill="#1A1A1A"/>
<path d="M71.645 116.315C69.654 116.817 67.8938 118.143 67.8938 121.011C67.8938 125.433 71.5488 126.616 73.7707 126.938C74.5594 127.033 74.7421 127.033 74.7902 127.033C75.1653 126.938 75.5308 126.938 75.906 126.853C77.6661 126.256 79.1955 124.988 79.1955 122.384C79.1858 115.946 71.645 116.315 71.645 116.315ZM74.6075 123.785C74.5113 123.833 74.4728 123.833 74.3766 123.88C74.1458 123.927 73.8669 123.927 73.6841 123.927C72.1548 123.833 71.0871 123.378 71.0871 121.371C71.0871 120.368 71.7316 119.639 72.5203 119.506C74.5594 119.506 76.0406 119.733 76.0406 122.062C76.0406 123.009 75.3481 123.511 74.6075 123.785Z" fill="#1A1A1A"/>
<path d="M77.3776 90.4307L77.5604 98.8664C77.5604 101.461 77.5123 103.193 77.3295 105.106C77.0506 108.429 76.637 112.31 73.5783 112.31C70.5197 112.31 70.1061 107.482 69.779 105.106C69.6444 104.149 69.452 102.739 69.452 98.7717C69.452 94.8047 69.779 90.4307 69.779 90.4307H66.3164C66.3164 90.4307 66.0375 95.761 66.0375 98.7243C66.0375 101.64 66.2202 103.695 66.3164 105.058C66.8262 111.392 68.2593 114.905 73.636 114.905C78.5414 114.905 80.3497 111.487 80.9076 105.011C81.0903 102.824 81.0903 101.224 81.0903 98.8096L80.8595 90.4685L77.3776 90.4307Z" fill="#1A1A1A"/>
<path d="M90.6703 164.079C88.6793 164.581 86.9191 165.906 86.9191 168.775C86.9191 173.196 90.5741 174.38 92.796 174.702C93.5847 174.796 93.7675 174.796 93.8155 174.796C94.1907 174.702 94.5562 174.702 94.9313 174.617C96.6915 174.02 98.2208 172.751 98.2208 170.148C98.2593 163.71 90.6703 164.079 90.6703 164.079ZM93.6328 171.549C93.5366 171.596 93.4981 171.596 93.4019 171.644C93.1711 171.691 92.8922 171.691 92.7094 171.691C91.1801 171.596 90.1124 171.142 90.1124 169.135C90.1124 168.131 90.7569 167.402 91.5456 167.27C93.5847 167.27 95.0659 167.497 95.0659 169.826C95.0659 170.773 94.4215 171.275 93.6328 171.549Z" fill="#1A1A1A"/>
<path d="M96.4125 138.186L96.5953 146.621C96.5953 149.215 96.5472 150.948 96.3644 152.86C96.0855 156.184 95.6719 160.065 92.6132 160.065C89.5546 160.065 89.141 155.237 88.8139 152.86C88.6793 151.904 88.4869 150.494 88.4869 146.527C88.4869 142.607 88.8139 138.186 88.8139 138.186H85.3417C85.3417 138.186 85.0627 143.516 85.0627 146.479C85.0627 149.395 85.2455 151.45 85.3417 152.813C85.8515 159.147 87.2846 162.659 92.6613 162.659C97.5667 162.659 99.375 159.242 99.9329 152.766C100.116 150.579 100.116 148.979 100.116 146.564L99.8848 138.223L96.4125 138.186Z" fill="#1A1A1A"/>
<path d="M156.643 164.344C154.652 164.846 152.892 166.172 152.892 169.04C152.892 173.462 156.547 174.645 158.769 174.967C159.558 175.062 159.74 175.062 159.788 175.062C160.163 174.967 160.529 174.967 160.904 174.882C162.664 174.286 164.194 173.017 164.194 170.413C164.242 163.985 156.643 164.344 156.643 164.344ZM159.654 171.777C159.558 171.824 159.519 171.824 159.423 171.871C159.192 171.919 158.913 171.919 158.73 171.919C157.201 171.824 156.133 171.37 156.133 169.362C156.133 168.359 156.778 167.63 157.566 167.497C159.606 167.497 161.087 167.724 161.087 170.054C161.048 171.048 160.394 171.502 159.654 171.777Z" fill="#1A1A1A"/>
<path d="M162.433 138.46L162.616 146.896C162.616 149.49 162.568 151.222 162.385 153.135C162.106 156.458 161.693 160.34 158.634 160.34C155.575 160.34 155.162 155.511 154.835 153.135C154.7 152.179 154.508 150.768 154.508 146.801C154.508 142.834 154.835 138.46 154.835 138.46H151.363C151.363 138.46 151.084 143.79 151.084 146.754C151.084 149.67 151.266 151.724 151.363 153.088C151.872 159.421 153.306 162.934 158.682 162.934C163.588 162.934 165.396 159.516 165.954 153.04C166.137 150.853 166.137 149.253 166.137 146.839L165.906 138.498L162.433 138.46Z" fill="#1A1A1A"/>
<path d="M226.646 90.4775L216.739 117.318L217.807 90.4775H214.335L213.132 124.968H216.691L226.877 96.5842L226.185 124.968H229.609L230.118 90.4775H226.646Z" fill="#1A1A1A"/>
<path d="M220.125 138.649L210.218 165.442L211.276 138.602H207.852L206.601 173.14H210.17L220.404 144.756L219.702 173.102L223.087 173.14L223.597 138.649H220.125Z" fill="#1A1A1A"/>
<path d="M124.286 138.507L120.996 138.28L119.563 172.506L122.987 172.78L124.286 138.507Z" fill="#1A1A1A"/>
<path d="M122.844 158.702C122.844 158.702 133.722 159.299 133.126 167.176C132.751 172.004 126.787 172.875 122.892 172.923C120.949 172.97 119.516 172.79 119.516 172.79L119.651 170.101L122.94 170.423C122.94 170.423 129.375 171.786 129.75 166.825C129.981 163.862 126.97 161.675 122.805 161.4L122.844 158.702Z" fill="#1A1A1A"/>
<path d="M141.138 172.913H137.945L138.772 138.46H142.013L141.138 172.913Z" fill="#1A1A1A"/>
<path d="M132.712 138.46L147.477 138.186V140.836L132.664 141.064L132.712 138.46Z" fill="#1A1A1A"/>
<path d="M103.915 202.405C103.915 200.123 103.819 198.391 103.684 197.075V196.706C103.684 196.526 103.636 196.298 103.636 196.109C103.126 189.823 101.693 186.357 96.4125 186.357C91.5552 186.357 89.7469 189.728 89.189 196.156C89.0063 198.343 89.0063 199.896 89.0063 202.31V203.134C89.0063 203.768 89.0063 204.365 89.0063 204.867C89.0063 207.148 89.1025 208.881 89.2371 210.197V210.566C89.2371 210.746 89.2852 210.973 89.2852 211.163C89.795 217.449 91.2281 220.914 96.5087 220.914C101.366 220.914 103.174 217.544 103.732 211.115C103.915 208.928 103.915 207.376 103.915 204.961V204.138C103.915 203.494 103.915 202.907 103.915 202.405ZM96.4606 217.487C93.45 217.487 92.9883 213.568 92.7094 211.201C92.7094 211.106 92.4785 207.234 92.4785 203.409C92.4785 199.764 92.6613 196.204 92.6613 196.119C92.9402 192.833 93.3538 189.832 96.3644 189.832C99.375 189.832 99.8366 193.752 100.116 196.119C100.116 196.213 100.346 199.906 100.346 203.589C100.346 207.328 100.164 211.106 100.164 211.201C99.8847 214.476 99.4711 217.487 96.4606 217.487Z" fill="#1A1A1A"/>
<path d="M117.611 111.392L125.258 110.758L125.672 113.305L117.342 113.674L117.611 111.392Z" fill="#1A1A1A"/>
<path d="M128.961 125.205L124.287 90.5156L120.67 90.2031L113.87 125.158H116.832L121.824 97.5406L122.151 97.4932L125.21 125.063L128.961 125.205Z" fill="#1A1A1A"/>
<path d="M76.5985 221H73.2128L73.6745 186.405H77.1948L76.5985 221Z" fill="#1A1A1A"/>
<path d="M68.5382 203.911C68.5382 202.084 67.7014 188.876 75.2038 191.148L75.1557 188.554C72.5587 187.958 68.6248 188.185 66.5857 192.654C64.8736 196.394 64.9217 201.497 64.9217 203.958C64.9217 206.42 64.9698 210.841 66.5857 214.392C68.6248 218.86 72.5587 219.088 75.1557 218.491L75.2038 215.897C68.0285 218.037 68.5382 205.729 68.5382 203.911Z" fill="#1A1A1A"/>
<path d="M81.8694 203.911C81.8694 202.084 82.7062 188.876 75.2038 191.148L75.2519 188.554C77.8489 187.958 81.7828 188.185 83.8219 192.654C85.534 196.394 85.4859 201.497 85.4859 203.958C85.4859 206.42 85.4378 210.841 83.8219 214.392C81.7828 218.86 77.8489 219.088 75.2519 218.491L75.2038 215.897C82.3792 218.037 81.8694 205.729 81.8694 203.911Z" fill="#1A1A1A"/>
<path d="M116.13 173.188L111.504 138.053L107.897 137.731L101.087 173.188H104.05L108.907 144.756L109.234 144.709L112.427 173.188H116.13Z" fill="#1A1A1A"/>
<path d="M155.441 90.4302L154.7 110.757L146.14 104.736L146.505 90.3828H142.937L142.013 125.205H145.534L145.996 108.608L154.421 114.715L154.008 125.205H157.576L158.913 90.4775L155.441 90.4302Z" fill="#1A1A1A"/>
<path d="M120.814 185.629L120.074 205.956L111.552 199.944L111.879 185.591H108.31L107.387 220.403H110.898L111.369 203.816L119.795 209.923L119.372 220.403H122.94L124.287 185.676L120.814 185.629Z" fill="#1A1A1A"/>
<path d="M199.291 138.602L198.551 158.967L190.029 152.955L190.356 138.602H186.835L185.864 173.367H189.375L189.846 156.827L198.32 162.886L197.897 173.367H201.417L202.802 138.687L199.291 138.602Z" fill="#1A1A1A"/>
<path d="M247.528 90.4775L237.621 117.318L238.688 90.4775H235.264L234.014 124.968H237.573L247.807 96.5842L247.114 124.968H250.49L251 90.4775H247.528Z" fill="#1A1A1A"/>
<path d="M245.45 83.7273C245.354 85.28 245.075 86.7854 243.325 86.7854C241.237 86.7854 240.92 85.3274 240.872 83.6895L238.554 83.964C238.785 87.1073 240.083 89.247 243.325 89.247C247.028 89.247 247.768 86.4635 247.913 84.0019L245.45 83.7273Z" fill="#1A1A1A"/>
<path d="M240.862 138.649L230.955 165.49L232.071 138.649H228.599L227.348 173.14H230.955L241.141 144.756L240.449 173.102L243.825 173.14L244.335 138.649H240.862Z" fill="#1A1A1A"/>
<path d="M238.823 131.852C238.727 133.405 238.448 134.91 236.698 134.91C234.61 134.91 234.293 133.452 234.245 131.814L231.927 132.089C232.158 135.232 233.456 137.372 236.698 137.372C240.401 137.372 241.141 134.588 241.285 132.127L238.823 131.852Z" fill="#1A1A1A"/>
<path d="M209.612 198.571L169.195 197.805L168.224 186.131L212.161 188.46L209.612 198.571Z" fill="#A3D1D9"/>
<path d="M200.628 217.582L160.26 216.806L159.288 205.18L203.177 207.461L200.628 217.582Z" fill="#A3D1D9"/>
</g>
<defs>
<clipPath id="clip0">
<rect width="212" height="151" fill="white" transform="translate(39 70)"/>
</clipPath>
</defs>
</svg>
