<svg width="290" height="290" viewBox="0 0 290 290" fill="none" xmlns="http://www.w3.org/2000/svg">
<rect width="290" height="290" fill="white"/>
<path d="M40.5504 148.485L43.6558 149.281C42.9971 151.807 41.8208 153.725 40.174 155.035C38.4801 156.345 36.4569 157 34.0102 157C31.5164 157 29.4461 156.485 27.8934 155.456C26.3407 154.427 25.1173 152.977 24.3175 151.012C23.4235 149.14 23 147.035 23 144.836C23 142.404 23.4705 140.298 24.4116 138.52C25.3056 136.696 26.623 135.339 28.3639 134.404C30.0578 133.468 31.9399 133 34.0102 133C36.3628 133 38.2919 133.608 39.8917 134.778C41.4915 135.947 42.5737 137.632 43.2324 139.784L40.174 140.485C39.6564 138.801 38.8565 137.585 37.8214 136.789C36.7862 136.041 35.5158 135.62 33.9161 135.62C32.1281 135.62 30.6224 136.041 29.3991 136.883C28.1757 137.725 27.3288 138.895 26.8583 140.345C26.3877 141.795 26.1054 143.292 26.1054 144.789C26.1054 146.754 26.3877 148.485 26.9524 149.936C27.517 151.386 28.411 152.509 29.6343 153.257C30.8577 154.006 32.1751 154.333 33.5867 154.333C35.3276 154.333 36.7862 153.819 37.9625 152.836C39.28 151.901 40.1269 150.404 40.5504 148.485Z" fill="black"/>
<path d="M52.4075 156.625V133.42H55.513V142.964H67.6524V133.42H70.7578V156.625H67.6524V145.677H55.513V156.625H52.4075Z" fill="black"/>
<path d="M80.78 156.625V133.42H97.6247V136.18H83.8384V143.291H96.7307V146.005H83.8384V153.911H98.1422V156.671H80.78V156.625Z" fill="#D7182A"/>
<path d="M107.411 156.625V133.42H117.763C119.833 133.42 121.433 133.607 122.515 134.028C123.597 134.449 124.444 135.198 125.103 136.227C125.761 137.303 126.091 138.426 126.091 139.736C126.091 141.373 125.573 142.777 124.491 143.899C123.409 145.022 121.762 145.724 119.504 146.052C120.303 146.426 120.962 146.847 121.386 147.221C122.28 148.063 123.127 149.092 123.926 150.309L127.973 156.625H124.068L120.962 151.806C120.068 150.402 119.315 149.326 118.751 148.625C118.186 147.876 117.621 147.361 117.198 147.081C116.727 146.8 116.257 146.566 115.786 146.473C115.457 146.379 114.845 146.379 114.045 146.379H110.47V156.671H107.411V156.625ZM110.47 143.666H117.104C118.515 143.666 119.598 143.525 120.398 143.244C121.197 142.964 121.809 142.496 122.233 141.841C122.656 141.186 122.844 140.531 122.844 139.782C122.844 138.706 122.421 137.771 121.621 137.069C120.821 136.367 119.551 135.993 117.81 135.993H110.422V143.666H110.47Z" fill="black"/>
<path d="M135.737 156.625V133.42H138.889L151.123 151.619V133.42H154.087V156.625H150.935L138.701 138.379V156.625H135.737Z" fill="black"/>
<path d="M163.262 145.304C163.262 141.468 164.297 138.427 166.368 136.275C168.438 134.076 171.12 133 174.414 133C176.578 133 178.507 133.515 180.248 134.544C181.989 135.573 183.307 136.977 184.2 138.801C185.094 140.626 185.565 142.684 185.565 145.023C185.565 147.363 185.094 149.468 184.153 151.339C183.212 153.211 181.848 154.614 180.107 155.55C178.366 156.485 176.484 157 174.461 157C172.249 157 170.32 156.485 168.579 155.409C166.838 154.333 165.521 152.93 164.627 151.105C163.686 149.281 163.262 147.363 163.262 145.304ZM166.462 145.351C166.462 148.158 167.215 150.357 168.72 151.947C170.226 153.538 172.108 154.38 174.414 154.38C176.719 154.38 178.648 153.585 180.154 151.947C181.66 150.31 182.413 148.018 182.413 145.023C182.413 143.152 182.083 141.468 181.471 140.064C180.813 138.661 179.872 137.585 178.648 136.789C177.425 135.994 176.013 135.62 174.508 135.62C172.343 135.62 170.461 136.368 168.862 137.865C167.215 139.363 166.462 141.842 166.462 145.351Z" fill="black"/>
<path d="M192.576 156.625V153.771L204.527 138.894C205.374 137.818 206.174 136.929 206.926 136.133H193.893V133.42H210.597V136.18L197.516 152.274L196.104 153.911H211.02V156.671H192.576V156.625Z" fill="#D7182A"/>
<path d="M219.301 156.625V133.42H236.146V136.18H222.359V143.291H235.252V146.005H222.359V153.911H236.663V156.671H219.301V156.625Z" fill="black"/>
<path d="M245.744 156.625V133.42H250.403L255.908 149.841C256.425 151.385 256.802 152.508 257.037 153.256C257.319 152.414 257.696 151.151 258.26 149.56L263.859 133.42H268V156.625H265.036V137.209L258.26 156.625H255.484L248.709 136.882V156.625H245.744Z" fill="black"/>
</svg>
