<svg width="290" height="290" viewBox="0 0 290 290" fill="none" xmlns="http://www.w3.org/2000/svg">
<rect width="290" height="290" fill="white"/>
<path d="M37 151.366V127.48H41.9379V151.419C41.9379 155.16 45.9731 157.03 49.5836 157.03C53.1409 157.03 57.1762 155.106 57.1762 151.366V127.48H62.114V151.419C62.114 158.366 55.424 162 49.5836 162C43.5838 161.946 37 158.366 37 151.366Z" fill="#BA81FF"/>
<path d="M68.6978 127.48L77.9363 140.305L87.228 127.48H93.1746L80.9096 144.633C84.5732 149.656 89.9358 157.084 93.1746 161.626H87.228L77.9363 148.801L68.6978 161.626H62.698L74.963 144.633C71.2994 139.61 65.7775 131.809 62.698 127.48H68.6978Z" fill="#BA81FF"/>
<path d="M106.024 127.428C113.351 127.428 117.068 133.145 117.068 138.863C117.068 144.58 113.351 150.245 106.024 150.245H98.5373V161.626H93.5995V127.428H106.024ZM106.024 145.328C110.165 145.328 112.183 142.122 112.183 138.863C112.183 135.603 110.165 132.344 106.024 132.344H98.5373V145.275L106.024 145.328Z" fill="#BA81FF"/>
<path d="M124.023 144.26H129.757C133.899 144.26 135.916 141.268 135.916 138.276C135.916 135.337 133.899 132.344 129.757 132.344H122.218V161.573H117.386V127.375H129.757C137.138 127.375 140.801 132.825 140.801 138.276C140.801 143.138 137.828 147.68 131.987 148.749L142.713 161.627H136.341L123.97 146.612V144.26H124.023Z" fill="#BA81FF"/>
<path d="M148.181 156.709H163.951V161.626H143.19V127.48H163.897V132.396H148.181V142.015H163.579V146.984H148.181V156.709Z" fill="#BA81FF"/>
<path d="M183.702 136.244C183.012 133.145 179.72 131.863 176.747 131.916C174.463 131.969 171.915 132.771 170.588 134.481C169.897 135.336 169.685 136.458 169.738 137.634C170.003 141.16 173.826 141.588 177.437 141.908C182.109 142.496 187.897 143.725 189.171 149.176C189.33 149.924 189.436 150.725 189.436 151.42C189.436 157.992 182.906 161.84 176.8 161.84C171.543 161.84 165.172 158.74 164.588 152.595L164.535 151.687L169.473 151.58L169.526 152.328V152.115C169.844 155.267 173.72 156.977 176.853 156.977C180.516 156.977 184.498 154.947 184.498 151.42C184.498 151.099 184.445 150.672 184.339 150.244C183.755 147.626 180.251 147.198 176.853 146.878C171.543 146.344 165.331 145.168 164.8 138.008V138.061C164.588 135.763 165.172 133.466 166.658 131.542C168.942 128.55 173.03 127 176.959 127C182.215 127 187.631 129.725 188.534 135.977L183.702 136.244Z" fill="#BA81FF"/>
<path d="M209.612 136.244C208.922 133.145 205.63 131.863 202.657 131.916C200.374 131.969 197.825 132.771 196.498 134.481C195.808 135.336 195.595 136.458 195.648 137.634C195.914 141.16 199.737 141.588 203.347 141.908C208.02 142.496 213.807 143.725 215.081 149.176C215.241 149.924 215.347 150.725 215.347 151.42C215.347 157.992 208.816 161.84 202.71 161.84C197.454 161.84 191.082 158.74 190.498 152.595L190.445 151.687L195.383 151.58L195.436 152.328V152.115C195.755 155.267 199.631 156.977 202.763 156.977C206.427 156.977 210.409 154.947 210.409 151.42C210.409 151.099 210.356 150.672 210.25 150.244C209.666 147.626 206.161 147.198 202.763 146.878C197.454 146.344 191.241 145.168 190.711 138.008V138.061C190.498 135.763 191.082 133.466 192.569 131.542C194.852 128.55 198.94 127 202.869 127C208.126 127 213.541 129.725 214.444 135.977L209.612 136.244Z" fill="#BA81FF"/>
<path d="M221.718 127.535H216.833V161.68H221.718V127.535Z" fill="#BA81FF"/>
<path d="M254 161.626L246.354 142.229L240.355 127H236.744L223.099 161.626H228.408C229.47 158.794 231.169 154.679 232.496 151.58H244.655L248.744 161.626H254ZM234.302 146.931L238.549 134.855L242.744 146.931H234.302Z" fill="#BA81FF"/>
</svg>
