<svg width="290" height="290" viewBox="0 0 290 290" fill="none" xmlns="http://www.w3.org/2000/svg">
<rect width="290" height="290" fill="white"/>
<g clip-path="url(#clip0)">
<path d="M174.049 89H116.079V146.838H174.049V89Z" fill="url(#paint0_linear)"/>
<path d="M172.133 118.174C172.133 130.277 172.644 142.634 172.644 142.634C172.644 144.035 171.75 144.927 170.601 144.927H120.548C119.399 144.927 118.633 143.908 118.505 142.634C118.505 142.634 117.101 132.06 117.101 116.008C117.101 99.9564 118.505 92.3127 118.505 92.3127C118.633 91.0387 119.399 90.0195 120.548 90.0195H170.729C171.878 90.0195 172.772 91.0387 172.772 92.3127C172.772 92.3127 172.133 106.199 172.133 118.174Z" fill="url(#paint1_linear)"/>
<path d="M161.025 104.542C157.449 106.58 156.3 106.835 152.47 109.128L152.597 108.746C154.64 106.58 155.534 105.561 156.811 103.65C153.363 103.777 148.128 104.287 144.425 105.051L144.681 104.669C148.001 103.013 154.385 101.357 157.577 100.975C156.811 99.828 150.427 96.3883 148.894 95.7513V95.3691C153.746 95.8787 160.131 98.1718 162.812 99.828C163.961 99.4458 165.238 99.4458 167.409 99.191C167.409 99.191 167.026 100.465 164.727 102.121C165.366 103.65 163.961 112.44 162.684 114.733C162.684 111.166 162.429 106.58 161.025 104.542Z" fill="url(#paint2_linear)"/>
<path d="M134.849 135.882L134.977 135.5C133.061 134.735 131.146 134.226 129.614 132.697C130.125 131.296 130.635 130.277 131.529 129.003L131.657 128.62C129.997 128.875 128.592 129.512 127.188 129.767C126.039 127.856 125.656 125.181 125.017 122.633L124.89 123.015C124.634 125.945 124.506 127.983 124.89 130.277C123.74 130.659 122.719 130.659 121.697 131.041L121.57 131.423C123.102 132.315 124.251 133.079 126.039 133.844C126.933 135.755 127.954 137.156 129.486 138.685L129.614 138.302C129.359 137.156 128.975 136.264 129.103 134.99C131.018 135.5 132.678 135.755 134.849 135.882Z" fill="url(#paint3_linear)"/>
<path d="M140.084 106.834C140.084 106.834 139.318 108.235 138.68 110.019H138.552C143.021 110.656 147.235 112.439 148.256 113.076L148.128 113.459C143.532 112.694 141.106 112.694 139.318 112.949C137.658 113.076 137.275 113.331 137.275 113.331C136.254 115.497 135.743 119.064 135.487 120.338L135.36 120.72C134.466 118.682 133.317 114.605 133.317 114.605C131.018 115.879 125.656 120.848 125.656 120.848C128.592 114.987 131.657 112.312 131.657 112.312C130.635 111.293 127.954 110.783 125.911 110.656L126.039 110.274C127.316 109.891 129.869 109.764 131.529 109.637C133.572 109.637 134.721 109.637 134.721 109.637C136.509 108.235 139.19 106.961 140.084 106.834Z" fill="url(#paint4_linear)"/>
<path d="M145.83 132.186C144.936 133.46 144.042 134.479 143.021 135.625C141.489 136.008 139.701 135.88 138.297 135.88L138.169 136.262C139.19 136.772 140.212 137.154 141.361 137.409C140.467 138.173 139.318 138.81 138.424 139.447L138.297 139.83C140.084 139.447 142.51 138.683 144.298 137.536C145.192 137.536 146.085 137.536 146.724 137.409L146.851 137.027C146.724 136.645 146.341 136.39 146.213 135.753C147.873 134.479 149.022 133.332 150.427 131.931L150.682 131.549C149.277 132.441 147.618 133.842 146.085 134.606C145.958 133.715 145.83 133.078 145.83 132.186Z" fill="url(#paint5_linear)"/>
<path d="M161.28 104.16C157.705 106.198 156.556 106.453 152.725 108.746C155.023 106.326 155.789 105.306 157.194 103.141C153.619 103.268 148.384 103.778 144.681 104.542C147.873 102.759 154.385 100.848 157.705 100.465C156.939 99.4462 150.554 96.0066 149.022 95.2422C154.002 95.6244 160.258 97.5353 163.195 99.3189C164.344 98.9367 165.621 98.9367 167.792 98.6819C167.281 99.5736 167.153 100.211 165.111 101.612C165.749 103.141 164.344 111.931 163.068 114.224C162.94 110.784 162.557 106.198 161.28 104.16Z" fill="white"/>
<path d="M135.104 135.5C133.061 134.735 131.529 133.844 129.997 132.315C130.508 130.914 131.018 129.894 131.912 128.62C130.252 128.875 128.975 129.003 127.571 129.385C126.422 127.346 125.911 125.308 125.273 122.633C125.017 125.563 124.89 127.601 125.273 129.894C123.996 130.277 122.974 130.531 121.953 131.041C123.485 131.933 124.762 132.697 126.422 133.461C127.316 135.372 128.337 136.774 129.869 138.302C129.486 137.029 129.359 136.009 129.614 134.608C131.274 135.118 132.934 135.372 135.104 135.5Z" fill="white"/>
<path d="M140.339 106.453C139.701 107.345 138.935 108.874 138.807 109.511C144.042 110.275 148.384 112.95 148.384 112.95C143.787 112.186 141.361 112.186 139.573 112.441C137.913 112.568 137.53 112.823 137.53 112.823C136.254 115.498 135.487 120.212 135.487 120.212C134.594 118.174 133.444 114.097 133.444 114.097C131.146 115.371 125.783 120.339 125.783 120.339C128.72 114.479 131.785 111.804 131.785 111.804C130.763 110.785 128.082 110.275 126.039 110.148C127.06 109.765 129.742 109.256 131.785 109.128C133.828 109.128 134.977 109.128 134.977 109.128C136.764 107.854 139.446 106.581 140.339 106.453Z" fill="white"/>
<path d="M145.958 131.806C145.064 133.08 144.17 134.099 143.149 135.245C141.361 135.755 139.956 135.882 138.169 135.882C139.19 136.392 140.212 136.774 141.361 137.029C140.212 138.048 139.318 138.685 138.169 139.449C139.956 139.067 142.382 138.303 144.17 137.156C145.064 137.156 145.958 137.156 146.596 137.029C146.468 136.519 146.341 136.137 146.213 135.373C147.873 134.099 149.15 132.952 150.427 131.551C148.894 132.57 147.618 133.334 145.958 134.099C146.085 133.334 146.085 132.697 145.958 131.806Z" fill="white"/>
<path d="M62.1958 191.426C64.1111 191.426 66.2817 192.063 66.2817 193.846C66.2817 194.865 65.5156 195.63 64.2388 196.139C65.8987 196.776 66.7925 197.668 66.7925 198.942C66.7925 201.108 64.1111 201.872 61.6851 201.872H56.0669C56.1946 200.471 56.1946 198.56 56.1946 196.394C56.1946 194.993 56.1946 192.827 56.0669 191.426H62.1958ZM60.5359 192.7C60.0252 192.7 59.5144 192.7 59.259 192.827C59.259 194.228 59.1314 194.865 59.1314 196.394C59.1314 198.305 59.1314 198.942 59.259 200.471H60.7913C62.5789 200.471 63.4727 199.961 63.4727 198.815C63.4727 197.668 62.3235 197.031 60.919 197.031H60.0252L60.6636 195.502H61.302C62.0681 195.502 62.9619 195.12 62.9619 194.228C62.9619 193.082 62.0681 192.7 60.5359 192.7Z" fill="black"/>
<path d="M78.1565 191.426C78.0288 192.572 78.0288 195.248 78.0288 196.267C78.0288 197.159 78.0288 200.343 78.1565 201.745H75.7305L71.7722 196.012C71.3892 195.502 71.2615 195.12 71.1338 194.611V197.923C71.1338 199.197 71.1338 200.98 71.2615 201.872H68.4524C68.5801 200.343 68.7078 197.286 68.7078 196.394C68.7078 195.375 68.7078 192.7 68.5801 191.426H71.6445L74.9644 196.776C75.092 197.031 75.2197 197.159 75.2197 197.413V191.426H78.1565Z" fill="black"/>
<path d="M85.6899 191.426C87.9883 191.426 90.6697 192.063 90.6697 194.483C90.6697 196.649 88.7544 197.668 84.7961 197.668C84.5408 197.668 83.9023 197.668 83.7747 197.668C83.9023 199.07 83.7747 200.853 83.9023 201.872H80.5825C80.7102 200.471 80.7102 198.05 80.7102 196.394C80.7102 194.865 80.7102 192.445 80.5825 191.426H85.6899ZM83.7747 192.827C83.7747 193.464 83.7747 194.228 83.7747 194.865C83.7747 195.375 83.7747 195.757 83.7747 196.139C83.9023 196.139 84.4131 196.139 84.7961 196.139C85.9453 196.139 87.4775 195.885 87.4775 194.483C87.4775 193.082 85.9453 192.827 84.7961 192.827C84.5408 192.827 84.03 192.827 83.7747 192.827Z" fill="black"/>
<path d="M101.395 191.426C103.694 191.426 106.375 192.063 106.375 194.483C106.375 196.649 104.46 197.668 100.501 197.668C100.246 197.668 99.6077 197.668 99.48 197.668C99.6077 199.07 99.48 200.853 99.6077 201.872H96.1602C96.2878 200.471 96.2878 198.05 96.2878 196.394C96.2878 194.865 96.2878 192.445 96.1602 191.426H101.395ZM99.48 192.827C99.48 193.464 99.48 194.228 99.48 194.865C99.48 195.375 99.48 195.757 99.48 196.139C99.6077 196.139 100.118 196.139 100.501 196.139C101.651 196.139 103.183 195.885 103.183 194.483C103.183 193.082 101.651 192.827 100.501 192.827C100.246 192.827 99.7354 192.827 99.48 192.827Z" fill="black"/>
<path d="M112.376 191.426C112.759 192.7 116.207 200.089 116.973 201.745H113.526C113.398 201.363 113.142 200.726 112.632 199.452C112.121 199.452 111.61 199.452 110.844 199.452C110.206 199.452 109.695 199.452 109.057 199.452C108.801 200.343 108.418 200.98 108.29 201.745H105.354C105.992 200.471 109.312 193.082 109.95 191.426H112.376ZM112.121 197.923C111.738 196.904 111.099 195.63 110.844 194.865C110.589 195.757 109.95 197.159 109.695 197.923C110.078 197.923 110.589 197.923 110.972 197.923C111.483 197.923 111.738 197.923 112.121 197.923Z" fill="black"/>
<path d="M123.357 191.424C125.656 191.424 128.337 192.189 128.337 194.609C128.337 195.883 127.316 196.775 125.911 197.412C126.166 197.921 128.72 201.234 129.231 201.743H125.528C124.89 200.469 123.613 198.304 122.336 196.52C123.868 196.775 125.145 196.011 125.145 194.609C125.145 193.208 123.613 192.826 122.847 192.826C122.464 192.826 121.825 192.826 121.57 192.826C121.57 194.1 121.442 195.628 121.442 196.265C121.442 197.157 121.442 200.087 121.57 201.743H118.122C118.25 200.215 118.378 198.431 118.378 196.265C118.378 194.482 118.378 192.443 118.25 191.297H123.357V191.424Z" fill="black"/>
<path d="M134.083 191.426C133.955 192.572 133.955 195.375 133.955 196.394C133.955 197.286 133.955 200.343 134.083 201.872H130.635C130.763 200.343 130.891 197.286 130.891 196.394C130.891 195.375 130.891 192.572 130.763 191.426H134.083Z" fill="black"/>
<path d="M142.51 191.426C144.425 191.426 146.596 192.063 146.596 193.846C146.596 194.865 145.83 195.63 144.553 196.139C146.213 196.776 147.107 197.668 147.107 198.942C147.107 201.108 144.425 201.872 141.999 201.872H136.381C136.509 200.471 136.509 198.56 136.509 196.394C136.509 194.993 136.509 192.827 136.381 191.426H142.51ZM140.85 192.7C140.339 192.7 139.829 192.7 139.573 192.827C139.573 194.228 139.446 194.865 139.446 196.394C139.446 198.305 139.446 198.942 139.573 200.471H141.106C142.893 200.471 143.787 199.961 143.787 198.815C143.787 197.668 142.638 197.031 141.233 197.031H140.339L140.978 195.502H141.616C142.382 195.502 143.276 195.12 143.276 194.228C143.276 193.082 142.382 192.7 140.85 192.7Z" fill="black"/>
<path d="M154.385 191.426C154.768 192.7 158.215 200.089 158.982 201.745H155.534C155.406 201.363 155.151 200.726 154.64 199.452C154.13 199.452 153.619 199.452 152.853 199.452C152.214 199.452 151.703 199.452 151.065 199.452C150.81 200.343 150.427 200.98 150.299 201.745H147.362C148.001 200.471 151.32 193.082 151.959 191.426H154.385ZM154.13 197.923C153.746 196.904 153.108 195.63 152.853 194.865C152.597 195.757 151.959 197.159 151.576 197.923C151.959 197.923 152.47 197.923 152.853 197.923C153.363 197.923 153.619 197.923 154.13 197.923Z" fill="black"/>
<path d="M164.344 191.17C165.621 191.17 167.026 191.425 167.792 191.552V194.227C166.643 193.59 165.494 192.953 164.089 192.953C162.94 192.953 162.812 193.463 162.812 193.718C162.812 195.501 168.686 195.501 168.686 198.559C168.686 200.597 166.77 201.871 163.578 201.871C162.174 201.871 160.769 201.616 159.875 201.234V198.686C162.046 199.705 163.195 200.088 164.217 200.088C164.983 200.088 165.621 199.705 165.621 199.068C165.621 197.03 159.748 197.285 159.748 193.973C159.748 192.189 161.663 191.17 164.344 191.17Z" fill="black"/>
<path d="M185.54 196.775C185.54 197.794 185.412 199.96 185.412 201.234C184.263 201.871 182.603 202.126 180.816 202.126C176.985 202.126 174.559 199.705 174.559 196.775C174.559 193.59 177.113 191.297 181.327 191.297C182.348 191.297 183.753 191.424 184.774 191.679L184.008 193.717C183.242 193.335 182.093 192.953 181.327 192.953C178.901 192.953 178.007 195.119 178.007 196.775C178.007 199.705 179.539 200.597 181.327 200.597C181.582 200.597 182.22 200.597 182.476 200.469C182.476 199.195 182.476 197.667 182.348 196.775H185.54Z" fill="black"/>
<path d="M192.691 191.424C194.989 191.424 197.67 192.189 197.67 194.609C197.67 195.883 196.649 196.775 195.244 197.412C195.5 197.921 198.053 201.234 198.564 201.743H194.861C194.223 200.469 192.946 198.304 191.669 196.52C193.201 196.775 194.478 196.011 194.478 194.609C194.478 193.208 192.946 192.826 192.18 192.826C191.797 192.826 191.158 192.826 190.903 192.826C190.903 194.1 190.775 195.628 190.775 196.265C190.775 197.157 190.775 200.087 190.903 201.743H187.455C187.583 200.215 187.711 198.431 187.711 196.265C187.711 194.482 187.711 192.443 187.583 191.297H192.691V191.424Z" fill="black"/>
<path d="M204.693 201.999C201.501 201.999 199.075 199.833 199.075 196.521C199.075 193.209 201.501 191.043 204.693 191.043C207.885 191.043 210.311 193.209 210.311 196.521C210.311 199.833 207.885 201.999 204.693 201.999ZM204.693 192.444C203.161 192.444 202.267 193.846 202.267 196.521C202.267 199.196 203.161 200.598 204.693 200.598C206.225 200.598 207.119 199.196 207.119 196.521C207.119 193.973 206.225 192.444 204.693 192.444Z" fill="black"/>
<path d="M215.163 191.424C215.163 192.061 215.036 192.826 215.036 193.59V198.558C215.036 199.96 215.419 200.724 216.823 200.724C217.972 200.724 219.121 200.215 219.121 198.176V193.208C219.121 192.189 219.121 192.061 218.994 191.552H221.803C221.675 192.443 221.675 194.1 221.675 195.756V198.558C221.675 200.979 220.015 201.998 216.695 201.998C213.631 201.998 211.843 201.361 211.843 198.431V194.609C211.843 193.59 211.843 192.061 211.716 191.297H215.163V191.424Z" fill="black"/>
<path d="M229.081 191.426C231.379 191.426 234.061 192.063 234.061 194.483C234.061 196.649 232.146 197.668 228.187 197.668C227.932 197.668 227.293 197.668 227.166 197.668C227.293 199.07 227.166 200.853 227.293 201.872H223.846C223.974 200.471 223.974 198.05 223.974 196.394C223.974 194.865 223.974 192.445 223.846 191.426H229.081ZM227.166 192.827C227.166 193.464 227.166 194.228 227.166 194.865C227.166 195.375 227.166 195.757 227.166 196.139C227.293 196.139 227.804 196.139 228.187 196.139C229.336 196.139 230.741 195.885 230.741 194.483C230.741 193.082 229.209 192.827 228.06 192.827C227.932 192.827 227.421 192.827 227.166 192.827Z" fill="black"/>
<path d="M46.4911 161.107C46.3634 162.509 46.3634 163.783 46.3634 165.184V175.758C46.3634 177.669 47.3849 179.198 50.3217 179.198C52.8754 179.198 54.663 178.306 54.663 174.102V164.165C54.663 161.999 54.663 161.872 54.5353 161.235H58.8766C58.6212 162.636 58.6212 166.076 58.6212 169.516V175.376C58.6212 179.962 55.9398 181.746 49.8109 181.746C44.1928 181.746 41.1283 180.344 41.1283 174.357V167.605C41.1283 165.694 41.1283 162.636 40.8729 161.362H46.4911V161.107Z" fill="black"/>
<path d="M81.7317 161.107C80.7102 162.254 75.0921 168.369 73.6875 169.898C74.8367 171.426 81.4763 179.962 82.7532 181.236H76.3689C75.0921 179.07 71.2615 173.974 69.3462 171.681C69.3462 174.102 69.3462 178.815 69.6016 181.236H63.9834C64.2388 178.433 64.2388 172.446 64.2388 170.789C64.2388 168.879 64.1111 163.528 63.9834 161.235H69.4739C69.3462 163.401 69.2185 167.859 69.2185 170.153C72.7937 166.585 74.5813 164.038 76.6243 161.235H81.7317V161.107Z" fill="black"/>
<path d="M95.2665 161.106C99.4801 161.106 104.46 162.252 104.46 166.966C104.46 169.514 102.928 171.298 99.8632 172.189C100.246 173.081 105.098 180.47 105.992 181.107H99.9909C98.714 178.559 95.6495 173.591 93.4789 170.278C93.8619 170.406 94.3727 170.406 95.0111 170.406C96.7987 170.406 99.2247 169.132 99.2247 166.839C99.2247 163.909 95.7772 163.399 93.9896 163.399C93.0958 163.399 92.202 163.399 91.819 163.526C91.6913 166.074 91.6913 169.132 91.6913 170.533C91.6913 172.317 91.6913 178.304 91.9467 181.107H86.3285C86.5839 178.304 86.7115 174.737 86.7115 170.533C86.7115 167.094 86.7115 162.889 86.4562 160.979H95.2665V161.106Z" fill="black"/>
<path d="M116.973 160.725C119.399 160.725 121.697 161.107 123.102 161.489V165.948C121.314 164.929 119.399 164.037 116.207 164.037C113.398 164.037 113.142 165.056 113.142 165.82C113.142 169.515 124.762 169.005 124.762 175.375C124.762 179.324 121.314 181.618 115.313 181.618C112.632 181.618 110.206 181.108 108.673 180.598V176.267C112.249 177.923 114.547 178.56 116.59 178.56C118.888 178.56 120.037 177.923 120.037 176.394C120.037 172.445 108.418 173.082 108.418 166.33C108.546 162.763 111.865 160.725 116.973 160.725Z" fill="black"/>
<path d="M135.104 161.107C134.977 163.401 134.849 168.751 134.849 170.662C134.849 172.446 134.849 178.433 135.104 181.109H129.486C129.742 178.306 129.742 172.318 129.742 170.662C129.742 168.751 129.614 163.401 129.486 161.107H135.104Z" fill="black"/>
<path d="M150.682 161.106C154.257 161.106 158.088 162.38 158.088 165.692C158.088 167.73 156.428 169.514 153.874 170.151C157.322 171.17 159.109 173.081 159.109 175.629C159.109 179.706 154.257 181.107 149.661 181.107H140.339C140.595 178.432 140.595 174.737 140.595 170.533C140.595 167.73 140.595 163.654 140.339 160.979H150.682V161.106ZM147.49 163.399C146.851 163.399 146.085 163.399 145.702 163.526C145.575 166.202 145.575 167.603 145.575 170.661C145.575 174.355 145.575 175.756 145.702 178.814C146.341 178.814 147.49 178.814 148.001 178.814C151.831 178.814 153.746 177.667 153.746 175.502C153.746 172.826 150.554 171.935 148.128 171.935H146.979L148.128 169.132H148.767C150.427 169.132 152.725 168.367 152.725 166.329C152.98 164.163 151.448 163.399 147.49 163.399Z" fill="black"/>
<path d="M173.027 161.106C176.602 161.106 180.433 162.38 180.433 165.692C180.433 167.73 178.773 169.514 176.219 170.151C179.667 171.17 181.454 173.081 181.454 175.629C181.454 179.706 176.602 181.107 172.006 181.107H162.684C162.94 178.432 162.94 174.737 162.94 170.533C162.94 167.73 162.94 163.654 162.684 160.979H173.027V161.106ZM169.963 163.399C169.324 163.399 168.558 163.399 168.175 163.526C168.047 166.202 168.047 167.603 168.047 170.661C168.047 174.355 168.047 175.756 168.175 178.814C168.813 178.814 169.963 178.814 170.473 178.814C174.304 178.814 176.219 177.667 176.219 175.502C176.219 172.826 173.027 171.935 170.601 171.935H169.452L170.601 169.132H171.239C172.899 169.132 175.198 168.367 175.198 166.329C175.325 164.163 173.793 163.399 169.963 163.399Z" fill="black"/>
<path d="M195.627 161.107C196.394 163.146 203.033 177.796 204.565 181.109H199.075C198.82 180.217 198.053 178.561 197.287 176.395C196.138 176.395 194.989 176.395 193.329 176.395C191.797 176.395 190.648 176.395 189.371 176.395C188.732 178.051 188.222 179.58 187.711 181.109H182.731C183.88 178.561 190.648 164.038 191.669 161.107H195.627ZM196.138 173.847C194.861 170.662 193.712 167.987 193.329 167.095C192.435 169.006 191.414 171.299 190.392 173.847C191.286 173.847 192.435 173.847 193.329 173.847C194.095 173.847 195.117 173.847 196.138 173.847Z" fill="black"/>
<path d="M225.251 161.107C224.995 163.401 224.995 168.751 224.995 170.662C224.995 172.446 224.995 178.433 225.378 181.236H221.675L213.12 168.624C212.354 167.477 212.227 166.968 211.971 166.458C211.971 169.516 211.971 171.044 211.971 173.72C211.971 176.14 211.971 179.707 212.227 181.236H207.502C207.758 178.433 207.758 172.446 207.758 170.662C207.758 168.751 207.63 163.401 207.502 161.107H212.737L219.122 170.535C220.526 172.573 220.782 172.955 221.037 173.72C220.909 171.172 220.782 168.624 220.654 166.203L220.398 161.107H225.251Z" fill="black"/>
<path d="M248.106 161.107C247.085 162.254 241.467 168.369 240.062 169.898C241.211 171.426 247.851 179.962 249.128 181.236H242.743C241.467 179.07 237.636 173.974 235.721 171.681C235.721 174.102 235.721 178.815 235.976 181.236H230.358C230.613 178.433 230.613 172.446 230.613 170.789C230.613 168.879 230.486 163.528 230.358 161.235H235.848C235.721 163.401 235.593 167.859 235.593 170.153C239.168 166.585 240.956 164.038 242.999 161.235H248.106V161.107Z" fill="black"/>
</g>
<defs>
<linearGradient id="paint0_linear" x1="145.019" y1="87.5786" x2="145.019" y2="148.572" gradientUnits="userSpaceOnUse">
<stop stop-color="#007448"/>
<stop offset="0.6" stop-color="#8DC9AB"/>
<stop offset="1" stop-color="#00925B"/>
</linearGradient>
<linearGradient id="paint1_linear" x1="144.927" y1="74.6483" x2="144.927" y2="143.187" gradientUnits="userSpaceOnUse">
<stop stop-color="#00925B"/>
<stop offset="0.3" stop-color="#8DC9AB"/>
<stop offset="0.55" stop-color="#00925B"/>
<stop offset="0.8352" stop-color="#007448"/>
<stop offset="0.8691" stop-color="#00784C"/>
<stop offset="0.9244" stop-color="#008557"/>
<stop offset="0.9938" stop-color="#009A6A"/>
<stop offset="1" stop-color="#009C6C"/>
</linearGradient>
<linearGradient id="paint2_linear" x1="155.931" y1="139.402" x2="155.931" y2="95.0481" gradientUnits="userSpaceOnUse">
<stop stop-color="#00A678"/>
<stop offset="1" stop-color="#00925B"/>
</linearGradient>
<linearGradient id="paint3_linear" x1="128.349" y1="139.405" x2="128.349" y2="95.0377" gradientUnits="userSpaceOnUse">
<stop stop-color="#00A678"/>
<stop offset="1" stop-color="#00925B"/>
</linearGradient>
<linearGradient id="paint4_linear" x1="136.942" y1="139.392" x2="136.942" y2="95.0545" gradientUnits="userSpaceOnUse">
<stop stop-color="#00A678"/>
<stop offset="1" stop-color="#00925B"/>
</linearGradient>
<linearGradient id="paint5_linear" x1="144.37" y1="139.399" x2="144.37" y2="95.0464" gradientUnits="userSpaceOnUse">
<stop stop-color="#00A678"/>
<stop offset="1" stop-color="#00925B"/>
</linearGradient>
<clipPath id="clip0">
<rect width="208" height="113" fill="white" transform="translate(41 89)"/>
</clipPath>
</defs>
</svg>
