<svg width="290" height="290" viewBox="0 0 290 290" fill="none" xmlns="http://www.w3.org/2000/svg">
<rect width="290" height="290" fill="white"/>
<path fill-rule="evenodd" clip-rule="evenodd" d="M91.416 111.143C84.0302 115.604 78.444 122.99 76.307 127.864C76.0446 128.464 75.9696 129.326 76.232 129.251C114.211 116.879 109.899 175.703 74.095 168.054C73.2327 177.465 72.033 181.814 69.2962 187.625C69.1087 188.037 68.5838 188.412 68.2464 188.3C67.909 188.187 67.6091 187.85 67.7215 187.4C68.8838 181.101 69.9335 174.803 65.0597 167.604C61.5355 162.393 47.9262 164.305 43.3148 158.982C30.4553 144.21 44.252 120.216 64.1224 130.863C62.0604 123.852 60.2233 112.867 64.3098 102.52C64.3848 102.295 64.5348 102.032 64.6847 101.882C65.1346 101.395 66.2594 101.92 66.8967 102.145C68.3964 102.632 69.4086 103.644 70.9083 104.169C71.8456 105.182 70.1959 106.119 70.4584 107.806C71.6956 106.194 72.4829 104.094 73.6451 102.37C76.232 103.12 78.0691 104.619 79.5313 106.456C78.4065 109.231 76.9069 111.668 75.8946 114.629C78.1441 112.043 83.0179 107.469 87.6668 105.557C89.4664 106.231 91.4535 110.393 91.416 111.143Z" fill="#91D1BA"/>
<path d="M217.236 168.465C217.536 167.678 217.724 166.966 218.024 166.103C218.211 165.541 218.361 164.979 218.549 164.416C218.849 163.329 219.149 162.204 219.523 161.155C219.861 160.105 221.398 155.119 221.548 154.519C221.698 153.919 221.923 153.169 221.998 152.944C222.523 151.482 222.56 151.069 223.01 149.382C223.235 148.52 223.797 146.496 223.835 146.233C223.947 145.708 224.547 143.721 224.922 142.746C225.147 142.184 225.335 141.659 225.56 141.059C225.747 140.609 225.934 140.16 226.197 139.747C226.497 139.185 226.534 139.11 227.509 139.11C227.996 139.11 228.821 139.11 228.934 139.185C229.196 139.372 229.234 139.972 229.309 140.459C229.496 141.359 229.571 142.259 229.721 143.121C229.908 144.059 229.871 144.546 229.983 145.596C230.021 146.233 230.133 146.945 230.171 147.47C230.208 147.808 230.246 148.258 230.246 148.595C230.246 149.27 230.321 149.195 230.283 149.982C230.246 150.432 230.396 150.994 230.396 151.444C230.471 153.206 230.546 153.956 230.696 155.193C230.771 155.831 230.808 156.506 230.846 157.143C230.921 158.23 230.883 158.943 230.996 160.03C231.071 161.005 230.996 161.867 231.146 163.067C231.371 164.754 231.371 166.216 231.408 167.903C231.446 169.815 231.633 171.277 231.671 173.189C231.708 174.239 231.783 175.289 231.858 176.339C231.896 176.826 231.933 177.313 232.008 178.588C232.083 179.488 232.12 179.825 232.12 180.163C232.12 180.313 231.446 180.313 230.808 180.313C230.358 180.313 229.459 180.313 229.046 180.313C228.934 180.313 228.859 180.313 228.821 180.275C228.596 180.163 228.596 179.9 228.559 179.45C228.484 178.063 228.446 177.238 228.371 175.851C228.296 174.539 228.221 172.477 228.221 171.165C228.184 169.665 228.071 169.253 228.034 167.753C228.034 167.303 227.959 166.066 227.921 165.091C227.846 162.729 227.809 162.842 227.809 161.567C227.771 160.517 227.584 160.067 227.547 157.893C227.509 156.768 227.397 155.756 227.322 154.631C227.209 152.907 227.172 152.682 227.134 151.857C227.097 151.557 227.097 151.032 227.059 150.732C227.059 150.057 226.984 149.945 226.984 149.307C226.984 149.307 226.984 149.195 226.984 148.595C226.984 148.295 226.984 148.258 226.834 148.22C226.834 148.22 226.647 148.708 226.609 148.932C226.234 150.545 226.047 151.069 225.522 153.019C225.222 154.144 224.96 154.856 224.585 156.168C224.247 157.405 224.022 158.08 223.61 159.28C223.46 159.73 222.86 161.679 222.748 162.129C222.373 163.367 222.335 163.704 221.923 164.941C221.848 165.166 221.735 165.616 221.66 165.841C221.51 166.328 220.836 168.765 220.161 170.715C219.898 171.54 219.636 172.252 219.336 173.077C219.149 173.527 218.511 173.752 217.986 173.827C217.349 173.939 216.937 173.939 216.337 173.827C215.849 173.677 215.437 173.339 215.324 172.777C215.137 172.065 214.837 171.54 214.65 170.865C214.387 169.928 214.162 169.74 213.637 167.978C213.525 167.678 213.15 166.366 213 165.953C212.925 165.691 212.625 164.866 212.513 164.604C212.288 164.079 211.725 162.354 210.975 160.33C210.675 159.355 210.301 158.268 209.926 157.33C209.626 156.543 209.288 155.756 208.988 154.969C208.838 154.556 208.688 154.106 208.538 153.694C208.239 152.869 207.976 152.269 207.676 151.444C207.526 151.069 206.926 149.495 206.739 149.12C206.739 149.645 206.626 150.807 206.589 151.182C206.514 152.382 206.476 153.581 206.364 154.781C206.364 154.931 206.327 155.156 206.327 155.343C206.327 156.281 206.139 157.143 206.102 158.305C206.064 159.243 205.989 160.367 205.952 161.305C205.914 162.092 205.914 162.804 205.877 163.592C205.839 165.091 205.614 166.591 205.614 167.678C205.577 170.227 205.427 171.24 205.277 173.414C205.164 175.701 205.089 176.638 204.939 179.075C204.902 179.563 204.902 179.863 204.714 180.088C204.564 180.35 203.89 180.238 203.552 180.238C203.102 180.238 201.828 180.238 201.528 180.163C201.303 180.013 201.453 179.75 201.453 179.15C201.49 177.988 201.715 176.301 201.753 175.251C201.828 173.752 201.978 172.252 202.053 171.015C202.127 169.628 202.202 169.215 202.24 168.128C202.24 167.866 202.315 167.153 202.315 166.928C202.315 166.291 202.39 165.579 202.465 164.941C202.54 163.966 202.54 163.629 202.615 162.054C202.652 161.342 202.69 160.63 202.727 159.917C202.877 158.118 202.915 156.768 202.99 155.119C203.027 154.369 203.102 153.544 203.177 152.794C203.252 151.782 203.252 150.882 203.327 149.87C203.402 148.558 203.44 147.808 203.552 145.896C203.627 144.808 203.74 143.834 203.852 143.159C204.002 141.884 204.115 141.397 204.19 140.572C204.302 139.597 204.452 139.522 204.789 139.297C205.164 139.072 205.427 139.11 205.914 139.11C206.177 139.11 206.401 139.11 206.589 139.185C207.151 139.372 207.301 140.347 207.526 140.834C207.751 141.397 207.714 141.472 207.939 142.147C208.051 142.484 208.201 142.971 208.389 143.534C208.538 144.021 208.763 144.583 208.951 145.033C209.176 145.633 209.326 146.458 209.551 147.02C209.738 147.508 209.851 147.883 210.113 148.52C210.376 149.232 210.9 150.657 210.938 150.807C211.163 151.407 211.463 152.119 211.725 152.719C212.663 155.156 213.525 157.48 213.637 157.705C213.9 158.305 214.012 158.83 214.237 159.467C214.5 160.142 214.762 160.892 215.024 161.642C215.512 162.917 215.849 164.004 216.374 165.616C216.487 166.328 216.937 167.753 217.236 168.465Z" fill="#211E1E"/>
<path d="M144.279 141.697C144.316 141.922 144.316 142.184 144.091 142.222C143.866 142.259 143.491 142.259 142.929 142.297C141.242 142.447 140.417 142.372 138.955 143.009C138.73 143.122 137.493 143.534 137.043 143.946C136.293 144.696 136.293 144.546 135.768 145.483C135.356 146.346 135.093 146.796 134.943 147.62C134.681 149.008 134.418 149.57 134.306 151.332C134.268 152.119 134.081 153.394 134.006 154.181C133.894 155.681 133.819 157.593 133.781 159.093C133.744 160.592 133.781 162.092 133.856 163.592C133.894 164.904 133.968 165.954 134.081 167.266C134.118 167.941 134.306 169.59 134.418 170.753C134.643 172.552 134.906 173.077 135.468 174.127C135.731 174.614 136.293 175.214 136.705 175.551C137.305 176.039 137.605 176.339 138.505 176.564C139.48 176.826 140.155 176.789 141.992 176.676C142.367 176.639 143.416 176.414 143.754 176.301C144.241 176.189 144.391 176.864 144.541 177.313C144.691 177.688 144.691 177.801 144.766 178.101C144.878 178.438 145.028 178.776 145.028 178.926C145.028 179.076 145.178 179.188 144.991 179.263C144.204 179.6 143.716 179.863 142.029 180.125C140.717 180.313 139.217 180.313 138.168 180.163C137.905 180.125 137.043 179.9 136.555 179.675C135.168 179.113 133.669 178.176 132.694 176.564C132.019 175.439 131.569 174.502 131.269 173.227C131.007 172.065 130.857 170.603 130.744 168.353C130.707 167.866 130.669 167.041 130.669 166.516C130.632 165.579 130.594 165.204 130.557 164.417C130.557 164.004 130.557 163.704 130.519 163.292C130.519 162.804 130.482 162.354 130.482 161.867C130.482 161.642 130.482 159.73 130.519 158.755C130.557 158.006 130.594 157.218 130.594 156.431C130.594 155.943 130.594 155.494 130.632 155.119C130.669 154.331 130.782 153.019 130.857 152.232C130.969 151.257 131.007 150.507 131.119 149.533C131.232 148.445 131.494 147.058 131.644 146.308C131.794 145.746 131.981 145.146 132.244 144.621C132.469 144.134 132.731 143.646 132.994 143.159C133.181 142.822 133.706 142.147 133.968 141.847C134.531 141.209 134.981 140.835 135.768 140.385C138.168 139.072 140.679 138.922 143.304 138.96C143.829 138.96 143.979 139.297 144.129 139.822C144.166 140.31 144.204 141.209 144.279 141.697Z" fill="#211E1E"/>
<path d="M163.999 178.136C163.924 177.761 163.737 176.112 163.699 175.699C163.474 174.312 163.399 173.412 163.174 172.025C163.024 170.938 162.799 169.888 162.687 168.801C162.499 167.226 162.274 165.539 162.087 163.965C161.937 162.427 161.75 160.853 161.562 159.316C161.337 157.441 161.075 155.567 160.812 153.692C160.625 152.492 160.512 151.48 160.325 150.318C160.175 149.193 159.987 147.956 159.838 146.831C159.65 145.631 159.313 144.132 159.125 142.932C158.975 141.77 158.863 140.608 158.675 139.82C158.638 139.67 158.413 139.295 158.263 139.258C157.476 139.145 156.088 139.07 155.339 139.145C154.551 139.22 154.289 139.37 154.139 140.045C153.951 140.87 153.914 141.357 153.764 142.407C153.689 142.932 153.539 143.719 153.464 144.282C153.314 145.369 153.239 145.969 153.052 147.094C152.977 147.506 152.902 148.031 152.827 148.443C152.752 148.781 152.602 149.605 152.527 149.943C152.377 150.655 151.964 152.792 151.852 153.767C151.702 154.742 151.365 156.654 151.365 156.841C151.29 157.554 151.215 158.266 151.102 158.978C150.99 159.691 150.952 160.478 150.727 161.153C150.465 161.903 150.202 164.152 150.127 164.489C149.977 165.202 149.865 166.027 149.715 166.739C149.602 167.264 149.228 169.438 149.115 169.963C148.965 170.9 148.365 174.237 148.178 175.137C147.915 176.524 147.653 177.724 147.503 178.661C147.465 178.849 147.128 180.123 147.24 180.236C147.428 180.461 148.328 180.386 149.04 180.386C150.127 180.386 150.465 180.348 150.615 179.823C150.877 178.736 151.14 177.461 151.365 175.887C151.514 174.95 151.702 174.05 151.852 173.112C152.077 171.688 152.339 170.938 152.339 170.938C152.339 170.938 153.764 171.013 154.551 171.05C156.613 171.163 159.688 171.163 159.688 171.163C159.688 171.163 159.763 171.313 159.838 171.8C159.913 172.325 159.95 172.85 160.025 173.375C160.1 173.975 160.137 174.575 160.212 175.137C160.437 177.012 160.587 178.286 160.812 179.823C160.887 180.311 160.962 180.386 161.337 180.423C161.637 180.423 162.912 180.423 163.174 180.423C163.999 180.386 164.449 180.536 164.336 179.786C164.149 179.373 164.074 178.586 163.999 178.136ZM159.35 167.826C157.925 167.864 156.351 167.751 154.889 167.676C154.364 167.639 153.314 167.676 152.752 167.564C152.677 167.564 152.827 166.776 153.014 165.689C153.352 163.477 153.689 161.678 153.989 159.653C154.326 157.404 154.664 155.117 155.039 152.867C155.226 151.705 155.451 150.318 155.639 149.081C155.676 148.968 156.126 147.169 156.313 146.081C156.351 145.819 156.501 145.781 156.576 145.744C156.651 145.706 156.763 145.669 156.876 146.231C157.026 147.244 157.213 148.818 157.326 149.83C157.476 151.33 157.925 154.967 158.038 155.604C158.113 156.129 158.45 158.903 158.525 159.466C159.35 167.676 159.275 166.626 159.35 167.826Z" fill="#211E1E"/>
<path d="M128.532 178.136C128.457 177.761 128.27 176.112 128.232 175.699C128.007 174.312 127.932 173.412 127.707 172.025C127.557 170.938 127.333 169.888 127.22 168.801C127.033 167.226 126.808 165.539 126.62 163.965C126.47 162.427 126.283 160.853 126.095 159.316C125.87 157.441 125.608 155.567 125.346 153.692C125.158 152.492 125.046 151.48 124.858 150.318C124.708 149.193 124.521 147.956 124.371 146.831C124.183 145.631 123.846 144.132 123.658 142.932C123.508 141.77 123.396 140.608 123.209 139.82C123.171 139.67 122.946 139.295 122.796 139.258C122.009 139.145 120.622 139.07 119.872 139.145C119.084 139.22 118.822 139.37 118.672 140.045C118.485 140.87 118.447 141.357 118.297 142.407C118.222 142.932 118.072 143.719 117.997 144.282C117.847 145.369 117.772 145.969 117.585 147.094C117.51 147.506 117.435 148.031 117.36 148.443C117.285 148.781 117.135 149.605 117.06 149.943C116.91 150.655 116.498 152.792 116.385 153.767C116.235 154.742 115.898 156.654 115.898 156.841C115.823 157.554 115.748 158.266 115.635 158.978C115.523 159.691 115.485 160.478 115.26 161.153C114.998 161.903 114.736 164.152 114.661 164.489C114.511 165.202 114.398 166.027 114.248 166.739C114.136 167.264 113.761 169.438 113.648 169.963C113.498 170.9 112.898 174.237 112.711 175.137C112.449 176.524 112.186 177.724 112.036 178.661C111.999 178.849 111.661 180.123 111.774 180.236C111.961 180.461 112.861 180.386 113.573 180.386C114.661 180.386 114.998 180.348 115.148 179.823C115.41 178.736 115.673 177.461 115.898 175.887C116.048 174.95 116.235 174.05 116.385 173.112C116.61 171.688 116.873 170.938 116.873 170.938C116.873 170.938 118.297 171.013 119.084 171.05C121.147 171.163 124.221 171.163 124.221 171.163C124.221 171.163 124.296 171.313 124.371 171.8C124.446 172.325 124.483 172.85 124.558 173.375C124.633 173.975 124.671 174.575 124.746 175.137C124.971 177.012 125.121 178.286 125.346 179.823C125.42 180.311 125.495 180.386 125.87 180.423C126.17 180.423 127.445 180.423 127.707 180.423C128.532 180.386 128.982 180.536 128.87 179.786C128.682 179.373 128.607 178.586 128.532 178.136ZM123.883 167.826C122.459 167.864 120.884 167.751 119.422 167.676C118.897 167.639 117.847 167.676 117.285 167.564C117.21 167.564 117.36 166.776 117.547 165.689C117.885 163.477 118.222 161.678 118.522 159.653C118.86 157.404 119.197 155.117 119.572 152.867C119.759 151.705 119.984 150.318 120.172 149.081C120.209 148.968 120.659 147.169 120.847 146.081C120.884 145.819 121.034 145.781 121.109 145.744C121.184 145.706 121.296 145.669 121.409 146.231C121.559 147.244 121.746 148.818 121.859 149.83C122.009 151.33 122.459 154.967 122.571 155.604C122.646 156.129 122.984 158.903 123.059 159.466C123.883 167.676 123.808 166.626 123.883 167.826Z" fill="#211E1E"/>
<path d="M243.143 155.306C243.593 153.993 243.893 153.206 244.193 152.344C244.568 151.219 244.68 150.769 245.055 149.644C245.505 148.257 245.73 147.732 245.955 146.983C246.217 145.97 246.742 144.583 246.892 143.946C247.155 142.933 247.604 141.546 247.717 141.134C248.167 139.747 248.279 139.409 248.429 139.222C248.467 139.147 248.579 139.109 249.067 139.109C249.854 139.109 251.166 139.109 251.429 139.109C251.878 139.109 251.616 139.447 251.429 140.422C251.204 141.546 250.829 142.484 250.229 144.546C249.667 146.458 249.367 147.32 248.842 149.12C248.167 151.219 247.904 152.644 247.23 154.743C246.63 156.693 246.067 158.492 245.58 160.067C245.542 160.179 245.542 160.929 245.542 161.042C245.505 162.541 245.542 162.541 245.505 164.079C245.505 164.828 245.505 165.166 245.542 165.916C245.542 166.103 245.58 166.853 245.58 167.078C245.58 168.053 245.617 168.84 245.655 169.327C245.73 170.452 245.692 171.127 245.805 173.039C245.917 174.913 246.067 177.5 246.067 179.375C246.067 180.087 246.217 180.425 245.73 180.387C245.093 180.387 244.38 180.387 243.818 180.387C243.256 180.387 242.843 180.387 242.731 180.312C242.618 180.162 242.618 179.112 242.618 178.925C242.506 177.013 242.468 175.138 242.393 173.264C242.356 172.252 242.356 172.214 242.281 170.639C242.243 169.777 242.206 168.727 242.168 167.865C242.093 166.178 241.981 165.278 241.943 163.591C241.868 162.691 241.868 162.391 241.793 161.567C241.793 161.567 241.268 160.217 240.894 159.43C240.181 158.005 240.069 157.668 239.506 156.505C239.094 155.568 238.232 154.106 237.632 152.906C237.557 152.719 237.369 152.306 237.294 152.081C236.994 151.444 236.732 150.769 236.47 150.132C236.282 149.719 236.095 149.344 235.87 148.895C235.72 148.632 235.72 148.445 235.607 148.22C235.457 147.882 235.195 147.545 235.082 147.207C234.333 145.408 234.258 144.958 233.733 143.683C233.358 142.784 232.945 142.109 232.346 140.309C232.196 139.822 231.858 139.297 232.496 139.184C233.058 139.109 233.995 139.184 234.558 139.184C235.307 139.184 235.645 139.072 235.832 139.522C236.245 140.534 236.657 141.321 237.107 142.371C237.257 142.709 237.707 143.683 237.857 144.021C237.969 144.283 238.082 144.546 238.194 144.808C238.269 144.995 238.344 145.183 238.419 145.37C238.569 145.858 238.569 146.083 239.056 146.833C239.244 147.132 239.394 147.545 239.581 147.92C240.106 149.12 240.631 150.357 241.193 151.556C241.681 152.456 242.393 154.368 243.143 155.306Z" fill="#211E1E"/>
<path d="M183.269 165.167C183.344 164.38 183.457 161.455 183.457 161.193C183.457 160.368 183.307 159.656 183.232 158.756C183.119 157.069 183.119 155.307 182.894 153.92C182.707 152.607 182.295 151.258 181.957 150.171C181.845 149.833 181.732 149.383 181.62 149.046C181.32 147.996 181.02 147.059 180.42 146.084C179.745 144.959 179.295 144.359 178.471 143.347C177.458 142.072 176.633 141.435 175.134 140.61C174.609 140.31 173.784 139.898 173.184 139.673C172.509 139.411 172.247 139.261 171.535 139.148C171.085 139.073 170.56 139.036 170.11 139.036C169.173 139.036 168.573 138.998 168.048 139.598C167.373 140.348 167.523 141.398 167.523 142.522C167.523 143.272 167.523 144.059 167.523 144.584C167.523 145.597 167.523 149.083 167.523 149.533C167.448 152.57 167.561 154.482 167.523 156.057C167.523 156.619 167.486 158.231 167.486 158.531C167.561 160.218 167.561 160.893 167.523 162.618C167.523 163.555 167.448 164.905 167.486 165.842C167.486 166.367 167.523 169.853 167.523 170.003C167.523 171.316 167.523 172.515 167.561 173.94C167.561 174.615 167.561 176.264 167.598 176.864C167.636 177.577 167.561 178.139 167.673 179.301C167.711 179.676 167.935 180.014 168.085 180.126C168.535 180.426 168.985 180.388 169.623 180.388C170.785 180.388 171.385 180.388 171.947 180.313C173.034 180.126 173.334 179.976 174.459 179.451C174.909 179.264 175.809 178.664 176.334 178.364C177.046 177.914 178.021 177.202 178.471 176.752C179.745 175.515 180.12 174.802 180.757 173.677C181.582 172.215 182.107 170.678 182.407 169.403C182.67 168.391 183.157 166.517 183.269 165.167ZM180.158 160.218C180.158 161.155 180.195 161.83 180.12 163.367C180.045 165.017 179.858 166.217 179.558 167.829C179.295 169.254 178.995 170.191 178.62 170.978C178.358 171.503 178.021 172.14 177.008 173.378C176.334 174.202 175.884 174.765 174.122 175.814C173.484 176.189 172.247 176.752 171.31 177.014C171.01 177.089 170.972 176.977 170.972 176.677C170.972 175.665 171.047 174.127 171.01 173.303C170.972 172.478 170.972 171.353 170.935 170.528C170.897 169.478 170.935 168.354 170.935 167.266C170.935 165.954 170.935 164.942 170.935 163.63C170.897 162.655 170.972 161.305 170.897 160.331C170.822 159.093 170.897 158.494 170.86 157.256C170.822 156.769 170.822 155.119 170.785 154.669C170.71 153.02 170.747 152.795 170.747 151.408C170.747 150.283 170.71 149.683 170.747 148.408C170.747 147.959 170.86 146.609 170.86 146.196C170.897 145.147 170.972 142.372 170.972 142.372C170.972 142.372 172.734 142.56 174.609 143.76C175.621 144.397 175.959 144.734 177.308 146.609C177.458 146.796 177.646 147.134 177.833 147.509C178.208 148.258 178.471 148.783 178.77 149.758C179.07 150.733 179.258 151.708 179.445 152.682C179.595 153.395 179.67 153.695 179.783 154.594C179.933 155.794 179.933 156.469 180.045 157.894C180.045 158.044 180.158 159.243 180.158 160.218Z" fill="#211E1E"/>
<path d="M190.318 176.676C190.505 176.713 191.068 176.788 191.218 176.751C191.892 176.751 192.98 176.901 195.154 176.751C195.529 176.713 197.441 176.638 197.816 176.788C198.266 177.201 198.041 177.201 198.078 178.251C198.003 178.438 198.116 179.45 198.003 179.638C197.891 179.863 198.003 180.35 197.704 180.313C197.329 180.275 196.316 180.238 195.904 180.238C194.704 180.275 192.905 180.163 192.155 180.275C191.855 180.313 190.543 180.2 190.243 180.275C190.168 180.275 187.281 180.35 187.169 180.2C186.906 179.9 187.131 179.75 186.981 179.375C186.831 178.963 186.869 175.776 186.944 175.439C187.019 175.026 186.906 169.178 186.831 167.716C186.831 167.566 186.831 167.491 186.831 167.453V167.303C186.831 167.191 186.869 167.116 186.869 166.928C186.981 165.654 186.794 162.654 186.831 162.317C186.906 161.529 186.981 157.78 186.981 157.068C187.019 156.168 186.944 151.819 186.944 151.219C186.869 150.245 186.794 148.782 186.869 147.17C186.906 146.795 186.756 143.646 186.719 143.084C186.681 142.596 186.569 141.434 186.644 140.797C186.719 140.347 186.531 139.597 186.906 139.41C187.318 139.11 187.731 139.072 188.706 139.147C188.781 139.147 191.218 139.147 191.33 139.147C192.492 139.072 194.554 139.072 195.117 139.11C195.979 139.147 197.329 139.072 198.153 139.072C198.603 139.072 198.453 140.01 198.416 140.534C198.416 140.722 198.453 142.297 198.266 142.409C198.041 142.559 197.479 142.446 197.141 142.446C196.541 142.446 195.117 142.446 194.629 142.371C193.654 142.222 190.918 142.446 190.768 142.446C190.243 142.521 190.13 142.521 190.168 143.046C190.205 143.496 190.205 143.871 190.243 144.434C190.28 144.733 190.318 145.521 190.318 145.896C190.355 146.608 190.243 147.958 190.243 148.745C190.243 149.682 190.393 152.269 190.43 153.206C190.468 153.769 190.43 154.819 190.43 155.381C190.43 155.493 190.393 155.643 190.393 155.756C190.393 156.243 190.468 156.243 190.955 156.243C191.517 156.243 194.817 156.356 195.567 156.243C196.054 156.168 196.466 156.318 196.691 156.468C196.879 156.731 196.729 157.293 196.804 158.455C196.804 158.68 196.804 159.58 196.616 159.692C196.504 159.767 195.042 159.655 194.479 159.655C193.729 159.655 192.83 159.655 192.117 159.58C192.08 159.58 191.03 159.73 190.58 159.692C190.28 159.655 190.168 159.767 190.168 160.067C190.243 160.855 190.093 162.092 190.205 162.879C190.243 163.217 190.243 170.865 190.28 171.54C190.318 172.814 190.205 174.089 190.243 175.326C190.243 175.739 190.13 176.376 190.318 176.676Z" fill="#211E1E"/>
<path d="M115.898 125.277C115.898 125.052 115.86 123.327 115.86 123.102C115.823 122.877 115.935 120.515 115.86 120.178C115.823 119.916 115.86 119.316 115.86 119.016C115.86 118.491 115.748 115.754 115.785 115.529C115.785 114.817 115.71 112.717 115.71 112.38C115.71 112.042 115.748 111.668 115.748 111.33C115.748 111.105 115.71 110.543 115.898 110.355C116.01 110.243 116.085 110.205 116.273 110.13C116.685 109.98 117.322 109.98 117.772 109.98C118.41 109.98 119.16 110.168 119.647 110.505C120.659 111.18 120.884 111.705 121.147 112.08C121.596 112.755 121.746 114.179 121.709 114.892C121.634 115.867 121.446 116.279 121.034 117.179C120.809 117.629 120.509 118.154 120.097 118.528C119.984 118.641 119.872 118.753 119.722 118.828C119.872 118.903 119.947 118.978 120.059 119.053C120.584 119.428 120.809 119.728 121.184 120.178C121.709 120.928 121.971 121.453 122.234 122.465C122.421 123.252 122.571 124.227 122.571 125.014C122.534 125.839 122.459 127.001 121.971 127.714C121.671 128.126 121.484 128.389 121.109 128.726C120.847 128.951 120.622 129.138 120.322 129.288C119.947 129.476 119.834 129.551 119.422 129.663C119.16 129.738 118.897 129.851 118.147 129.851C117.772 129.851 116.798 129.851 116.498 129.851C116.385 129.851 115.898 129.813 115.86 129.438C115.86 129.326 115.823 128.351 115.86 128.239C115.823 128.164 115.898 125.427 115.898 125.277ZM117.435 128.126C117.547 128.164 118.372 128.126 118.447 128.126C119.047 128.089 119.834 127.526 119.984 127.301C120.247 126.964 120.622 126.477 120.622 125.502C120.622 125.164 120.659 124.677 120.622 124.34C120.584 123.552 120.509 122.99 120.172 122.165C120.022 121.753 119.834 121.303 119.309 120.778C119.309 120.778 118.972 120.441 118.747 120.216C118.635 120.103 118.56 120.066 118.485 120.028C118.41 119.991 118.26 119.953 118.072 119.953C117.772 119.953 117.397 119.991 117.285 119.991C117.285 120.216 117.322 120.478 117.322 120.703C117.36 121.49 117.247 122.24 117.285 123.065C117.322 123.815 117.247 124.452 117.285 125.202C117.435 126.102 117.36 127.039 117.435 128.126ZM117.397 118.378C117.585 118.341 117.885 118.266 117.997 118.191C119.047 117.554 119.234 116.804 119.497 116.241C119.647 115.792 119.872 115.417 119.834 114.667C119.797 114.067 119.797 113.317 119.497 112.792C119.309 112.492 118.672 111.893 118.26 111.818C117.885 111.63 117.322 111.818 117.322 112.23C117.322 112.642 117.285 113.355 117.322 113.767C117.36 114.217 117.397 114.817 117.397 115.267C117.397 115.942 117.472 116.804 117.435 117.704C117.435 117.929 117.397 118.154 117.397 118.378Z" fill="#211E1E"/>
<path d="M126.058 128.087C126.133 128.124 126.395 128.162 126.47 128.124C126.808 128.124 127.333 128.199 128.345 128.124C128.532 128.124 129.432 128.049 129.619 128.124C129.844 128.312 129.732 128.312 129.732 128.837C129.694 128.912 129.732 129.399 129.694 129.511C129.657 129.624 129.694 129.849 129.544 129.849C129.357 129.849 128.87 129.811 128.682 129.811C128.12 129.849 127.22 129.774 126.883 129.849C126.733 129.886 126.095 129.811 125.945 129.849C125.908 129.849 124.521 129.886 124.446 129.811C124.333 129.661 124.408 129.586 124.333 129.436C124.258 129.212 124.296 127.712 124.296 127.562C124.333 127.374 124.258 124.525 124.258 123.85C124.258 123.775 124.258 123.738 124.258 123.7V123.625C124.258 123.55 124.258 123.55 124.296 123.438C124.333 122.838 124.258 121.376 124.258 121.226C124.296 120.851 124.333 119.051 124.333 118.714C124.333 118.302 124.333 116.202 124.296 115.902C124.258 115.415 124.221 114.74 124.258 113.953C124.258 113.765 124.221 112.265 124.183 111.966C124.183 111.741 124.108 111.178 124.146 110.841C124.183 110.616 124.108 110.278 124.258 110.166C124.446 110.016 124.671 110.016 125.121 110.054C125.158 110.054 126.32 110.054 126.395 110.054C126.958 110.016 127.932 110.016 128.232 110.054C128.645 110.091 129.32 110.016 129.694 110.054C129.919 110.054 129.844 110.503 129.844 110.766C129.844 110.878 129.882 111.628 129.769 111.666C129.657 111.741 129.395 111.666 129.245 111.666C128.945 111.666 128.27 111.666 128.045 111.628C127.557 111.553 126.245 111.666 126.17 111.666C125.908 111.703 125.87 111.703 125.87 111.966C125.908 112.191 125.87 112.378 125.908 112.64C125.908 112.79 125.945 113.165 125.945 113.353C125.945 113.69 125.908 114.328 125.908 114.74C125.908 115.19 125.983 116.427 125.983 116.914C125.983 117.177 125.983 117.702 125.983 117.964C125.983 118.039 125.983 118.077 125.983 118.152C125.983 118.377 126.02 118.377 126.245 118.377C126.508 118.377 128.12 118.452 128.457 118.377C128.682 118.339 128.907 118.414 128.982 118.489C129.057 118.602 128.982 118.901 129.057 119.426C129.057 119.539 129.057 119.989 128.982 120.026C128.945 120.064 128.232 120.026 127.97 119.989C127.595 119.989 127.183 119.989 126.808 119.951C126.77 119.951 126.283 120.026 126.058 119.989C125.908 119.989 125.87 120.026 125.87 120.176C125.908 120.551 125.833 121.151 125.908 121.526C125.945 121.676 125.908 125.387 125.945 125.687C125.983 126.287 125.908 126.925 125.908 127.524C126.02 127.637 125.983 127.937 126.058 128.087Z" fill="#211E1E"/>
<path d="M133.219 128.087C133.294 128.124 133.556 128.162 133.631 128.124C133.969 128.124 134.493 128.199 135.506 128.124C135.693 128.124 136.593 128.049 136.78 128.124C137.005 128.312 136.893 128.312 136.893 128.837C136.855 128.912 136.893 129.399 136.855 129.511C136.818 129.624 136.855 129.849 136.705 129.849C136.518 129.849 136.031 129.811 135.843 129.811C135.281 129.849 134.381 129.774 134.043 129.849C133.894 129.886 133.256 129.811 133.106 129.849C133.069 129.849 131.682 129.886 131.607 129.811C131.494 129.661 131.569 129.586 131.494 129.436C131.419 129.212 131.457 127.712 131.457 127.562C131.494 127.374 131.419 124.525 131.419 123.85C131.419 123.775 131.419 123.738 131.419 123.7V123.625C131.419 123.55 131.419 123.55 131.457 123.438C131.494 122.838 131.419 121.376 131.419 121.226C131.457 120.851 131.494 119.051 131.494 118.714C131.494 118.302 131.494 116.202 131.457 115.902C131.419 115.415 131.382 114.74 131.419 113.953C131.419 113.765 131.382 112.265 131.344 111.966C131.344 111.741 131.269 111.178 131.307 110.841C131.344 110.616 131.269 110.278 131.419 110.166C131.607 110.016 131.832 110.016 132.281 110.054C132.319 110.054 133.481 110.054 133.556 110.054C134.118 110.016 135.093 110.016 135.393 110.054C135.806 110.091 136.48 110.016 136.855 110.054C137.08 110.054 137.005 110.503 137.005 110.766C137.005 110.878 137.043 111.628 136.93 111.666C136.818 111.741 136.555 111.666 136.405 111.666C136.106 111.666 135.431 111.666 135.206 111.628C134.718 111.553 133.406 111.666 133.331 111.666C133.069 111.703 133.031 111.703 133.031 111.966C133.069 112.191 133.031 112.378 133.069 112.64C133.069 112.79 133.106 113.165 133.106 113.353C133.106 113.69 133.069 114.328 133.069 114.74C133.069 115.19 133.144 116.427 133.144 116.914C133.144 117.177 133.144 117.702 133.144 117.964C133.144 118.039 133.144 118.077 133.144 118.152C133.144 118.377 133.181 118.377 133.406 118.377C133.669 118.377 135.281 118.452 135.618 118.377C135.843 118.339 136.068 118.414 136.143 118.489C136.218 118.602 136.143 118.901 136.218 119.426C136.218 119.539 136.218 119.989 136.143 120.026C136.106 120.064 135.393 120.026 135.131 119.989C134.756 119.989 134.343 119.989 133.969 119.951C133.931 119.951 133.444 120.026 133.219 119.989C133.069 119.989 133.031 120.026 133.031 120.176C133.069 120.551 132.994 121.151 133.069 121.526C133.106 121.676 133.069 125.387 133.106 125.687C133.144 126.287 133.069 126.925 133.069 127.524C133.181 127.637 133.144 127.937 133.219 128.087Z" fill="#211E1E"/>
<path d="M158.75 109.979C158.863 109.979 159.05 109.979 159.163 109.979C159.65 109.979 160.1 110.129 160.775 110.504C161.3 110.804 161.712 111.254 161.899 111.554C162.087 111.816 162.237 112.116 162.387 112.416C162.612 112.866 162.687 113.053 162.799 113.466L162.912 113.84C162.912 113.878 162.949 113.953 162.949 114.028C163.062 114.515 163.249 115.79 163.324 116.315C163.437 117.365 163.437 118.264 163.474 118.789C163.474 118.939 163.474 119.164 163.474 119.202C163.512 119.502 163.512 121.039 163.512 121.226V121.376C163.512 121.751 163.474 122.801 163.437 123.476C163.437 123.738 163.249 125.05 163.212 125.163L163.174 125.275C163.099 125.65 162.874 126.55 162.462 127.375C162.087 128.125 161.6 128.687 160.812 129.287C160.325 129.662 159.35 129.887 158.788 129.849C158.413 129.849 158.038 129.812 157.663 129.699C157.026 129.549 156.613 129.249 156.163 128.912C155.901 128.724 155.488 128.237 155.264 127.862C155.001 127.412 154.551 126.325 154.439 125.838C154.439 125.763 154.401 125.688 154.364 125.613C154.326 125.463 154.289 125.313 154.251 125.163C154.176 124.713 153.989 123.476 153.951 123.101C153.914 122.726 153.914 120.889 153.914 120.589C153.914 120.251 153.914 119.839 153.951 119.539C153.951 119.277 153.989 118.977 153.989 118.564C153.989 118.04 153.989 117.365 154.064 116.802C154.064 116.69 154.101 116.54 154.101 116.315C154.139 115.79 154.214 115.153 154.289 114.853C154.401 114.14 154.551 113.541 154.664 113.128C154.851 112.453 155.189 111.816 155.676 111.254C156.501 110.279 157.326 110.091 157.7 110.016C157.888 109.979 158.225 109.941 158.413 109.941C158.563 109.979 158.675 109.979 158.75 109.979ZM159.912 127.862C160.587 127.487 160.775 127.15 161 126.625C161.337 125.988 161.487 125.2 161.562 124.9L161.6 124.825C161.637 124.638 161.787 123.588 161.787 123.401C161.824 122.763 161.862 121.751 161.862 121.376V121.226C161.862 120.964 161.862 119.614 161.824 119.464C161.824 119.352 161.824 119.164 161.787 118.864C161.787 118.377 161.749 117.515 161.675 116.54C161.6 115.79 161.412 114.74 161.375 114.515C161.375 114.478 161.337 114.44 161.337 114.365C161.037 113.503 160.775 112.903 160.512 112.528C160.4 112.341 160.137 112.078 159.875 111.928C159.5 111.703 159.163 111.666 159.05 111.666C158.938 111.666 158.788 111.666 158.638 111.666C158.45 111.666 158.263 111.666 158.15 111.666C157.85 111.741 157.401 111.816 156.913 112.378C156.576 112.753 156.351 113.166 156.238 113.616C156.201 113.766 156.088 114.253 155.901 115.153C155.863 115.378 155.788 116.052 155.751 116.465C155.713 116.652 155.713 116.84 155.713 116.952C155.676 117.44 155.638 118.077 155.638 118.527C155.638 118.939 155.638 119.277 155.601 119.539C155.601 119.839 155.563 120.251 155.601 120.514C155.601 120.926 155.638 122.538 155.676 122.838C155.676 123.138 155.826 124.301 155.901 124.713C155.901 124.75 155.938 125.013 155.976 125.088C156.013 125.2 156.051 125.35 156.088 125.425C156.163 125.763 156.538 126.662 156.726 127C156.838 127.187 157.101 127.487 157.176 127.562C157.55 127.825 157.738 127.937 158.038 128.012C158.263 128.05 158.525 128.087 158.788 128.087C159.125 128.125 159.575 128.05 159.912 127.862Z" fill="#211E1E"/>
<path d="M169.622 110.018C169.735 110.018 169.922 110.018 170.035 110.018C170.522 110.018 170.972 110.168 171.647 110.543C172.172 110.843 172.584 111.293 172.772 111.593C172.959 111.855 173.109 112.155 173.259 112.455C173.484 112.905 173.559 113.092 173.672 113.505L173.784 113.88C173.784 113.917 173.822 113.992 173.822 114.067C173.934 114.554 174.121 115.829 174.196 116.354C174.309 117.404 174.309 118.304 174.346 118.828C174.346 118.978 174.346 119.203 174.346 119.241C174.384 119.541 174.384 121.078 174.384 121.265V121.415C174.384 121.79 174.346 122.84 174.309 123.515C174.309 123.777 174.121 125.089 174.084 125.202L174.046 125.314C173.971 125.689 173.747 126.589 173.334 127.414C172.959 128.164 172.472 128.726 171.685 129.326C171.197 129.701 170.222 129.926 169.66 129.888C169.285 129.888 168.91 129.851 168.535 129.738C167.898 129.588 167.485 129.288 167.036 128.951C166.773 128.764 166.361 128.276 166.136 127.901C165.873 127.451 165.423 126.364 165.311 125.877C165.311 125.802 165.274 125.727 165.236 125.652C165.199 125.502 165.161 125.352 165.124 125.202C165.049 124.752 164.861 123.515 164.824 123.14C164.786 122.765 164.786 120.928 164.786 120.628C164.786 120.291 164.786 119.878 164.824 119.578C164.824 119.316 164.861 119.016 164.861 118.603C164.861 118.079 164.861 117.404 164.936 116.841C164.936 116.729 164.974 116.579 164.974 116.354C165.011 115.829 165.086 115.192 165.161 114.892C165.274 114.179 165.423 113.58 165.536 113.167C165.723 112.492 166.061 111.855 166.548 111.293C167.373 110.318 168.198 110.13 168.573 110.055C168.76 110.018 169.098 109.98 169.285 109.98C169.398 109.98 169.51 110.018 169.622 110.018ZM170.747 127.864C171.422 127.489 171.61 127.151 171.834 126.627C172.172 125.989 172.322 125.202 172.397 124.902L172.434 124.827C172.472 124.64 172.622 123.59 172.622 123.402C172.659 122.765 172.697 121.753 172.697 121.378V121.228C172.697 120.965 172.697 119.616 172.659 119.466C172.659 119.353 172.659 119.166 172.622 118.866C172.622 118.378 172.584 117.516 172.509 116.541C172.434 115.792 172.247 114.742 172.209 114.517C172.209 114.479 172.172 114.442 172.172 114.367C171.872 113.505 171.61 112.905 171.347 112.53C171.235 112.342 170.972 112.08 170.71 111.93C170.335 111.705 169.997 111.668 169.885 111.668C169.772 111.668 169.622 111.668 169.473 111.668C169.285 111.668 169.098 111.668 168.985 111.668C168.685 111.743 168.235 111.818 167.748 112.38C167.411 112.755 167.186 113.167 167.073 113.617C167.036 113.767 166.923 114.254 166.736 115.154C166.698 115.379 166.623 116.054 166.586 116.466C166.548 116.654 166.548 116.841 166.548 116.954C166.511 117.441 166.473 118.079 166.473 118.528C166.473 118.941 166.473 119.278 166.436 119.541C166.436 119.841 166.398 120.253 166.436 120.515C166.436 120.928 166.473 122.54 166.511 122.84C166.511 123.14 166.661 124.302 166.736 124.715C166.736 124.752 166.773 125.014 166.811 125.089C166.848 125.202 166.886 125.352 166.923 125.427C166.998 125.764 167.373 126.664 167.56 127.001C167.673 127.189 167.935 127.489 168.01 127.564C168.385 127.826 168.573 127.939 168.873 128.014C169.098 128.051 169.36 128.089 169.622 128.089C169.96 128.164 170.41 128.089 170.747 127.864Z" fill="#211E1E"/>
<path d="M148.778 119.803C148.628 119.84 148.59 119.84 148.59 119.878C148.59 120.215 148.553 120.552 148.553 120.89C148.515 121.565 148.515 122.015 148.515 122.689C148.515 123.327 148.44 123.664 148.478 124.639C148.478 124.939 148.553 126.701 148.553 127.076C148.553 127.376 148.515 127.751 148.553 128.088C148.553 128.426 148.553 128.763 148.553 128.988C148.515 129.288 148.628 129.4 148.553 129.7C148.515 129.813 148.44 129.775 148.29 129.813C148.253 129.85 147.09 129.85 147.015 129.813C146.828 129.7 146.978 128.95 146.978 128.726C146.978 128.463 146.94 127.826 146.978 127.038C146.978 126.926 146.978 126.626 147.015 126.064C147.015 125.764 147.015 125.201 147.015 124.714C147.015 124.377 147.015 124.077 147.053 123.364C147.053 123.214 147.015 121.94 147.053 121.79C147.09 121.227 147.053 120.702 147.128 120.14C147.165 119.84 147.09 119.54 147.09 119.278C147.09 119.203 147.09 119.128 147.09 119.09C147.09 118.603 147.09 118.116 147.09 117.628C147.09 117.553 147.053 116.803 147.09 116.541C147.128 116.353 147.09 115.604 147.09 115.491C147.128 115.154 147.09 115.229 147.09 114.854C147.09 114.216 147.015 112.754 147.015 112.717C147.09 112.267 147.015 111.817 147.128 111.367C147.278 110.73 147.615 110.242 148.253 110.017C148.515 109.942 149.077 109.98 149.527 110.055C150.277 110.242 150.727 110.542 150.989 110.767C151.214 110.992 151.364 111.217 151.589 111.405C151.852 111.667 151.964 112.004 152.114 112.304C152.189 112.492 152.227 112.679 152.302 112.904C152.489 113.467 152.527 114.066 152.527 114.291C152.527 115.116 152.414 115.641 152.302 115.941C152.077 116.616 151.964 116.953 151.627 117.516C151.589 117.591 151.477 117.778 151.402 117.853C151.139 118.153 151.139 118.303 150.84 118.565C150.69 118.715 150.202 119.165 150.24 119.203C150.39 119.878 150.727 120.328 150.877 121.002C151.064 121.752 151.327 122.427 151.552 123.214C151.702 123.777 151.889 124.227 152.114 125.126C152.302 125.576 152.414 126.251 152.564 126.813C152.752 127.488 152.864 127.863 153.089 128.538C153.201 128.838 153.314 129.175 153.276 129.513C153.239 129.813 152.789 129.738 152.414 129.738C152.302 129.738 151.889 129.775 151.777 129.7C151.627 129.475 151.477 129.138 151.252 128.088C151.252 128.051 150.615 125.576 150.39 124.864C150.165 124.152 149.752 122.614 149.602 122.015C149.415 121.265 149.077 120.477 148.927 120.14C148.852 120.065 148.852 119.99 148.778 119.803ZM148.59 117.103C148.59 117.366 148.59 117.853 148.628 118.116C148.665 118.265 148.703 118.303 148.852 118.265C149.077 118.153 149.302 118.003 149.415 117.816C149.602 117.516 150.165 116.841 150.352 116.353C150.502 115.941 150.652 116.016 150.84 114.929C150.877 114.779 150.952 114.216 150.765 113.542C150.652 113.092 150.577 112.904 150.352 112.642C150.165 112.379 149.94 112.192 149.79 112.079C149.602 111.929 149.34 111.855 149.077 111.855C148.965 111.855 148.628 111.855 148.59 111.929C148.515 112.117 148.553 112.454 148.553 112.529C148.59 112.867 148.553 113.279 148.59 113.579C148.703 114.554 148.628 115.304 148.59 116.278C148.59 116.578 148.59 116.841 148.59 117.103Z" fill="#211E1E"/>
<path d="M142.779 114.74C142.779 115.64 142.629 122.95 142.666 122.95C142.629 123.063 142.666 124.075 142.666 124.113C142.666 124.263 142.666 124.975 142.666 126.1C142.666 126.512 142.666 128.049 142.666 128.462C142.666 128.537 142.666 128.874 142.704 129.361C142.704 129.511 142.704 129.661 142.704 129.699C142.704 129.774 142.704 129.774 142.666 129.811C142.629 129.849 142.516 129.849 142.329 129.849C142.179 129.849 141.954 129.849 141.804 129.849C141.204 129.849 141.167 129.886 141.167 129.774C141.167 129.586 141.167 129.024 141.167 128.762C141.167 128.312 141.167 127.562 141.167 127.149C141.167 126.7 141.129 125.987 141.167 125.537C141.167 125.537 141.242 124.263 141.279 123.625C141.279 123.475 141.279 123.363 141.279 123.213C141.279 122.576 141.317 121.976 141.354 121.338C141.354 120.776 141.279 120.401 141.279 119.839C141.279 119.351 141.317 118.864 141.317 118.377C141.317 118.189 141.317 118.039 141.279 117.852C141.242 117.327 141.242 116.614 141.204 116.052C141.204 115.865 141.204 115.64 141.204 115.452C141.204 114.965 141.204 114.44 141.204 113.953C141.204 113.84 141.167 113.428 141.167 113.165C141.167 112.565 141.204 111.853 141.129 111.778C141.092 111.703 140.604 111.741 140.379 111.741C139.967 111.741 139.78 111.666 139.18 111.703C138.73 111.703 138.392 111.741 138.242 111.703C138.205 111.628 138.205 111.253 138.205 110.878C138.205 110.503 138.205 110.091 138.242 110.053C138.43 109.979 138.767 109.979 138.992 109.979C139.705 109.979 140.08 109.979 140.717 109.979C141.392 109.979 141.954 110.016 142.629 109.979C143.304 109.979 143.829 109.979 144.316 110.016C144.503 110.016 144.991 109.979 145.628 109.979C146.003 109.979 145.816 110.128 145.853 110.503C145.891 110.728 145.891 111.478 145.816 111.591C145.703 111.666 145.366 111.666 145.028 111.703C144.541 111.741 144.391 111.703 143.566 111.741C143.266 111.741 142.929 111.741 142.816 111.741C142.816 112.041 142.779 112.753 142.741 113.428C142.741 113.465 142.779 114.74 142.779 114.74Z" fill="#211E1E"/>
<path d="M178.808 114.74C178.808 115.64 178.658 122.95 178.696 122.95C178.658 123.063 178.696 124.075 178.696 124.113C178.696 124.263 178.696 124.975 178.696 126.1C178.696 126.512 178.696 128.049 178.696 128.462C178.696 128.537 178.696 128.874 178.733 129.361C178.733 129.511 178.733 129.661 178.733 129.699C178.733 129.774 178.733 129.774 178.696 129.811C178.658 129.849 178.546 129.849 178.358 129.849C178.208 129.849 177.983 129.849 177.833 129.849C177.233 129.849 177.196 129.886 177.196 129.774C177.196 129.586 177.196 129.024 177.196 128.762C177.196 128.312 177.196 127.562 177.196 127.149C177.196 126.7 177.158 125.987 177.196 125.537C177.196 125.537 177.271 124.263 177.308 123.625C177.308 123.475 177.308 123.363 177.308 123.213C177.308 122.576 177.346 121.976 177.383 121.338C177.383 120.776 177.308 120.401 177.308 119.839C177.308 119.351 177.346 118.864 177.346 118.377C177.346 118.189 177.346 118.039 177.308 117.852C177.271 117.327 177.271 116.614 177.233 116.052C177.233 115.865 177.233 115.64 177.233 115.452C177.233 114.965 177.233 114.44 177.233 113.953C177.233 113.84 177.196 113.428 177.196 113.165C177.196 112.565 177.233 111.853 177.158 111.778C177.121 111.703 176.634 111.741 176.409 111.741C175.996 111.741 175.809 111.666 175.209 111.703C174.759 111.703 174.422 111.741 174.272 111.703C174.234 111.628 174.234 111.253 174.234 110.878C174.234 110.503 174.234 110.091 174.272 110.053C174.459 109.979 174.796 109.979 175.021 109.979C175.734 109.979 176.109 109.979 176.746 109.979C177.421 109.979 177.983 110.016 178.658 109.979C179.333 109.979 179.858 109.979 180.345 110.016C180.533 110.016 181.02 109.979 181.657 109.979C182.032 109.979 181.845 110.128 181.882 110.503C181.92 110.728 181.92 111.478 181.845 111.591C181.732 111.666 181.395 111.666 181.058 111.703C180.57 111.741 180.42 111.703 179.595 111.741C179.295 111.741 178.958 111.741 178.846 111.741C178.846 112.041 178.808 112.753 178.771 113.428C178.771 113.465 178.808 114.74 178.808 114.74Z" fill="#211E1E"/>
</svg>
