<svg width="290" height="290" viewBox="0 0 290 290" fill="none" xmlns="http://www.w3.org/2000/svg">
<rect width="290" height="290" fill="white"/>
<g clip-path="url(#clip0)">
<path d="M61.1026 138.799C66.6821 138.799 71.2052 134.255 71.2052 128.649C71.2052 123.043 66.6821 118.498 61.1026 118.498C55.5231 118.498 51 123.043 51 128.649C51 134.255 55.5231 138.799 61.1026 138.799Z" fill="#FCE600"/>
<path d="M97.603 118.066C85.9184 118.066 78.3923 126.309 78.3923 139.049C78.3923 151.606 85.941 159.736 97.603 159.736C106.417 159.736 112.994 155.081 115.639 146.951L115.774 146.52L111.932 145.543C111.005 145.362 110.237 145.77 109.875 146.656C107.638 151.856 103.389 154.604 97.603 154.604C89.7379 154.604 84.5397 149.336 83.9521 140.843H114.961C115.978 140.843 116.814 140.002 116.814 138.981V138.458C116.836 126.264 109.107 118.066 97.603 118.066ZM97.603 123.198C104.858 123.198 109.988 127.967 111.096 135.665H84.0651C85.1951 127.944 90.3708 123.198 97.603 123.198Z" fill="#010101"/>
<path d="M159.145 153.81H159.078C157.337 153.81 156.456 152.72 156.456 150.585V132.419C156.456 123.245 150.693 117.977 140.635 117.977C132.476 117.977 127.843 123.109 125.832 126.151L125.606 126.492L127.956 128.173C128.86 128.808 130.329 128.672 131.03 127.877L131.075 127.809C132.408 126.242 135.166 123.018 140.748 123.018C148.297 123.018 150.964 127.287 150.964 130.966V131.034C150.964 131.942 150.964 134.077 139.55 135.121C129.29 136.143 123.639 140.707 123.639 147.951C123.639 155.263 128.521 159.623 136.703 159.623C143.257 159.623 148.116 157.353 151.122 152.834C151.89 156.694 154.806 158.965 159.1 158.965H160.75V155.468C160.795 154.514 160.117 153.81 159.145 153.81ZM137.177 154.605C132.273 154.605 129.199 152.062 129.199 147.974C129.199 143.228 132.544 140.98 140.771 140.185C145.879 139.595 149.246 138.505 151.009 136.87V140.344C151.009 149.677 146.218 154.605 137.177 154.605Z" fill="#010101"/>
<path d="M198.267 147.701C198.267 155.24 192.414 159.736 182.605 159.736C176.774 159.736 171.192 157.329 167.688 153.264L167.417 152.969L170.107 150.448C170.943 149.699 171.757 149.722 172.57 150.539C174.559 152.537 178.65 154.558 182.628 154.558C189.159 154.558 192.775 152.129 192.775 147.701C192.775 144.181 189.905 141.637 184.707 140.547L183.758 140.366C182.221 140.093 180.774 139.821 179.125 139.457C172.48 138.163 168.525 134.189 168.525 128.875C168.525 122.313 174.085 118.066 182.673 118.066C189.928 118.066 194.606 121.972 196.233 124.266L196.459 124.584L193.77 126.786C192.866 127.513 191.984 127.468 191.193 126.696C189.114 124.447 185.86 123.108 182.447 123.108C177.452 123.108 173.972 125.378 173.972 128.648C173.972 132.282 176.977 133.712 179.509 134.28L185.362 135.506C193.431 137.255 198.267 141.819 198.267 147.701Z" fill="#010101"/>
<path d="M238 118.861L220.733 165.118C219.151 169.364 215.648 171.998 211.602 171.998H208.144V168.524C208.144 167.525 208.958 166.73 209.997 166.73H211.806C213.478 166.73 214.947 165.368 215.828 163.006L217.501 158.442L202.584 118.861H208.528L220.123 150.517C220.168 150.63 220.19 150.766 220.236 150.925L231.988 118.861H238Z" fill="#010101"/>
</g>
<defs>
<clipPath id="clip0">
<rect width="187" height="54" fill="white" transform="translate(51 118)"/>
</clipPath>
</defs>
</svg>
