<svg width="290" height="290" viewBox="0 0 290 290" fill="none" xmlns="http://www.w3.org/2000/svg">
<rect width="290" height="290" fill="white"/>
<path d="M115.008 152.626H113.23V157.228H114.467C115.182 157.267 115.897 157.052 116.457 156.621C116.94 156.19 117.211 155.544 117.172 154.898C117.191 154.31 116.979 153.723 116.592 153.292C116.187 152.842 115.607 152.607 115.008 152.626ZM130.235 159.147H133.578L131.954 153.86L130.235 159.147ZM175.683 152.47C174.678 152.411 173.712 152.881 173.132 153.703C172.456 154.956 172.147 156.386 172.263 157.815C172.166 159.206 172.436 160.596 173.055 161.849C173.557 162.711 174.485 163.2 175.47 163.161C176.494 163.22 177.48 162.73 178.059 161.888C179.238 159.304 179.258 156.347 178.137 153.742C177.596 152.92 176.668 152.45 175.683 152.509V152.47ZM202.948 145.263H162.466V142.737L145.558 137.822L128.573 142.737V145.263H88.3999L92.6703 158.442L88.3999 171.679H129.404C129.867 172.365 130.409 172.991 131.008 173.54L131.066 173.598L131.529 174.01L131.607 174.088L132.09 174.499L132.148 174.558C133.346 175.517 134.621 176.399 135.935 177.201L136.592 177.593H136.65L137.307 177.985C138.466 178.651 139.587 179.277 140.63 179.845L141.21 180.139H141.268L141.809 180.413H141.886L142.389 180.667H142.447L144.205 181.509H144.283L144.553 181.627L144.669 181.666L144.862 181.764L144.978 181.803L145.133 181.862L145.249 181.901H145.326L145.442 181.96H145.481H145.577H145.655H145.712L145.867 181.901H145.964L146.138 181.823L146.292 181.764L146.466 181.686L146.659 181.588L146.853 181.509L147.104 181.392H147.2L147.896 181.059L148.07 180.981L148.418 180.805L148.65 180.687L149.017 180.511L149.249 180.393L149.635 180.198L149.867 180.08L150.292 179.865L150.505 179.747L150.968 179.512L151.162 179.414C151.722 179.121 152.302 178.807 152.881 178.474L153.055 178.376L153.538 178.102L153.77 177.965L154.234 177.691L154.485 177.534L154.949 177.26L155.2 177.104L155.664 176.81L155.915 176.653L156.379 176.34L156.572 176.203C157.113 175.831 157.654 175.459 158.137 175.067L158.331 174.91L158.717 174.597L158.949 174.401L159.316 174.088L159.587 173.951L159.915 173.657L160.128 173.461L160.437 173.168L160.63 172.972L160.9 172.658L161.055 172.463C161.268 172.208 161.461 171.954 161.635 171.679H202.851L198.581 158.442L202.948 145.263ZM121.926 165.687H117.906L116.071 161.575C115.839 160.968 115.53 160.4 115.143 159.891C114.815 159.617 114.409 159.499 113.984 159.539H113.211V163.22L114.776 163.788V165.726H108.225V163.788L109.849 163.22V152.646L108.225 151.98V150.12L113.211 150.002H114.853C116.341 149.904 117.81 150.316 119.027 151.158C120.032 151.98 120.573 153.253 120.496 154.545C120.612 156.327 119.626 157.992 118.042 158.755C118.409 159.186 118.718 159.676 118.969 160.204L120.418 163.259L121.906 163.807V165.687H121.926ZM140.109 165.687H133.21V163.749L134.834 163.24L134.312 161.575H129.481L128.94 163.22L130.64 163.749V165.687H124.09V163.749L125.674 163.24L130.447 150.061L133.925 150.002L138.582 163.24L140.109 163.749V165.687ZM154.678 163.514C153.326 164.982 151.393 165.766 149.403 165.668H142.679V163.729L144.302 163.161V152.587L142.679 151.921V150.061L147.664 149.943H149.732C151.625 149.826 153.48 150.531 154.833 151.902C156.147 153.488 156.804 155.524 156.669 157.58C156.785 159.774 156.07 161.888 154.678 163.514ZM165.983 151.941L164.359 152.607V163.181L165.983 163.749V165.687H159.374V163.749L160.997 163.181V152.607L159.374 151.941V150.081L165.983 149.963V151.941ZM180.629 163.67C179.296 165.198 177.364 166.04 175.374 165.961C173.499 166.079 171.664 165.335 170.388 163.905C169.229 162.535 168.649 160.557 168.649 157.933C168.533 155.759 169.209 153.605 170.581 151.902C171.915 150.413 173.847 149.611 175.818 149.708C177.731 149.591 179.567 150.355 180.861 151.784C182.137 153.429 182.774 155.505 182.658 157.6C182.755 159.832 182.021 161.986 180.629 163.67ZM149.635 152.607H147.703V163.063H149.538C150.563 163.122 151.529 162.652 152.147 161.83C152.862 160.596 153.191 159.147 153.075 157.717C153.191 156.347 152.881 154.996 152.224 153.801C151.606 152.979 150.621 152.528 149.635 152.607Z" fill="black"/>
<path d="M62.7388 125.526L63.9561 124.253L63.1832 122.491L57.1157 125.35L57.85 127.014L59.6857 126.916L62.3523 133.006C62.8354 133.907 63.0673 134.925 63.0286 135.943C62.7968 136.766 62.1398 137.412 61.3282 137.627C60.6132 138.039 59.763 138.097 59.0094 137.804C58.2365 137.255 57.6568 136.472 57.3476 135.571L54.5844 129.188L55.8791 127.876L55.1061 126.113L49 128.972L49.7343 130.637L51.4927 130.578L54.2559 136.962C55.1061 138.92 56.1882 140.173 57.4636 140.682C58.7389 141.211 60.362 141.015 62.3137 140.134C64.3813 139.194 65.6373 138.039 66.0817 136.668C66.4875 134.945 66.2556 133.124 65.4247 131.577L62.7388 125.526ZM84.9605 129.09L82.6803 126.642C82.2939 126.231 81.8687 125.859 81.3857 125.545C82.661 124.37 83.1054 122.51 82.5064 120.865C82.2166 119.592 81.3277 118.555 80.1297 118.065C78.6997 117.634 77.1925 117.693 75.8013 118.241L74.2168 118.731L69.4826 120.337L70.0236 122.099L71.7627 122.236L74.8158 132.242L73.4245 133.261L73.9849 135.121L80.2649 133.163L79.7045 131.302L78.0428 131.244L76.98 127.758L77.7143 127.543C78.1007 127.386 78.5452 127.386 78.9316 127.543C79.4533 127.915 79.9171 128.365 80.3036 128.874L83.2407 132.223L87.086 131.028L86.5256 129.168L84.9605 129.09ZM79.2215 123.959C78.7964 124.547 78.1973 124.978 77.4824 125.134L76.3037 125.506L74.9897 121.198L76.6901 120.669C77.2505 120.454 77.8495 120.493 78.3906 120.767C78.893 121.061 79.2794 121.551 79.4147 122.119C79.6466 122.745 79.5693 123.431 79.2215 123.959ZM98.8345 120.004C100.361 119.279 101.134 117.536 100.67 115.892C100.516 114.795 99.82 113.835 98.8345 113.365C97.6751 112.915 96.4191 112.837 95.2211 113.17L92.9796 113.659L88.1681 114.815L88.5546 116.596L90.2937 116.91L92.4385 127.171C91.7815 127.562 91.2791 127.856 90.9506 128.052L91.3371 129.912L98.0423 128.483C101.714 127.68 103.26 125.8 102.641 122.823C102.255 121.1 100.999 120.18 98.8345 120.004ZM93.482 116.205L95.3177 115.813C95.7814 115.696 96.2838 115.735 96.709 115.95C97.1147 116.185 97.4046 116.616 97.4819 117.086C97.7717 118.418 97.1147 119.26 95.5302 119.612L94.2936 119.867L93.482 116.205ZM98.9504 125.075C98.5447 125.565 97.9843 125.878 97.3659 125.957L95.6075 126.348L94.68 122.138L95.9167 121.884C96.651 121.668 97.4432 121.688 98.1582 121.981C98.7379 122.314 99.105 122.882 99.2016 123.548C99.3369 124.077 99.2403 124.645 98.9311 125.095L98.9504 125.075ZM122.022 122.295L115.8 109.841L112.341 110.35L109.192 123.901L107.665 124.605L107.897 126.466L114.409 125.643L114.177 123.783L112.438 123.47L112.786 121.786L117.578 121.179L118.293 122.745L116.747 123.45L116.979 125.31L123.839 124.449L123.607 122.589L122.022 122.295ZM113.25 119.358L114.312 113.953L116.573 118.946L113.25 119.358ZM143.201 108L137.017 108.352L137.094 110.213L138.698 110.8L138.988 118.378L132.727 108.45L127.51 108.764L127.587 110.624L129.249 111.211L129.655 121.688L128.051 122.295L128.128 124.214L134.428 123.959L134.351 122.04L132.631 121.551L132.322 114.07L138.524 123.822L142.157 123.666L141.674 110.604L143.278 109.88L143.201 108ZM162.195 111.505C162.717 111.211 163.335 111.114 163.934 111.192C164.591 111.251 165.229 111.407 165.828 111.662L166.234 113.522L168.224 113.659L168.611 109.664L167.973 109.41C167.374 109.175 166.756 108.999 166.137 108.842C165.403 108.646 164.63 108.509 163.876 108.45C162.446 108.274 161.017 108.607 159.818 109.39C158.736 110.154 158.079 111.388 158.06 112.719C157.983 113.483 158.118 114.266 158.447 114.971C158.736 115.578 159.161 116.087 159.703 116.479C160.244 116.851 160.823 117.184 161.422 117.478C161.983 117.771 162.562 118.026 163.142 118.261C163.625 118.437 164.07 118.692 164.456 119.044C164.765 119.299 164.939 119.71 164.92 120.121C164.881 120.669 164.572 121.159 164.07 121.374C163.49 121.668 162.833 121.786 162.176 121.727C161.442 121.707 160.727 121.492 160.07 121.12L159.876 119.26L157.654 119.103L157.364 123.333L158.002 123.568C158.601 123.803 159.219 123.979 159.838 124.135C160.591 124.331 161.345 124.449 162.118 124.508C163.644 124.684 165.171 124.312 166.427 123.45C167.586 122.608 168.301 121.257 168.321 119.808C168.398 119.064 168.263 118.32 167.934 117.654C167.644 117.066 167.219 116.557 166.678 116.185C166.137 115.833 165.557 115.5 164.978 115.206C164.359 114.893 163.799 114.638 163.258 114.423C162.775 114.247 162.33 113.972 161.944 113.64C161.635 113.385 161.461 112.974 161.48 112.563C161.519 112.093 161.789 111.701 162.215 111.486V111.505H162.195ZM182.446 110.761L180.398 110.487L175.432 109.899L175.18 111.701L176.707 112.641L175.296 122.941L173.596 123.254L173.325 125.115L179.895 126.055L180.166 124.194L178.62 123.411L178.968 120.493L180.108 120.669C181.731 121.022 183.412 120.748 184.861 119.945C186.117 119.064 186.91 117.634 187.006 116.087C187.238 114.815 186.91 113.503 186.079 112.523C185.113 111.505 183.818 110.879 182.427 110.761H182.446ZM183.625 116.068C183.567 116.773 183.219 117.399 182.658 117.811C182.002 118.183 181.229 118.3 180.494 118.143L179.354 117.987L180.031 113.072L181.75 113.307C182.388 113.365 182.948 113.698 183.296 114.247C183.625 114.775 183.741 115.422 183.644 116.029L183.625 116.068ZM202.465 114.638L199.064 113.914L191.547 125.526L189.885 125.663L189.46 127.523L195.895 129.011L196.32 127.151L194.774 126.211L195.702 124.743L200.397 125.839L200.552 127.582L198.851 127.699L198.426 129.56L205.17 131.126L205.595 129.266L204.223 128.424L202.465 114.638ZM196.88 122.686L199.702 118.026L200.146 123.489L196.88 122.686ZM222.812 120.669C222.097 120.258 221.344 119.925 220.571 119.651C218.696 118.907 216.59 119.064 214.812 120.043C212.957 121.198 211.605 123.039 211.044 125.173C210.252 127.582 210.233 129.618 210.967 131.263C211.817 133.006 213.363 134.298 215.218 134.808C215.836 135.003 216.455 135.121 217.112 135.16C217.672 135.219 218.232 135.219 218.793 135.16C219.257 135.101 219.72 135.003 220.165 134.847C220.474 134.749 220.783 134.651 221.092 134.533L221.421 134.377L220.899 132.047L220.261 132.242C219.682 132.399 219.102 132.477 218.503 132.477C217.827 132.517 217.15 132.419 216.493 132.203C214.155 131.42 213.518 129.423 214.561 126.211C215.682 122.784 217.382 121.472 219.643 122.236C220.435 122.491 221.17 122.863 221.846 123.352L221.653 125.526L223.682 126.211L225.092 122.275L224.513 121.805C223.991 121.374 223.43 121.002 222.831 120.669H222.812ZM236.416 126.25L231.817 124.233L231.063 125.898L232.28 127.19L228.01 136.707L226.29 136.511L225.498 138.254L235.817 143.052L237.652 139.037L235.817 138.195L234.619 139.644L231.121 138.019L232.86 134.142L236.86 136.002L237.846 133.789L233.846 131.929L235.372 128.581L238.58 130.069L238.387 131.812L240.222 132.673L241.961 128.796L236.416 126.25Z" fill="black"/>
</svg>
