<svg width="290" height="290" viewBox="0 0 290 290" fill="none" xmlns="http://www.w3.org/2000/svg">
<rect width="290" height="290" fill="white"/>
<g clip-path="url(#clip0)">
<path d="M120.556 129.331C122.068 129.331 123.437 129.907 124.493 130.943L125.006 131.461L126.945 129.792L126.346 129.187C124.806 127.633 122.753 126.799 120.585 126.799C118.218 126.799 116.164 127.605 114.709 129.101C113.226 130.626 112.428 132.756 112.428 135.087C112.456 139.115 114.966 143.173 120.585 143.173C122.781 143.173 124.835 142.31 126.346 140.784L126.917 140.209L125.063 138.454L124.521 138.971C123.494 140.007 122.04 140.583 120.585 140.583C116.535 140.583 115.08 137.59 115.052 135.029C115.052 133.36 115.594 131.892 116.592 130.856C117.533 129.849 118.902 129.331 120.556 129.331Z" fill="black"/>
<path d="M137.442 126.713C131.937 126.713 129.427 130.972 129.427 134.943C129.427 140.641 133.563 143.231 137.442 143.231C142.918 143.231 145.428 138.972 145.456 135.001C145.456 132.612 144.658 130.454 143.175 128.957C141.748 127.49 139.752 126.713 137.442 126.713ZM137.442 140.641C134.789 140.641 132.079 138.886 132.051 134.972C132.051 133.274 132.593 131.778 133.591 130.77C134.532 129.792 135.844 129.303 137.442 129.303C141.178 129.303 142.832 132.152 142.832 134.972C142.861 137.706 141.15 140.641 137.442 140.641Z" fill="black"/>
<path d="M159.917 133.85H151.646V129.62H160.202V126.943H148.993V143.001H151.646V136.44H159.917V133.85Z" fill="black"/>
<path d="M166.192 129.62H174.749V126.943H163.568V143.001H166.192V136.44H174.464V133.85H166.192V129.62Z" fill="black"/>
<path d="M180.738 136.21H189.152V133.62H180.738V129.562H189.552V126.943H178.114V142.972H189.808V140.353H180.738V136.21Z" fill="black"/>
<path d="M195.77 136.21H204.184V133.62H195.77V129.562H204.583V126.943H193.146V142.972H204.84V140.353H195.77V136.21Z" fill="black"/>
<path d="M220.584 126.943H217.931V142.972H228.656V140.382H220.584V126.943Z" fill="black"/>
<path d="M238.04 126.944L238.011 126.887L237.983 126.944H236.927L229.797 142.973H232.649L234.218 139.405H241.776L243.345 142.973H246.225L239.095 126.944H238.04ZM235.33 136.844L238.011 130.743L240.692 136.844H235.33Z" fill="black"/>
<path d="M259.118 134.713C260.002 133.965 260.515 132.9 260.515 131.663C260.515 128.411 257.749 126.943 255.039 126.943H248.393V142.972H255.039C258.775 142.972 261.029 141.274 261.029 138.425C261 136.9 260.287 135.548 259.118 134.713ZM255.182 133.505H251.017V129.447H255.01C255.296 129.447 257.92 129.505 257.92 131.663C257.92 132.123 257.92 133.505 255.182 133.505ZM251.017 136.123H255.182C255.923 136.123 258.376 136.296 258.376 138.397C258.376 138.886 258.376 140.353 255.039 140.353H251.046V136.123H251.017Z" fill="black"/>
<path d="M122.81 156.498C122.81 154.8 121.612 153.275 119.33 153.246C117.79 153.246 116.25 153.246 114.709 153.246V163.03H116.535V159.75H118.303L121.127 163.03H123.295V162.915L120.357 159.577C122.211 159.174 122.81 157.822 122.81 156.498ZM116.535 158.081V154.944H119.33C120.471 154.944 120.984 155.721 120.984 156.498C120.984 157.275 120.499 158.052 119.33 158.052H116.535V158.081Z" fill="black"/>
<path d="M138.583 153.043C135.217 153.043 133.591 155.633 133.591 158.194C133.591 160.755 135.16 163.23 138.583 163.23C141.977 163.23 143.517 160.698 143.545 158.165C143.574 155.633 141.92 153.043 138.583 153.043ZM138.583 161.561C136.301 161.561 135.445 159.834 135.388 158.223C135.36 156.583 136.301 154.712 138.583 154.712C140.864 154.712 141.777 156.554 141.749 158.194C141.72 159.834 140.864 161.561 138.583 161.561Z" fill="black"/>
<path d="M158.206 153.246L153.842 163.03H155.81L156.637 161.189H161.714L162.541 163.03H164.538L160.202 153.246H158.206ZM157.407 159.462L159.204 155.289L161.001 159.462H157.407Z" fill="black"/>
<path d="M179.056 157.044C177.886 156.9 176.888 156.67 176.888 155.807C176.888 155.087 177.544 154.512 178.884 154.512C179.94 154.512 180.853 155.03 181.195 155.605L182.649 154.857C181.908 153.361 180.339 152.9 178.827 152.9C177.031 152.9 175.063 153.735 175.063 155.749C175.063 157.936 176.888 158.483 178.884 158.713C180.168 158.857 181.138 159.231 181.138 160.152C181.138 161.217 180.054 161.62 178.913 161.62C177.744 161.62 176.603 161.131 176.175 160.066L174.663 160.872C175.376 162.656 176.916 163.289 178.884 163.289C181.052 163.289 182.963 162.339 182.963 160.181C182.963 157.821 181.081 157.303 179.056 157.044Z" fill="black"/>
<path d="M193.773 154.915H196.853V163.03H198.679V154.915H201.759V153.246C198.936 153.246 196.568 153.246 193.773 153.246V154.915Z" fill="black"/>
<path d="M212.826 163.03H220.099V161.217H214.651V159.001H219.899V157.275H214.651V155.03H220.099V153.246H212.826C212.826 156.498 212.826 159.778 212.826 163.03Z" fill="black"/>
<path d="M239.58 156.498C239.58 154.8 238.382 153.275 236.1 153.246C234.56 153.246 233.02 153.246 231.479 153.246V163.03H233.305V159.75H235.073L237.897 163.03H240.065V162.915L237.127 159.577C238.981 159.174 239.58 157.822 239.58 156.498ZM233.305 158.081V154.944H236.1C237.241 154.944 237.754 155.721 237.754 156.498C237.754 157.275 237.269 158.052 236.1 158.052H233.305V158.081Z" fill="black"/>
<path d="M255.039 157.044C253.87 156.9 252.871 156.67 252.871 155.807C252.871 155.087 253.527 154.512 254.868 154.512C255.923 154.512 256.836 155.03 257.178 155.605L258.633 154.857C257.891 153.361 256.322 152.9 254.811 152.9C253.014 152.9 251.046 153.735 251.046 155.749C251.046 157.936 252.871 158.483 254.868 158.713C256.151 158.857 257.121 159.231 257.121 160.152C257.121 161.217 256.037 161.62 254.896 161.62C253.727 161.62 252.586 161.131 252.158 160.066L250.646 160.872C251.36 162.656 252.9 163.289 254.868 163.289C257.035 163.289 258.946 162.339 258.946 160.181C258.946 157.821 257.064 157.303 255.039 157.044Z" fill="black"/>
<path d="M62.6848 179C44.1168 179 29 163.748 29 144.986C29 126.223 44.1168 111 62.6848 111C81.2528 111 96.3696 126.252 96.3696 144.986C96.3696 163.719 81.2813 179 62.6848 179ZM62.6848 112.842C45.1151 112.842 30.8254 127.259 30.8254 144.986C30.8254 162.712 45.1151 177.158 62.7133 177.158C80.3115 177.158 94.6012 162.741 94.6012 144.986C94.6012 127.23 80.283 112.842 62.6848 112.842Z" fill="black"/>
<path d="M64.1394 128.036C64.2535 127.921 64.4247 128.065 64.3676 128.209C63.2552 130.885 62.6278 133.59 62.5992 136.209C62.5422 139.029 63.1982 141.705 64.3391 144.237C65.7082 147.288 66.2786 150.827 65.6226 154.108C65.0236 157.187 63.4834 160.007 61.2587 161.964C61.1446 162.079 60.9735 161.935 61.0305 161.791C62.1429 159.115 62.7704 156.41 62.7989 153.791C62.8559 150.971 62.1999 148.295 61.059 145.763C59.69 142.712 59.1195 139.173 59.7755 135.892C60.3745 132.813 61.9147 129.964 64.1394 128.036Z" fill="black"/>
<path d="M55.4687 132.583C55.5828 132.468 55.7539 132.612 55.6969 132.756C54.8412 134.827 54.3563 136.928 54.3563 138.971C54.2993 141.187 54.8412 143.317 55.7254 145.331C56.8092 147.748 57.2656 150.54 56.7237 153.158C56.2673 155.547 55.0694 157.763 53.358 159.288C53.244 159.403 53.0728 159.259 53.1299 159.115C53.9855 157.043 54.4704 154.943 54.4704 152.899C54.5275 150.684 53.9855 148.554 53.1013 146.54C52.0175 144.122 51.5611 141.331 52.1031 138.712C52.5594 136.324 53.7288 134.108 55.4687 132.583Z" fill="black"/>
<path d="M72.0401 132.583C72.1542 132.468 72.3253 132.612 72.2683 132.756C71.4126 134.827 70.9277 136.928 70.9277 138.971C70.8707 141.187 71.4126 143.317 72.2968 145.331C73.3806 147.748 73.837 150.54 73.2951 153.158C72.8387 155.547 71.6408 157.763 69.9295 159.288C69.8154 159.403 69.6442 159.259 69.7013 159.115C70.5569 157.043 71.0418 154.943 71.0418 152.899C71.0989 150.684 70.5569 148.554 69.6728 146.54C68.5889 144.122 68.1326 141.331 68.6745 138.712C69.1594 136.324 70.3288 134.108 72.0401 132.583Z" fill="black"/>
</g>
<defs>
<clipPath id="clip0">
<rect width="232" height="68" fill="white" transform="translate(29 111)"/>
</clipPath>
</defs>
</svg>
