<svg width="290" height="290" viewBox="0 0 290 290" fill="none" xmlns="http://www.w3.org/2000/svg">
<rect width="290" height="290" fill="white"/>
<g clip-path="url(#clip0)">
<path d="M49 121.537C57.0932 121.537 65.1864 121.639 73.3049 121.512C77.655 121.436 81.474 122.704 85.0401 125.064C85.116 125.114 85.1666 125.14 85.2677 125.191C86.2035 124.429 87.114 123.694 88.0498 122.933C92.4252 119.457 97.0535 116.336 101.834 113.444C110.66 108.091 119.866 103.499 129.401 99.541C134.889 97.2831 140.453 95.2281 146.119 93.4268C152.214 91.4732 158.385 89.7734 164.607 88.3019C168.754 87.3379 172.902 86.4245 177.075 85.5619C181.653 84.6232 186.231 83.8114 190.808 82.9488C190.884 82.9234 190.96 82.9488 191.087 82.9488C191.238 83.786 191.39 84.6232 191.542 85.5112C190.581 85.6888 189.67 85.841 188.76 86.0186C185.295 86.6782 181.83 87.2871 178.365 88.0229C172.927 89.1899 167.49 90.3569 162.077 91.6762C155.097 93.3506 148.218 95.431 141.44 97.7905C133.903 100.429 126.518 103.499 119.335 106.949C114.682 109.182 110.129 111.643 105.653 114.256C99.7597 117.681 94.0944 121.461 88.7832 125.723C88.4797 125.977 88.1762 126.205 87.8727 126.459C87.7463 126.561 87.6198 126.687 87.4681 126.814C88.0498 127.372 88.6568 127.905 89.2132 128.489C92.8298 132.117 95.2831 136.353 96.2189 141.428C97.0282 145.791 96.5224 150.003 94.7267 154.037C91.9193 160.354 87.3669 164.997 81.0694 167.864C79.0461 168.777 76.8963 169.259 74.6454 169.234C70.2447 169.234 65.8187 169.259 61.3927 169.259C61.2157 169.259 61.0387 169.259 60.7857 169.259C60.7605 170.401 60.7099 171.492 60.7099 172.582C60.7605 176.642 61.3927 180.574 62.6067 184.456C63.0873 185.953 63.9472 187.272 64.8071 188.54C67.5638 192.574 71.2563 195.492 75.48 197.826C79.7036 200.16 84.2561 201.682 88.8591 203.103C92.931 204.346 97.1294 204.727 101.353 205.057C107.549 205.513 113.746 205.437 119.942 205.006C125.152 204.625 130.337 204.016 135.471 203.078C138.911 202.443 142.325 201.708 145.739 200.947C150.064 199.957 154.313 198.714 158.511 197.344C162.684 195.974 166.832 194.528 170.854 192.701C175.355 190.646 179.832 188.566 184.233 186.359C188.456 184.227 192.427 181.64 196.297 178.95C200.419 176.084 204.365 172.963 208.133 169.639C208.209 169.589 208.259 169.513 208.361 169.386C201.532 169.386 194.779 169.386 188.001 169.386C188.001 165.25 188.001 161.14 188.001 157.005C188.153 157.005 188.33 156.98 188.482 156.98C197.485 156.954 206.514 156.954 215.518 156.929C216.833 156.929 218.022 155.939 218.325 154.646C218.604 153.479 217.971 152.185 216.808 151.626C213.267 149.927 209.726 148.252 206.185 146.552C202.442 144.751 198.699 142.975 195.007 141.123C191.769 139.499 189.569 136.912 188.406 133.487C188.127 132.7 188.001 131.838 187.976 131.026C187.925 128.057 187.95 125.089 187.95 122.146C187.95 122.045 187.95 121.943 187.95 121.791C192.073 121.791 196.17 121.791 200.318 121.791C200.318 121.968 200.318 122.121 200.318 122.298C200.318 124.074 200.343 125.85 200.318 127.626C200.293 128.413 200.596 129.021 201.152 129.58C202.164 130.594 203.403 131.229 204.643 131.863C210.738 135.034 216.858 138.206 222.954 141.402C224.395 142.163 225.533 143.305 226.596 144.497C227.203 145.157 227.734 145.893 228.341 146.628C228.846 145.791 229.352 144.979 229.858 144.168C231.856 140.768 233.652 137.267 235.043 133.563C236.51 129.656 237.471 125.673 237.294 121.461C237.117 117.275 235.928 113.469 233.272 110.171C231.401 107.863 229.024 106.112 226.444 104.691C223.333 102.991 220.045 101.824 216.631 100.962C211.825 99.744 206.919 99.1351 201.962 99.0844C199.635 99.059 197.308 99.2112 194.981 99.4142C191.188 99.7694 187.394 100.175 183.651 100.708C176.316 101.748 169.134 103.473 161.976 105.402C157.879 106.493 153.934 107.964 149.988 109.486C143.488 111.998 136.963 114.484 130.514 117.123C126.821 118.62 123.23 120.37 119.588 122.019C119.512 122.045 119.411 122.095 119.285 122.146C118.905 121.36 118.551 120.598 118.146 119.787C118.602 119.558 119.032 119.355 119.462 119.152C127.858 115.169 136.483 111.693 145.183 108.446C148.901 107.076 152.568 105.605 156.336 104.336C159.093 103.397 161.9 102.687 164.708 101.951C170.398 100.454 176.114 99.2112 181.931 98.2979C186.635 97.5368 191.39 97.0294 196.145 96.6742C200.065 96.3951 204.01 96.3697 207.931 96.801C213.95 97.4606 219.843 98.6784 225.382 101.215C228.973 102.839 232.21 104.97 234.866 107.939C237.066 110.4 238.482 113.266 239.241 116.438C239.595 117.96 239.722 119.533 239.949 121.08C239.975 121.258 240 121.41 240.025 121.588C240.025 122.222 240.025 122.831 240.025 123.465C240 123.592 239.949 123.719 239.949 123.871C239.798 127.043 239.089 130.112 238.053 133.081C236.08 138.764 233.247 143.99 229.985 148.988C229.808 149.242 229.782 149.47 229.909 149.749C230.87 152.413 231.173 155.178 230.465 157.918C229.302 162.384 226.596 165.732 222.777 168.219C221.487 169.056 220.07 169.462 218.502 169.411C216.631 169.335 214.734 169.386 212.862 169.411C212.609 169.411 212.281 169.538 212.104 169.716C210.788 170.832 209.524 171.999 208.209 173.141C202.872 177.707 197.207 181.843 191.213 185.521C185.27 189.175 178.972 192.168 172.599 194.934C165.972 197.826 159.144 200.16 152.163 202.088C145.183 204.016 138.101 205.539 130.919 206.553C124.95 207.416 118.956 207.949 112.911 208.05C112.633 208.05 112.355 208.101 112.077 208.126C110.736 208.126 109.396 208.126 108.055 208.126C107.853 208.101 107.651 208.076 107.448 208.05C105.172 207.949 102.87 207.898 100.594 207.72C95.9912 207.391 91.4388 206.807 86.9875 205.386C82.3086 203.89 77.7309 202.24 73.4567 199.805C69.1572 197.344 65.3888 194.249 62.6067 190.088C61.6962 188.743 60.7605 187.323 60.2546 185.8C58.5095 180.726 57.8014 175.475 58.1049 170.121C58.1302 169.893 58.1049 169.639 58.1049 169.36C57.8772 169.36 57.7255 169.36 57.5485 169.36C54.8676 169.36 52.212 169.36 49.5311 169.36C49.3541 169.36 49.177 169.31 49 169.284C49 158.832 49 148.379 49 137.952C49.1517 137.926 49.3035 137.876 49.4552 137.876C53.2742 137.876 57.0679 137.876 60.8869 137.876C61.064 137.876 61.2157 137.876 61.4433 137.876C61.4433 143.762 61.4433 149.597 61.4433 155.407C64.7818 147.516 70.1941 141.072 75.6065 134.578C75.5053 134.552 75.4294 134.476 75.3282 134.476C74.4178 134.349 73.482 134.121 72.5715 134.121C65.1106 134.096 57.6243 134.096 50.1634 134.096C49.784 134.096 49.43 134.096 49.0506 134.121C49 129.833 49 125.698 49 121.537ZM64.1495 155.838C64.3518 155.863 64.453 155.863 64.5542 155.863C67.3109 155.863 70.0677 155.914 72.7991 155.838C74.0637 155.813 75.3788 155.635 76.5928 155.28C82.1569 153.707 84.8378 149.242 84.0538 143.686C83.5479 140.032 81.3982 137.495 78.3379 135.643C78.2873 135.618 78.2115 135.618 78.1103 135.592C72.8244 141.859 67.5132 148.125 64.1495 155.838Z" fill="black"/>
<path d="M48.9999 133.995C49.3793 133.995 49.7334 133.969 50.1127 133.969C57.5737 133.969 65.0599 133.944 72.5208 133.995C73.4313 133.995 74.3671 134.223 75.2776 134.35C75.3788 134.375 75.4799 134.426 75.5558 134.451C70.1435 140.946 64.7564 147.39 61.3927 155.28C61.3927 149.445 61.3927 143.635 61.3927 137.749C61.165 137.749 61.0133 137.749 60.8363 137.749C57.0173 137.749 53.2236 137.749 49.4046 137.749C49.2528 137.749 49.1011 137.8 48.9493 137.826C48.9999 136.557 48.9999 135.263 48.9999 133.995Z" fill="white"/>
<path d="M143.261 169.259C143.084 169.259 142.907 169.259 142.755 169.259C138.936 169.259 135.142 169.259 131.323 169.259C131.02 169.259 130.817 169.157 130.64 168.904C124.798 160.836 118.956 152.768 113.113 144.7C113.038 144.573 112.936 144.472 112.759 144.244C112.759 152.616 112.759 160.861 112.759 169.157C108.637 169.157 104.54 169.157 100.392 169.157C100.392 153.301 100.392 137.444 100.392 121.512C100.569 121.512 100.721 121.512 100.898 121.512C104.666 121.512 108.46 121.512 112.228 121.512C112.608 121.512 112.81 121.639 113.012 121.918C118.627 129.859 124.242 137.774 129.856 145.69C130.16 146.121 130.463 146.552 130.868 147.085C130.868 138.51 130.868 130.062 130.868 121.588C135.016 121.588 139.113 121.588 143.235 121.588C143.261 137.52 143.261 153.352 143.261 169.259Z" fill="black"/>
<path d="M182.26 156.902C182.26 161.038 182.26 165.122 182.26 169.232C171.182 169.232 160.105 169.232 149.002 169.232C149.002 165.122 149.002 161.038 149.002 156.902C160.079 156.902 171.157 156.902 182.26 156.902Z" fill="black"/>
<path d="M149.002 133.969C149.002 129.859 149.002 125.774 149.002 121.664C160.079 121.664 171.157 121.664 182.235 121.664C182.235 125.749 182.235 129.833 182.235 133.969C171.182 133.969 160.105 133.969 149.002 133.969Z" fill="black"/>
<path d="M182.26 151.145C171.157 151.145 160.105 151.145 149.027 151.145C149.027 147.34 149.027 143.559 149.027 139.729C160.105 139.729 171.182 139.729 182.26 139.729C182.26 143.534 182.26 147.314 182.26 151.145Z" fill="black"/>
</g>
<defs>
<clipPath id="clip0">
<rect width="191" height="125" fill="white" transform="translate(49 83)"/>
</clipPath>
</defs>
</svg>
