<svg width="290" height="290" viewBox="0 0 290 290" fill="none" xmlns="http://www.w3.org/2000/svg">
<rect width="290" height="290" fill="white"/>
<g clip-path="url(#clip0)">
<path d="M53.5 104.02H56.5473L58.3042 111.737H58.3317L60.0887 104.02H63.1085V113.953H61.1868V105.634L59.2925 113.926H57.261L55.4491 105.634H55.4217V113.926H53.5V104.02Z" fill="black"/>
<path d="M64.5635 110.259C64.5635 109.684 64.6458 109.164 64.8106 108.699C64.9753 108.234 65.2223 107.823 65.5518 107.468C65.8812 107.112 66.2655 106.866 66.7322 106.674C67.1989 106.483 67.7205 106.373 68.297 106.373C68.901 106.373 69.4226 106.483 69.8893 106.674C70.356 106.866 70.7403 107.139 71.0698 107.468C71.3992 107.823 71.6463 108.234 71.811 108.699C71.9757 109.164 72.0581 109.712 72.0581 110.259C72.0581 110.834 71.9757 111.354 71.811 111.819C71.6463 112.284 71.3992 112.695 71.0698 113.05C70.7403 113.406 70.356 113.68 69.8893 113.871C69.4501 114.063 68.9285 114.172 68.3245 114.172C67.748 114.172 67.2264 114.063 66.7597 113.871C66.293 113.68 65.9087 113.406 65.5792 113.05C65.2498 112.695 65.0027 112.284 64.838 111.819C64.6458 111.354 64.5635 110.834 64.5635 110.259ZM66.5675 110.259C66.5675 110.533 66.595 110.806 66.6499 111.08C66.7048 111.354 66.8146 111.6 66.9519 111.819C67.0891 112.038 67.2813 112.202 67.5009 112.339C67.7205 112.476 67.9951 112.53 68.3245 112.53C68.6814 112.53 68.9559 112.476 69.1755 112.339C69.3952 112.202 69.5873 112.038 69.7246 111.819C69.8619 111.6 69.9442 111.381 69.9991 111.107C70.054 110.834 70.0815 110.56 70.0815 110.259C70.0815 109.958 70.054 109.684 69.9991 109.411C69.9442 109.137 69.8344 108.891 69.7246 108.672C69.5873 108.453 69.3952 108.289 69.1755 108.152C68.9559 108.015 68.6539 107.96 68.3245 107.96C67.9951 107.96 67.7205 108.015 67.5009 108.152C67.2813 108.289 67.0891 108.453 66.9519 108.672C66.8146 108.891 66.7048 109.137 66.6499 109.411C66.595 109.712 66.5675 109.985 66.5675 110.259Z" fill="black"/>
<path d="M79.9369 103.91C79.9369 104.293 79.882 104.594 79.7447 104.841C79.6075 105.087 79.4428 105.278 79.1957 105.415C78.9761 105.552 78.7015 105.662 78.427 105.744C78.125 105.798 77.8231 105.853 77.5211 105.881C77.3014 105.908 77.0818 105.935 76.8622 105.963C76.6426 105.99 76.423 106.072 76.2033 106.127C75.9837 106.209 75.7915 106.318 75.5994 106.428C75.4072 106.565 75.2425 106.701 75.0778 106.893C74.9131 107.085 74.8033 107.304 74.6934 107.577C74.5836 107.851 74.5287 108.152 74.5013 108.508C74.5836 108.261 74.6934 108.042 74.8582 107.851C75.0229 107.632 75.215 107.468 75.4621 107.304C75.7092 107.139 75.9837 107.03 76.2857 106.92C76.5877 106.838 76.9446 106.784 77.3289 106.784C77.8231 106.784 78.2897 106.866 78.7015 107.03C79.1133 107.194 79.4428 107.44 79.7447 107.741C80.0193 108.042 80.2389 108.426 80.4036 108.836C80.5683 109.274 80.6232 109.739 80.6232 110.286C80.6232 110.861 80.5409 111.408 80.3487 111.874C80.184 112.339 79.9369 112.749 79.6075 113.105C79.278 113.433 78.8937 113.707 78.427 113.899C77.9603 114.09 77.4387 114.172 76.8622 114.172C76.0112 114.172 75.2974 114.008 74.7483 113.652C74.1993 113.297 73.76 112.749 73.4581 111.956C73.3483 111.682 73.2934 111.408 73.2384 111.107C73.1835 110.806 73.1561 110.533 73.1286 110.259C73.1012 109.985 73.1012 109.766 73.0737 109.575C73.0737 109.383 73.0737 109.247 73.0737 109.192C73.0737 108.48 73.1561 107.851 73.3208 107.276C73.4855 106.701 73.7326 106.182 74.0895 105.744C74.4464 105.306 74.9131 104.95 75.4621 104.704C76.0112 104.43 76.6975 104.266 77.4936 104.184C77.7407 104.156 77.9329 104.129 78.0427 104.047C78.1525 103.992 78.2074 103.938 78.2348 103.855H79.9369V103.91ZM75.0503 110.259C75.0503 110.533 75.0778 110.806 75.1327 111.08C75.1876 111.354 75.2974 111.6 75.4347 111.819C75.5719 112.038 75.7641 112.202 75.9837 112.339C76.2033 112.476 76.4779 112.53 76.8073 112.53C77.1642 112.53 77.4387 112.476 77.6583 112.339C77.878 112.202 78.0701 112.038 78.2074 111.819C78.3447 111.6 78.427 111.381 78.4819 111.107C78.5368 110.834 78.5643 110.56 78.5643 110.259C78.5643 109.958 78.5368 109.712 78.4819 109.438C78.427 109.192 78.3172 108.973 78.1799 108.781C78.0427 108.59 77.878 108.453 77.6583 108.343C77.4387 108.234 77.1916 108.179 76.8622 108.179C76.5328 108.179 76.2582 108.234 76.0112 108.343C75.7915 108.453 75.5994 108.59 75.4347 108.781C75.2974 108.973 75.1876 109.192 75.1052 109.438C75.1052 109.712 75.0503 109.985 75.0503 110.259Z" fill="black"/>
<path d="M82.0234 103.691H83.9451V105.498H82.0234V103.691ZM82.0234 106.592H83.9451V113.954H82.0234V106.592Z" fill="black"/>
<path d="M92.8674 113.955H90.9457V108.126H88.6946L88.6671 109.495C88.6397 110.261 88.5847 110.945 88.5298 111.52C88.4749 112.094 88.3377 112.587 88.1455 112.97C87.9808 113.353 87.7337 113.654 87.4317 113.846C87.1298 114.037 86.7454 114.147 86.3062 114.147C86.0865 114.147 85.8944 114.147 85.7297 114.119C85.5649 114.092 85.4277 114.065 85.3179 114.01V112.423C85.3728 112.45 85.4551 112.477 85.5649 112.505C85.6748 112.532 85.7846 112.532 85.9218 112.532C86.0591 112.532 86.1964 112.477 86.3062 112.395C86.416 112.313 86.5258 112.149 86.6081 111.903C86.6905 111.684 86.7454 111.355 86.8003 110.945C86.8552 110.534 86.8827 110.014 86.8827 109.358L86.9376 106.566H92.8674V113.955Z" fill="black"/>
<path d="M94.8713 106.592H96.793V109.164H98.7422C99.2089 109.164 99.5932 109.219 99.9776 109.301C100.334 109.383 100.636 109.547 100.883 109.739C101.131 109.93 101.323 110.177 101.46 110.505C101.597 110.806 101.652 111.162 101.652 111.572C101.652 111.955 101.597 112.256 101.487 112.53C101.378 112.804 101.24 113.023 101.076 113.187C100.911 113.378 100.719 113.515 100.499 113.597C100.28 113.707 100.087 113.789 99.8952 113.816C99.703 113.871 99.5109 113.898 99.3461 113.926C99.1814 113.926 99.0442 113.953 98.9618 113.953H94.8713V106.592ZM96.7656 112.503H98.3853C98.5226 112.503 98.6873 112.503 98.8245 112.475C98.9618 112.448 99.0991 112.393 99.2363 112.339C99.3461 112.256 99.456 112.174 99.5109 112.038C99.5932 111.901 99.6207 111.764 99.6207 111.545C99.6207 111.353 99.5932 111.189 99.5109 111.052C99.4285 110.916 99.3461 110.833 99.2089 110.751C99.0716 110.669 98.9343 110.642 98.7696 110.587C98.6049 110.56 98.4127 110.532 98.2206 110.532H96.7656V112.503Z" fill="black"/>
<path d="M102.887 106.592H104.809V109.246H107.637V106.592H109.558V113.953H107.637V110.779H104.809V113.926H102.887V106.592Z" fill="black"/>
<path d="M111.37 106.592H113.292V111.134H113.32L116.01 106.592H118.014V113.953H116.092V109.493H116.065L113.457 113.926H111.37V106.592Z" fill="black"/>
<path d="M119.853 106.592H121.775V111.135H121.802L124.493 106.592H126.497V113.954H124.575V109.493H124.548L121.94 113.926H119.853V106.592ZM125.481 103.5C125.481 103.856 125.426 104.157 125.316 104.403C125.207 104.649 125.042 104.868 124.822 105.032C124.63 105.197 124.383 105.306 124.081 105.388C123.806 105.47 123.477 105.498 123.148 105.498C122.818 105.498 122.489 105.47 122.214 105.388C121.94 105.306 121.693 105.197 121.473 105.032C121.253 104.868 121.116 104.677 120.979 104.403C120.842 104.129 120.814 103.856 120.814 103.5H122.214C122.214 103.637 122.242 103.746 122.269 103.856C122.297 103.965 122.351 104.075 122.406 104.157C122.461 104.239 122.571 104.294 122.681 104.348C122.791 104.403 122.955 104.43 123.148 104.43C123.34 104.43 123.477 104.403 123.614 104.376C123.752 104.348 123.834 104.294 123.916 104.212C123.999 104.129 124.026 104.047 124.054 103.938C124.081 103.828 124.081 103.692 124.081 103.527H125.481V103.5Z" fill="black"/>
<path d="M131.548 112.395H132.317C132.509 112.067 132.646 111.711 132.756 111.328C132.866 110.945 132.976 110.589 133.031 110.206C133.113 109.823 133.168 109.467 133.195 109.084C133.223 108.728 133.25 108.373 133.25 108.072C133.25 107.743 133.278 107.469 133.278 107.196C133.278 106.95 133.278 106.731 133.278 106.566H139.043V112.368H139.976V115.679H138.164V113.9H133.333V115.679H131.521V112.395H131.548ZM137.149 112.395V108.126H134.952C134.952 108.263 134.952 108.427 134.952 108.619C134.952 108.81 134.952 109.029 134.925 109.276C134.897 109.522 134.897 109.768 134.87 110.042C134.843 110.316 134.788 110.589 134.733 110.863C134.678 111.136 134.595 111.41 134.541 111.656C134.458 111.93 134.376 112.149 134.239 112.395H137.149Z" fill="black"/>
<path d="M140.607 110.259C140.607 109.684 140.69 109.164 140.855 108.699C141.019 108.234 141.266 107.823 141.596 107.468C141.925 107.112 142.309 106.866 142.776 106.674C143.243 106.483 143.764 106.373 144.341 106.373C144.945 106.373 145.467 106.483 145.933 106.674C146.4 106.866 146.784 107.139 147.114 107.468C147.443 107.796 147.69 108.234 147.855 108.699C148.02 109.164 148.102 109.712 148.102 110.259C148.102 110.834 148.02 111.354 147.855 111.819C147.69 112.284 147.443 112.695 147.114 113.05C146.784 113.406 146.4 113.68 145.933 113.871C145.467 114.063 144.945 114.172 144.341 114.172C143.764 114.172 143.243 114.063 142.776 113.871C142.309 113.68 141.925 113.406 141.596 113.05C141.266 112.695 141.019 112.284 140.855 111.819C140.69 111.354 140.607 110.834 140.607 110.259ZM142.611 110.259C142.611 110.533 142.639 110.806 142.694 111.08C142.749 111.354 142.859 111.6 142.996 111.819C143.133 112.038 143.325 112.202 143.545 112.339C143.764 112.476 144.039 112.53 144.368 112.53C144.725 112.53 145 112.476 145.219 112.339C145.439 112.202 145.631 112.038 145.769 111.819C145.906 111.6 145.988 111.381 146.043 111.107C146.098 110.834 146.125 110.56 146.125 110.259C146.125 109.958 146.098 109.684 146.043 109.411C145.988 109.137 145.878 108.891 145.769 108.672C145.631 108.453 145.439 108.289 145.219 108.152C145 108.015 144.698 107.96 144.368 107.96C144.039 107.96 143.764 108.015 143.545 108.152C143.325 108.289 143.133 108.453 142.996 108.672C142.859 108.891 142.749 109.137 142.694 109.411C142.639 109.712 142.611 109.985 142.611 110.259Z" fill="black"/>
<path d="M148.898 112.395H149.667C149.859 112.067 149.996 111.711 150.106 111.328C150.216 110.945 150.326 110.589 150.381 110.206C150.463 109.823 150.518 109.467 150.545 109.084C150.573 108.728 150.6 108.373 150.6 108.072C150.6 107.743 150.628 107.469 150.628 107.196C150.628 106.95 150.628 106.731 150.628 106.566H156.393V112.368H157.326V115.679H155.514V113.9H150.683V115.679H148.871V112.395H148.898ZM154.499 112.395V108.126H152.302C152.302 108.263 152.302 108.427 152.302 108.619C152.302 108.81 152.302 109.029 152.275 109.276C152.248 109.522 152.248 109.768 152.22 110.042C152.193 110.316 152.138 110.589 152.083 110.863C152.028 111.136 151.946 111.41 151.891 111.656C151.808 111.93 151.726 112.149 151.589 112.395H154.499Z" fill="black"/>
<path d="M164.354 112.476C164.354 112.694 164.354 112.886 164.382 113.023C164.409 113.16 164.437 113.269 164.492 113.351C164.519 113.433 164.574 113.488 164.629 113.543C164.684 113.57 164.739 113.598 164.794 113.625V113.926H162.68C162.652 113.844 162.597 113.734 162.57 113.598C162.515 113.461 162.515 113.297 162.515 113.078C162.378 113.242 162.213 113.379 162.076 113.515C161.939 113.652 161.774 113.762 161.609 113.844C161.444 113.953 161.225 114.008 161.005 114.063C160.786 114.118 160.484 114.145 160.182 114.145C159.852 114.145 159.55 114.09 159.276 114.008C159.001 113.899 158.754 113.762 158.562 113.57C158.37 113.379 158.205 113.132 158.095 112.859C157.985 112.585 157.93 112.257 157.93 111.874C157.93 111.572 157.985 111.299 158.068 111.025C158.15 110.779 158.287 110.533 158.479 110.341C158.672 110.149 158.864 109.985 159.111 109.848C159.358 109.712 159.632 109.63 159.962 109.602L161.829 109.329C161.884 109.329 161.966 109.301 162.048 109.301C162.131 109.274 162.213 109.246 162.268 109.219C162.323 109.164 162.405 109.11 162.433 109.055C162.488 108.973 162.488 108.891 162.488 108.754C162.488 108.644 162.46 108.508 162.433 108.425C162.405 108.316 162.323 108.234 162.241 108.152C162.158 108.07 162.021 108.015 161.884 107.988C161.719 107.96 161.554 107.933 161.307 107.933C161.06 107.933 160.84 107.96 160.676 108.015C160.511 108.07 160.401 108.152 160.319 108.234C160.236 108.316 160.154 108.425 160.127 108.562C160.099 108.699 160.044 108.809 160.044 108.945H158.123C158.123 108.863 158.15 108.726 158.177 108.562C158.205 108.398 158.26 108.234 158.342 108.042C158.425 107.851 158.534 107.659 158.672 107.468C158.809 107.276 159.001 107.085 159.221 106.948C159.44 106.784 159.742 106.647 160.072 106.565C160.401 106.455 160.813 106.4 161.28 106.4C161.939 106.4 162.46 106.455 162.872 106.592C163.284 106.729 163.586 106.893 163.833 107.112C164.052 107.331 164.217 107.577 164.299 107.823C164.382 108.097 164.409 108.343 164.409 108.617V112.476H164.354ZM162.46 110.341C162.35 110.396 162.213 110.451 162.103 110.505C161.993 110.56 161.829 110.587 161.637 110.642L161.115 110.724C160.895 110.752 160.703 110.806 160.538 110.861C160.374 110.916 160.236 110.998 160.127 111.08C160.017 111.162 159.934 111.271 159.88 111.408C159.825 111.545 159.797 111.682 159.797 111.874C159.797 112.038 159.825 112.175 159.88 112.284C159.934 112.393 159.989 112.503 160.099 112.558C160.182 112.64 160.291 112.694 160.401 112.722C160.511 112.749 160.648 112.777 160.786 112.777C160.868 112.777 160.95 112.777 161.06 112.749C161.17 112.722 161.28 112.694 161.417 112.667C161.554 112.612 161.664 112.558 161.801 112.476C161.939 112.393 162.048 112.284 162.131 112.175C162.241 112.038 162.323 111.901 162.378 111.709C162.433 111.518 162.46 111.299 162.46 111.053V110.341Z" fill="black"/>
<path d="M167.703 108.126H165.48V106.566H171.849V108.126H169.625V113.928H167.703V108.126Z" fill="black"/>
<path d="M172.617 110.259C172.617 109.684 172.7 109.164 172.865 108.699C173.029 108.234 173.276 107.823 173.606 107.468C173.935 107.112 174.32 106.866 174.786 106.674C175.253 106.483 175.774 106.373 176.351 106.373C176.955 106.373 177.477 106.483 177.943 106.674C178.41 106.866 178.794 107.139 179.124 107.468C179.453 107.796 179.7 108.234 179.865 108.699C180.03 109.164 180.112 109.712 180.112 110.259C180.112 110.834 180.03 111.354 179.865 111.819C179.7 112.284 179.453 112.695 179.124 113.05C178.794 113.406 178.41 113.68 177.943 113.871C177.477 114.063 176.955 114.172 176.351 114.172C175.774 114.172 175.253 114.063 174.786 113.871C174.32 113.68 173.935 113.406 173.606 113.05C173.276 112.695 173.029 112.284 172.865 111.819C172.7 111.354 172.617 110.834 172.617 110.259ZM174.621 110.259C174.621 110.533 174.649 110.806 174.704 111.08C174.759 111.354 174.869 111.6 175.006 111.819C175.143 112.038 175.335 112.202 175.555 112.339C175.775 112.476 176.049 112.53 176.378 112.53C176.735 112.53 177.01 112.476 177.229 112.339C177.449 112.202 177.641 112.038 177.779 111.819C177.916 111.6 177.998 111.381 178.053 111.107C178.108 110.834 178.135 110.56 178.135 110.259C178.135 109.958 178.108 109.684 178.053 109.411C177.998 109.137 177.888 108.891 177.779 108.672C177.641 108.453 177.449 108.289 177.229 108.152C177.01 108.015 176.708 107.96 176.378 107.96C176.049 107.96 175.775 108.015 175.555 108.152C175.335 108.289 175.143 108.453 175.006 108.672C174.869 108.891 174.759 109.137 174.704 109.411C174.649 109.712 174.621 109.985 174.621 110.259Z" fill="black"/>
<path d="M181.594 106.592H183.516V109.383L186.289 106.592H188.842L185.795 109.657L188.979 113.953H186.481L184.312 110.833L183.544 111.6V113.926H181.622V106.592H181.594Z" fill="black"/>
<path d="M189.418 109.166H193.207V111H189.418V109.166Z" fill="black"/>
<path d="M200.592 112.476C200.592 112.694 200.592 112.886 200.619 113.023C200.647 113.16 200.674 113.269 200.729 113.351C200.757 113.433 200.812 113.488 200.866 113.543C200.921 113.57 200.976 113.598 201.031 113.625V113.926H198.917C198.89 113.844 198.835 113.734 198.807 113.598C198.753 113.461 198.753 113.297 198.753 113.078C198.615 113.242 198.451 113.379 198.313 113.515C198.176 113.652 198.011 113.762 197.847 113.844C197.682 113.953 197.462 114.008 197.243 114.063C197.023 114.118 196.721 114.145 196.419 114.145C196.09 114.145 195.788 114.09 195.513 114.008C195.239 113.899 194.992 113.762 194.799 113.57C194.607 113.379 194.442 113.132 194.333 112.859C194.223 112.585 194.168 112.257 194.168 111.874C194.168 111.572 194.223 111.299 194.305 111.025C194.388 110.779 194.525 110.533 194.717 110.341C194.882 110.149 195.101 109.985 195.348 109.848C195.596 109.712 195.87 109.63 196.199 109.602L198.066 109.329C198.121 109.329 198.204 109.301 198.286 109.301C198.368 109.274 198.451 109.246 198.505 109.219C198.56 109.164 198.643 109.11 198.67 109.055C198.725 108.973 198.725 108.891 198.725 108.754C198.725 108.644 198.698 108.508 198.67 108.425C198.643 108.316 198.56 108.234 198.478 108.152C198.396 108.07 198.258 108.015 198.121 107.988C197.956 107.96 197.792 107.933 197.545 107.933C197.298 107.933 197.078 107.96 196.913 108.015C196.749 108.07 196.639 108.152 196.556 108.234C196.474 108.316 196.392 108.425 196.364 108.562C196.337 108.699 196.282 108.809 196.282 108.945H194.36C194.36 108.863 194.388 108.726 194.415 108.562C194.442 108.398 194.497 108.234 194.58 108.042C194.662 107.851 194.772 107.659 194.909 107.468C195.046 107.276 195.239 107.085 195.458 106.948C195.678 106.784 195.98 106.647 196.309 106.565C196.639 106.482 197.05 106.4 197.517 106.4C198.176 106.4 198.698 106.455 199.109 106.592C199.521 106.729 199.823 106.893 200.07 107.112C200.29 107.331 200.455 107.577 200.537 107.823C200.619 108.097 200.647 108.343 200.647 108.617V112.476H200.592ZM198.698 110.341C198.588 110.396 198.451 110.451 198.341 110.505C198.231 110.56 198.066 110.587 197.874 110.642L197.352 110.724C197.133 110.752 196.941 110.806 196.776 110.861C196.611 110.916 196.474 110.998 196.364 111.08C196.254 111.162 196.172 111.271 196.117 111.408C196.062 111.545 196.035 111.682 196.035 111.874C196.035 112.038 196.062 112.175 196.117 112.284C196.172 112.393 196.227 112.503 196.337 112.558C196.419 112.64 196.529 112.694 196.639 112.722C196.749 112.749 196.886 112.777 197.023 112.777C197.105 112.777 197.188 112.777 197.298 112.749C197.407 112.722 197.517 112.694 197.654 112.667C197.792 112.612 197.902 112.558 198.039 112.476C198.176 112.393 198.286 112.284 198.368 112.175C198.478 112.038 198.56 111.901 198.615 111.709C198.67 111.518 198.698 111.299 198.698 111.053V110.341Z" fill="black"/>
<path d="M206.247 113.214C206.165 113.324 206.055 113.433 205.973 113.57C205.863 113.68 205.753 113.789 205.616 113.871C205.478 113.953 205.314 114.035 205.149 114.09C204.984 114.145 204.792 114.172 204.572 114.172C204.216 114.172 203.886 114.09 203.584 113.926C203.255 113.762 202.98 113.515 202.733 113.187C202.486 112.859 202.294 112.448 202.157 111.956C202.019 111.463 201.937 110.888 201.937 110.259C201.937 109.739 201.992 109.274 202.074 108.891C202.157 108.507 202.266 108.152 202.404 107.878C202.541 107.604 202.706 107.358 202.898 107.167C203.09 106.975 203.282 106.811 203.474 106.701C203.667 106.592 203.886 106.51 204.078 106.455C204.27 106.4 204.463 106.373 204.655 106.373C204.82 106.373 204.957 106.4 205.122 106.428C205.259 106.455 205.424 106.51 205.561 106.592C205.698 106.674 205.835 106.756 205.945 106.893C206.055 107.002 206.165 107.167 206.275 107.358H206.302V104.074H208.224V107.358H208.251C208.361 107.167 208.471 107.03 208.581 106.893C208.69 106.783 208.828 106.674 208.965 106.592C209.102 106.51 209.239 106.482 209.404 106.428C209.569 106.4 209.706 106.373 209.871 106.373C210.036 106.373 210.228 106.4 210.447 106.455C210.64 106.51 210.859 106.592 211.051 106.701C211.244 106.811 211.436 106.975 211.628 107.167C211.82 107.358 211.985 107.604 212.122 107.878C212.259 108.152 212.369 108.507 212.451 108.891C212.534 109.274 212.589 109.739 212.589 110.259C212.589 110.916 212.506 111.463 212.369 111.956C212.232 112.448 212.04 112.859 211.793 113.187C211.545 113.515 211.271 113.762 210.942 113.926C210.612 114.09 210.283 114.172 209.953 114.172C209.734 114.172 209.541 114.145 209.377 114.09C209.212 114.035 209.047 113.953 208.91 113.871C208.773 113.789 208.663 113.68 208.553 113.57C208.443 113.461 208.361 113.351 208.306 113.214H208.279V116.772H206.357V113.214H206.247ZM203.831 110.314C203.831 110.533 203.859 110.779 203.886 111.025C203.914 111.271 203.996 111.518 204.078 111.737C204.188 111.956 204.325 112.147 204.49 112.284C204.655 112.448 204.902 112.503 205.204 112.503C205.424 112.503 205.588 112.475 205.725 112.393C205.863 112.339 205.973 112.229 206.055 112.092C206.137 111.956 206.192 111.819 206.22 111.627C206.247 111.436 206.275 111.244 206.275 111.025V109.274C206.275 109.082 206.247 108.891 206.22 108.726C206.192 108.562 206.137 108.425 206.027 108.289C205.945 108.179 205.835 108.07 205.698 108.015C205.561 107.96 205.396 107.905 205.204 107.905C204.929 107.905 204.71 107.96 204.518 108.097C204.325 108.234 204.188 108.398 204.078 108.617C203.969 108.836 203.886 109.082 203.859 109.356C203.831 109.739 203.831 110.013 203.831 110.314ZM210.585 110.314C210.585 110.013 210.557 109.739 210.53 109.438C210.475 109.164 210.42 108.918 210.31 108.699C210.2 108.48 210.063 108.316 209.898 108.179C209.706 108.042 209.487 107.988 209.212 107.988C209.02 107.988 208.855 108.015 208.718 108.097C208.581 108.152 208.471 108.261 208.388 108.371C208.306 108.48 208.251 108.644 208.196 108.808C208.169 108.973 208.141 109.164 208.141 109.356V111.107C208.141 111.326 208.169 111.518 208.196 111.709C208.224 111.901 208.279 112.038 208.361 112.174C208.443 112.311 208.553 112.393 208.69 112.475C208.828 112.53 208.992 112.585 209.212 112.585C209.404 112.585 209.569 112.558 209.706 112.475C209.843 112.393 209.981 112.311 210.063 112.202C210.173 112.092 210.255 111.956 210.31 111.791C210.365 111.627 210.42 111.49 210.447 111.326C210.475 111.162 210.502 110.998 210.53 110.834C210.585 110.615 210.585 110.45 210.585 110.314Z" fill="black"/>
<path d="M213.961 103.691H215.883V105.498H213.961V103.691ZM213.961 106.592H215.883V113.954H213.961V106.592Z" fill="black"/>
<path d="M217.75 106.592H219.671V112.393H221.675V106.592H223.597V112.393H225.601V106.592H227.523V113.953H217.777V106.592H217.75Z" fill="black"/>
<path d="M235.292 112.476C235.292 112.694 235.292 112.886 235.32 113.023C235.347 113.16 235.374 113.269 235.429 113.351C235.457 113.433 235.512 113.488 235.567 113.543C235.622 113.57 235.676 113.598 235.731 113.625V113.926H233.617C233.59 113.844 233.535 113.734 233.508 113.598C233.453 113.461 233.453 113.297 233.453 113.078C233.316 113.242 233.151 113.379 233.014 113.515C232.876 113.652 232.712 113.762 232.547 113.844C232.382 113.953 232.162 114.008 231.943 114.063C231.723 114.118 231.421 114.145 231.119 114.145C230.79 114.145 230.488 114.09 230.213 114.008C229.939 113.899 229.692 113.762 229.5 113.57C229.307 113.379 229.143 113.132 229.033 112.859C228.923 112.585 228.868 112.257 228.868 111.874C228.868 111.572 228.923 111.299 229.005 111.025C229.088 110.779 229.225 110.533 229.417 110.341C229.582 110.149 229.802 109.985 230.049 109.848C230.296 109.712 230.57 109.63 230.9 109.602L232.766 109.329C232.821 109.329 232.904 109.301 232.986 109.301C233.068 109.274 233.151 109.246 233.206 109.219C233.261 109.164 233.343 109.11 233.37 109.055C233.425 108.973 233.425 108.891 233.425 108.754C233.425 108.644 233.398 108.508 233.37 108.425C233.343 108.316 233.261 108.234 233.178 108.152C233.096 108.07 232.959 108.015 232.821 107.988C232.657 107.96 232.492 107.933 232.245 107.933C231.998 107.933 231.778 107.96 231.613 108.015C231.449 108.07 231.339 108.152 231.257 108.234C231.174 108.316 231.092 108.425 231.064 108.562C231.037 108.699 230.982 108.809 230.982 108.945H229.06C229.06 108.863 229.088 108.726 229.115 108.562C229.143 108.398 229.198 108.234 229.28 108.042C229.362 107.851 229.472 107.659 229.609 107.468C229.747 107.276 229.939 107.085 230.158 106.948C230.378 106.784 230.68 106.647 231.009 106.565C231.339 106.482 231.751 106.4 232.217 106.4C232.876 106.4 233.398 106.455 233.81 106.592C234.221 106.729 234.523 106.893 234.77 107.112C234.99 107.331 235.155 107.577 235.237 107.823C235.32 108.097 235.347 108.343 235.347 108.617V112.476H235.292ZM233.37 110.341C233.261 110.396 233.123 110.451 233.014 110.505C232.904 110.56 232.739 110.587 232.547 110.642L232.025 110.724C231.806 110.752 231.613 110.806 231.449 110.861C231.284 110.916 231.147 110.998 231.037 111.08C230.927 111.162 230.845 111.271 230.79 111.408C230.735 111.545 230.707 111.682 230.707 111.874C230.707 112.038 230.735 112.175 230.79 112.284C230.845 112.393 230.9 112.503 231.009 112.558C231.092 112.64 231.202 112.694 231.311 112.722C231.421 112.749 231.559 112.777 231.696 112.777C231.778 112.777 231.861 112.777 231.97 112.749C232.08 112.722 232.19 112.694 232.327 112.667C232.464 112.612 232.574 112.558 232.712 112.476C232.849 112.393 232.959 112.284 233.041 112.175C233.151 112.038 233.233 111.901 233.288 111.709C233.343 111.518 233.37 111.299 233.37 111.053V110.341Z" fill="black"/>
<path d="M62.6967 173.309H53.5V129.168H62.6967V173.309Z" fill="black"/>
<path d="M71.3442 129.223H102.915V136.967H80.5409V147.12H100.17V154.782H80.5409V173.281H71.3442V129.223Z" fill="black"/>
<path d="M130.258 133.766C133.827 130.126 138.356 128.32 143.874 128.32C151.232 128.32 156.64 130.756 160.044 135.627C161.938 138.364 162.927 141.1 163.064 143.864H153.812C153.236 141.757 152.467 140.142 151.534 139.075C149.887 137.159 147.443 136.202 144.204 136.202C140.909 136.202 138.301 137.543 136.407 140.252C134.513 142.961 133.552 146.792 133.552 151.745C133.552 156.698 134.568 160.393 136.572 162.883C138.576 165.346 141.129 166.577 144.231 166.577C147.416 166.577 149.832 165.51 151.479 163.403C152.412 162.254 153.153 160.557 153.757 158.286H162.954C162.158 163.102 160.126 167.015 156.887 170.026C153.62 173.036 149.447 174.541 144.369 174.541C138.054 174.541 133.113 172.516 129.517 168.438C125.92 164.333 124.108 158.724 124.108 151.608C124.108 143.891 126.14 137.953 130.258 133.766Z" fill="black"/>
<path d="M178.575 136.776H169.9V128.895H178.575V136.776ZM169.872 140.662H178.547V173.309H169.872V140.662Z" fill="black"/>
<path d="M183.489 147.038V140.962H188.046V131.85H196.529V140.962H201.855V147.038H196.529V164.278C196.529 165.619 196.694 166.44 197.05 166.768C197.38 167.097 198.423 167.261 200.18 167.261C200.427 167.261 200.729 167.261 201.004 167.233C201.306 167.233 201.58 167.206 201.855 167.179V173.555L197.792 173.692C193.756 173.828 190.983 173.144 189.501 171.585C188.54 170.599 188.046 169.094 188.046 167.069V146.983H183.489V147.038Z" fill="black"/>
<path d="M208.635 179.576L209.706 179.631C210.557 179.658 211.353 179.631 212.122 179.549C212.891 179.439 213.522 179.22 214.044 178.865C214.538 178.536 215.005 177.825 215.444 176.73C215.883 175.663 216.048 175.006 215.993 174.76L203.969 140.689H213.495L220.632 164.771L227.386 140.689H236.5L225.272 172.789C223.103 178.974 221.374 182.805 220.111 184.31C218.848 185.788 216.322 186.554 212.534 186.554C211.765 186.554 211.161 186.554 210.694 186.527C210.228 186.527 209.541 186.472 208.608 186.417V179.576H208.635Z" fill="black"/>
</g>
<defs>
<clipPath id="clip0">
<rect width="183" height="83" fill="white" transform="translate(53.5 103.5)"/>
</clipPath>
</defs>
</svg>
