<svg width="290" height="290" viewBox="0 0 290 290" fill="none" xmlns="http://www.w3.org/2000/svg">
<rect width="290" height="290" fill="white"/>
<path d="M79.1045 220.689V222H78.4183V220.088H79.2417L81.5198 214.053H82.1786L84.4293 220.088H85.2527V222H84.5665V220.689H79.1045ZM79.9279 220.088H83.7431L81.8492 214.817L79.9279 220.088Z" fill="black"/>
<path d="M87.7779 220.689H87.0917V214.053H87.7779V220.689Z" fill="black"/>
<path d="M93.7889 219.542L96.0396 214.053H97.0826V220.689H96.3964V214.927H96.3689L93.9535 220.689H93.5967L91.1813 214.927H91.1539V220.689H90.4677V214.053H91.5107L93.7889 219.542Z" fill="black"/>
<path d="M106.387 214.053H108.363C108.611 214.053 108.858 214.08 109.132 214.135C109.379 214.189 109.626 214.271 109.818 214.408C110.01 214.544 110.175 214.708 110.312 214.927C110.449 215.145 110.504 215.418 110.504 215.746C110.504 216.101 110.395 216.401 110.175 216.647C109.955 216.893 109.681 217.084 109.324 217.166V217.193C109.763 217.248 110.12 217.412 110.395 217.685C110.669 217.958 110.834 218.368 110.834 218.832C110.834 219.105 110.779 219.351 110.669 219.597C110.559 219.815 110.395 220.006 110.175 220.17C109.955 220.334 109.708 220.443 109.406 220.552C109.105 220.634 108.748 220.689 108.363 220.689H106.387V214.053ZM107.073 216.948H108.446C108.611 216.948 108.775 216.92 108.94 216.893C109.105 216.866 109.269 216.784 109.406 216.702C109.544 216.62 109.654 216.483 109.736 216.347C109.818 216.183 109.873 216.019 109.873 215.801C109.873 215.582 109.818 215.418 109.736 215.254C109.654 215.118 109.544 214.981 109.379 214.899C109.242 214.817 109.077 214.735 108.858 214.708C108.665 214.681 108.446 214.654 108.226 214.654H107.046V216.948H107.073ZM107.073 220.116H108.336C108.583 220.116 108.803 220.088 109.05 220.034C109.269 219.979 109.461 219.924 109.626 219.815C109.791 219.706 109.928 219.569 110.038 219.405C110.148 219.242 110.175 219.05 110.175 218.805C110.175 218.368 110.038 218.04 109.736 217.821C109.434 217.603 109.022 217.494 108.473 217.494H107.073V220.116Z" fill="black"/>
<path d="M113.277 220.689H112.536L115.418 214.053H116.076L118.931 220.689H118.19L117.449 218.941H113.99L113.277 220.689ZM114.265 218.34H117.202L115.719 214.817L114.265 218.34Z" fill="black"/>
<path d="M124.338 220.088V214.053H125.024V220.088H127.741V214.053H128.428V220.689H120.88V214.053H121.566V220.088H124.338Z" fill="black"/>
<path d="M137.76 217.384C137.76 217.903 137.677 218.367 137.485 218.777C137.321 219.214 137.074 219.569 136.744 219.87C136.442 220.17 136.058 220.416 135.646 220.607C135.235 220.771 134.768 220.88 134.274 220.88C133.78 220.88 133.313 220.798 132.902 220.607C132.49 220.443 132.106 220.197 131.804 219.87C131.502 219.569 131.255 219.187 131.063 218.777C130.898 218.34 130.788 217.876 130.788 217.384C130.788 216.865 130.87 216.401 131.063 215.992C131.227 215.555 131.474 215.2 131.804 214.899C132.106 214.599 132.49 214.353 132.902 214.162C133.313 213.998 133.78 213.889 134.274 213.889C134.768 213.889 135.235 213.971 135.646 214.162C136.058 214.326 136.442 214.571 136.744 214.899C137.046 215.2 137.293 215.582 137.485 215.992C137.677 216.401 137.76 216.865 137.76 217.384ZM137.046 217.384C137.046 217.002 136.991 216.62 136.854 216.265C136.717 215.91 136.552 215.609 136.305 215.336C136.058 215.063 135.784 214.872 135.427 214.708C135.097 214.544 134.686 214.462 134.274 214.462C133.835 214.462 133.45 214.544 133.121 214.708C132.792 214.872 132.49 215.063 132.243 215.336C131.996 215.609 131.831 215.91 131.694 216.265C131.557 216.62 131.502 216.975 131.502 217.384C131.502 217.767 131.557 218.149 131.694 218.477C131.831 218.832 131.996 219.132 132.243 219.405C132.49 219.678 132.764 219.87 133.121 220.033C133.45 220.197 133.835 220.279 134.274 220.279C134.713 220.279 135.097 220.197 135.427 220.033C135.756 219.87 136.058 219.678 136.305 219.405C136.552 219.132 136.717 218.832 136.854 218.477C136.964 218.122 137.046 217.767 137.046 217.384Z" fill="black"/>
<path d="M139.077 212.742C139.077 212.605 139.132 212.496 139.215 212.414C139.297 212.305 139.407 212.277 139.571 212.277C139.709 212.277 139.818 212.332 139.928 212.414C140.01 212.523 140.065 212.632 140.065 212.742C140.065 212.878 140.01 212.987 139.928 213.069C139.846 213.179 139.736 213.206 139.571 213.206C139.434 213.206 139.297 213.151 139.215 213.069C139.105 212.987 139.077 212.878 139.077 212.742ZM140.779 220.689H140.093V214.052H140.779V220.689ZM140.889 212.742C140.889 212.605 140.944 212.496 141.026 212.414C141.108 212.305 141.218 212.277 141.383 212.277C141.52 212.277 141.657 212.332 141.74 212.414C141.822 212.523 141.877 212.632 141.877 212.742C141.877 212.878 141.822 212.987 141.74 213.069C141.657 213.179 141.548 213.206 141.383 213.206C141.246 213.206 141.136 213.151 141.026 213.069C140.916 212.987 140.889 212.878 140.889 212.742Z" fill="black"/>
<path d="M150.797 220.689H150.111V214.053H153.899V214.654H150.797V220.689Z" fill="black"/>
<path d="M162.517 217.384C162.517 217.903 162.435 218.367 162.243 218.777C162.078 219.214 161.831 219.569 161.502 219.87C161.2 220.17 160.816 220.416 160.404 220.607C159.992 220.771 159.526 220.88 159.032 220.88C158.538 220.88 158.071 220.798 157.659 220.607C157.248 220.443 156.863 220.197 156.561 219.87C156.259 219.569 156.012 219.187 155.82 218.777C155.656 218.34 155.546 217.876 155.546 217.384C155.546 216.865 155.628 216.401 155.82 215.992C155.985 215.555 156.232 215.2 156.561 214.899C156.863 214.599 157.248 214.353 157.659 214.162C158.071 213.998 158.538 213.889 159.032 213.889C159.526 213.889 159.992 213.971 160.404 214.162C160.816 214.326 161.2 214.571 161.502 214.899C161.804 215.2 162.051 215.582 162.243 215.992C162.435 216.401 162.517 216.865 162.517 217.384ZM161.804 217.384C161.804 217.002 161.749 216.62 161.612 216.265C161.474 215.91 161.31 215.609 161.063 215.336C160.816 215.063 160.541 214.872 160.184 214.708C159.855 214.544 159.443 214.462 159.032 214.462C158.592 214.462 158.208 214.544 157.879 214.708C157.549 214.872 157.248 215.063 157 215.336C156.753 215.609 156.589 215.91 156.452 216.265C156.314 216.62 156.259 216.975 156.259 217.384C156.259 217.767 156.314 218.149 156.452 218.477C156.589 218.832 156.753 219.132 157 219.405C157.248 219.678 157.522 219.87 157.879 220.033C158.208 220.197 158.592 220.279 159.032 220.279C159.471 220.279 159.855 220.197 160.184 220.033C160.514 219.87 160.816 219.678 161.063 219.405C161.31 219.132 161.474 218.832 161.612 218.477C161.749 218.122 161.804 217.767 161.804 217.384Z" fill="black"/>
<path d="M164.878 214.053H166.772C167.101 214.053 167.431 214.08 167.705 214.162C167.979 214.244 168.227 214.353 168.419 214.49C168.611 214.626 168.775 214.817 168.885 215.036C168.995 215.254 169.05 215.527 169.05 215.828C169.05 216.128 168.995 216.401 168.885 216.62C168.775 216.838 168.611 217.03 168.419 217.166C168.227 217.303 167.979 217.412 167.705 217.494C167.431 217.576 167.129 217.603 166.772 217.603H165.592V220.689H164.905V214.053H164.878ZM165.564 217.03H166.717C167.238 217.03 167.65 216.92 167.925 216.729C168.199 216.511 168.336 216.21 168.336 215.828C168.336 215.418 168.199 215.118 167.897 214.927C167.623 214.735 167.211 214.654 166.689 214.654H165.537V217.03H165.564Z" fill="black"/>
<path d="M171.081 220.689V222H170.395V220.088H171.218L173.496 214.053H174.155L176.406 220.088H177.229V222H176.543V220.689H171.081ZM171.905 220.088H175.72L173.826 214.817L171.905 220.088Z" fill="black"/>
<path d="M185.683 217.384C185.683 217.903 185.601 218.367 185.409 218.777C185.244 219.214 184.997 219.569 184.668 219.87C184.366 220.17 183.981 220.416 183.57 220.607C183.158 220.771 182.691 220.88 182.197 220.88C181.703 220.88 181.237 220.798 180.825 220.607C180.413 220.443 180.029 220.197 179.727 219.87C179.425 219.569 179.178 219.187 178.986 218.777C178.821 218.34 178.711 217.876 178.711 217.384C178.711 216.865 178.794 216.401 178.986 215.992C179.151 215.555 179.398 215.2 179.727 214.899C180.029 214.599 180.413 214.353 180.825 214.162C181.237 213.998 181.703 213.889 182.197 213.889C182.691 213.889 183.158 213.971 183.57 214.162C183.981 214.326 184.366 214.571 184.668 214.899C184.969 215.2 185.216 215.582 185.409 215.992C185.601 216.401 185.683 216.865 185.683 217.384ZM184.969 217.384C184.969 217.002 184.915 216.62 184.777 216.265C184.64 215.91 184.475 215.609 184.228 215.336C183.981 215.063 183.707 214.872 183.35 214.708C183.021 214.544 182.609 214.462 182.197 214.462C181.758 214.462 181.374 214.544 181.044 214.708C180.715 214.872 180.413 215.063 180.166 215.336C179.919 215.609 179.754 215.91 179.617 216.265C179.48 216.62 179.425 216.975 179.425 217.384C179.425 217.767 179.48 218.149 179.617 218.477C179.754 218.832 179.919 219.132 180.166 219.405C180.413 219.678 180.688 219.87 181.044 220.033C181.374 220.197 181.758 220.279 182.197 220.279C182.636 220.279 183.021 220.197 183.35 220.033C183.679 219.87 183.981 219.678 184.228 219.405C184.475 219.132 184.64 218.832 184.777 218.477C184.915 218.122 184.969 217.767 184.969 217.384Z" fill="black"/>
<path d="M193.67 219.624C193.561 219.788 193.423 219.951 193.259 220.088C193.094 220.252 192.902 220.361 192.71 220.498C192.49 220.607 192.271 220.716 192.023 220.771C191.776 220.825 191.502 220.88 191.2 220.88C190.706 220.88 190.239 220.798 189.8 220.607C189.361 220.443 189.004 220.197 188.702 219.87C188.4 219.569 188.153 219.187 187.989 218.777C187.824 218.34 187.742 217.876 187.742 217.384C187.742 216.865 187.824 216.401 188.016 215.992C188.181 215.555 188.428 215.2 188.757 214.899C189.059 214.599 189.443 214.353 189.855 214.162C190.267 213.998 190.733 213.889 191.228 213.889C191.475 213.889 191.722 213.916 191.941 213.971C192.188 214.025 192.408 214.08 192.6 214.189C192.819 214.271 192.984 214.38 193.176 214.517C193.341 214.653 193.478 214.79 193.588 214.954L193.012 215.363C192.929 215.254 192.847 215.145 192.737 215.036C192.627 214.926 192.49 214.845 192.325 214.763C192.161 214.681 191.996 214.626 191.804 214.571C191.612 214.517 191.42 214.489 191.2 214.489C190.761 214.489 190.377 214.571 190.047 214.735C189.718 214.899 189.416 215.09 189.169 215.363C188.922 215.636 188.757 215.937 188.62 216.292C188.483 216.647 188.428 217.002 188.428 217.384C188.428 217.767 188.483 218.149 188.62 218.477C188.757 218.832 188.922 219.132 189.169 219.405C189.416 219.678 189.69 219.87 190.047 220.033C190.377 220.197 190.761 220.279 191.2 220.279C191.584 220.279 191.941 220.197 192.298 220.033C192.655 219.87 192.929 219.624 193.176 219.269L193.67 219.624Z" fill="black"/>
<path d="M197.925 220.689H197.238V214.654H195.015V214.053H200.175V214.654H197.952V220.689H197.925Z" fill="black"/>
<path d="M202.783 220.689H202.097V214.053H202.783V220.689Z" fill="black"/>
<path d="M52.2608 198.623C52.2608 199.689 52.0412 200.59 51.6295 201.3C51.2178 202.037 50.6414 202.611 49.9552 203.048C49.2416 203.485 48.4456 203.812 47.5673 204.004C46.6615 204.195 45.7558 204.304 44.8225 204.304H37V184.805H44.7951C45.5636 184.805 46.3322 184.887 47.1281 185.05C47.9241 185.214 48.6377 185.46 49.2965 185.842C49.9552 186.225 50.4767 186.716 50.861 187.372C51.2727 188.027 51.4648 188.819 51.4648 189.83C51.4648 190.922 51.1629 191.796 50.5865 192.506C50.0101 193.216 49.2141 193.735 48.2535 194.035V194.09C48.8024 194.172 49.3239 194.363 49.818 194.609C50.312 194.855 50.7238 195.182 51.0806 195.565C51.4374 195.947 51.7119 196.411 51.9314 196.903C52.151 197.422 52.2608 197.995 52.2608 198.623ZM46.9086 190.458C46.9086 189.802 46.6615 189.311 46.14 189.01C45.6185 188.71 44.8774 188.546 43.8893 188.546H41.5563V192.561H44.1089C44.9872 192.561 45.6734 192.37 46.1675 192.014C46.6615 191.687 46.9086 191.168 46.9086 190.458ZM47.5398 198.187C47.5398 197.367 47.2379 196.821 46.6341 196.521C46.0302 196.22 45.2068 196.056 44.1912 196.056H41.5563V200.508H44.2187C44.5755 200.508 44.9598 200.481 45.3715 200.399C45.7558 200.344 46.14 200.207 46.4419 200.044C46.7713 199.88 47.0183 199.634 47.2379 199.334C47.4301 199.06 47.5398 198.678 47.5398 198.187Z" fill="black"/>
<path d="M60.9342 204.304V184.805H74.109V188.765H65.5179V192.451H73.6424V196.22H65.5179V200.262H74.6031V204.277H60.9342V204.304Z" fill="black"/>
<path d="M98.0981 190.813C98.0981 191.96 97.8785 192.916 97.4668 193.68C97.0551 194.472 96.4787 195.1 95.7376 195.565C95.024 196.029 94.2006 196.384 93.2399 196.603C92.3067 196.821 91.3186 196.93 90.303 196.93H87.9425V204.277H83.2216V184.777H90.4128C91.4833 184.777 92.4714 184.887 93.4046 185.105C94.3378 185.324 95.1338 185.651 95.8474 186.116C96.5336 186.58 97.0826 187.208 97.4668 187.973C97.906 188.765 98.0981 189.693 98.0981 190.813ZM93.3771 190.84C93.3771 190.376 93.2948 189.994 93.1027 189.72C92.9105 189.42 92.6635 189.202 92.3616 189.038C92.0597 188.874 91.7028 188.765 91.2911 188.71C90.9069 188.655 90.4951 188.628 90.056 188.628H87.97V193.216H89.9736C90.4128 193.216 90.8245 193.189 91.2362 193.107C91.6479 193.025 92.0048 192.916 92.3341 192.725C92.6635 192.533 92.9105 192.288 93.1027 191.987C93.2948 191.687 93.3771 191.304 93.3771 190.84Z" fill="black"/>
<path d="M113.057 188.847V204.304H108.336V188.847H102.792V184.832H118.601V188.847H113.057Z" fill="black"/>
<path d="M131.063 197.804L139.187 184.805H144.512V204.304H139.818V191.468H139.736L131.584 204.304H126.259V184.805H130.953V197.804H131.063Z" fill="black"/>
<path d="M154.119 204.304V184.805H158.812V191.878C159.059 191.878 159.334 191.878 159.581 191.878C159.828 191.878 160.075 191.905 160.322 191.905L166.333 184.777H171.493L164.905 193.052C165.729 193.462 166.497 193.981 167.211 194.609C167.925 195.237 168.556 196.029 169.132 196.93C169.709 197.859 170.203 198.924 170.615 200.125C171.026 201.354 171.411 202.747 171.685 204.304H166.525C166.25 202.829 165.894 201.546 165.482 200.453C165.07 199.361 164.549 198.487 163.945 197.804C163.341 197.121 162.6 196.602 161.749 196.302C160.898 195.974 159.91 195.838 158.785 195.865V204.304H154.119Z" fill="black"/>
<path d="M182.115 204.304H176.982L185.189 184.805H189.773L197.897 204.304H192.655L191.145 200.481H183.57L182.115 204.304ZM184.915 196.712H189.828L187.385 190.021L184.915 196.712Z" fill="black"/>
<path d="M207.723 204.304H202.673L210.276 184.805H215.107L222.874 204.304H217.714L212.746 191.304L207.723 204.304Z" fill="black"/>
<path d="M229.517 184.805H234.21V191.905H235.994C237.12 191.905 238.19 192.014 239.178 192.206C240.194 192.397 241.045 192.725 241.786 193.189C242.527 193.626 243.103 194.227 243.543 194.991C243.982 195.729 244.201 196.657 244.201 197.75C244.201 198.869 243.982 199.852 243.543 200.672C243.103 201.491 242.527 202.174 241.758 202.72C240.99 203.239 240.112 203.649 239.123 203.922C238.108 204.195 237.037 204.331 235.912 204.331H229.517V184.805ZM234.21 195.892V200.344H236.351C237.532 200.344 238.355 200.126 238.794 199.716C239.233 199.306 239.453 198.76 239.453 198.05C239.453 197.34 239.233 196.821 238.794 196.439C238.355 196.056 237.532 195.865 236.351 195.865H234.21V195.892Z" fill="black"/>
<path d="M142.344 73.462L141.163 71.2772L139.983 73.4347C116.927 73.4893 95.6553 76.6299 78.4183 81.9007C93.8712 73.3527 115.994 68 140.587 68C165.18 68 187.33 73.3527 202.783 81.9007C187.851 77.34 169.846 74.3905 150.303 73.6531L150.386 73.8443C170.834 75.401 189.553 81.5457 202.755 88.8374C188.675 84.5224 171.822 81.6822 153.57 80.7537L153.679 80.9995C172.783 82.8838 190.294 88.892 202.755 95.8014C189.498 91.7595 173.853 88.9739 156.836 87.8815L156.973 88.1819C174.732 90.3394 191.008 96.2657 202.755 102.765C190.377 98.9693 175.884 96.3203 160.157 95.0913L160.322 95.4464C176.68 97.8496 191.776 103.639 202.755 109.702C191.255 106.179 177.915 103.612 163.478 102.274L163.67 102.656C178.657 105.251 192.572 110.986 202.783 116.639C192.188 113.389 180.001 110.986 166.854 109.593L167.046 110.03C180.633 112.761 193.368 118.414 202.755 123.603C193.067 120.626 182.06 118.359 170.203 116.912L170.422 117.376C182.582 120.216 194.219 125.842 202.755 130.567C194 127.89 184.174 125.788 173.606 124.34L173.826 124.804C184.722 127.672 195.811 133.216 202.755 137.503C194.96 135.128 186.287 133.216 177.037 131.768L177.229 132.205C186.726 135.073 196.937 140.617 202.728 144.44C195.921 142.365 188.428 140.644 180.496 139.306L180.688 139.743C188.757 142.556 197.98 148.1 202.728 151.404C196.909 149.629 190.596 148.1 183.954 146.843L184.146 147.253C190.816 149.902 199.27 155.501 202.728 158.341C197.952 156.893 192.847 155.61 187.495 154.517L187.659 154.845C192.765 157.194 199.983 162.71 202.755 165.305C198.858 164.103 194.741 163.065 190.459 162.082L142.344 73.462Z" fill="black"/>
<path d="M132.353 87.4717L135.344 81.9824C112.865 82.6925 92.7733 87.854 78.4183 95.8012C93.734 91.1312 112.234 88.1271 132.353 87.4717Z" fill="black"/>
<path d="M100.404 146.27L102.682 142.092C93.5144 144.44 85.3076 147.608 78.4183 151.432C85.1704 149.356 92.5537 147.636 100.404 146.27Z" fill="black"/>
<path d="M108.638 131.14L111.273 126.307C98.6196 128.683 87.3936 132.561 78.4183 137.531C87.476 134.745 97.6864 132.588 108.638 131.14Z" fill="black"/>
<path d="M91.9773 161.809L93.6791 158.668C88.0798 160.58 82.9471 162.792 78.4183 165.304C82.7001 164.021 87.2289 162.846 91.9773 161.809Z" fill="black"/>
<path d="M124.585 101.755L127.549 96.3203C108.226 97.8497 91.0716 102.711 78.4183 109.702C91.7303 105.633 107.485 102.847 124.585 101.755Z" fill="black"/>
<path d="M116.708 116.312L119.562 111.068C103.533 113.171 89.315 117.595 78.4457 123.604C89.6443 120.19 102.627 117.677 116.708 116.312Z" fill="black"/>
<path d="M244.201 179.998C244.201 179.315 244.339 178.687 244.586 178.114C244.833 177.513 245.189 177.021 245.629 176.584C246.068 176.147 246.589 175.792 247.193 175.546C247.797 175.301 248.428 175.164 249.087 175.164C249.746 175.164 250.404 175.301 250.981 175.546C251.585 175.792 252.106 176.147 252.545 176.584C252.984 177.021 253.341 177.54 253.588 178.114C253.835 178.714 253.973 179.342 253.973 179.998C253.973 180.653 253.835 181.281 253.588 181.882C253.341 182.456 252.984 182.975 252.545 183.412C252.106 183.849 251.585 184.176 250.981 184.449C250.377 184.695 249.746 184.832 249.087 184.832C248.428 184.832 247.769 184.695 247.193 184.449C246.589 184.204 246.068 183.849 245.629 183.412C245.189 182.975 244.833 182.456 244.586 181.882C244.311 181.309 244.201 180.681 244.201 179.998ZM244.97 179.998C244.97 180.544 245.08 181.09 245.299 181.582C245.519 182.073 245.821 182.51 246.178 182.893C246.562 183.275 246.973 183.575 247.495 183.767C247.989 183.985 248.538 184.094 249.114 184.094C249.691 184.094 250.212 183.985 250.734 183.767C251.228 183.548 251.667 183.248 252.051 182.893C252.436 182.51 252.71 182.073 252.93 181.582C253.149 181.09 253.259 180.544 253.259 179.998C253.259 179.424 253.149 178.906 252.93 178.387C252.71 177.895 252.408 177.458 252.051 177.076C251.667 176.693 251.255 176.42 250.734 176.202C250.24 175.983 249.691 175.874 249.114 175.874C248.538 175.874 248.016 175.983 247.495 176.202C247.001 176.42 246.562 176.721 246.178 177.076C245.793 177.458 245.519 177.868 245.299 178.387C245.08 178.906 244.97 179.424 244.97 179.998ZM250.267 182.674L249.087 180.571H248.318V182.674H247.001V177.212H249.361C249.608 177.212 249.855 177.24 250.103 177.294C250.35 177.349 250.569 177.431 250.761 177.567C250.953 177.704 251.118 177.868 251.255 178.086C251.365 178.305 251.447 178.578 251.447 178.906C251.447 179.288 251.338 179.588 251.146 179.834C250.926 180.08 250.679 180.244 250.35 180.38L251.804 182.674H250.267ZM249.334 179.616C249.526 179.616 249.718 179.561 249.883 179.424C250.048 179.288 250.13 179.124 250.13 178.906C250.13 178.687 250.048 178.523 249.855 178.414C249.663 178.305 249.499 178.277 249.334 178.277H248.318V179.616H249.334Z" fill="black"/>
</svg>
