<svg width="290" height="290" viewBox="0 0 290 290" fill="none" xmlns="http://www.w3.org/2000/svg">
<rect width="290" height="290" fill="white"/>
<path fill-rule="evenodd" clip-rule="evenodd" d="M89.3896 110.624C81.8059 115.138 76.2084 122.541 74.0417 127.597C73.8611 128.139 73.6805 129.041 74.0417 129.041C112.502 116.402 107.988 175.988 71.6943 168.224C70.7915 177.793 69.5276 182.127 66.8191 188.086C66.6386 188.447 66.0969 188.808 65.7357 188.808C65.3746 188.627 65.1941 188.447 65.1941 187.905C66.2774 181.585 67.3608 175.085 62.4856 167.862C58.8743 162.626 45.1515 164.432 40.4569 159.195C27.6369 144.209 41.5402 119.833 61.5828 130.666C59.5966 123.444 57.791 112.429 61.7634 101.957C61.7634 101.776 61.9439 101.415 62.1245 101.235C62.6662 100.693 63.7495 101.235 64.4718 101.415C66.0969 101.957 66.9997 102.86 68.6248 103.401C69.5276 104.485 67.9025 105.388 68.0831 107.013C69.347 105.388 70.0693 103.221 71.3332 101.415C74.0417 102.137 75.8473 103.762 77.2918 105.568C76.2084 108.457 74.5834 110.804 73.6805 113.874C76.0279 111.346 80.9031 106.651 85.5977 104.665C87.4034 105.749 89.3896 109.902 89.3896 110.624Z" fill="#A51440"/>
<path d="M115.571 159.377C115.571 158.835 115.571 155.224 115.391 154.863C115.391 154.321 115.571 149.446 115.391 148.723C115.21 148.182 115.391 146.918 115.391 146.376C115.391 145.293 115.21 139.515 115.21 138.973C115.21 137.528 115.03 133.014 115.03 132.292C115.03 131.57 115.03 130.848 115.03 130.125C115.03 129.584 114.849 128.5 115.391 128.139C115.571 127.959 115.752 127.778 116.113 127.597C117.016 127.236 118.28 127.236 119.363 127.236C120.808 127.236 122.252 127.597 123.335 128.32C125.502 129.764 125.863 130.848 126.405 131.57C127.308 133.014 127.669 135.903 127.669 137.528C127.488 139.515 127.127 140.417 126.224 142.404C125.863 143.306 125.141 144.57 124.238 145.293C124.058 145.473 123.697 145.834 123.516 145.834C123.877 146.015 124.058 146.195 124.238 146.195C125.322 147.098 125.863 147.64 126.586 148.543C127.669 150.168 128.211 151.251 128.752 153.418C129.113 155.043 129.475 157.029 129.475 158.835C129.475 160.641 129.294 162.988 128.211 164.432C127.669 165.335 127.308 165.877 126.405 166.599C125.863 166.96 125.322 167.502 124.78 167.863C124.058 168.224 123.697 168.405 122.794 168.766C122.252 168.946 121.71 169.127 120.085 169.127C119.363 169.127 117.196 169.127 116.655 169.127C116.474 169.127 115.391 169.127 115.391 168.224C115.391 168.044 115.391 165.877 115.391 165.696C115.391 165.335 115.571 159.738 115.571 159.377ZM118.821 165.335C119.002 165.335 120.808 165.335 120.988 165.335C122.252 165.335 123.877 164.071 124.238 163.53C124.78 162.807 125.683 161.905 125.502 159.738C125.502 159.016 125.502 157.932 125.502 157.39C125.322 155.765 125.322 154.501 124.599 152.876C124.238 151.974 123.877 151.071 122.794 149.987C122.794 149.987 122.071 149.265 121.71 148.723C121.53 148.543 121.349 148.362 121.169 148.362C120.988 148.362 120.808 148.182 120.266 148.182C119.724 148.182 118.821 148.182 118.641 148.362C118.641 148.904 118.641 149.446 118.641 149.807C118.821 151.432 118.46 153.057 118.641 154.682C118.821 156.307 118.641 157.571 118.641 159.196C118.821 161.002 118.641 163.168 118.821 165.335ZM118.821 144.932C119.182 144.751 119.905 144.751 120.085 144.57C122.252 143.126 122.613 141.681 123.155 140.417C123.516 139.515 123.877 138.792 123.877 137.167C123.877 135.903 123.697 134.278 123.155 133.195C122.794 132.473 121.349 131.209 120.627 131.209C119.905 130.848 118.641 131.209 118.641 132.112C118.641 133.014 118.641 134.459 118.641 135.362C118.641 136.265 118.821 137.528 118.821 138.612C118.821 140.056 119.002 141.862 118.821 143.848C118.821 143.848 118.821 144.39 118.821 144.932Z" fill="#221E20"/>
<path d="M137.058 165.335C137.239 165.335 137.78 165.515 137.961 165.335C138.683 165.335 139.767 165.515 141.933 165.335C142.294 165.335 144.281 165.154 144.642 165.335C145.003 165.696 144.822 165.696 144.822 166.779C144.822 166.96 144.822 168.043 144.822 168.224C144.642 168.404 144.822 168.946 144.461 168.946C144.1 168.946 143.017 168.946 142.656 168.946C141.392 168.946 139.586 168.946 138.864 168.946C138.503 168.946 137.239 168.946 136.878 168.946C136.878 168.946 133.808 168.946 133.808 168.765C133.627 168.404 133.808 168.404 133.627 167.862C133.447 167.501 133.447 164.251 133.627 163.89C133.627 163.529 133.627 157.57 133.447 156.126C133.447 155.945 133.447 155.945 133.447 155.765V155.584C133.447 155.404 133.447 155.404 133.447 155.223C133.627 153.959 133.447 150.89 133.447 150.528C133.447 149.806 133.627 146.014 133.627 145.292C133.627 144.389 133.627 140.056 133.627 139.333C133.627 138.25 133.447 136.806 133.627 135.18C133.627 134.819 133.447 131.569 133.447 131.028C133.447 130.486 133.266 129.402 133.447 128.68C133.447 128.139 133.266 127.416 133.627 127.236C133.989 126.875 134.53 126.875 135.433 127.055C135.614 127.055 137.961 127.055 138.142 127.055C139.405 127.055 141.392 127.055 141.933 127.055C142.836 127.055 144.1 127.055 145.003 127.055C145.364 127.055 145.364 127.958 145.364 128.5C145.364 128.68 145.364 130.305 145.184 130.305C145.003 130.486 144.461 130.305 144.1 130.305C143.558 130.305 142.114 130.305 141.572 130.305C140.489 130.125 137.78 130.305 137.6 130.305C137.058 130.305 136.878 130.305 137.058 130.847C137.058 131.389 137.058 131.75 137.058 132.291C137.058 132.653 137.058 133.375 137.058 133.736C137.058 134.458 137.058 135.903 137.058 136.625C137.058 137.528 137.239 140.236 137.239 141.139C137.239 141.681 137.239 142.764 137.239 143.306C137.239 143.486 137.239 143.486 137.239 143.667C137.239 144.209 137.239 144.209 137.78 144.209C138.322 144.209 141.753 144.389 142.475 144.209C143.017 144.209 143.378 144.209 143.558 144.389C143.739 144.57 143.558 145.292 143.739 146.375C143.739 146.556 143.739 147.459 143.558 147.639C143.378 147.639 141.933 147.639 141.392 147.639C140.669 147.639 139.767 147.639 139.044 147.639C139.044 147.639 137.961 147.82 137.419 147.82C137.058 147.82 137.058 148 137.058 148.181C137.058 148.903 137.058 150.167 137.058 151.07C137.058 151.431 137.058 159.195 137.058 159.918C137.058 161.182 137.058 162.446 137.058 163.71C136.878 164.432 136.878 164.973 137.058 165.335Z" fill="#221E20"/>
<path d="M152.045 165.335C152.226 165.335 152.768 165.515 152.948 165.335C153.67 165.335 154.754 165.515 156.92 165.335C157.282 165.335 159.268 165.154 159.629 165.335C159.99 165.696 159.81 165.696 159.81 166.779C159.81 166.96 159.81 168.043 159.81 168.224C159.629 168.404 159.81 168.946 159.448 168.946C159.087 168.946 158.004 168.946 157.643 168.946C156.379 168.946 154.573 168.946 153.851 168.946C153.49 168.946 152.226 168.946 151.865 168.946C151.865 168.946 148.795 168.946 148.795 168.765C148.615 168.404 148.795 168.404 148.615 167.862C148.434 167.501 148.434 164.251 148.615 163.89C148.615 163.529 148.615 157.57 148.434 156.126C148.434 155.945 148.434 155.945 148.434 155.765V155.584C148.434 155.404 148.434 155.404 148.434 155.223C148.615 153.959 148.434 150.89 148.434 150.528C148.434 149.806 148.615 146.014 148.615 145.292C148.615 144.389 148.615 140.056 148.615 139.333C148.615 138.25 148.434 136.806 148.615 135.18C148.615 134.819 148.434 131.569 148.434 131.028C148.434 130.486 148.253 129.402 148.434 128.68C148.434 128.139 148.253 127.416 148.615 127.236C148.976 126.875 149.517 126.875 150.42 127.055C150.601 127.055 152.948 127.055 153.129 127.055C154.393 127.055 156.379 127.055 156.92 127.055C157.823 127.055 159.087 127.055 159.99 127.055C160.351 127.055 160.351 127.958 160.351 128.5C160.351 128.68 160.351 130.305 160.171 130.305C159.99 130.486 159.448 130.305 159.087 130.305C158.546 130.305 157.101 130.305 156.559 130.305C155.476 130.125 152.768 130.305 152.587 130.305C152.045 130.305 151.865 130.305 152.045 130.847C152.045 131.389 152.045 131.75 152.045 132.291C152.045 132.653 152.045 133.375 152.045 133.736C152.045 134.458 152.045 135.903 152.045 136.625C152.045 137.528 152.226 140.236 152.226 141.139C152.226 141.681 152.226 142.764 152.226 143.306C152.226 143.486 152.226 143.486 152.226 143.667C152.226 144.209 152.226 144.209 152.768 144.209C153.309 144.209 156.74 144.389 157.462 144.209C158.004 144.209 158.365 144.209 158.546 144.389C158.726 144.57 158.546 145.292 158.726 146.375C158.726 146.556 158.726 147.459 158.546 147.639C158.365 147.639 156.921 147.639 156.379 147.639C155.657 147.639 154.754 147.639 154.031 147.639C154.031 147.639 152.948 147.82 152.406 147.82C152.045 147.82 152.045 148 152.045 148.181C152.045 148.903 152.045 150.167 152.045 151.07C152.045 151.431 152.045 159.195 152.045 159.918C152.045 161.182 152.045 162.446 152.045 163.71C152.045 164.432 151.865 164.973 152.045 165.335Z" fill="#221E20"/>
<path d="M205.853 127.236C206.034 127.236 206.395 127.236 206.756 127.236C207.839 127.236 208.742 127.597 210.187 128.32C211.27 129.042 212.173 129.945 212.534 130.486C212.895 131.028 213.256 131.57 213.617 132.292C213.978 133.195 214.159 133.737 214.52 134.459L214.701 135.181C214.701 135.181 214.701 135.542 214.881 135.542C215.062 136.626 215.603 139.154 215.603 140.237C215.784 142.404 215.784 144.39 215.965 145.473C215.965 145.834 215.965 146.195 215.965 146.376C215.965 146.918 215.965 150.168 215.965 150.71V151.071C215.965 151.974 215.965 153.96 215.784 155.404C215.784 155.946 215.423 158.654 215.242 159.015V159.196C215.062 159.918 214.701 161.905 213.798 163.71C213.076 165.335 211.992 166.419 210.367 167.683C209.284 168.405 207.298 168.946 206.214 168.946C205.311 168.946 204.589 168.766 203.867 168.585C202.603 168.224 201.7 167.683 200.797 166.96C200.256 166.599 199.353 165.516 198.992 164.794C198.45 163.891 197.547 161.543 197.186 160.46C197.186 160.279 197.186 160.099 197.005 159.918C196.825 159.557 196.825 159.196 196.825 159.015C196.644 158.113 196.283 155.404 196.283 154.682C196.283 153.96 196.103 149.987 196.103 149.446C196.103 148.723 196.103 147.821 196.103 147.279C196.103 146.737 196.103 146.015 196.103 145.293C196.103 144.209 196.103 142.765 196.283 141.681C196.283 141.501 196.283 141.14 196.464 140.598C196.644 139.515 196.644 138.251 196.825 137.528C197.005 136.084 197.367 134.82 197.547 133.917C197.908 132.473 198.631 131.209 199.714 129.945C201.52 127.959 203.145 127.597 204.047 127.417C204.409 127.417 205.131 127.236 205.492 127.236C205.311 127.236 205.492 127.236 205.853 127.236ZM208.2 164.794C209.645 164.071 210.006 163.349 210.548 162.266C211.27 160.821 211.631 159.377 211.812 158.654V158.474C211.812 158.113 212.173 155.946 212.173 155.404C212.173 153.96 212.353 151.974 212.353 151.071V150.71C212.353 150.168 212.353 147.279 212.353 146.918C212.353 146.737 212.353 146.376 212.353 145.654C212.353 144.57 212.353 142.765 212.173 140.779C211.992 139.154 211.631 136.987 211.451 136.626C211.451 136.626 211.451 136.445 211.451 136.265C210.909 134.459 210.187 133.195 209.825 132.473C209.645 132.112 209.103 131.57 208.562 131.209C207.839 130.667 207.117 130.667 206.936 130.667C206.575 130.667 206.395 130.667 206.034 130.667C205.673 130.667 205.131 130.667 204.95 130.667C204.228 130.848 203.325 131.028 202.422 132.112C201.7 132.834 201.339 133.737 200.978 134.639C200.978 135.001 200.617 135.903 200.256 137.89C200.256 138.431 200.075 139.695 199.894 140.598C199.894 140.959 199.894 141.32 199.714 141.681C199.533 142.584 199.533 144.029 199.533 145.112C199.533 146.015 199.533 146.737 199.533 147.279C199.533 147.821 199.533 148.723 199.533 149.265C199.533 150.168 199.533 153.418 199.714 154.14C199.714 154.682 200.075 157.21 200.256 158.113C200.256 158.293 200.436 158.654 200.436 159.015C200.436 159.377 200.617 159.557 200.617 159.738C200.797 160.46 201.52 162.446 202.061 162.988C202.242 163.349 202.783 164.071 202.964 164.071C203.686 164.613 204.228 164.794 204.77 164.974C205.311 165.155 205.853 165.155 206.395 165.155C206.575 165.335 207.478 165.155 208.2 164.794Z" fill="#221E20"/>
<path d="M228.604 127.236C228.784 127.236 229.146 127.236 229.507 127.236C230.59 127.236 231.493 127.597 232.937 128.32C234.021 129.042 234.924 129.945 235.285 130.486C235.646 131.028 236.007 131.57 236.368 132.292C236.729 133.195 236.91 133.737 237.271 134.459L237.452 135.181C237.452 135.181 237.452 135.542 237.632 135.542C237.813 136.626 238.354 139.154 238.354 140.237C238.535 142.404 238.535 144.39 238.715 145.473C238.715 145.834 238.715 146.195 238.715 146.376C238.715 146.918 238.715 150.168 238.715 150.71V151.071C238.715 151.974 238.715 153.96 238.535 155.404C238.535 155.946 238.174 158.654 237.993 159.015V159.196C237.813 159.918 237.452 161.905 236.549 163.71C235.826 165.335 234.743 166.419 233.118 167.683C232.035 168.405 230.048 168.946 228.965 168.946C228.062 168.946 227.34 168.766 226.618 168.585C225.354 168.224 224.451 167.683 223.548 166.96C223.006 166.599 222.104 165.516 221.743 164.794C221.201 163.891 220.298 161.543 219.937 160.46C219.937 160.279 219.937 160.099 219.756 159.918C219.576 159.557 219.576 159.196 219.576 159.015C219.395 158.113 219.034 155.404 219.034 154.682C219.034 153.96 218.854 149.987 218.854 149.446C218.854 148.723 218.854 147.821 218.854 147.279C218.854 146.737 218.854 146.015 218.854 145.293C218.854 144.209 218.854 142.765 219.034 141.681C219.034 141.501 219.034 141.14 219.215 140.598C219.395 139.515 219.395 138.251 219.576 137.528C219.756 136.084 220.117 134.82 220.298 133.917C220.659 132.473 221.381 131.209 222.465 129.945C224.27 127.959 225.895 127.597 226.798 127.417C227.159 127.417 227.882 127.236 228.243 127.236C228.243 127.236 228.423 127.236 228.604 127.236ZM230.951 164.794C232.396 164.071 232.757 163.349 233.299 162.266C234.021 160.821 234.382 159.377 234.563 158.654V158.474C234.563 158.113 234.924 155.946 234.924 155.404C234.924 153.96 235.104 151.974 235.104 151.071V150.71C235.104 150.168 235.104 147.279 235.104 146.918C235.104 146.737 235.104 146.376 235.104 145.654C235.104 144.57 235.104 142.765 234.924 140.779C234.743 139.154 234.382 136.987 234.201 136.626C234.201 136.626 234.201 136.445 234.201 136.265C233.66 134.459 232.937 133.195 232.576 132.473C232.396 132.112 231.854 131.57 231.312 131.209C230.59 130.667 229.868 130.667 229.687 130.667C229.326 130.667 229.146 130.667 228.784 130.667C228.423 130.667 227.882 130.667 227.701 130.667C226.979 130.848 226.076 131.028 225.173 132.112C224.451 132.834 224.09 133.737 223.729 134.639C223.729 135.001 223.368 135.903 223.006 137.89C223.006 138.431 222.826 139.695 222.645 140.598C222.645 140.959 222.645 141.32 222.465 141.681C222.284 142.584 222.284 144.029 222.284 145.112C222.284 146.015 222.284 146.737 222.284 147.279C222.284 147.821 222.284 148.723 222.284 149.265C222.284 150.168 222.284 153.418 222.465 154.14C222.465 154.682 222.826 157.21 223.006 158.113C223.006 158.293 223.187 158.654 223.187 159.015C223.187 159.377 223.368 159.557 223.368 159.738C223.548 160.46 224.27 162.446 224.812 162.988C224.993 163.349 225.534 164.071 225.715 164.071C226.437 164.613 226.979 164.794 227.521 164.974C228.062 165.155 228.604 165.155 229.146 165.155C229.326 165.335 230.229 165.155 230.951 164.794Z" fill="#221E20"/>
<path d="M184.727 147.82C184.366 148.001 184.366 148.001 184.366 148.001C184.366 148.723 184.366 149.445 184.185 150.167C184.185 151.612 184.005 152.515 184.185 153.959C184.185 155.223 184.005 155.945 184.185 158.112C184.185 158.834 184.366 162.446 184.366 163.348C184.366 163.89 184.366 164.793 184.366 165.515C184.366 166.238 184.366 166.96 184.366 167.321C184.366 167.863 184.546 168.224 184.366 168.765C184.366 168.946 184.005 168.946 183.824 168.946C183.644 168.946 181.296 169.127 181.116 168.946C180.755 168.765 180.935 167.14 181.116 166.599C181.116 166.057 181.116 164.793 181.116 162.987C181.116 162.807 181.116 162.085 181.116 161.001C181.116 160.279 181.116 159.196 181.116 158.112C181.116 157.39 181.116 156.848 181.116 155.223C181.116 154.862 181.116 152.154 181.116 151.973C181.116 150.89 181.116 149.626 181.296 148.542C181.296 148.001 181.296 147.278 181.296 146.737C181.296 146.556 181.296 146.376 181.296 146.376C181.296 145.292 181.296 144.389 181.296 143.306C181.296 143.125 181.116 141.681 181.296 141.139C181.296 140.778 181.296 139.153 181.296 138.972C181.477 138.25 181.296 138.431 181.296 137.528C181.296 136.083 181.116 133.194 181.116 133.014C181.296 132.111 181.116 131.208 181.296 130.125C181.657 128.68 182.38 127.777 183.644 127.236C184.185 127.055 185.449 127.055 186.352 127.416C187.977 127.777 188.88 128.5 189.422 128.861C189.963 129.222 190.324 129.764 190.686 130.305C191.227 130.847 191.408 131.569 191.769 132.292C191.95 132.653 191.95 133.194 192.13 133.556C192.491 134.819 192.672 135.903 192.672 136.445C192.672 138.25 192.491 139.334 192.13 139.875C191.769 141.32 191.408 142.042 190.686 143.125C190.686 143.306 190.324 143.667 190.324 143.848C189.783 144.389 189.783 144.75 189.241 145.292C188.88 145.653 187.977 146.556 187.977 146.737C188.338 148.181 189.061 149.084 189.241 150.528C189.602 152.154 190.144 153.598 190.686 155.223C191.047 156.487 191.408 157.39 191.95 159.196C192.311 160.098 192.491 161.543 192.852 162.807C193.213 164.251 193.394 164.974 193.936 166.418C194.116 166.96 194.477 167.863 194.297 168.404C194.297 168.946 193.213 168.946 192.491 168.946C192.311 168.946 191.408 168.946 191.047 168.946C190.686 168.404 190.505 167.682 189.963 165.515C189.963 165.515 188.699 160.279 188.158 158.654C187.797 157.209 186.894 153.959 186.533 152.695C186.171 151.07 185.449 149.445 185.088 148.723C184.908 148.362 184.908 148.181 184.727 147.82ZM184.366 142.223C184.366 142.764 184.366 143.848 184.366 144.389C184.366 144.75 184.546 144.75 184.727 144.75C185.269 144.57 185.63 144.209 185.991 143.848C186.352 143.125 187.616 141.861 187.977 140.778C188.338 139.875 188.699 140.056 189.061 137.889C189.061 137.528 189.241 136.445 188.88 135C188.699 134.097 188.519 133.736 187.977 133.014C187.616 132.472 187.074 132.111 186.894 131.93C186.533 131.569 185.991 131.569 185.449 131.389C185.269 131.389 184.546 131.389 184.366 131.569C184.185 131.93 184.366 132.653 184.366 132.833C184.366 133.556 184.366 134.458 184.366 135C184.546 136.986 184.366 138.611 184.366 140.597C184.366 141.139 184.366 141.681 184.366 142.223Z" fill="#221E20"/>
<path d="M172.088 137.167C172.088 138.973 171.727 154.501 171.907 154.501C171.907 154.682 171.907 156.849 171.907 157.029C171.907 157.39 171.907 158.835 171.907 161.182C171.907 162.085 171.907 165.335 171.907 166.057C171.907 166.238 171.907 166.96 171.907 167.863C171.907 168.224 171.907 168.405 171.907 168.585C171.907 168.766 171.907 168.766 171.907 168.766C171.907 168.766 171.546 168.766 171.185 168.766C170.824 168.766 170.463 168.766 170.102 168.766C168.838 168.766 168.838 168.766 168.838 168.585C168.838 168.224 168.838 166.96 168.838 166.419C168.838 165.516 168.838 163.891 168.838 162.988C168.838 162.085 168.838 160.64 168.838 159.557C168.838 159.557 169.018 156.849 169.018 155.585C169.018 155.224 169.018 155.043 169.018 154.682C169.018 153.418 169.199 151.973 169.199 150.709C169.199 149.626 169.018 148.723 169.018 147.64C169.018 146.557 169.018 145.654 169.199 144.57C169.199 144.209 169.199 143.848 169.199 143.487C169.199 142.404 169.199 140.959 169.018 139.695C169.018 139.334 169.018 138.792 169.018 138.431C169.018 137.348 169.018 136.264 169.018 135.181C169.018 135 168.838 134.098 168.838 133.556C168.838 132.292 168.838 130.847 168.838 130.667C168.657 130.486 167.754 130.667 167.213 130.667C166.31 130.667 165.949 130.486 164.685 130.667C163.782 130.667 163.06 130.847 162.699 130.667C162.699 130.486 162.699 129.764 162.699 128.861C162.699 128.139 162.699 127.236 162.879 127.236C163.24 127.056 163.963 127.056 164.504 127.056C165.949 127.056 166.852 127.056 168.116 127.056C169.56 127.056 170.643 127.056 172.088 127.056C173.532 127.056 174.616 127.056 175.699 127.056C176.06 127.056 177.144 127.056 178.408 127.056C179.31 127.056 178.769 127.417 178.949 128.139C178.949 128.5 179.13 130.125 178.769 130.306C178.588 130.486 177.866 130.486 177.144 130.486C176.06 130.486 175.699 130.486 174.074 130.486C173.352 130.486 172.81 130.486 172.449 130.486C172.449 131.028 172.268 132.653 172.268 134.098C172.088 134.459 172.088 137.167 172.088 137.167Z" fill="#221E20"/>
<path d="M247.924 137.167C247.924 138.973 247.563 154.501 247.744 154.501C247.744 154.682 247.744 156.849 247.744 157.029C247.744 157.39 247.744 158.835 247.744 161.182C247.744 162.085 247.744 165.335 247.744 166.057C247.744 166.238 247.744 166.96 247.744 167.863C247.744 168.224 247.744 168.405 247.744 168.585C247.744 168.766 247.744 168.766 247.744 168.766C247.744 168.766 247.383 168.766 247.022 168.766C246.661 168.766 246.299 168.766 245.938 168.766C244.674 168.766 244.674 168.766 244.674 168.585C244.674 168.224 244.674 166.96 244.674 166.419C244.674 165.516 244.674 163.891 244.674 162.988C244.674 162.085 244.674 160.64 244.674 159.557C244.674 159.557 244.855 156.849 244.855 155.585C244.855 155.224 244.855 155.043 244.855 154.682C244.855 153.418 245.035 151.973 245.035 150.709C245.035 149.626 244.855 148.723 244.855 147.64C244.855 146.557 244.855 145.654 245.035 144.57C245.035 144.209 245.035 143.848 245.035 143.487C245.035 142.404 245.035 140.959 244.855 139.695C244.855 139.334 244.855 138.792 244.855 138.431C244.855 137.348 244.855 136.264 244.855 135.181C244.855 135 244.674 134.098 244.674 133.556C244.674 132.292 244.674 130.847 244.674 130.667C244.494 130.486 243.591 130.667 243.049 130.667C242.146 130.667 241.785 130.486 240.521 130.667C239.619 130.667 238.896 130.847 238.535 130.667C238.535 130.486 238.535 129.764 238.535 128.861C238.535 128.139 238.535 127.236 238.716 127.236C239.077 127.056 239.799 127.056 240.341 127.056C241.785 127.056 242.688 127.056 243.952 127.056C245.397 127.056 246.48 127.056 247.924 127.056C249.369 127.056 250.452 127.056 251.536 127.056C251.897 127.056 252.98 127.056 254.244 127.056C255.147 127.056 254.605 127.417 254.786 128.139C254.786 128.5 254.966 130.125 254.605 130.306C254.425 130.486 253.702 130.486 252.98 130.486C251.897 130.486 251.536 130.486 249.911 130.486C249.188 130.486 248.647 130.486 248.286 130.486C248.286 131.028 248.105 132.653 248.105 134.098C247.924 134.459 247.924 137.167 247.924 137.167Z" fill="#221E20"/>
</svg>
