<svg width="290" height="290" viewBox="0 0 290 290" fill="none" xmlns="http://www.w3.org/2000/svg">
<rect width="290" height="290" fill="white"/>
<path fill-rule="evenodd" clip-rule="evenodd" d="M91.416 111.142C84.0302 115.603 78.444 122.989 76.307 127.863C76.0446 128.463 75.9696 129.325 76.232 129.25C114.211 116.878 109.899 175.702 74.095 168.053C73.2327 177.464 72.033 181.813 69.2962 187.624C69.1087 188.036 68.5838 188.411 68.2464 188.299C67.909 188.186 67.6091 187.849 67.7215 187.399C68.8838 181.1 69.9335 174.802 65.0597 167.604C61.5355 162.392 47.9262 164.304 43.3148 158.981C30.4553 144.209 44.252 120.215 64.1224 130.862C62.0604 123.851 60.2233 112.866 64.3098 102.519C64.3848 102.294 64.5348 102.031 64.6847 101.881C65.1346 101.394 66.2594 101.919 66.8967 102.144C68.3964 102.631 69.4086 103.644 70.9083 104.168C71.8456 105.181 70.1959 106.118 70.4584 107.805C71.6956 106.193 72.4829 104.093 73.6451 102.369C76.232 103.119 78.0691 104.618 79.5313 106.455C78.4065 109.23 76.9069 111.667 75.8946 114.628C78.1441 112.042 83.0179 107.468 87.6668 105.556C89.4664 106.23 91.4535 110.392 91.416 111.142Z" fill="#91D1BA"/>
<path d="M217.236 168.463C217.536 167.676 217.724 166.964 218.024 166.101C218.211 165.539 218.361 164.977 218.549 164.414C218.849 163.327 219.149 162.202 219.523 161.153C219.861 160.103 221.398 155.117 221.548 154.517C221.698 153.917 221.923 153.167 221.998 152.942C222.523 151.48 222.56 151.068 223.01 149.38C223.235 148.518 223.797 146.494 223.835 146.231C223.947 145.706 224.547 143.719 224.922 142.744C225.147 142.182 225.335 141.657 225.56 141.057C225.747 140.607 225.934 140.158 226.197 139.745C226.497 139.183 226.534 139.108 227.509 139.108C227.996 139.108 228.821 139.108 228.934 139.183C229.196 139.37 229.234 139.97 229.309 140.457C229.496 141.357 229.571 142.257 229.721 143.119C229.908 144.057 229.871 144.544 229.983 145.594C230.021 146.231 230.133 146.943 230.171 147.468C230.208 147.806 230.246 148.256 230.246 148.593C230.246 149.268 230.321 149.193 230.283 149.98C230.246 150.43 230.396 150.993 230.396 151.442C230.471 153.205 230.546 153.954 230.696 155.192C230.771 155.829 230.808 156.504 230.846 157.141C230.921 158.228 230.883 158.941 230.996 160.028C231.071 161.003 230.996 161.865 231.146 163.065C231.371 164.752 231.371 166.214 231.408 167.901C231.446 169.813 231.633 171.275 231.671 173.187C231.708 174.237 231.783 175.287 231.858 176.337C231.896 176.824 231.933 177.311 232.008 178.586C232.083 179.486 232.12 179.823 232.12 180.161C232.12 180.311 231.446 180.311 230.808 180.311C230.358 180.311 229.459 180.311 229.046 180.311C228.934 180.311 228.859 180.311 228.821 180.273C228.596 180.161 228.596 179.898 228.559 179.448C228.484 178.061 228.446 177.236 228.371 175.849C228.296 174.537 228.221 172.475 228.221 171.163C228.184 169.663 228.071 169.251 228.034 167.751C228.034 167.301 227.959 166.064 227.921 165.089C227.846 162.727 227.809 162.84 227.809 161.565C227.771 160.515 227.584 160.065 227.547 157.891C227.509 156.766 227.397 155.754 227.322 154.629C227.209 152.905 227.172 152.68 227.134 151.855C227.097 151.555 227.097 151.03 227.059 150.73C227.059 150.055 226.984 149.943 226.984 149.305C226.984 149.305 226.984 149.193 226.984 148.593C226.984 148.293 226.984 148.256 226.834 148.218C226.834 148.218 226.647 148.706 226.609 148.931C226.234 150.543 226.047 151.068 225.522 153.017C225.222 154.142 224.96 154.854 224.585 156.166C224.247 157.404 224.022 158.078 223.61 159.278C223.46 159.728 222.86 161.678 222.748 162.127C222.373 163.365 222.335 163.702 221.923 164.939C221.848 165.164 221.735 165.614 221.66 165.839C221.51 166.326 220.836 168.763 220.161 170.713C219.898 171.538 219.636 172.25 219.336 173.075C219.149 173.525 218.511 173.75 217.986 173.825C217.349 173.937 216.937 173.937 216.337 173.825C215.849 173.675 215.437 173.337 215.324 172.775C215.137 172.063 214.837 171.538 214.65 170.863C214.387 169.926 214.162 169.738 213.637 167.976C213.525 167.676 213.15 166.364 213 165.952C212.925 165.689 212.625 164.864 212.513 164.602C212.288 164.077 211.725 162.352 210.975 160.328C210.675 159.353 210.301 158.266 209.926 157.329C209.626 156.541 209.288 155.754 208.988 154.967C208.838 154.554 208.688 154.104 208.538 153.692C208.239 152.867 207.976 152.267 207.676 151.442C207.526 151.068 206.926 149.493 206.739 149.118C206.739 149.643 206.626 150.805 206.589 151.18C206.514 152.38 206.476 153.579 206.364 154.779C206.364 154.929 206.327 155.154 206.327 155.342C206.327 156.279 206.139 157.141 206.102 158.303C206.064 159.241 205.989 160.365 205.952 161.303C205.914 162.09 205.914 162.802 205.877 163.59C205.839 165.089 205.614 166.589 205.614 167.676C205.577 170.226 205.427 171.238 205.277 173.412C205.164 175.699 205.089 176.637 204.939 179.073C204.902 179.561 204.902 179.861 204.714 180.086C204.564 180.348 203.89 180.236 203.552 180.236C203.102 180.236 201.828 180.236 201.528 180.161C201.303 180.011 201.453 179.748 201.453 179.148C201.49 177.986 201.715 176.299 201.753 175.249C201.828 173.75 201.978 172.25 202.053 171.013C202.127 169.626 202.202 169.213 202.24 168.126C202.24 167.864 202.315 167.151 202.315 166.926C202.315 166.289 202.39 165.577 202.465 164.939C202.54 163.964 202.54 163.627 202.615 162.052C202.652 161.34 202.69 160.628 202.727 159.915C202.877 158.116 202.915 156.766 202.99 155.117C203.027 154.367 203.102 153.542 203.177 152.792C203.252 151.78 203.252 150.88 203.327 149.868C203.402 148.556 203.44 147.806 203.552 145.894C203.627 144.806 203.74 143.832 203.852 143.157C204.002 141.882 204.115 141.395 204.19 140.57C204.302 139.595 204.452 139.52 204.789 139.295C205.164 139.07 205.427 139.108 205.914 139.108C206.177 139.108 206.401 139.108 206.589 139.183C207.151 139.37 207.301 140.345 207.526 140.832C207.751 141.395 207.714 141.47 207.939 142.145C208.051 142.482 208.201 142.969 208.389 143.532C208.538 144.019 208.763 144.582 208.951 145.031C209.176 145.631 209.326 146.456 209.551 147.018C209.738 147.506 209.851 147.881 210.113 148.518C210.376 149.23 210.9 150.655 210.938 150.805C211.163 151.405 211.463 152.117 211.725 152.717C212.663 155.154 213.525 157.479 213.637 157.703C213.9 158.303 214.012 158.828 214.237 159.466C214.5 160.14 214.762 160.89 215.024 161.64C215.512 162.915 215.849 164.002 216.374 165.614C216.487 166.326 216.937 167.751 217.236 168.463Z" fill="#211E1E"/>
<path d="M144.279 141.695C144.316 141.92 144.316 142.182 144.091 142.22C143.866 142.257 143.491 142.257 142.929 142.295C141.242 142.445 140.417 142.37 138.955 143.007C138.73 143.12 137.493 143.532 137.043 143.944C136.293 144.694 136.293 144.544 135.768 145.481C135.356 146.344 135.093 146.794 134.943 147.618C134.681 149.006 134.418 149.568 134.306 151.33C134.268 152.117 134.081 153.392 134.006 154.179C133.894 155.679 133.819 157.591 133.781 159.091C133.744 160.59 133.781 162.09 133.856 163.59C133.894 164.902 133.968 165.952 134.081 167.264C134.118 167.939 134.306 169.588 134.418 170.751C134.643 172.55 134.906 173.075 135.468 174.125C135.731 174.612 136.293 175.212 136.705 175.549C137.305 176.037 137.605 176.337 138.505 176.562C139.48 176.824 140.155 176.787 141.992 176.674C142.367 176.637 143.416 176.412 143.754 176.299C144.241 176.187 144.391 176.862 144.541 177.312C144.691 177.686 144.691 177.799 144.766 178.099C144.878 178.436 145.028 178.774 145.028 178.924C145.028 179.074 145.178 179.186 144.991 179.261C144.204 179.598 143.716 179.861 142.029 180.123C140.717 180.311 139.217 180.311 138.168 180.161C137.905 180.123 137.043 179.898 136.555 179.673C135.168 179.111 133.669 178.174 132.694 176.562C132.019 175.437 131.569 174.5 131.269 173.225C131.007 172.063 130.857 170.601 130.744 168.351C130.707 167.864 130.669 167.039 130.669 166.514C130.632 165.577 130.594 165.202 130.557 164.415C130.557 164.002 130.557 163.702 130.519 163.29C130.519 162.802 130.482 162.353 130.482 161.865C130.482 161.64 130.482 159.728 130.519 158.753C130.557 158.004 130.594 157.216 130.594 156.429C130.594 155.942 130.594 155.492 130.632 155.117C130.669 154.329 130.782 153.017 130.857 152.23C130.969 151.255 131.007 150.505 131.119 149.531C131.232 148.443 131.494 147.056 131.644 146.306C131.794 145.744 131.981 145.144 132.244 144.619C132.469 144.132 132.731 143.644 132.994 143.157C133.181 142.82 133.706 142.145 133.968 141.845C134.531 141.207 134.981 140.833 135.768 140.383C138.168 139.071 140.679 138.921 143.304 138.958C143.829 138.958 143.979 139.295 144.129 139.82C144.166 140.308 144.204 141.208 144.279 141.695Z" fill="#211E1E"/>
<path d="M163.999 178.135C163.924 177.76 163.737 176.111 163.699 175.698C163.474 174.311 163.399 173.411 163.174 172.024C163.024 170.937 162.799 169.887 162.687 168.8C162.499 167.225 162.274 165.538 162.087 163.964C161.937 162.426 161.75 160.852 161.562 159.315C161.337 157.44 161.075 155.566 160.812 153.691C160.625 152.491 160.512 151.479 160.325 150.317C160.175 149.192 159.987 147.955 159.838 146.83C159.65 145.63 159.313 144.131 159.125 142.931C158.975 141.769 158.863 140.607 158.675 139.819C158.638 139.669 158.413 139.294 158.263 139.257C157.476 139.144 156.088 139.069 155.339 139.144C154.551 139.219 154.289 139.369 154.139 140.044C153.951 140.869 153.914 141.356 153.764 142.406C153.689 142.931 153.539 143.718 153.464 144.281C153.314 145.368 153.239 145.968 153.052 147.093C152.977 147.505 152.902 148.03 152.827 148.442C152.752 148.78 152.602 149.604 152.527 149.942C152.377 150.654 151.964 152.791 151.852 153.766C151.702 154.741 151.365 156.653 151.365 156.84C151.29 157.553 151.215 158.265 151.102 158.977C150.99 159.69 150.952 160.477 150.727 161.152C150.465 161.902 150.202 164.151 150.127 164.488C149.977 165.201 149.865 166.026 149.715 166.738C149.602 167.263 149.228 169.437 149.115 169.962C148.965 170.899 148.365 174.236 148.178 175.136C147.915 176.523 147.653 177.723 147.503 178.66C147.465 178.848 147.128 180.122 147.24 180.235C147.428 180.46 148.328 180.385 149.04 180.385C150.127 180.385 150.465 180.347 150.615 179.822C150.877 178.735 151.14 177.46 151.365 175.886C151.514 174.949 151.702 174.049 151.852 173.111C152.077 171.687 152.339 170.937 152.339 170.937C152.339 170.937 153.764 171.012 154.551 171.049C156.613 171.162 159.688 171.162 159.688 171.162C159.688 171.162 159.763 171.312 159.838 171.799C159.913 172.324 159.95 172.849 160.025 173.374C160.1 173.974 160.137 174.574 160.212 175.136C160.437 177.011 160.587 178.285 160.812 179.822C160.887 180.31 160.962 180.385 161.337 180.422C161.637 180.422 162.912 180.422 163.174 180.422C163.999 180.385 164.449 180.535 164.336 179.785C164.149 179.373 164.074 178.585 163.999 178.135ZM159.35 167.825C157.925 167.863 156.351 167.75 154.889 167.675C154.364 167.638 153.314 167.675 152.752 167.563C152.677 167.563 152.827 166.775 153.014 165.688C153.352 163.476 153.689 161.677 153.989 159.652C154.326 157.403 154.664 155.116 155.039 152.866C155.226 151.704 155.451 150.317 155.639 149.08C155.676 148.967 156.126 147.168 156.313 146.08C156.351 145.818 156.501 145.78 156.576 145.743C156.651 145.705 156.763 145.668 156.876 146.23C157.026 147.243 157.213 148.817 157.326 149.829C157.476 151.329 157.925 154.966 158.038 155.603C158.113 156.128 158.45 158.902 158.525 159.465C159.35 167.675 159.275 166.625 159.35 167.825Z" fill="#211E1E"/>
<path d="M128.532 178.135C128.457 177.76 128.27 176.111 128.232 175.698C128.007 174.311 127.932 173.411 127.707 172.024C127.557 170.937 127.333 169.887 127.22 168.8C127.033 167.225 126.808 165.538 126.62 163.964C126.47 162.426 126.283 160.852 126.095 159.315C125.87 157.44 125.608 155.566 125.346 153.691C125.158 152.491 125.046 151.479 124.858 150.317C124.708 149.192 124.521 147.955 124.371 146.83C124.183 145.63 123.846 144.131 123.658 142.931C123.508 141.769 123.396 140.607 123.209 139.819C123.171 139.669 122.946 139.294 122.796 139.257C122.009 139.144 120.622 139.069 119.872 139.144C119.084 139.219 118.822 139.369 118.672 140.044C118.485 140.869 118.447 141.356 118.297 142.406C118.222 142.931 118.072 143.718 117.997 144.281C117.847 145.368 117.772 145.968 117.585 147.093C117.51 147.505 117.435 148.03 117.36 148.442C117.285 148.78 117.135 149.604 117.06 149.942C116.91 150.654 116.498 152.791 116.385 153.766C116.235 154.741 115.898 156.653 115.898 156.84C115.823 157.553 115.748 158.265 115.635 158.977C115.523 159.69 115.485 160.477 115.26 161.152C114.998 161.902 114.736 164.151 114.661 164.488C114.511 165.201 114.398 166.026 114.248 166.738C114.136 167.263 113.761 169.437 113.648 169.962C113.498 170.899 112.898 174.236 112.711 175.136C112.449 176.523 112.186 177.723 112.036 178.66C111.999 178.848 111.661 180.122 111.774 180.235C111.961 180.46 112.861 180.385 113.573 180.385C114.661 180.385 114.998 180.347 115.148 179.822C115.41 178.735 115.673 177.46 115.898 175.886C116.048 174.949 116.235 174.049 116.385 173.111C116.61 171.687 116.873 170.937 116.873 170.937C116.873 170.937 118.297 171.012 119.084 171.049C121.147 171.162 124.221 171.162 124.221 171.162C124.221 171.162 124.296 171.312 124.371 171.799C124.446 172.324 124.483 172.849 124.558 173.374C124.633 173.974 124.671 174.574 124.746 175.136C124.971 177.011 125.121 178.285 125.346 179.822C125.42 180.31 125.495 180.385 125.87 180.422C126.17 180.422 127.445 180.422 127.707 180.422C128.532 180.385 128.982 180.535 128.87 179.785C128.682 179.373 128.607 178.585 128.532 178.135ZM123.883 167.825C122.459 167.863 120.884 167.75 119.422 167.675C118.897 167.638 117.847 167.675 117.285 167.563C117.21 167.563 117.36 166.775 117.547 165.688C117.885 163.476 118.222 161.677 118.522 159.652C118.86 157.403 119.197 155.116 119.572 152.866C119.759 151.704 119.984 150.317 120.172 149.08C120.209 148.967 120.659 147.168 120.847 146.08C120.884 145.818 121.034 145.78 121.109 145.743C121.184 145.705 121.296 145.668 121.409 146.23C121.559 147.243 121.746 148.817 121.859 149.829C122.009 151.329 122.459 154.966 122.571 155.603C122.646 156.128 122.984 158.902 123.059 159.465C123.883 167.675 123.808 166.625 123.883 167.825Z" fill="#211E1E"/>
<path d="M243.143 155.304C243.593 153.991 243.893 153.204 244.193 152.342C244.568 151.217 244.68 150.767 245.055 149.642C245.505 148.255 245.73 147.73 245.955 146.981C246.217 145.968 246.742 144.581 246.892 143.944C247.154 142.932 247.604 141.544 247.717 141.132C248.167 139.745 248.279 139.407 248.429 139.22C248.467 139.145 248.579 139.107 249.067 139.107C249.854 139.107 251.166 139.107 251.428 139.107C251.878 139.107 251.616 139.445 251.428 140.42C251.204 141.544 250.829 142.482 250.229 144.544C249.666 146.456 249.366 147.318 248.842 149.118C248.167 151.217 247.904 152.642 247.229 154.741C246.63 156.691 246.067 158.49 245.58 160.065C245.542 160.177 245.542 160.927 245.542 161.04C245.505 162.539 245.542 162.539 245.505 164.077C245.505 164.826 245.505 165.164 245.542 165.914C245.542 166.101 245.58 166.851 245.58 167.076C245.58 168.051 245.617 168.838 245.655 169.325C245.73 170.45 245.692 171.125 245.805 173.037C245.917 174.912 246.067 177.498 246.067 179.373C246.067 180.085 246.217 180.423 245.73 180.385C245.092 180.385 244.38 180.385 243.818 180.385C243.255 180.385 242.843 180.385 242.731 180.31C242.618 180.16 242.618 179.111 242.618 178.923C242.506 177.011 242.468 175.136 242.393 173.262C242.356 172.25 242.356 172.212 242.281 170.638C242.243 169.775 242.206 168.725 242.168 167.863C242.093 166.176 241.981 165.276 241.943 163.589C241.868 162.689 241.868 162.389 241.793 161.565C241.793 161.565 241.268 160.215 240.893 159.428C240.181 158.003 240.069 157.666 239.506 156.503C239.094 155.566 238.232 154.104 237.632 152.904C237.557 152.717 237.369 152.304 237.294 152.079C236.994 151.442 236.732 150.767 236.469 150.13C236.282 149.717 236.095 149.343 235.87 148.893C235.72 148.63 235.72 148.443 235.607 148.218C235.457 147.88 235.195 147.543 235.082 147.206C234.332 145.406 234.258 144.956 233.733 143.681C233.358 142.782 232.945 142.107 232.345 140.307C232.195 139.82 231.858 139.295 232.495 139.182C233.058 139.107 233.995 139.182 234.557 139.182C235.307 139.182 235.645 139.07 235.832 139.52C236.245 140.532 236.657 141.319 237.107 142.369C237.257 142.707 237.707 143.681 237.857 144.019C237.969 144.281 238.082 144.544 238.194 144.806C238.269 144.994 238.344 145.181 238.419 145.368C238.569 145.856 238.569 146.081 239.056 146.831C239.244 147.131 239.394 147.543 239.581 147.918C240.106 149.118 240.631 150.355 241.193 151.555C241.681 152.454 242.393 154.366 243.143 155.304Z" fill="#211E1E"/>
<path d="M183.269 165.165C183.344 164.378 183.457 161.453 183.457 161.191C183.457 160.366 183.307 159.654 183.232 158.754C183.119 157.067 183.119 155.305 182.894 153.918C182.707 152.605 182.295 151.256 181.957 150.169C181.845 149.831 181.732 149.381 181.62 149.044C181.32 147.994 181.02 147.057 180.42 146.082C179.745 144.957 179.295 144.357 178.471 143.345C177.458 142.07 176.633 141.433 175.134 140.608C174.609 140.308 173.784 139.896 173.184 139.671C172.509 139.409 172.247 139.259 171.535 139.146C171.085 139.071 170.56 139.034 170.11 139.034C169.173 139.034 168.573 138.996 168.048 139.596C167.373 140.346 167.523 141.396 167.523 142.52C167.523 143.27 167.523 144.057 167.523 144.582C167.523 145.595 167.523 149.081 167.523 149.531C167.448 152.568 167.561 154.48 167.523 156.055C167.523 156.617 167.486 158.229 167.486 158.529C167.561 160.216 167.561 160.891 167.523 162.616C167.523 163.553 167.448 164.903 167.486 165.84C167.486 166.365 167.523 169.851 167.523 170.001C167.523 171.314 167.523 172.513 167.561 173.938C167.561 174.613 167.561 176.262 167.598 176.862C167.636 177.575 167.561 178.137 167.673 179.299C167.711 179.674 167.935 180.012 168.085 180.124C168.535 180.424 168.985 180.386 169.623 180.386C170.785 180.386 171.385 180.386 171.947 180.311C173.034 180.124 173.334 179.974 174.459 179.449C174.909 179.262 175.809 178.662 176.334 178.362C177.046 177.912 178.021 177.2 178.471 176.75C179.745 175.513 180.12 174.8 180.757 173.676C181.582 172.213 182.107 170.676 182.407 169.402C182.67 168.389 183.157 166.515 183.269 165.165ZM180.158 160.216C180.158 161.153 180.195 161.828 180.12 163.365C180.045 165.015 179.858 166.215 179.558 167.827C179.295 169.252 178.995 170.189 178.62 170.976C178.358 171.501 178.021 172.138 177.008 173.376C176.334 174.2 175.884 174.763 174.122 175.813C173.484 176.187 172.247 176.75 171.31 177.012C171.01 177.087 170.972 176.975 170.972 176.675C170.972 175.663 171.047 174.125 171.01 173.301C170.972 172.476 170.972 171.351 170.935 170.526C170.897 169.477 170.935 168.352 170.935 167.265C170.935 165.952 170.935 164.94 170.935 163.628C170.897 162.653 170.972 161.303 170.897 160.329C170.822 159.091 170.897 158.492 170.86 157.254C170.822 156.767 170.822 155.117 170.785 154.667C170.71 153.018 170.747 152.793 170.747 151.406C170.747 150.281 170.71 149.681 170.747 148.406C170.747 147.957 170.86 146.607 170.86 146.194C170.897 145.145 170.972 142.37 170.972 142.37C170.972 142.37 172.734 142.558 174.609 143.758C175.621 144.395 175.959 144.732 177.308 146.607C177.458 146.794 177.646 147.132 177.833 147.507C178.208 148.257 178.471 148.781 178.77 149.756C179.07 150.731 179.258 151.706 179.445 152.68C179.595 153.393 179.67 153.693 179.783 154.593C179.933 155.792 179.933 156.467 180.045 157.892C180.045 158.042 180.158 159.241 180.158 160.216Z" fill="#211E1E"/>
<path d="M190.318 176.675C190.505 176.712 191.068 176.787 191.218 176.75C191.892 176.75 192.98 176.9 195.154 176.75C195.529 176.712 197.441 176.637 197.816 176.787C198.266 177.2 198.041 177.2 198.078 178.25C198.003 178.437 198.116 179.449 198.003 179.637C197.891 179.862 198.003 180.349 197.704 180.312C197.329 180.274 196.316 180.237 195.904 180.237C194.704 180.274 192.905 180.162 192.155 180.274C191.855 180.312 190.543 180.199 190.243 180.274C190.168 180.274 187.281 180.349 187.169 180.199C186.906 179.899 187.131 179.749 186.981 179.374C186.831 178.962 186.869 175.775 186.944 175.438C187.019 175.025 186.906 169.177 186.831 167.715C186.831 167.565 186.831 167.49 186.831 167.452V167.302C186.831 167.19 186.869 167.115 186.869 166.927C186.981 165.653 186.794 162.653 186.831 162.316C186.906 161.529 186.981 157.779 186.981 157.067C187.019 156.167 186.944 151.818 186.944 151.218C186.869 150.244 186.794 148.782 186.869 147.169C186.906 146.794 186.756 143.645 186.719 143.083C186.681 142.595 186.569 141.433 186.644 140.796C186.719 140.346 186.531 139.596 186.906 139.409C187.318 139.109 187.731 139.071 188.706 139.146C188.781 139.146 191.218 139.146 191.33 139.146C192.492 139.071 194.554 139.071 195.117 139.109C195.979 139.146 197.329 139.071 198.153 139.071C198.603 139.071 198.453 140.009 198.416 140.533C198.416 140.721 198.453 142.296 198.266 142.408C198.041 142.558 197.479 142.445 197.141 142.445C196.541 142.445 195.117 142.445 194.629 142.371C193.654 142.221 190.918 142.445 190.768 142.445C190.243 142.52 190.13 142.52 190.168 143.045C190.205 143.495 190.205 143.87 190.243 144.433C190.28 144.732 190.318 145.52 190.318 145.895C190.355 146.607 190.243 147.957 190.243 148.744C190.243 149.681 190.393 152.268 190.43 153.205C190.468 153.768 190.43 154.818 190.43 155.38C190.43 155.492 190.393 155.642 190.393 155.755C190.393 156.242 190.468 156.242 190.955 156.242C191.517 156.242 194.817 156.355 195.567 156.242C196.054 156.167 196.466 156.317 196.691 156.467C196.879 156.73 196.729 157.292 196.804 158.454C196.804 158.679 196.804 159.579 196.616 159.691C196.504 159.766 195.042 159.654 194.479 159.654C193.729 159.654 192.83 159.654 192.117 159.579C192.08 159.579 191.03 159.729 190.58 159.691C190.28 159.654 190.168 159.766 190.168 160.066C190.243 160.854 190.093 162.091 190.205 162.878C190.243 163.216 190.243 170.864 190.28 171.539C190.318 172.813 190.205 174.088 190.243 175.325C190.243 175.738 190.13 176.375 190.318 176.675Z" fill="#211E1E"/>
<path d="M115.898 125.277C115.898 125.052 115.86 123.327 115.86 123.102C115.823 122.877 115.935 120.515 115.86 120.178C115.823 119.916 115.86 119.316 115.86 119.016C115.86 118.491 115.748 115.754 115.785 115.529C115.785 114.817 115.71 112.717 115.71 112.38C115.71 112.042 115.748 111.668 115.748 111.33C115.748 111.105 115.71 110.543 115.898 110.355C116.01 110.243 116.085 110.205 116.273 110.13C116.685 109.98 117.322 109.98 117.772 109.98C118.41 109.98 119.16 110.168 119.647 110.505C120.659 111.18 120.884 111.705 121.147 112.08C121.596 112.755 121.746 114.179 121.709 114.892C121.634 115.867 121.446 116.279 121.034 117.179C120.809 117.629 120.509 118.154 120.097 118.528C119.984 118.641 119.872 118.753 119.722 118.828C119.872 118.903 119.947 118.978 120.059 119.053C120.584 119.428 120.809 119.728 121.184 120.178C121.709 120.928 121.971 121.453 122.234 122.465C122.421 123.252 122.571 124.227 122.571 125.014C122.534 125.839 122.459 127.001 121.971 127.714C121.671 128.126 121.484 128.389 121.109 128.726C120.847 128.951 120.622 129.138 120.322 129.288C119.947 129.476 119.834 129.551 119.422 129.663C119.16 129.738 118.897 129.851 118.147 129.851C117.772 129.851 116.798 129.851 116.498 129.851C116.385 129.851 115.898 129.813 115.86 129.438C115.86 129.326 115.823 128.351 115.86 128.239C115.823 128.164 115.898 125.427 115.898 125.277ZM117.435 128.126C117.547 128.164 118.372 128.126 118.447 128.126C119.047 128.089 119.834 127.526 119.984 127.301C120.247 126.964 120.622 126.477 120.622 125.502C120.622 125.164 120.659 124.677 120.622 124.34C120.584 123.552 120.509 122.99 120.172 122.165C120.022 121.753 119.834 121.303 119.309 120.778C119.309 120.778 118.972 120.441 118.747 120.216C118.635 120.103 118.56 120.066 118.485 120.028C118.41 119.991 118.26 119.953 118.072 119.953C117.772 119.953 117.397 119.991 117.285 119.991C117.285 120.216 117.322 120.478 117.322 120.703C117.36 121.49 117.247 122.24 117.285 123.065C117.322 123.815 117.247 124.452 117.285 125.202C117.435 126.102 117.36 127.039 117.435 128.126ZM117.397 118.378C117.585 118.341 117.885 118.266 117.997 118.191C119.047 117.554 119.234 116.804 119.497 116.241C119.647 115.792 119.872 115.417 119.834 114.667C119.797 114.067 119.797 113.317 119.497 112.792C119.309 112.492 118.672 111.893 118.26 111.818C117.885 111.63 117.322 111.818 117.322 112.23C117.322 112.642 117.285 113.355 117.322 113.767C117.36 114.217 117.397 114.817 117.397 115.267C117.397 115.942 117.472 116.804 117.435 117.704C117.435 117.929 117.397 118.154 117.397 118.378Z" fill="#211E1E"/>
<path d="M126.058 128.088C126.133 128.125 126.395 128.163 126.47 128.125C126.808 128.125 127.333 128.2 128.345 128.125C128.532 128.125 129.432 128.05 129.619 128.125C129.844 128.313 129.732 128.313 129.732 128.838C129.694 128.913 129.732 129.4 129.694 129.512C129.657 129.625 129.694 129.85 129.544 129.85C129.357 129.85 128.87 129.812 128.682 129.812C128.12 129.85 127.22 129.775 126.883 129.85C126.733 129.887 126.095 129.812 125.945 129.85C125.908 129.85 124.521 129.887 124.446 129.812C124.333 129.662 124.408 129.587 124.333 129.437C124.258 129.212 124.296 127.713 124.296 127.563C124.333 127.375 124.258 124.526 124.258 123.851C124.258 123.776 124.258 123.739 124.258 123.701V123.626C124.258 123.551 124.258 123.551 124.296 123.439C124.333 122.839 124.258 121.377 124.258 121.227C124.296 120.852 124.333 119.052 124.333 118.715C124.333 118.303 124.333 116.203 124.296 115.903C124.258 115.416 124.221 114.741 124.258 113.954C124.258 113.766 124.221 112.266 124.183 111.967C124.183 111.742 124.108 111.179 124.146 110.842C124.183 110.617 124.108 110.279 124.258 110.167C124.446 110.017 124.671 110.017 125.121 110.054C125.158 110.054 126.32 110.054 126.395 110.054C126.958 110.017 127.932 110.017 128.232 110.054C128.645 110.092 129.32 110.017 129.694 110.054C129.919 110.054 129.844 110.504 129.844 110.767C129.844 110.879 129.882 111.629 129.769 111.667C129.657 111.742 129.395 111.667 129.245 111.667C128.945 111.667 128.27 111.667 128.045 111.629C127.557 111.554 126.245 111.667 126.17 111.667C125.908 111.704 125.87 111.704 125.87 111.967C125.908 112.191 125.87 112.379 125.908 112.641C125.908 112.791 125.945 113.166 125.945 113.354C125.945 113.691 125.908 114.328 125.908 114.741C125.908 115.191 125.983 116.428 125.983 116.915C125.983 117.178 125.983 117.703 125.983 117.965C125.983 118.04 125.983 118.078 125.983 118.153C125.983 118.378 126.02 118.378 126.245 118.378C126.508 118.378 128.12 118.453 128.457 118.378C128.682 118.34 128.907 118.415 128.982 118.49C129.057 118.602 128.982 118.902 129.057 119.427C129.057 119.54 129.057 119.99 128.982 120.027C128.945 120.065 128.232 120.027 127.97 119.99C127.595 119.99 127.183 119.99 126.808 119.952C126.77 119.952 126.283 120.027 126.058 119.99C125.908 119.99 125.87 120.027 125.87 120.177C125.908 120.552 125.833 121.152 125.908 121.527C125.945 121.677 125.908 125.388 125.945 125.688C125.983 126.288 125.908 126.926 125.908 127.525C126.02 127.638 125.983 127.938 126.058 128.088Z" fill="#211E1E"/>
<path d="M133.219 128.088C133.294 128.125 133.556 128.163 133.631 128.125C133.969 128.125 134.493 128.2 135.506 128.125C135.693 128.125 136.593 128.05 136.78 128.125C137.005 128.313 136.893 128.313 136.893 128.838C136.855 128.913 136.893 129.4 136.855 129.512C136.818 129.625 136.855 129.85 136.705 129.85C136.518 129.85 136.031 129.812 135.843 129.812C135.281 129.85 134.381 129.775 134.043 129.85C133.894 129.887 133.256 129.812 133.106 129.85C133.069 129.85 131.682 129.887 131.607 129.812C131.494 129.662 131.569 129.587 131.494 129.437C131.419 129.212 131.457 127.713 131.457 127.563C131.494 127.375 131.419 124.526 131.419 123.851C131.419 123.776 131.419 123.739 131.419 123.701V123.626C131.419 123.551 131.419 123.551 131.457 123.439C131.494 122.839 131.419 121.377 131.419 121.227C131.457 120.852 131.494 119.052 131.494 118.715C131.494 118.303 131.494 116.203 131.457 115.903C131.419 115.416 131.382 114.741 131.419 113.954C131.419 113.766 131.382 112.266 131.344 111.967C131.344 111.742 131.269 111.179 131.307 110.842C131.344 110.617 131.269 110.279 131.419 110.167C131.607 110.017 131.832 110.017 132.281 110.054C132.319 110.054 133.481 110.054 133.556 110.054C134.118 110.017 135.093 110.017 135.393 110.054C135.806 110.092 136.48 110.017 136.855 110.054C137.08 110.054 137.005 110.504 137.005 110.767C137.005 110.879 137.043 111.629 136.93 111.667C136.818 111.742 136.555 111.667 136.405 111.667C136.106 111.667 135.431 111.667 135.206 111.629C134.718 111.554 133.406 111.667 133.331 111.667C133.069 111.704 133.031 111.704 133.031 111.967C133.069 112.191 133.031 112.379 133.069 112.641C133.069 112.791 133.106 113.166 133.106 113.354C133.106 113.691 133.069 114.328 133.069 114.741C133.069 115.191 133.144 116.428 133.144 116.915C133.144 117.178 133.144 117.703 133.144 117.965C133.144 118.04 133.144 118.078 133.144 118.153C133.144 118.378 133.181 118.378 133.406 118.378C133.669 118.378 135.281 118.453 135.618 118.378C135.843 118.34 136.068 118.415 136.143 118.49C136.218 118.602 136.143 118.902 136.218 119.427C136.218 119.54 136.218 119.99 136.143 120.027C136.106 120.065 135.393 120.027 135.131 119.99C134.756 119.99 134.343 119.99 133.969 119.952C133.931 119.952 133.444 120.027 133.219 119.99C133.069 119.99 133.031 120.027 133.031 120.177C133.069 120.552 132.994 121.152 133.069 121.527C133.106 121.677 133.069 125.388 133.106 125.688C133.144 126.288 133.069 126.926 133.069 127.525C133.181 127.638 133.144 127.938 133.219 128.088Z" fill="#211E1E"/>
<path d="M158.75 109.979C158.863 109.979 159.05 109.979 159.163 109.979C159.65 109.979 160.1 110.129 160.775 110.504C161.3 110.804 161.712 111.254 161.899 111.554C162.087 111.816 162.237 112.116 162.387 112.416C162.612 112.866 162.687 113.053 162.799 113.466L162.912 113.84C162.912 113.878 162.949 113.953 162.949 114.028C163.062 114.515 163.249 115.79 163.324 116.315C163.437 117.365 163.437 118.264 163.474 118.789C163.474 118.939 163.474 119.164 163.474 119.202C163.512 119.502 163.512 121.039 163.512 121.226V121.376C163.512 121.751 163.474 122.801 163.437 123.476C163.437 123.738 163.249 125.05 163.212 125.163L163.174 125.275C163.099 125.65 162.874 126.55 162.462 127.375C162.087 128.125 161.6 128.687 160.812 129.287C160.325 129.662 159.35 129.887 158.788 129.849C158.413 129.849 158.038 129.812 157.663 129.699C157.026 129.549 156.613 129.249 156.163 128.912C155.901 128.724 155.488 128.237 155.264 127.862C155.001 127.412 154.551 126.325 154.439 125.838C154.439 125.763 154.401 125.688 154.364 125.613C154.326 125.463 154.289 125.313 154.251 125.163C154.176 124.713 153.989 123.476 153.951 123.101C153.914 122.726 153.914 120.889 153.914 120.589C153.914 120.251 153.914 119.839 153.951 119.539C153.951 119.277 153.989 118.977 153.989 118.564C153.989 118.04 153.989 117.365 154.064 116.802C154.064 116.69 154.101 116.54 154.101 116.315C154.139 115.79 154.214 115.153 154.289 114.853C154.401 114.14 154.551 113.541 154.664 113.128C154.851 112.453 155.189 111.816 155.676 111.254C156.501 110.279 157.326 110.091 157.7 110.016C157.888 109.979 158.225 109.941 158.413 109.941C158.563 109.979 158.675 109.979 158.75 109.979ZM159.912 127.862C160.587 127.487 160.775 127.15 161 126.625C161.337 125.988 161.487 125.2 161.562 124.9L161.6 124.825C161.637 124.638 161.787 123.588 161.787 123.401C161.824 122.763 161.862 121.751 161.862 121.376V121.226C161.862 120.964 161.862 119.614 161.824 119.464C161.824 119.352 161.824 119.164 161.787 118.864C161.787 118.377 161.749 117.515 161.675 116.54C161.6 115.79 161.412 114.74 161.375 114.515C161.375 114.478 161.337 114.44 161.337 114.365C161.037 113.503 160.775 112.903 160.512 112.528C160.4 112.341 160.137 112.078 159.875 111.928C159.5 111.703 159.163 111.666 159.05 111.666C158.938 111.666 158.788 111.666 158.638 111.666C158.45 111.666 158.263 111.666 158.15 111.666C157.85 111.741 157.401 111.816 156.913 112.378C156.576 112.753 156.351 113.166 156.238 113.616C156.201 113.766 156.088 114.253 155.901 115.153C155.863 115.378 155.788 116.052 155.751 116.465C155.713 116.652 155.713 116.84 155.713 116.952C155.676 117.44 155.638 118.077 155.638 118.527C155.638 118.939 155.638 119.277 155.601 119.539C155.601 119.839 155.563 120.251 155.601 120.514C155.601 120.926 155.638 122.538 155.676 122.838C155.676 123.138 155.826 124.301 155.901 124.713C155.901 124.75 155.938 125.013 155.976 125.088C156.013 125.2 156.051 125.35 156.088 125.425C156.163 125.763 156.538 126.662 156.726 127C156.838 127.187 157.101 127.487 157.176 127.562C157.55 127.825 157.738 127.937 158.038 128.012C158.263 128.05 158.525 128.087 158.788 128.087C159.125 128.125 159.575 128.05 159.912 127.862Z" fill="#211E1E"/>
<path d="M169.622 110.019C169.735 110.019 169.922 110.019 170.035 110.019C170.522 110.019 170.972 110.169 171.647 110.544C172.172 110.844 172.584 111.294 172.772 111.594C172.959 111.856 173.109 112.156 173.259 112.456C173.484 112.906 173.559 113.093 173.672 113.506L173.784 113.881C173.784 113.918 173.822 113.993 173.822 114.068C173.934 114.555 174.121 115.83 174.196 116.355C174.309 117.405 174.309 118.304 174.346 118.829C174.346 118.979 174.346 119.204 174.346 119.242C174.384 119.542 174.384 121.079 174.384 121.266V121.416C174.384 121.791 174.346 122.841 174.309 123.516C174.309 123.778 174.121 125.09 174.084 125.203L174.046 125.315C173.971 125.69 173.747 126.59 173.334 127.415C172.959 128.165 172.472 128.727 171.685 129.327C171.197 129.702 170.222 129.927 169.66 129.889C169.285 129.889 168.91 129.852 168.535 129.739C167.898 129.589 167.485 129.289 167.036 128.952C166.773 128.765 166.361 128.277 166.136 127.902C165.873 127.452 165.423 126.365 165.311 125.878C165.311 125.803 165.274 125.728 165.236 125.653C165.199 125.503 165.161 125.353 165.124 125.203C165.049 124.753 164.861 123.516 164.824 123.141C164.786 122.766 164.786 120.929 164.786 120.629C164.786 120.292 164.786 119.879 164.824 119.579C164.824 119.317 164.861 119.017 164.861 118.604C164.861 118.08 164.861 117.405 164.936 116.842C164.936 116.73 164.974 116.58 164.974 116.355C165.011 115.83 165.086 115.193 165.161 114.893C165.274 114.18 165.423 113.581 165.536 113.168C165.723 112.493 166.061 111.856 166.548 111.294C167.373 110.319 168.198 110.131 168.573 110.056C168.76 110.019 169.098 109.981 169.285 109.981C169.398 109.981 169.51 110.019 169.622 110.019ZM170.747 127.865C171.422 127.49 171.61 127.152 171.834 126.628C172.172 125.99 172.322 125.203 172.397 124.903L172.434 124.828C172.472 124.641 172.622 123.591 172.622 123.403C172.659 122.766 172.697 121.754 172.697 121.379V121.229C172.697 120.966 172.697 119.617 172.659 119.467C172.659 119.354 172.659 119.167 172.622 118.867C172.622 118.379 172.584 117.517 172.509 116.542C172.434 115.793 172.247 114.743 172.209 114.518C172.209 114.48 172.172 114.443 172.172 114.368C171.872 113.506 171.61 112.906 171.347 112.531C171.235 112.343 170.972 112.081 170.71 111.931C170.335 111.706 169.997 111.669 169.885 111.669C169.772 111.669 169.622 111.669 169.473 111.669C169.285 111.669 169.098 111.669 168.985 111.669C168.685 111.744 168.235 111.819 167.748 112.381C167.411 112.756 167.186 113.168 167.073 113.618C167.036 113.768 166.923 114.255 166.736 115.155C166.698 115.38 166.623 116.055 166.586 116.467C166.548 116.655 166.548 116.842 166.548 116.955C166.511 117.442 166.473 118.08 166.473 118.529C166.473 118.942 166.473 119.279 166.436 119.542C166.436 119.842 166.398 120.254 166.436 120.516C166.436 120.929 166.473 122.541 166.511 122.841C166.511 123.141 166.661 124.303 166.736 124.715C166.736 124.753 166.773 125.015 166.811 125.09C166.848 125.203 166.886 125.353 166.923 125.428C166.998 125.765 167.373 126.665 167.56 127.002C167.673 127.19 167.935 127.49 168.01 127.565C168.385 127.827 168.573 127.94 168.873 128.015C169.098 128.052 169.36 128.09 169.622 128.09C169.96 128.165 170.41 128.09 170.747 127.865Z" fill="#211E1E"/>
<path d="M148.778 119.802C148.628 119.839 148.59 119.839 148.59 119.877C148.59 120.214 148.553 120.551 148.553 120.889C148.515 121.564 148.515 122.014 148.515 122.688C148.515 123.326 148.44 123.663 148.478 124.638C148.478 124.938 148.553 126.7 148.553 127.075C148.553 127.375 148.515 127.75 148.553 128.087C148.553 128.425 148.553 128.762 148.553 128.987C148.515 129.287 148.628 129.399 148.553 129.699C148.515 129.812 148.44 129.774 148.29 129.812C148.253 129.849 147.09 129.849 147.015 129.812C146.828 129.699 146.978 128.95 146.978 128.725C146.978 128.462 146.94 127.825 146.978 127.037C146.978 126.925 146.978 126.625 147.015 126.063C147.015 125.763 147.015 125.2 147.015 124.713C147.015 124.376 147.015 124.076 147.053 123.363C147.053 123.213 147.015 121.939 147.053 121.789C147.09 121.226 147.053 120.701 147.128 120.139C147.165 119.839 147.09 119.539 147.09 119.277C147.09 119.202 147.09 119.127 147.09 119.089C147.09 118.602 147.09 118.115 147.09 117.627C147.09 117.552 147.053 116.802 147.09 116.54C147.128 116.352 147.09 115.603 147.09 115.49C147.128 115.153 147.09 115.228 147.09 114.853C147.09 114.215 147.015 112.753 147.015 112.716C147.09 112.266 147.015 111.816 147.128 111.366C147.278 110.729 147.615 110.241 148.253 110.016C148.515 109.941 149.077 109.979 149.527 110.054C150.277 110.241 150.727 110.541 150.989 110.766C151.214 110.991 151.364 111.216 151.589 111.404C151.852 111.666 151.964 112.003 152.114 112.303C152.189 112.491 152.227 112.678 152.302 112.903C152.489 113.466 152.527 114.066 152.527 114.29C152.527 115.115 152.414 115.64 152.302 115.94C152.077 116.615 151.964 116.952 151.627 117.515C151.589 117.59 151.477 117.777 151.402 117.852C151.139 118.152 151.139 118.302 150.84 118.564C150.69 118.714 150.202 119.164 150.24 119.202C150.39 119.877 150.727 120.327 150.877 121.001C151.064 121.751 151.327 122.426 151.552 123.213C151.702 123.776 151.889 124.226 152.114 125.125C152.302 125.575 152.414 126.25 152.564 126.813C152.752 127.487 152.864 127.862 153.089 128.537C153.201 128.837 153.314 129.174 153.276 129.512C153.239 129.812 152.789 129.737 152.414 129.737C152.302 129.737 151.889 129.774 151.777 129.699C151.627 129.474 151.477 129.137 151.252 128.087C151.252 128.05 150.615 125.575 150.39 124.863C150.165 124.151 149.752 122.614 149.602 122.014C149.415 121.264 149.077 120.477 148.927 120.139C148.852 120.064 148.852 119.989 148.778 119.802ZM148.59 117.102C148.59 117.365 148.59 117.852 148.628 118.115C148.665 118.265 148.703 118.302 148.852 118.265C149.077 118.152 149.302 118.002 149.415 117.815C149.602 117.515 150.165 116.84 150.352 116.352C150.502 115.94 150.652 116.015 150.84 114.928C150.877 114.778 150.952 114.215 150.765 113.541C150.652 113.091 150.577 112.903 150.352 112.641C150.165 112.378 149.94 112.191 149.79 112.078C149.602 111.929 149.34 111.854 149.077 111.854C148.965 111.854 148.628 111.854 148.59 111.929C148.515 112.116 148.553 112.453 148.553 112.528C148.59 112.866 148.553 113.278 148.59 113.578C148.703 114.553 148.628 115.303 148.59 116.277C148.59 116.577 148.59 116.84 148.59 117.102Z" fill="#211E1E"/>
<path d="M142.779 114.741C142.779 115.641 142.629 122.951 142.666 122.951C142.629 123.064 142.666 124.076 142.666 124.114C142.666 124.264 142.666 124.976 142.666 126.101C142.666 126.513 142.666 128.05 142.666 128.463C142.666 128.538 142.666 128.875 142.704 129.362C142.704 129.512 142.704 129.662 142.704 129.7C142.704 129.775 142.704 129.775 142.666 129.812C142.629 129.85 142.516 129.85 142.329 129.85C142.179 129.85 141.954 129.85 141.804 129.85C141.204 129.85 141.167 129.887 141.167 129.775C141.167 129.587 141.167 129.025 141.167 128.763C141.167 128.313 141.167 127.563 141.167 127.15C141.167 126.701 141.129 125.988 141.167 125.538C141.167 125.538 141.242 124.264 141.279 123.626C141.279 123.476 141.279 123.364 141.279 123.214C141.279 122.577 141.317 121.977 141.354 121.339C141.354 120.777 141.279 120.402 141.279 119.84C141.279 119.352 141.317 118.865 141.317 118.378C141.317 118.19 141.317 118.04 141.279 117.853C141.242 117.328 141.242 116.615 141.204 116.053C141.204 115.866 141.204 115.641 141.204 115.453C141.204 114.966 141.204 114.441 141.204 113.954C141.204 113.841 141.167 113.429 141.167 113.166C141.167 112.566 141.204 111.854 141.129 111.779C141.092 111.704 140.604 111.742 140.379 111.742C139.967 111.742 139.78 111.667 139.18 111.704C138.73 111.704 138.392 111.742 138.242 111.704C138.205 111.629 138.205 111.254 138.205 110.879C138.205 110.504 138.205 110.092 138.242 110.054C138.43 109.979 138.767 109.979 138.992 109.979C139.705 109.979 140.08 109.979 140.717 109.979C141.392 109.979 141.954 110.017 142.629 109.979C143.304 109.979 143.829 109.979 144.316 110.017C144.503 110.017 144.991 109.979 145.628 109.979C146.003 109.979 145.816 110.129 145.853 110.504C145.891 110.729 145.891 111.479 145.816 111.592C145.703 111.667 145.366 111.667 145.028 111.704C144.541 111.742 144.391 111.704 143.566 111.742C143.266 111.742 142.929 111.742 142.816 111.742C142.816 112.042 142.779 112.754 142.741 113.429C142.741 113.466 142.779 114.741 142.779 114.741Z" fill="#211E1E"/>
<path d="M178.808 114.741C178.808 115.641 178.658 122.951 178.696 122.951C178.658 123.064 178.696 124.076 178.696 124.114C178.696 124.264 178.696 124.976 178.696 126.101C178.696 126.513 178.696 128.05 178.696 128.463C178.696 128.538 178.696 128.875 178.733 129.362C178.733 129.512 178.733 129.662 178.733 129.7C178.733 129.775 178.733 129.775 178.696 129.812C178.658 129.85 178.546 129.85 178.358 129.85C178.208 129.85 177.983 129.85 177.833 129.85C177.233 129.85 177.196 129.887 177.196 129.775C177.196 129.587 177.196 129.025 177.196 128.763C177.196 128.313 177.196 127.563 177.196 127.15C177.196 126.701 177.158 125.988 177.196 125.538C177.196 125.538 177.271 124.264 177.308 123.626C177.308 123.476 177.308 123.364 177.308 123.214C177.308 122.577 177.346 121.977 177.383 121.339C177.383 120.777 177.308 120.402 177.308 119.84C177.308 119.352 177.346 118.865 177.346 118.378C177.346 118.19 177.346 118.04 177.308 117.853C177.271 117.328 177.271 116.615 177.233 116.053C177.233 115.866 177.233 115.641 177.233 115.453C177.233 114.966 177.233 114.441 177.233 113.954C177.233 113.841 177.196 113.429 177.196 113.166C177.196 112.566 177.233 111.854 177.158 111.779C177.121 111.704 176.634 111.742 176.409 111.742C175.996 111.742 175.809 111.667 175.209 111.704C174.759 111.704 174.422 111.742 174.272 111.704C174.234 111.629 174.234 111.254 174.234 110.879C174.234 110.504 174.234 110.092 174.272 110.054C174.459 109.979 174.796 109.979 175.021 109.979C175.734 109.979 176.109 109.979 176.746 109.979C177.421 109.979 177.983 110.017 178.658 109.979C179.333 109.979 179.858 109.979 180.345 110.017C180.533 110.017 181.02 109.979 181.657 109.979C182.032 109.979 181.845 110.129 181.882 110.504C181.92 110.729 181.92 111.479 181.845 111.592C181.732 111.667 181.395 111.667 181.058 111.704C180.57 111.742 180.42 111.704 179.595 111.742C179.295 111.742 178.958 111.742 178.846 111.742C178.846 112.042 178.808 112.754 178.771 113.429C178.771 113.466 178.808 114.741 178.808 114.741Z" fill="#211E1E"/>
</svg>
