<svg fill="none" height="220" viewBox="0 0 220 220" width="220" xmlns="http://www.w3.org/2000/svg"><circle cx="110" cy="110" fill="#fcfb63" r="110"/><path d="m63.208 90.104-12.352-35.52h-9.28l16.448 44.416h10.368l16.384-44.416h-9.28zm26.5815-35.52v44.416h8.896v-44.416zm26.4585 0h-8.896v44.416h29.44v-7.872h-20.544zm34.75 0h-8.896v44.416h29.44v-7.872h-20.544zm-65.262 108.416-16.768-44.416h-10.752l-16.768 44.416h9.536l2.944-8.256h19.328l2.88 8.256zm-22.144-35.84 7.104 20.224h-14.208zm45.632 11.264v7.552h13.248c-1.344 5.888-6.592 9.856-13.248 9.856-4.16 0-7.552-1.408-10.1765-4.288-2.688-2.88-4.032-6.464-4.032-10.88 0-4.352 1.344-7.936 4.032-10.816 2.6245-2.816 6.0165-4.224 10.1765-4.224 6.208 0 11.136 3.648 12.928 9.28h9.28c-.96-4.928-3.52-9.024-7.68-12.224-4.16-3.136-9.024-4.736-14.592-4.736-6.72 0-12.2885 2.112-16.6405 6.4-4.416 4.288-6.592 9.792-6.592 16.384s2.176 12.096 6.592 16.384c4.352 4.288 9.9205 6.464 16.6405 6.464 6.784 0 12.352-2.176 16.64-6.464s6.4-9.728 6.4-16.384c0-.512-.064-1.856-.064-2.304zm60.734-19.84h-31.168v44.416h31.168v-7.872h-22.272v-10.752h20.543v-7.552h-20.543v-10.432h22.272z" fill="#000"/></svg>