<svg fill="none" height="94" viewBox="0 0 451 94" width="451" xmlns="http://www.w3.org/2000/svg"><path d="m.976.543999v33.456001h8.16v-33.456001zm28.4134 25.296001-8.352-25.296001h-8.496l12.096 33.456001h9.504l12.096-33.456001h-8.496zm66.1729 8.16-12.24-33.456001h-9.888l-12.24 33.456001h8.784l1.728-5.232h13.344l1.728 5.232zm-17.184-25.584 4.464 13.632h-8.976zm41.4017 14.4-10.608-22.272001h-10.3679v33.456001h8.1599v-22.272l10.656 22.272h10.32v-33.456001h-8.16zm35.11 0-10.608-22.272001h-10.368v33.456001h8.16v-22.272l10.656 22.272h10.32v-33.456001h-8.16zm32.757-22.272001v20.976001c0 3.264-2.256 5.472-5.472 5.472s-5.472-2.208-5.472-5.472v-20.976001h-8.16v21.408001c0 3.696 1.296 6.672 3.84 9.024s5.856 3.504 9.84 3.504 7.2-1.152 9.744-3.504 3.792-5.328 3.792-9.024v-21.408001zm43.665 33.456001-12.24-33.456001h-9.888l-12.24 33.456001h8.784l1.728-5.232h13.344l1.728 5.232zm-17.184-25.584 4.464 13.632h-8.976zm28.586-7.872001h-8.16v33.456001h22.56v-7.2h-14.4zm32.387 0v33.456001h12.48c5.04 0 9.168-1.584 12.384-4.704s4.848-7.152 4.848-12.048c0-4.848-1.632-8.88-4.848-12s-7.344-4.704001-12.384-4.704001zm8.16 26.256001v-19.056h4.272c2.64 0 4.752.864 6.432 2.64s2.496 4.08 2.496 6.816c0 2.832-.816 5.136-2.496 6.912s-3.792 2.688-6.432 2.688zm49.963-26.256001h-23.904v33.456001h23.904v-7.2h-15.744v-6.192h14.592v-6.864h-14.592v-6h15.744zm17.733-.4799998c-3.888 0-7.056.9600008-9.504 2.8800008s-3.648 4.512-3.648 7.728c0 1.92.48 3.552 1.392 4.848 1.872 2.64 4.704 3.36 7.968 4.224 4.704 1.2 9.312 1.392 9.36 4.464 0 2.16-2.256 3.648-5.376 3.648-3.648 0-6-2.016-6.048-4.848h-8.16c.048 3.504 1.392 6.288 3.936 8.352s5.808 3.12 9.888 3.12c4.176 0 7.536-.96 10.176-2.88 2.592-1.872 3.888-4.464 3.888-7.728 0-1.968-.48-3.6-1.392-4.944-1.872-2.64-4.704-3.456-7.968-4.272-4.704-1.104-9.36-1.344-9.36-4.512 0-2.112 1.92-3.456 4.656-3.456 3.072 0 5.136 1.872 5.184 4.704h7.92c-.048-3.312-1.248-6.048-3.696-8.16s-5.52-3.1680008-9.216-3.1680008zm18.55.4799998v33.456001h8.16v-33.456001zm30.334 14.640001v6.864h8.208c-1.152 3.216-4.368 5.28-8.208 5.28-2.736 0-4.944-.96-6.672-2.88-1.776-1.872-2.64-4.32-2.64-7.248s.864-5.376 2.64-7.248c1.728-1.872 3.936-2.832 6.672-2.832 3.84 0 6.864 2.16 8.208 5.568h8.496c-.72-3.696-2.688-6.72-5.808-9.072s-6.768-3.5520008-10.944-3.5520008c-5.136 0-9.312 1.6320008-12.624 4.8480008s-4.944 7.344-4.944 12.336 1.632 9.12 4.944 12.336c3.312 3.264 7.488 4.896 12.624 4.896s9.312-1.632 12.528-4.848 4.848-7.344 4.848-12.384c0-1.008 0-1.728-.048-2.064zm42.861 7.632-10.608-22.272001h-10.368v33.456001h8.16v-22.272l10.656 22.272h10.32v-33.456001h-8.16zm-418.398 36.728h-23.328v33.456h8.16v-12.624h14.064v-6.912h-14.064v-6.72h15.168zm28.3729 0h-23.904v33.456h23.904v-7.2h-15.744v-6.192h14.592v-6.864h-14.592v-6h15.744zm17.7334-.48c-3.888 0-7.056.96-9.5041 2.88-2.4479 1.92-3.6479 4.512-3.6479 7.728 0 1.92.48 3.552 1.392 4.848 1.872 2.64 4.704 3.36 7.968 4.224 4.704 1.2 9.312 1.392 9.36 4.464 0 2.16-2.256 3.648-5.376 3.648-3.648 0-6-2.016-6.048-4.848h-8.16c.048 3.504 1.392 6.288 3.936 8.352s5.808 3.12 9.888 3.12c4.176 0 7.536-.96 10.176-2.88 2.592-1.872 3.888-4.464 3.888-7.728 0-1.968-.48-3.6-1.392-4.944-1.872-2.64-4.704-3.456-7.968-4.272-4.704-1.104-9.36-1.344-9.36-4.512 0-2.112 1.92-3.456 4.656-3.456 3.072 0 5.136 1.872 5.184 4.704h7.92c-.048-3.312-1.248-6.048-3.696-8.16s-5.52-3.168-9.216-3.168zm15.6813.48v7.2h9.264v26.256h8.1604v-26.256h9.264v-7.2zm30.2434 0v33.456h8.16v-33.456zm28.414 25.296-8.352-25.296h-8.496l12.096 33.456h9.504l12.096-33.456h-8.496zm47.61 8.16-12.24-33.456h-9.888l-12.24 33.456h8.784l1.728-5.232h13.344l1.728 5.232zm-17.184-25.584 4.464 13.632h-8.976zm28.586-7.872h-8.16v33.456h22.56v-7.2h-14.4z" fill="#fff"/></svg>