<svg width="50" height="41" viewBox="0 0 50 41" fill="none" xmlns="http://www.w3.org/2000/svg">
<path d="M8.84851 13.4388L4.21651 0.11878H0.736508L6.90451 16.7748H10.7925L16.9365 0.11878H13.4565L8.84851 13.4388ZM18.8166 0.11878V16.7748H22.1526V0.11878H18.8166ZM28.7385 0.11878H25.4025V16.7748H36.4425V13.8228H28.7385V0.11878ZM41.7698 0.11878H38.4338V16.7748H49.4738V13.8228H41.7698V0.11878ZM17.2965 40.7748L11.0085 24.1188H6.97651L0.688508 40.7748H4.26451L5.36851 37.6788H12.6165L13.6965 40.7748H17.2965ZM8.99251 27.3348L11.6565 34.9188H6.32851L8.99251 27.3348ZM26.1043 31.5588V34.3908H31.0723C30.5683 36.5988 28.6003 38.0868 26.1043 38.0868C24.5443 38.0868 23.2723 37.5588 22.2883 36.4788C21.2803 35.3988 20.7763 34.0548 20.7763 32.3988C20.7763 30.7668 21.2803 29.4228 22.2883 28.3428C23.2723 27.2868 24.5443 26.7588 26.1043 26.7588C28.4323 26.7588 30.2803 28.1268 30.9523 30.2388H34.4323C34.0723 28.3908 33.1123 26.8548 31.5523 25.6548C29.9923 24.4788 28.1683 23.8788 26.0803 23.8788C23.5603 23.8788 21.4723 24.6708 19.8403 26.2788C18.1843 27.8868 17.3683 29.9508 17.3683 32.4228C17.3683 34.8948 18.1843 36.9588 19.8403 38.5668C21.4723 40.1748 23.5603 40.9908 26.0803 40.9908C28.6243 40.9908 30.7123 40.1748 32.3203 38.5668C33.9283 36.9588 34.7203 34.9188 34.7203 32.4228C34.7203 32.2308 34.6963 31.7268 34.6963 31.5588H26.1043ZM48.8796 24.1188H37.1916V40.7748H48.8796V37.8228H40.5276V33.7908H48.2316V30.9588H40.5276V27.0468H48.8796V24.1188Z" fill="black"/>
</svg>
