<svg width="290" height="290" viewBox="0 0 290 290" fill="none" xmlns="http://www.w3.org/2000/svg">
<rect width="290" height="290" fill="white"/>
<g clip-path="url(#clip0)">
<path d="M188.2 140.368L154.803 106.68C153.793 105.634 152.4 105 150.844 105C147.785 105 145.3 107.507 145.3 110.592V130.645L121.57 106.68C121.079 106.157 120.478 105.744 119.822 105.468C119.822 105.468 119.304 105.275 119.276 105.248C119.14 105.193 118.785 105.11 118.73 105.11C118.594 105.083 118.211 105.028 118.184 105.028C118.02 105 117.829 105 117.638 105H51.1713C48.1129 105 45.6279 107.507 45.6279 110.592V144.114C45.6279 147.199 48.1129 149.706 51.1713 149.706C52.7279 149.706 54.1206 149.073 55.1309 148.026L78.8611 124.061V144.114C78.8611 147.199 81.3461 149.706 84.4046 149.706C85.9611 149.706 87.3538 149.073 88.3641 148.026L112.094 124.061V144.114C112.094 147.199 114.579 149.706 117.638 149.706H184.077C187.135 149.706 189.62 147.199 189.62 144.114C189.62 142.682 189.074 141.36 188.2 140.368Z" fill="#95C11F"/>
<path d="M243.58 140.368L210.183 106.68C209.172 105.634 207.78 105 206.223 105C203.165 105 200.68 107.507 200.68 110.592V144.114C200.68 147.199 203.165 149.706 206.223 149.706H239.456C242.515 149.706 245 147.199 245 144.114C245 142.682 244.454 141.36 243.58 140.368Z" fill="#95C11F"/>
<path d="M66.8733 171.356C67.8564 172.403 68.3206 173.89 68.3206 175.763V183.834H64.1425V176.259C64.1425 175.378 63.8968 174.689 63.4325 174.193C62.9683 173.698 62.3129 173.45 61.521 173.45C60.6745 173.45 60.0191 173.725 59.5276 174.248C59.036 174.772 58.7903 175.516 58.7903 176.452V183.834H54.5576V176.259C54.5576 175.378 54.3392 174.689 53.8749 174.193C53.4107 173.698 52.7826 173.45 51.9634 173.45C51.1169 173.45 50.4615 173.698 49.97 174.221C49.4784 174.744 49.2327 175.488 49.2327 176.452V183.834H45V169.924H49.2327V172.293C49.5877 171.521 50.1611 170.888 50.8984 170.447C51.6357 170.007 52.5369 169.786 53.5199 169.786C54.5849 169.786 55.5134 170.034 56.3053 170.53C57.1245 171.026 57.7253 171.714 58.1349 172.623C58.6264 171.769 59.2545 171.081 60.101 170.557C60.9203 170.034 61.8487 169.786 62.8591 169.786C64.5795 169.759 65.9175 170.31 66.8733 171.356Z" fill="#95C11F"/>
<path d="M84.869 169.924V183.834H80.609V181.328C80.2267 182.154 79.6259 182.787 78.834 183.283C78.0421 183.779 77.1409 183.999 76.1033 183.999C74.5194 183.999 73.2633 183.476 72.3348 182.402C71.4064 181.328 70.9421 179.868 70.9421 178.022V169.951H75.1475V177.499C75.1475 178.435 75.3933 179.179 75.8848 179.702C76.3763 180.226 77.0317 180.501 77.8509 180.501C78.6975 180.501 79.3801 180.226 79.8717 179.675C80.3632 179.124 80.609 178.353 80.609 177.334V169.951H84.869V169.924Z" fill="#95C11F"/>
<path d="M92.0237 165.379V183.834H87.791V165.379H92.0237Z" fill="#95C11F"/>
<path d="M102.755 180.171V183.835H100.844C99.2326 183.835 97.9765 183.422 97.0753 182.623C96.1742 181.824 95.7373 180.474 95.7373 178.629V173.505H93.8804V169.924H95.7373V166.509H99.9699V169.924H102.728V173.505H99.9699V178.684C99.9699 179.235 100.079 179.62 100.298 179.841C100.516 180.061 100.898 180.171 101.417 180.171H102.755Z" fill="#95C11F"/>
<path d="M105.404 164.387C105.869 163.974 106.469 163.754 107.234 163.754C107.999 163.754 108.599 163.974 109.064 164.387C109.528 164.801 109.746 165.352 109.746 165.985C109.746 166.619 109.528 167.142 109.064 167.555C108.599 167.968 107.999 168.189 107.234 168.189C106.469 168.189 105.869 167.968 105.404 167.555C104.94 167.142 104.722 166.591 104.722 165.985C104.722 165.352 104.94 164.828 105.404 164.387ZM109.337 169.924V183.834H105.104V169.924H109.337Z" fill="#95C11F"/>
<path d="M134.132 171.356C135.115 172.403 135.579 173.89 135.579 175.763V183.834H131.373V176.259C131.373 175.378 131.128 174.689 130.664 174.193C130.199 173.698 129.544 173.45 128.752 173.45C127.905 173.45 127.25 173.725 126.759 174.248C126.267 174.772 126.021 175.516 126.021 176.452V183.834H121.789V176.259C121.789 175.378 121.57 174.689 121.106 174.193C120.642 173.698 120.014 173.45 119.194 173.45C118.348 173.45 117.692 173.698 117.201 174.221C116.709 174.744 116.464 175.488 116.464 176.452V183.834H112.231V169.924H116.464V172.293C116.819 171.521 117.392 170.888 118.129 170.447C118.867 170.007 119.768 169.786 120.751 169.786C121.816 169.786 122.744 170.034 123.536 170.53C124.355 171.026 124.956 171.714 125.366 172.623C125.857 171.769 126.485 171.081 127.332 170.557C128.151 170.034 129.08 169.786 130.09 169.786C131.838 169.759 133.176 170.31 134.132 171.356Z" fill="#95C11F"/>
<path d="M151.39 177.664H141.832C141.887 178.711 142.133 179.455 142.624 179.923C143.089 180.391 143.717 180.611 144.454 180.611C145.082 180.611 145.601 180.446 146.01 180.143C146.42 179.84 146.693 179.427 146.83 178.931H151.308C151.117 179.923 150.735 180.777 150.134 181.576C149.533 182.347 148.741 182.953 147.813 183.394C146.884 183.834 145.819 184.055 144.672 184.055C143.307 184.055 142.133 183.779 141.068 183.201C140.03 182.622 139.211 181.796 138.61 180.722C138.009 179.647 137.709 178.38 137.709 176.92C137.709 175.46 138.009 174.193 138.583 173.119C139.156 172.045 139.976 171.218 141.041 170.64C142.105 170.062 143.307 169.786 144.645 169.786C146.01 169.786 147.212 170.062 148.25 170.64C149.287 171.218 150.079 171.99 150.653 173.009C151.226 174.028 151.499 175.213 151.499 176.535C151.527 176.865 151.472 177.223 151.39 177.664ZM146.502 173.808C146.01 173.339 145.382 173.119 144.645 173.119C143.88 173.119 143.225 173.339 142.706 173.808C142.187 174.276 141.914 174.965 141.832 175.846H147.212C147.267 174.937 147.021 174.248 146.502 173.808Z" fill="#95C11F"/>
<path d="M161.685 170.475C162.449 170.971 162.995 171.604 163.35 172.431V165.379H167.583V183.834H163.35V181.328C162.995 182.154 162.449 182.815 161.685 183.311C160.92 183.807 160.019 184.027 158.954 184.027C157.807 184.027 156.797 183.752 155.896 183.173C154.994 182.595 154.284 181.768 153.766 180.694C153.247 179.62 152.974 178.353 152.974 176.893C152.974 175.433 153.247 174.166 153.766 173.092C154.284 172.017 154.994 171.191 155.896 170.613C156.797 170.034 157.807 169.759 158.954 169.759C160.019 169.759 160.92 169.979 161.685 170.475ZM158.135 174.386C157.589 174.992 157.316 175.819 157.316 176.893C157.316 177.967 157.589 178.793 158.135 179.399C158.681 180.005 159.418 180.308 160.319 180.308C161.22 180.308 161.93 180.005 162.504 179.399C163.077 178.793 163.35 177.967 163.35 176.92C163.35 175.874 163.077 175.047 162.504 174.441C161.93 173.835 161.193 173.532 160.319 173.532C159.418 173.477 158.681 173.78 158.135 174.386Z" fill="#95C11F"/>
<path d="M170.778 164.387C171.242 163.974 171.843 163.754 172.608 163.754C173.372 163.754 173.973 163.974 174.437 164.387C174.901 164.801 175.12 165.352 175.12 165.985C175.12 166.619 174.901 167.142 174.437 167.555C173.973 167.968 173.372 168.189 172.608 168.189C171.843 168.189 171.242 167.968 170.778 167.555C170.314 167.142 170.095 166.591 170.095 165.985C170.068 165.352 170.314 164.828 170.778 164.387ZM174.71 169.924V183.834H170.478V169.924H174.71Z" fill="#95C11F"/>
<path d="M185.579 170.475C186.343 170.971 186.89 171.604 187.272 172.431V169.924H191.477V183.834H187.272V181.328C186.917 182.154 186.343 182.815 185.579 183.311C184.814 183.807 183.913 184.027 182.848 184.027C181.701 184.027 180.691 183.752 179.79 183.173C178.888 182.595 178.178 181.769 177.66 180.694C177.141 179.62 176.868 178.353 176.868 176.893C176.868 175.433 177.141 174.166 177.66 173.092C178.178 172.018 178.888 171.191 179.79 170.613C180.691 170.034 181.701 169.759 182.848 169.759C183.913 169.759 184.814 169.979 185.579 170.475ZM182.029 174.386C181.483 174.992 181.21 175.819 181.21 176.893C181.21 177.967 181.483 178.794 182.029 179.4C182.575 180.006 183.312 180.309 184.213 180.309C185.115 180.309 185.825 180.006 186.398 179.4C186.971 178.794 187.245 177.967 187.245 176.921C187.245 175.874 186.971 175.048 186.398 174.442C185.825 173.836 185.087 173.533 184.213 173.533C183.312 173.477 182.575 173.78 182.029 174.386Z" fill="#95C11F"/>
<path d="M205.022 165.379V183.834H200.789V165.379H205.022Z" fill="#95C11F"/>
<path d="M215.918 170.475C216.682 170.971 217.228 171.604 217.611 172.431V169.924H221.816V183.834H217.583V181.328C217.228 182.154 216.655 182.815 215.89 183.311C215.126 183.807 214.225 184.027 213.16 184.027C212.013 184.027 211.002 183.752 210.101 183.173C209.2 182.595 208.49 181.769 207.971 180.694C207.452 179.62 207.179 178.353 207.179 176.893C207.179 175.433 207.452 174.166 207.971 173.092C208.49 172.018 209.2 171.191 210.101 170.613C211.002 170.034 212.013 169.759 213.16 169.759C214.252 169.759 215.153 169.979 215.918 170.475ZM212.368 174.386C211.821 174.992 211.548 175.819 211.548 176.893C211.548 177.967 211.821 178.794 212.368 179.4C212.914 180.006 213.651 180.309 214.552 180.309C215.453 180.309 216.163 180.006 216.737 179.4C217.31 178.794 217.583 177.967 217.583 176.921C217.583 175.874 217.31 175.048 216.737 174.442C216.163 173.836 215.426 173.533 214.552 173.533C213.651 173.477 212.914 173.78 212.368 174.386Z" fill="#95C11F"/>
<path d="M236.371 170.613C237.272 171.191 237.982 172.017 238.501 173.092C239.02 174.166 239.293 175.433 239.293 176.893C239.293 178.325 239.02 179.592 238.501 180.694C237.982 181.768 237.272 182.595 236.371 183.173C235.47 183.752 234.459 184.027 233.312 184.027C232.247 184.027 231.346 183.779 230.582 183.311C229.817 182.815 229.271 182.182 228.916 181.328V183.834H224.683V165.379H228.916V172.431C229.271 171.604 229.817 170.943 230.582 170.475C231.346 169.979 232.247 169.759 233.312 169.759C234.459 169.759 235.47 170.034 236.371 170.613ZM229.762 174.386C229.189 174.992 228.916 175.819 228.916 176.865C228.916 177.884 229.189 178.711 229.762 179.344C230.336 179.95 231.073 180.253 231.947 180.253C232.848 180.253 233.585 179.95 234.131 179.344C234.678 178.738 234.951 177.912 234.951 176.838C234.951 175.763 234.678 174.937 234.131 174.331C233.585 173.725 232.848 173.422 231.947 173.422C231.073 173.477 230.336 173.78 229.762 174.386Z" fill="#95C11F"/>
</g>
<defs>
<clipPath id="clip0">
<rect width="200" height="79" fill="white" transform="translate(45 105)"/>
</clipPath>
</defs>
</svg>
