<svg width="290" height="290" viewBox="0 0 290 290" fill="none" xmlns="http://www.w3.org/2000/svg">
<rect width="290" height="290" fill="white"/>
<path fill-rule="evenodd" clip-rule="evenodd" d="M250.252 114.028L234.932 129.304L219.614 114.028C217.005 111.427 212.777 111.427 210.165 114.028C207.557 116.628 207.557 120.848 210.165 123.451L225.484 138.726L210.165 154.002C207.557 156.604 207.557 160.822 210.165 163.426C211.472 164.725 213.18 165.375 214.89 165.375C216.602 165.375 218.311 164.725 219.614 163.426L234.932 148.147L250.252 163.426C251.557 164.725 253.266 165.375 254.976 165.375C256.687 165.375 258.397 164.725 259.7 163.426C262.309 160.822 262.309 156.604 259.7 154.002L244.383 138.726L259.7 123.451C262.309 120.848 262.309 116.628 259.7 114.028C258.397 112.727 256.687 112.077 254.976 112.077C253.268 112.077 251.557 112.727 250.252 114.028ZM148.056 138.735V158.713C148.056 162.393 151.046 165.375 154.736 165.375C158.424 165.375 161.417 162.393 161.417 158.713V152.052H188.139V158.713C188.139 162.393 191.132 165.375 194.822 165.375C198.511 165.375 201.504 162.393 201.504 158.713V138.735C201.504 124.039 189.513 112.085 174.777 112.085C160.042 112.085 148.056 124.039 148.056 138.735ZM174.777 125.409C182.143 125.409 188.136 131.382 188.139 138.726H161.417C161.421 131.382 167.413 125.409 174.777 125.409ZM95.8954 119.744L80.2017 133.692C80.1514 133.733 80.1042 133.775 80.0554 133.819L64.217 147.893C64.1226 147.978 64.0297 148.066 63.9385 148.157C61.416 150.674 58.0595 152.058 54.4905 152.058C47.1229 152.058 41.129 146.081 41.129 138.735C41.129 131.387 47.1229 125.409 54.4905 125.409C58.0595 125.409 61.4144 126.795 63.9385 129.31C66.5491 131.914 70.779 131.912 73.388 129.31C75.9955 126.707 75.9955 122.491 73.3864 119.887C68.3383 114.856 61.6268 112.085 54.4905 112.085C39.7552 112.085 27.7659 124.039 27.7659 138.735C27.7659 153.428 39.7552 165.384 54.4905 165.384C61.5607 165.384 68.2093 162.664 73.2417 157.723L84.5669 147.658L95.8954 157.725C100.925 162.664 107.575 165.384 114.645 165.384C129.379 165.384 141.37 153.428 141.37 138.735C141.37 124.039 129.379 112.085 114.645 112.085C107.575 112.085 100.925 114.803 95.8954 119.744ZM105.199 148.158C105.106 148.067 105.016 147.98 104.917 147.895L94.6082 138.735L104.917 129.574C105.011 129.489 105.106 129.405 105.197 129.314C107.719 126.795 111.076 125.409 114.645 125.409C122.013 125.409 128.005 131.387 128.005 138.735C128.005 146.081 122.013 152.058 114.645 152.058C111.076 152.058 107.721 150.674 105.199 148.158Z" fill="#265AD6"/>
<mask id="mask0" mask-type="alpha" maskUnits="userSpaceOnUse" x="85" y="179" width="118" height="11">
<path d="M202.813 189.753H196.611V179.756H202.742V181.64H198.588V183.768H202.383V185.624H198.588V187.867H202.813V189.753ZM102.003 181.069C103.019 180.055 104.251 179.555 105.697 179.555C107.144 179.555 108.376 180.055 109.392 181.069C110.409 182.07 110.909 183.297 110.909 184.755C110.909 186.211 110.409 187.438 109.392 188.452C108.376 189.453 107.144 189.952 105.697 189.952C104.251 189.952 103.019 189.453 102.003 188.452C100.999 187.438 100.498 186.211 100.498 184.755C100.498 183.297 100.999 182.07 102.003 181.069ZM103.392 187.111C104.009 187.724 104.78 188.024 105.697 188.024C106.613 188.024 107.386 187.724 108.003 187.111C108.618 186.495 108.934 185.711 108.934 184.755C108.934 183.798 108.618 183.012 108.003 182.398C107.386 181.783 106.613 181.469 105.697 181.469C104.78 181.469 104.009 181.783 103.392 182.398C102.777 183.012 102.459 183.798 102.459 184.755C102.459 185.711 102.777 186.495 103.392 187.111ZM87.3633 180.371C88.0069 179.826 88.7953 179.555 89.6969 179.555C91.3146 179.555 92.5908 180.383 93.2769 181.797L91.6167 182.756C91.2155 181.898 90.5703 181.469 89.6969 181.469C88.8818 181.469 88.3814 181.882 88.3814 182.469C88.3814 182.784 88.5089 183.04 88.7653 183.239C89.0376 183.426 89.5396 183.641 90.2839 183.869L90.97 184.096C91.1289 184.14 91.3445 184.226 91.6167 184.339C91.8874 184.44 92.103 184.54 92.2462 184.641C92.5467 184.826 93.0062 185.182 93.1903 185.526C93.4059 185.868 93.5633 186.367 93.5633 186.939C93.5633 187.868 93.2202 188.597 92.5467 189.138C91.8732 189.681 90.9999 189.952 89.9251 189.952C87.9361 189.952 86.5466 189.009 85.9895 187.482L87.678 186.495C88.0651 187.511 88.8377 188.024 89.9833 188.024C91.0864 188.024 91.59 187.583 91.59 186.968C91.59 186.61 91.431 186.338 91.1148 186.155C90.8 185.956 90.2414 185.739 89.4247 185.511C88.523 185.24 87.9801 185.027 87.3491 184.582C86.7322 184.126 86.4034 183.442 86.4034 182.525C86.4034 181.626 86.7181 180.898 87.3633 180.371ZM181.645 179.756H185.654C186.584 179.756 187.373 180.084 188.018 180.727C188.661 181.369 188.99 182.155 188.99 183.068C188.99 184.311 188.218 185.453 187.058 185.982L189.277 189.753H187.143L185.122 186.284H183.619V189.753H181.645V179.756ZM183.619 181.598V184.556H185.654C186.399 184.556 187.015 183.883 187.015 183.068C187.015 182.255 186.399 181.598 185.654 181.598H183.619ZM168.521 179.756H170.971L174.494 189.753H172.345L171.745 187.955H167.75L167.147 189.753H165.012L168.521 179.756ZM169.753 182.025L168.379 186.111H171.128L169.753 182.025ZM157.076 179.756H159.153L156.344 189.753H154.097L152.207 183.155L150.33 189.753H148.083L145.274 179.756H147.351L149.272 187.167L151.36 179.756H153.051L155.158 187.167L157.076 179.756ZM131.338 179.756H138.713V181.64H136.007V189.753H134.03V181.64H131.338V179.756ZM118.475 179.756H124.461V181.642H120.452V184.011H124.348V185.896H120.452V189.753H118.475V179.756Z" fill="white"/>
</mask>
<g mask="url(#mask0)">
<path d="M202.813 189.753H196.611V179.756H202.742V181.64H198.588V183.768H202.383V185.624H198.588V187.867H202.813V189.753ZM102.003 181.069C103.019 180.055 104.251 179.555 105.697 179.555C107.144 179.555 108.376 180.055 109.392 181.069C110.409 182.07 110.909 183.297 110.909 184.755C110.909 186.211 110.409 187.438 109.392 188.452C108.376 189.453 107.144 189.952 105.697 189.952C104.251 189.952 103.019 189.453 102.003 188.452C100.999 187.438 100.498 186.211 100.498 184.755C100.498 183.297 100.999 182.07 102.003 181.069ZM103.392 187.111C104.009 187.724 104.78 188.024 105.697 188.024C106.613 188.024 107.386 187.724 108.003 187.111C108.618 186.495 108.934 185.711 108.934 184.755C108.934 183.798 108.618 183.012 108.003 182.398C107.386 181.783 106.613 181.469 105.697 181.469C104.78 181.469 104.009 181.783 103.392 182.398C102.777 183.012 102.459 183.798 102.459 184.755C102.459 185.711 102.777 186.495 103.392 187.111ZM87.3633 180.371C88.0069 179.826 88.7953 179.555 89.6969 179.555C91.3146 179.555 92.5908 180.383 93.2769 181.797L91.6167 182.756C91.2155 181.898 90.5703 181.469 89.6969 181.469C88.8818 181.469 88.3814 181.882 88.3814 182.469C88.3814 182.784 88.5089 183.04 88.7653 183.239C89.0376 183.426 89.5396 183.641 90.2839 183.869L90.97 184.096C91.1289 184.14 91.3445 184.226 91.6167 184.339C91.8874 184.44 92.103 184.54 92.2462 184.641C92.5467 184.826 93.0062 185.182 93.1903 185.526C93.4059 185.868 93.5633 186.367 93.5633 186.939C93.5633 187.868 93.2202 188.597 92.5467 189.138C91.8732 189.681 90.9999 189.952 89.9251 189.952C87.9361 189.952 86.5466 189.009 85.9895 187.482L87.678 186.495C88.0651 187.511 88.8377 188.024 89.9833 188.024C91.0864 188.024 91.59 187.583 91.59 186.968C91.59 186.61 91.431 186.338 91.1148 186.155C90.8 185.956 90.2414 185.739 89.4247 185.511C88.523 185.24 87.9801 185.027 87.3491 184.582C86.7322 184.126 86.4034 183.442 86.4034 182.525C86.4034 181.626 86.7181 180.898 87.3633 180.371ZM181.645 179.756H185.654C186.584 179.756 187.373 180.084 188.018 180.727C188.661 181.369 188.99 182.155 188.99 183.068C188.99 184.311 188.218 185.453 187.058 185.982L189.277 189.753H187.143L185.122 186.284H183.619V189.753H181.645V179.756ZM183.619 181.598V184.556H185.654C186.399 184.556 187.015 183.883 187.015 183.068C187.015 182.255 186.399 181.598 185.654 181.598H183.619ZM168.521 179.756H170.971L174.494 189.753H172.345L171.745 187.955H167.75L167.147 189.753H165.012L168.521 179.756ZM169.753 182.025L168.379 186.111H171.128L169.753 182.025ZM157.076 179.756H159.153L156.344 189.753H154.097L152.207 183.155L150.33 189.753H148.083L145.274 179.756H147.351L149.272 187.167L151.36 179.756H153.051L155.158 187.167L157.076 179.756ZM131.338 179.756H138.713V181.64H136.007V189.753H134.03V181.64H131.338V179.756ZM118.475 179.756H124.461V181.642H120.452V184.011H124.348V185.896H120.452V189.753H118.475V179.756Z" fill="#265AD6"/>
</g>
</svg>
