<svg width="290" height="290" viewBox="0 0 290 290" fill="none" xmlns="http://www.w3.org/2000/svg">
<rect width="290" height="290" fill="white"/>
<g clip-path="url(#clip0)">
<path d="M55.9 173.4H50.1L45.7 161.3H29.1L24.6 173.4H19L34.6 133.8H40.5L55.9 173.4ZM37.4 138.9L30.6 157.2H44.2L37.4 138.9Z" fill="black"/>
<path d="M75.4001 149C74.9001 148.9 74.7001 148.9 74.2001 148.9C66.4001 148.9 65 154.8 65 161.3V173.4H60.3V144.7H64.8V150.9C66.8 146.1 70.3001 144.1 75.4001 144.1V149Z" fill="black"/>
<path d="M92.6 148.6H86.9V165.3C86.9 167.9 86.7 169.5 90.1 169.5C91 169.5 91.7 169.4 92.7 169.3V173.4C91.2 173.6 90.6 173.6 89.1 173.6C81.9 173.6 82.3 170 82.3 163.8V148.6H77.5V144.7H82.3V136.2H87V144.7H92.7V148.6H92.6Z" fill="black"/>
<path d="M131.4 173.399H126.2V154.899H105.2V173.399H100V133.899H105.2V150.399H126.1V133.899H131.3V173.399H131.4Z" fill="black"/>
<path d="M164.5 173.4H160.1V168.9C157.6 172.5 154.4 174.2 150.2 174.2C144.2 174.2 140.6 170.8 140.6 164.5V144.7H145.3V163.2C145.3 167.3 146.5 170.1 151.3 170.1C157.5 170.1 159.7 165.7 159.7 159.8V144.8H164.4V173.4H164.5Z" fill="black"/>
<path d="M189.5 153.1C189.2 149.3 186.6 147.9 182.5 147.9C178.9 147.9 176.7 149.4 176.7 151.8C176.7 155 180.4 155.5 184.3 156.4C189.1 157.5 195.4 158.9 195.4 165.1C195.4 170.7 190.7 174.3 183.5 174.3C175.7 174.3 171.4 170.8 171.2 164.4H175.9C176.2 168.7 179.1 170.5 183.7 170.5C187.9 170.5 190.7 168.6 190.7 165.7C190.7 162.5 187.5 161.9 183.5 160.9C178.6 159.7 171.9 159.1 171.9 152.5C171.9 147.3 176.2 144.1 182.8 144.1C189.2 144.1 194.3 147.2 194.3 153.3H189.5V153.1Z" fill="black"/>
<path d="M218.7 153.1C218.4 149.3 215.8 147.9 211.7 147.9C208.1 147.9 205.9 149.4 205.9 151.8C205.9 155 209.6 155.5 213.5 156.4C218.3 157.5 224.6 158.9 224.6 165.1C224.6 170.7 219.9 174.3 212.7 174.3C204.9 174.3 200.6 170.8 200.4 164.4H205.1C205.4 168.7 208.3 170.5 212.9 170.5C217.1 170.5 219.9 168.6 219.9 165.7C219.9 162.5 216.7 161.9 212.7 160.9C207.8 159.7 201.1 159.1 201.1 152.5C201.1 147.3 205.4 144.1 212.1 144.1C218.5 144.1 223.5 147.2 223.5 153.3H218.7V153.1Z" fill="black"/>
<path d="M248.4 116H231.4V128H248.4V116Z" fill="#EE352D"/>
<path d="M270 116H253V128H270V116Z" fill="#EE352D"/>
<path d="M248.4 133.1H231.4V145.1H248.4V133.1Z" fill="#EE352D"/>
<path d="M270 133.1H253V145.1H270V133.1Z" fill="#EE352D"/>
</g>
<defs>
<clipPath id="clip0">
<rect width="251" height="58.3" fill="white" transform="translate(19 116)"/>
</clipPath>
</defs>
</svg>
