<svg width="78" height="79" viewBox="0 0 78 79" fill="none" xmlns="http://www.w3.org/2000/svg">
<path d="M53.4243 0.671997H24.313C10.917 0.671997 0.0537109 11.5353 0.0537109 24.9313V54.0425C0.0537109 67.4385 10.917 78.3019 24.313 78.3019H53.4243C66.8203 78.3019 77.6836 67.4385 77.6836 54.0425V24.9313C77.6836 11.5353 66.8203 0.671997 53.4243 0.671997ZM70.4058 54.0425C70.4058 63.4066 62.7884 71.0241 53.4243 71.0241H24.313C14.9489 71.0241 7.33151 63.4066 7.33151 54.0425V24.9313C7.33151 15.5672 14.9489 7.9498 24.313 7.9498H53.4243C62.7884 7.9498 70.4058 15.5672 70.4058 24.9313V54.0425Z" fill="white"/>
<path d="M38.8689 20.0795C28.1511 20.0795 19.4614 28.7692 19.4614 39.4869C19.4614 50.2047 28.1511 58.8944 38.8689 58.8944C49.5867 58.8944 58.2764 50.2047 58.2764 39.4869C58.2764 28.7692 49.5867 20.0795 38.8689 20.0795ZM38.8689 51.6166C32.183 51.6166 26.7392 46.1728 26.7392 39.4869C26.7392 32.7962 32.183 27.3573 38.8689 27.3573C45.5548 27.3573 50.9986 32.7962 50.9986 39.4869C50.9986 46.1728 45.5548 51.6166 38.8689 51.6166Z" fill="white"/>
<path d="M59.732 21.21C61.1603 21.21 62.3181 20.0522 62.3181 18.6239C62.3181 17.1957 61.1603 16.0379 59.732 16.0379C58.3038 16.0379 57.146 17.1957 57.146 18.6239C57.146 20.0522 58.3038 21.21 59.732 21.21Z" fill="white"/>
</svg>
