<svg fill="none" height="78" viewBox="0 0 78 78" width="78" xmlns="http://www.w3.org/2000/svg"><g fill="#fcfb63"><path d="m53.7407 0h-29.1112c-13.3961 0-24.259383 10.8633-24.259383 24.2593v29.1112c0 13.396 10.863283 24.2594 24.259383 24.2594h29.1112c13.396 0 24.2593-10.8634 24.2593-24.2594v-29.1112c0-13.396-10.8633-24.2593-24.2593-24.2593zm16.9815 53.3705c0 9.3641-7.6174 16.9816-16.9815 16.9816h-29.1112c-9.3641 0-16.98158-7.6175-16.98158-16.9816v-29.1112c0-9.3641 7.61748-16.9815 16.98158-16.9815h29.1112c9.3641 0 16.9815 7.6174 16.9815 16.9815z"/><path d="m39.1848 19.4075c-10.7178 0-19.4075 8.6897-19.4075 19.4074 0 10.7178 8.6897 19.4075 19.4075 19.4075s19.4075-8.6897 19.4075-19.4075c0-10.7177-8.6897-19.4074-19.4075-19.4074zm0 31.5371c-6.6859 0-12.1297-5.4438-12.1297-12.1297 0-6.6907 5.4438-12.1296 12.1297-12.1296s12.1297 5.4389 12.1297 12.1296c0 6.6859-5.4438 12.1297-12.1297 12.1297z"/><path d="m60.0489 20.538c1.4283 0 2.5861-1.1578 2.5861-2.586 0-1.4283-1.1578-2.5861-2.5861-2.5861-1.4282 0-2.586 1.1578-2.586 2.5861 0 1.4282 1.1578 2.586 2.586 2.586z"/></g></svg>