<svg fill="none" height="80" viewBox="0 0 78 80" width="78" xmlns="http://www.w3.org/2000/svg"><g fill="#fcfb63"><path d="m55.1666 24.9781-27.4699 16.8835c-1.0529.6485-1.5486 1.9173-1.2084 3.1051l2.9701 10.4144c.2108.7379 1.2843.6623 1.3866-.1002l.7722-5.7111c.1456-1.0753.6595-2.0659 1.4564-2.8061l22.6708-21.0295c.4239-.3925-.084-1.0586-.5778-.7561z"/><path clip-rule="evenodd" d="m78 0h-78v80h78zm-54.8669 44.6484-14.05571-5.2351c-1.42761-.5338-1.43994-2.5451-.01648-3.093l57.68479-22.2066c1.2228-.4719 2.4848.5972 2.2184 1.8788l-10.3519 49.6907c-.244 1.1732-1.6225 1.7053-2.5954.9995l-14.1313-10.2382c-.8583-.6217-2.0281-.5884-2.8492.0794l-7.8349 6.3737c-.9095.7421-2.2798.3288-2.6279-.7894z" fill-rule="evenodd"/></g></svg>