<svg width="79" height="81" viewBox="0 0 79 81" fill="none" xmlns="http://www.w3.org/2000/svg">
<path d="M56.0348 25.8197L28.5648 42.7032C27.512 43.3517 27.0162 44.6205 27.3564 45.8083L30.3265 56.2226C30.5374 56.9606 31.6108 56.8849 31.7131 56.1224L32.4854 50.4113C32.631 49.3361 33.1449 48.3455 33.9418 47.6053L56.6125 26.5757C57.0365 26.1833 56.5286 25.5171 56.0348 25.8197Z" fill="white"/>
<path fill-rule="evenodd" clip-rule="evenodd" d="M78.8682 0.841553H0.868164V80.8416H78.8682V0.841553ZM24.0012 45.4899L9.94556 40.2549C8.51794 39.721 8.50562 37.7098 9.92908 37.1619L67.6139 14.9553C68.8367 14.4833 70.0986 15.5524 69.8323 16.834L59.4803 66.5247C59.2363 67.698 57.8579 68.23 56.885 67.5243L42.7537 57.2861C41.8954 56.6644 40.7256 56.6976 39.9044 57.3654L32.0696 63.7392C31.16 64.4813 29.7898 64.0679 29.4417 62.9497L24.0012 45.4899Z" fill="white"/>
</svg>
