<svg width="79" height="79" viewBox="0 0 79 79" fill="none" xmlns="http://www.w3.org/2000/svg">
<path fill-rule="evenodd" clip-rule="evenodd" d="M78.8682 0.132324H0.868164V78.1323H78.8682V0.132324ZM62.0608 23.0063C64.4699 22.7197 66.7628 22.0774 68.8999 21.1305C67.3073 23.5179 65.2826 25.6151 62.9424 27.2842L62.9824 28.8262C62.9824 44.5657 51.0053 62.7144 29.0942 62.7144C22.3674 62.7144 16.1086 60.7407 10.8365 57.3554C11.4143 57.4207 11.9974 57.4677 12.5863 57.4941C12.948 57.5102 13.3117 57.5187 13.6773 57.5187C19.2575 57.5187 24.3955 55.6212 28.4701 52.4282C23.2597 52.3338 18.862 48.8906 17.3457 44.1557C18.0749 44.3008 18.8186 44.377 19.5879 44.377C20.6765 44.377 21.7284 44.2283 22.7263 43.9597C17.2801 42.8639 13.1732 38.0492 13.1732 32.2802V32.1314C14.7803 33.024 16.6164 33.5611 18.5683 33.6263C15.3755 31.493 13.2711 27.8465 13.2711 23.7138C13.2711 21.5295 13.8552 19.4833 14.8821 17.7271C20.7561 24.933 29.5331 29.6751 39.431 30.1723C39.2279 29.3014 39.1223 28.3908 39.1223 27.4582C39.1223 20.8838 44.4561 15.5502 51.0343 15.5502C54.463 15.5502 57.5541 16.9944 59.7274 19.3128C62.4418 18.7757 64.9888 17.7852 67.2962 16.421C66.4039 19.1967 64.5205 21.5332 62.0608 23.0063Z" fill="white"/>
</svg>
