<svg enable-background="new 0 0 841.9 1190.6" viewBox="0 0 841.9 1190.6" xmlns="http://www.w3.org/2000/svg"><path d="m0 0h841.9v1190.6h-841.9z" fill="#ee2f4e"/><g fill="#252d65"><path d="m83.4 328.9h-8.2v-5h22.1v5h-8.2v23.7h-5.8v-23.7z"/><path d="m100.4 323.9h5.2v10.5h.1c1.2-1.7 3.3-2.7 5.8-2.7 4.3 0 7.3 2 7.3 7.1v13.7h-5.2v-12.4c0-2.9-1.5-3.9-3.7-3.9-2.5 0-4.2 1.7-4.2 4.1v12.2h-5.2v-28.6z"/><path d="m122.4 342.5c0-6.6 3.4-10.9 9.8-10.9 6.7 0 9.8 4.8 9.8 10.9v1.1h-14.2c0 3.2 1.7 5.4 5 5.4 2.4 0 4-1.2 5-3.4l3.9 2c-1.8 3.5-4.9 5.6-9.3 5.6-6.6 0-10-4.3-10-10.7zm14.3-2.3c-.2-2.8-1.7-4.6-4.5-4.6s-4.2 1.9-4.4 4.6z"/><path d="m162.5 350.3-.1 2.3h-5.2v-28.7h5.2v10.6h.1c1-1.6 3.1-2.8 6.1-2.8 6 0 8.8 4.3 8.8 10.7s-2.8 10.7-8.9 10.7c-2.9 0-5-1.1-6-2.8zm9.5-7.9c0-3.7-1.6-6.3-4.8-6.3s-4.8 2.6-4.8 6.3 1.6 6.3 4.8 6.3 4.8-2.5 4.8-6.3z"/><path d="m180 342.5c0-6.6 3.4-10.9 9.8-10.9 6.7 0 9.8 4.8 9.8 10.9v1.1h-14.2c0 3.2 1.7 5.4 5 5.4 2.4 0 4-1.2 5-3.4l3.9 2c-1.8 3.5-4.9 5.6-9.3 5.6-6.5 0-10-4.3-10-10.7zm14.3-2.3c-.2-2.8-1.7-4.6-4.5-4.6s-4.2 1.9-4.4 4.6z"/><path d="m201.7 347.9 3.9-2.4c1.4 2.4 3.4 3.5 6.3 3.5 2.2 0 3.5-.9 3.5-2.2 0-1.4-1.1-2-4.6-2.5-4.5-.7-7.6-2.5-7.6-6.4s3.4-6.3 8.1-6.3c4.1 0 7.2 1.4 8.7 4l-3.4 2.5c-1.2-1.7-2.9-2.5-5.2-2.5-1.8 0-3 .7-3 1.8 0 1.4 1.4 2 4.9 2.6 4.4.7 7.3 2.5 7.3 6.4 0 4.3-3.7 6.7-8.7 6.7-5 .1-8.9-1.8-10.2-5.2z"/><path d="m225.3 347v-10.7h-3.1v-4h3.1v-5.8h5.2v5.8h3.4v4h-3.4v10.5c0 1.4.5 1.9 1.8 1.9.5 0 .9-.1 1.4-.2l.4 4c-.7.2-1.8.4-3.4.4-4.1-.1-5.4-2-5.4-5.9z"/><path d="m254.3 350.3-.1 2.3h-5.2v-28.7h5.2v10.6h.1c1-1.6 3.1-2.8 6.1-2.8 6 0 8.8 4.3 8.8 10.7s-2.8 10.7-8.9 10.7c-2.8 0-5-1.1-6-2.8zm9.6-7.9c0-3.7-1.6-6.3-4.8-6.3s-4.8 2.6-4.8 6.3 1.6 6.3 4.8 6.3 4.8-2.5 4.8-6.3z"/><path d="m271.8 342.4c0-6.6 4-10.7 10.2-10.7s10.2 4.1 10.2 10.7-4 10.7-10.2 10.7-10.2-4.1-10.2-10.7zm15.1 0c0-3.8-1.7-6.4-4.9-6.4s-4.9 2.6-4.9 6.4 1.7 6.4 4.9 6.4 4.9-2.6 4.9-6.4z"/><path d="m294.8 342.4c0-6.6 4-10.7 10.2-10.7s10.2 4.1 10.2 10.7-4 10.7-10.2 10.7-10.2-4.1-10.2-10.7zm15.1 0c0-3.8-1.7-6.4-4.9-6.4s-4.9 2.6-4.9 6.4 1.7 6.4 4.9 6.4 4.9-2.6 4.9-6.4z"/><path d="m318.9 323.9h5.2v16l6.8-7.7h5.9l-7.1 8.1 8.1 12.3h-5.9l-5.6-8.9-2.2 2.4v6.5h-5.2z"/><path d="m338.2 347.9 3.9-2.4c1.4 2.4 3.4 3.5 6.3 3.5 2.2 0 3.5-.9 3.5-2.2 0-1.4-1.1-2-4.6-2.5-4.5-.7-7.6-2.5-7.6-6.4s3.4-6.3 8.1-6.3c4.1 0 7.2 1.4 8.7 4l-3.4 2.5c-1.2-1.7-2.9-2.5-5.2-2.5-1.8 0-3 .7-3 1.8 0 1.4 1.4 2 4.9 2.6 4.4.7 7.3 2.5 7.3 6.4 0 4.3-3.7 6.7-8.7 6.7-5 .1-8.8-1.8-10.2-5.2z"/><path d="m373.1 336.2h-3.1v-4h3.1v-2.4c0-4.2 1.7-6.2 5.9-6.2 1.4 0 2.7.2 3.3.4l-.2 3.8c-.5-.1-1-.2-1.7-.2-1.4 0-2.1.6-2.1 2.1v2.5h3.5v4h-3.5v16.4h-5.2z"/><path d="m384.6 332.2h5.2v3h.1c1.3-2.3 3.3-3.2 5.9-3.2h.6l-.5 4.9c-.5-.1-.9-.1-1.4-.1-2.9 0-4.6 1.8-4.6 4.7v11h-5.2v-20.3z"/><path d="m397.8 342.4c0-6.6 4-10.7 10.2-10.7s10.2 4.1 10.2 10.7-4 10.7-10.2 10.7-10.2-4.1-10.2-10.7zm15.1 0c0-3.8-1.7-6.4-4.9-6.4s-4.9 2.6-4.9 6.4 1.7 6.4 4.9 6.4 4.9-2.6 4.9-6.4z"/><path d="m421.9 332.2h5.2v2.3h.1c1.1-1.7 3.2-2.7 5.7-2.7 2.7 0 4.8 1 6 2.9 1.4-2 3.6-2.9 6.2-2.9 3.9 0 7.1 2 7.1 7.4v13.5h-5.2v-12.4c0-2.5-1.1-3.9-3.5-3.9-2.3 0-3.8 1.7-3.8 4.1v12.2h-5.2v-12.4c0-2.5-1.1-3.9-3.5-3.9-2.3 0-3.8 1.7-3.8 4.1v12.2h-5.2v-20.5z"/><path d="m78 397.3v-10.7h-3.1v-4h3.1v-5.8h5.2v5.8h3.4v4h-3.4v10.4c0 1.4.5 1.9 1.8 1.9.5 0 .9-.1 1.4-.2l.4 4c-.7.2-1.8.4-3.4.4-4.1.1-5.4-1.8-5.4-5.8z"/><path d="m90 374.3h5.2v10.5h.1c1.2-1.7 3.3-2.7 5.8-2.7 4.3 0 7.3 2 7.3 7.1v13.8h-5.2v-12.4c0-2.9-1.5-3.9-3.7-3.9-2.5 0-4.2 1.7-4.2 4.1v12.2h-5.3z"/><path d="m111.9 392.9c0-6.6 3.4-10.9 9.8-10.9 6.7 0 9.8 4.8 9.8 10.9v1.1h-14.2c0 3.2 1.7 5.4 5 5.4 2.4 0 4-1.2 5-3.4l3.9 2c-1.8 3.5-4.9 5.6-9.3 5.6-6.5-.1-10-4.4-10-10.7zm14.3-2.3c-.2-2.8-1.7-4.6-4.5-4.6s-4.2 1.9-4.4 4.6z"/><path d="m147 374.3h12.6c6.8 0 10.5 3.5 10.5 9.1 0 6-3.8 9.3-10.5 9.3h-6.8v10.3h-5.8zm11.9 13.9c3.6 0 5.5-1.7 5.5-4.6 0-3-1.9-4.7-5.6-4.7h-6.2v9.3z"/><path d="m172.2 392.8c0-6.6 4-10.7 10.2-10.7s10.2 4.1 10.2 10.7-4 10.7-10.2 10.7-10.2-4.1-10.2-10.7zm15.1 0c0-3.8-1.7-6.4-4.9-6.4s-4.9 2.6-4.9 6.4 1.7 6.4 4.9 6.4 4.9-2.6 4.9-6.4z"/><path d="m196.3 374.3h5.2v28.7h-5.2z"/><path d="m206.2 374.3h5.2v4.6h-5.2zm0 8.3h5.2v20.4h-5.2z"/><path d="m214.3 398.3 3.9-2.4c1.4 2.4 3.4 3.5 6.3 3.5 2.2 0 3.5-.9 3.5-2.2 0-1.4-1.1-2-4.6-2.5-4.5-.7-7.6-2.5-7.6-6.4s3.4-6.3 8.1-6.3c4.1 0 7.2 1.4 8.7 4l-3.4 2.5c-1.2-1.7-2.9-2.5-5.2-2.5-1.8 0-3 .7-3 1.8 0 1.4 1.4 2 4.9 2.6 4.4.7 7.3 2.5 7.3 6.4 0 4.3-3.7 6.7-8.7 6.7s-8.8-1.8-10.2-5.2z"/><path d="m236.6 374.3h5.2v10.5h.1c1.2-1.7 3.3-2.7 5.8-2.7 4.3 0 7.3 2 7.3 7.1v13.8h-5.2v-12.4c0-2.9-1.5-3.9-3.7-3.9-2.5 0-4.2 1.7-4.2 4.1v12.2h-5.2v-28.7z"/><path d="m270.6 388.8c0-8.9 5-15.3 13.8-15.3 6.1 0 10.5 2.9 12.5 7.8l-5.1 1.8c-1.2-2.7-3.4-4.6-7.2-4.6-4.9 0-8.1 3.7-8.1 10.1 0 6.1 3 10.1 8.3 10.1 4.1 0 7.4-2.4 7.4-6.8h-7.4v-4.6h12.5v15.7h-5v-3.2h-.1c-1.5 2.5-4.7 3.8-8.4 3.8-8.3 0-13.2-5.9-13.2-14.8z"/><path d="m302.5 382.6h5.2v3h.1c1.3-2.3 3.3-3.2 5.9-3.2h.6l-.5 4.9c-.5-.1-.9-.1-1.4-.1-2.9 0-4.6 1.8-4.6 4.7v11h-5.2v-20.3z"/><path d="m315.6 397.7c0-4 2.6-6 8.8-7.2l4.3-.8v-.8c0-2.2-.7-3.2-3.3-3.2-2.3 0-3.7.9-3.7 3.1l-5-.3c.3-4.7 3.6-6.5 9.1-6.5 5.6 0 8.2 2.3 8.2 6.4v9.2c0 2.1.2 3.9.5 5.4h-5.1c-.2-.5-.3-1.6-.3-2.5-1.3 2.1-4 2.9-6.6 2.9-4.3 0-6.9-2.2-6.9-5.7zm13.1-2.4v-2.1l-3.8.8c-3 .6-4 1.5-4 3.1s1.2 2.5 3.1 2.5c2.5 0 4.7-1.4 4.7-4.3z"/><path d="m338.6 382.6h5.2v2.3h.1c1-1.6 3.1-2.8 6.1-2.8 6 0 8.8 4.3 8.8 10.7s-2.8 10.7-8.9 10.7c-2.9 0-5-1.1-6-2.7h-.1v10.2h-5.2zm14.9 10.2c0-3.7-1.6-6.3-4.8-6.3s-4.8 2.6-4.8 6.3 1.6 6.3 4.8 6.3 4.8-2.6 4.8-6.3z"/><path d="m362.5 374.3h5.2v10.5h.1c1.2-1.7 3.3-2.7 5.8-2.7 4.3 0 7.3 2 7.3 7.1v13.8h-5.2v-12.4c0-2.9-1.5-3.9-3.7-3.9-2.5 0-4.2 1.7-4.2 4.1v12.2h-5.2v-28.7z"/><path d="m385.6 374.3h5.2v4.6h-5.2zm0 8.3h5.2v20.4h-5.2z"/><path d="m394.5 392.8c0-6.4 3.5-10.7 9.8-10.7 5.2 0 8.3 2.8 9.3 6.4l-4.6 1.3c-.6-2.1-2.1-3.3-4.3-3.3-3.2 0-4.8 2.5-4.8 6.4s1.6 6.4 4.8 6.4c2.5 0 3.9-1.6 4.5-3.7l4.6 1.2c-1 4-4.1 6.9-9.3 6.9-6.4-.2-10-4.2-10-10.9z"/><path d="m429.1 374.3h11.7c9.2 0 13.6 5.2 13.6 14.4 0 9-4.5 14.2-13.6 14.2h-11.7zm11.4 23.7c6 0 8.1-3.7 8.1-9.5 0-5.7-2.2-9.3-7.9-9.3h-5.8v18.8z"/><path d="m457.7 392.9c0-6.6 3.4-10.9 9.8-10.9 6.7 0 9.8 4.8 9.8 10.9v1.1h-14.3c0 3.2 1.7 5.4 5 5.4 2.4 0 4-1.2 5-3.4l3.9 2c-1.8 3.5-4.9 5.6-9.3 5.6-6.5-.1-9.9-4.4-9.9-10.7zm14.3-2.3c-.2-2.8-1.7-4.6-4.5-4.6s-4.2 1.9-4.4 4.6z"/><path d="m479.3 398.3 3.9-2.4c1.4 2.4 3.4 3.5 6.3 3.5 2.2 0 3.5-.9 3.5-2.2 0-1.4-1.1-2-4.6-2.5-4.5-.7-7.6-2.5-7.6-6.4s3.4-6.3 8.1-6.3c4.1 0 7.2 1.4 8.7 4l-3.4 2.5c-1.2-1.7-2.9-2.5-5.2-2.5-1.8 0-3 .7-3 1.8 0 1.4 1.4 2 4.9 2.6 4.4.7 7.3 2.5 7.3 6.4 0 4.3-3.7 6.7-8.7 6.7s-8.9-1.8-10.2-5.2z"/><path d="m501.5 374.3h5.2v4.6h-5.2zm0 8.3h5.2v20.4h-5.2z"/><path d="m510.8 404.6 5.2-.4c.1 2.3 1.8 3.3 4.4 3.3 3.5 0 4.6-1.5 4.6-5v-2.5h-.1c-1.1 1.5-3.1 2.5-5.7 2.5-5.8 0-8.7-4-8.7-10.2 0-5.8 2.8-10.3 8.6-10.3 2.9 0 4.8 1 5.8 2.5h.1v-2h5.1v20.2c0 5.6-3.1 8.7-9.7 8.7-5.8.1-9.4-1.9-9.6-6.8zm14.2-12.2c0-4-2-6-4.7-6s-4.7 2-4.7 6c0 3.9 2 6 4.7 6 2.8-.1 4.7-2.1 4.7-6z"/><path d="m534.8 382.6h5.2v2.3h.1c1.2-1.7 3.3-2.7 5.8-2.7 4.3 0 7.3 2 7.3 7.1v13.7h-5.2v-12.4c0-2.9-1.5-3.9-3.7-3.9-2.5 0-4.2 1.7-4.2 4.1v12.2h-5.2v-20.4z"/><path d="m578.5 374.3h5.9l10.9 28.7h-6l-2.1-6h-11.7l-2.2 6h-5.9zm7 18-4.1-11.5h-.1l-4.2 11.5z"/><path d="m595.2 382.6h5.3l3.5 13.8h.1l3.9-13.8h5l3.8 13.8h.1l3.8-13.8h5.2l-6.6 20.4h-4.8l-3.8-13.4h-.1l-4 13.4h-5z"/><path d="m626.9 397.7c0-4 2.6-6 8.8-7.2l4.3-.8v-.8c0-2.2-.7-3.2-3.3-3.2-2.3 0-3.7.9-3.7 3.1l-5-.3c.3-4.7 3.6-6.5 9.1-6.5 5.6 0 8.2 2.3 8.2 6.4v9.2c0 2.1.2 3.9.5 5.4h-5.1c-.2-.5-.3-1.6-.3-2.5-1.3 2.1-4 2.9-6.6 2.9-4.3 0-6.9-2.2-6.9-5.7zm13.1-2.4v-2.1l-3.8.8c-3 .6-4 1.5-4 3.1s1.2 2.5 3.1 2.5c2.5 0 4.7-1.4 4.7-4.3z"/><path d="m649.9 382.6h5.2v3h.1c1.3-2.3 3.3-3.2 5.9-3.2h.6l-.5 4.9c-.5-.1-.9-.1-1.4-.1-2.9 0-4.6 1.8-4.6 4.7v11h-5.2v-20.3z"/><path d="m663.2 392.8c0-6.4 2.8-10.7 8.8-10.7 2.9 0 5 1.2 6.1 2.8h.1v-10.6h5.2v28.7h-5.2v-2.3h-.1c-1 1.6-3.2 2.7-6 2.7-6.1 0-8.9-4.3-8.9-10.6zm15 0c0-3.7-1.6-6.3-4.8-6.3s-4.8 2.6-4.8 6.3 1.6 6.3 4.8 6.3 4.8-2.6 4.8-6.3z"/><path d="m686.4 398.3 3.9-2.4c1.4 2.4 3.4 3.5 6.3 3.5 2.2 0 3.5-.9 3.5-2.2 0-1.4-1.1-2-4.6-2.5-4.5-.7-7.6-2.5-7.6-6.4s3.4-6.3 8.1-6.3c4.1 0 7.2 1.4 8.7 4l-3.4 2.5c-1.2-1.7-2.9-2.5-5.2-2.5-1.8 0-3 .7-3 1.8 0 1.4 1.4 2 4.9 2.6 4.4.7 7.3 2.5 7.3 6.4 0 4.3-3.7 6.7-8.7 6.7s-8.9-1.8-10.2-5.2z"/><path d="m709.2 396.9h5.5v6h-5.5z"/><path d="m77.3 475h12.6c6.8 0 10.5 3.5 10.5 9.1 0 6-3.8 9.3-10.5 9.3h-6.9v10.2h-5.8v-28.6zm11.9 13.9c3.6 0 5.5-1.7 5.5-4.6 0-3-1.9-4.7-5.6-4.7h-6.1v9.3z"/><path d="m102.5 493.5c0-6.6 4-10.7 10.2-10.7s10.2 4.1 10.2 10.7-4 10.7-10.2 10.7-10.2-4.1-10.2-10.7zm15.1 0c0-3.8-1.7-6.4-4.9-6.4s-4.9 2.6-4.9 6.4 1.7 6.4 4.9 6.4 4.9-2.6 4.9-6.4z"/><path d="m126.6 475h5.2v28.7h-5.2z"/><path d="m136.5 475h5.2v4.6h-5.2zm0 8.3h5.2v20.4h-5.2z"/><path d="m144.6 499 3.9-2.4c1.4 2.4 3.4 3.5 6.3 3.5 2.2 0 3.5-.9 3.5-2.2 0-1.4-1.1-2-4.6-2.5-4.5-.7-7.6-2.5-7.6-6.4s3.4-6.3 8.1-6.3c4.1 0 7.2 1.4 8.7 4l-3.4 2.5c-1.2-1.7-2.9-2.5-5.2-2.5-1.8 0-3 .7-3 1.8 0 1.4 1.4 2 4.9 2.6 4.4.7 7.3 2.5 7.3 6.4 0 4.3-3.7 6.7-8.7 6.7s-8.8-1.8-10.2-5.2z"/><path d="m166.9 475h5.2v10.5h.1c1.2-1.7 3.3-2.7 5.8-2.7 4.3 0 7.3 2 7.3 7.1v13.7h-5.3v-12.4c0-2.9-1.5-3.9-3.7-3.9-2.5 0-4.2 1.7-4.2 4.1v12.2h-5.2z"/><path d="m200.9 489.5c0-8.9 5-15.3 13.8-15.3 6.1 0 10.5 2.9 12.5 7.8l-5.1 1.8c-1.2-2.7-3.4-4.6-7.2-4.6-4.9 0-8.1 3.7-8.1 10.1 0 6.1 3 10.1 8.3 10.1 4.1 0 7.4-2.4 7.4-6.8h-7.5v-4.6h12.5v15.6h-5v-3.2h-.1c-1.5 2.5-4.7 3.8-8.4 3.8-8.1.1-13.1-5.8-13.1-14.7z"/><path d="m232.8 483.3h5.2v3h.1c1.3-2.3 3.3-3.2 5.9-3.2h.6l-.6 4.9c-.5-.1-.9-.1-1.4-.1-2.9 0-4.6 1.8-4.6 4.7v11h-5.2z"/><path d="m245.9 498.4c0-4 2.6-6 8.8-7.2l4.3-.8v-.8c0-2.2-.7-3.2-3.3-3.2-2.3 0-3.7.9-3.7 3.1l-5-.3c.3-4.7 3.6-6.5 9.1-6.5 5.6 0 8.2 2.3 8.2 6.4v9.2c0 2.1.2 3.9.5 5.4h-5.1c-.2-.5-.3-1.6-.3-2.5-1.3 2.1-4 2.9-6.6 2.9-4.3 0-6.9-2.2-6.9-5.7zm13.1-2.4v-2l-3.8.8c-3 .6-4 1.5-4 3.1s1.2 2.5 3.1 2.5c2.5-.1 4.7-1.4 4.7-4.4z"/><path d="m269 483.3h5.2v2.3h.1c1-1.6 3.1-2.8 6.1-2.8 6 0 8.8 4.3 8.8 10.7s-2.8 10.7-8.9 10.7c-2.9 0-5-1.1-6-2.7h-.1v10.3h-5.2zm14.8 10.2c0-3.7-1.6-6.3-4.8-6.3s-4.8 2.6-4.8 6.3 1.6 6.3 4.8 6.3 4.8-2.6 4.8-6.3z"/><path d="m292.9 475h5.2v10.5h.1c1.2-1.7 3.3-2.7 5.8-2.7 4.3 0 7.3 2 7.3 7.1v13.7h-5.2v-12.4c0-2.9-1.5-3.9-3.7-3.9-2.5 0-4.2 1.7-4.2 4.1v12.2h-5.2v-28.6z"/><path d="m316 475h5.2v4.6h-5.2zm0 8.3h5.2v20.4h-5.2z"/><path d="m324.9 493.5c0-6.4 3.5-10.7 9.8-10.7 5.2 0 8.3 2.8 9.3 6.4l-4.6 1.3c-.6-2.1-2.1-3.3-4.3-3.3-3.2 0-4.8 2.5-4.8 6.4s1.6 6.4 4.8 6.4c2.5 0 3.9-1.6 4.5-3.7l4.6 1.2c-1 4-4.1 6.9-9.3 6.9-6.4-.2-10-4.2-10-10.9z"/><path d="m359.5 475h11.7c9.2 0 13.6 5.2 13.6 14.4 0 9-4.5 14.2-13.6 14.2h-11.7zm11.3 23.7c6 0 8.1-3.7 8.1-9.5 0-5.7-2.2-9.3-7.9-9.3h-5.8v18.8z"/><path d="m388 493.6c0-6.6 3.4-10.9 9.8-10.9 6.7 0 9.8 4.8 9.8 10.9v1.1h-14.2c0 3.2 1.7 5.4 5 5.4 2.4 0 4-1.2 5-3.4l3.9 2c-1.8 3.5-4.9 5.6-9.3 5.6-6.5-.1-10-4.4-10-10.7zm14.3-2.3c-.2-2.8-1.7-4.6-4.5-4.6s-4.2 1.9-4.4 4.6z"/><path d="m409.6 499 3.9-2.4c1.4 2.4 3.4 3.5 6.3 3.5 2.2 0 3.5-.9 3.5-2.2 0-1.4-1.1-2-4.6-2.5-4.5-.7-7.6-2.5-7.6-6.4s3.4-6.3 8.1-6.3c4.1 0 7.2 1.4 8.7 4l-3.4 2.5c-1.2-1.7-2.9-2.5-5.2-2.5-1.8 0-3 .7-3 1.8 0 1.4 1.4 2 4.9 2.6 4.4.7 7.3 2.5 7.3 6.4 0 4.3-3.7 6.7-8.7 6.7s-8.8-1.8-10.2-5.2z"/><path d="m431.9 475h5.2v4.6h-5.2zm0 8.3h5.2v20.4h-5.2z"/><path d="m441.2 505.3 5.2-.4c.1 2.3 1.8 3.3 4.4 3.3 3.5 0 4.6-1.5 4.6-5v-2.5h-.1c-1.1 1.5-3.1 2.5-5.7 2.5-5.8 0-8.7-4-8.7-10.2 0-5.8 2.8-10.3 8.6-10.3 2.9 0 4.8 1 5.8 2.5h.1v-2h5.1v20.2c0 5.6-3.1 8.7-9.7 8.7-5.8.1-9.4-1.9-9.6-6.8zm14.2-12.2c0-4-2-6-4.7-6s-4.7 2-4.7 6c0 3.9 2 6 4.7 6 2.7-.1 4.7-2.1 4.7-6z"/><path d="m465.2 483.3h5.2v2.3h.1c1.2-1.7 3.3-2.7 5.8-2.7 4.3 0 7.3 2 7.3 7.1v13.7h-5.2v-12.4c0-2.9-1.5-3.9-3.7-3.9-2.5 0-4.2 1.7-4.2 4.1v12.2h-5.2v-20.4z"/><path d="m508.9 475h5.9l10.9 28.7h-6l-2.1-6h-11.7l-2.2 6h-5.9zm7 18-4.1-11.5h-.1l-4.2 11.5z"/><path d="m525.6 483.3h5.3l3.5 13.8h.1l3.9-13.8h5l3.8 13.8h.1l3.8-13.8h5.2l-6.6 20.4h-4.8l-3.8-13.4h-.1l-4 13.4h-5z"/><path d="m557.3 498.4c0-4 2.6-6 8.8-7.2l4.3-.8v-.8c0-2.2-.7-3.2-3.3-3.2-2.3 0-3.7.9-3.7 3.1l-5-.3c.3-4.7 3.6-6.5 9.1-6.5 5.6 0 8.2 2.3 8.2 6.4v9.2c0 2.1.2 3.9.5 5.4h-5.1c-.2-.5-.3-1.6-.3-2.5-1.3 2.1-4 2.9-6.6 2.9-4.3 0-6.9-2.2-6.9-5.7zm13.1-2.4v-2l-3.8.8c-3 .6-4 1.5-4 3.1s1.2 2.5 3.1 2.5c2.5-.1 4.7-1.4 4.7-4.4z"/><path d="m580.3 483.3h5.2v3h.1c1.3-2.3 3.3-3.2 5.9-3.2h.6l-.5 4.9c-.5-.1-.9-.1-1.4-.1-2.9 0-4.6 1.8-4.6 4.7v11h-5.2v-20.3z"/><path d="m593.6 493.5c0-6.4 2.8-10.7 8.8-10.7 2.9 0 5 1.2 6.1 2.8h.1v-10.6h5.2v28.7h-5.2v-2.3h-.1c-1 1.6-3.2 2.7-6 2.7-6 0-8.9-4.3-8.9-10.6zm15 0c0-3.7-1.6-6.3-4.8-6.3s-4.8 2.6-4.8 6.3 1.6 6.3 4.8 6.3 4.8-2.6 4.8-6.3z"/><path d="m616.8 499 3.9-2.4c1.4 2.4 3.4 3.5 6.3 3.5 2.2 0 3.5-.9 3.5-2.2 0-1.4-1.1-2-4.6-2.5-4.5-.7-7.6-2.5-7.6-6.4s3.4-6.3 8.1-6.3c4.1 0 7.2 1.4 8.7 4l-3.4 2.5c-1.2-1.7-2.9-2.5-5.2-2.5-1.8 0-3 .7-3 1.8 0 1.4 1.4 2 4.9 2.6 4.4.7 7.3 2.5 7.3 6.4 0 4.3-3.7 6.7-8.7 6.7s-8.9-1.8-10.2-5.2z"/><path d="m77 525.4h5.2v4.6h-5.2zm0 8.3h5.2v20.3h-5.2z"/><path d="m85.1 549.3 3.9-2.4c1.4 2.4 3.4 3.5 6.3 3.5 2.2 0 3.5-.9 3.5-2.2 0-1.4-1.1-2-4.6-2.5-4.5-.7-7.6-2.5-7.6-6.4s3.4-6.3 8.1-6.3c4.1 0 7.2 1.4 8.7 4l-3.4 2.5c-1.2-1.7-2.9-2.5-5.2-2.5-1.8 0-3 .7-3 1.8 0 1.4 1.4 2 4.9 2.6 4.4.7 7.3 2.5 7.3 6.4 0 4.3-3.7 6.7-8.7 6.7-5 .1-8.8-1.7-10.2-5.2z"/><path d="m117.8 548.8c0-4 2.6-6 8.8-7.2l4.3-.8v-.8c0-2.2-.7-3.2-3.3-3.2-2.3 0-3.7.9-3.7 3.1l-5-.3c.3-4.7 3.6-6.5 9.1-6.5 5.6 0 8.2 2.3 8.2 6.4v9.2c0 2.1.2 3.9.5 5.4h-5.1c-.2-.5-.3-1.6-.3-2.5-1.3 2.1-4 2.9-6.6 2.9-4.3 0-6.9-2.2-6.9-5.7zm13.1-2.4v-2.1l-3.8.8c-3 .6-4 1.5-4 3.1s1.2 2.5 3.1 2.5c2.4 0 4.7-1.4 4.7-4.3z"/><path d="m140.8 533.7h5.2v2.3h.1c1.2-1.7 3.3-2.7 5.8-2.7 4.3 0 7.3 2 7.3 7.1v13.6h-5.2v-12.4c0-2.9-1.5-3.9-3.7-3.9-2.5 0-4.2 1.7-4.2 4.1v12.2h-5.2v-20.3z"/><path d="m174.2 548.8c0-4 2.6-6 8.8-7.2l4.3-.8v-.8c0-2.2-.7-3.2-3.3-3.2-2.3 0-3.7.9-3.7 3.1l-5-.3c.3-4.7 3.6-6.5 9.1-6.5 5.6 0 8.2 2.3 8.2 6.4v9.2c0 2.1.2 3.9.5 5.4h-5.1c-.2-.5-.3-1.6-.3-2.5-1.3 2.1-4 2.9-6.6 2.9-4.3 0-6.9-2.2-6.9-5.7zm13.1-2.4v-2.1l-3.8.8c-3 .6-4 1.5-4 3.1s1.2 2.5 3.1 2.5c2.5 0 4.7-1.4 4.7-4.3z"/><path d="m197.2 533.7h5.2v2.3h.1c1.2-1.7 3.3-2.7 5.8-2.7 4.3 0 7.3 2 7.3 7.1v13.6h-5.2v-12.4c0-2.9-1.5-3.9-3.7-3.9-2.5 0-4.2 1.7-4.2 4.1v12.2h-5.2v-20.3z"/><path d="m220.3 533.7h5.2v2.3h.1c1.2-1.7 3.3-2.7 5.8-2.7 4.3 0 7.3 2 7.3 7.1v13.6h-5.2v-12.4c0-2.9-1.5-3.9-3.7-3.9-2.5 0-4.2 1.7-4.2 4.1v12.2h-5.2v-20.3z"/><path d="m243.2 547.5v-13.8h5.2v12.3c0 2.8 1.4 3.9 3.7 3.9 2.5 0 4.1-1.6 4.1-4.1v-12.2h5.2v20.4h-5.2v-2.3h-.1c-1.2 1.7-3.3 2.8-5.8 2.8-4.2 0-7.1-2-7.1-7z"/><path d="m265.1 548.8c0-4 2.6-6 8.8-7.2l4.3-.8v-.8c0-2.2-.7-3.2-3.3-3.2-2.3 0-3.7.9-3.7 3.1l-5-.3c.3-4.7 3.6-6.5 9.1-6.5 5.6 0 8.2 2.3 8.2 6.4v9.2c0 2.1.2 3.9.5 5.4h-5.1c-.2-.5-.3-1.6-.3-2.5-1.3 2.1-4 2.9-6.6 2.9-4.3 0-6.9-2.2-6.9-5.7zm13.1-2.4v-2.1l-3.8.8c-3 .6-4 1.5-4 3.1s1.2 2.5 3.1 2.5c2.5 0 4.7-1.4 4.7-4.3z"/><path d="m288.1 525.4h5.2v28.6h-5.2z"/><path d="m308.5 543.8c0-6.4 3.5-10.7 9.8-10.7 5.2 0 8.3 2.8 9.3 6.4l-4.6 1.3c-.6-2.1-2.1-3.3-4.3-3.3-3.2 0-4.8 2.5-4.8 6.4s1.6 6.4 4.8 6.4c2.5 0 3.9-1.6 4.5-3.7l4.6 1.2c-1 4-4.1 6.9-9.3 6.9-6.4-.1-10-4.1-10-10.9z"/><path d="m330 543.8c0-6.6 4-10.7 10.2-10.7s10.2 4.1 10.2 10.7-4 10.7-10.2 10.7-10.2-4.1-10.2-10.7zm15.1 0c0-3.8-1.7-6.4-4.9-6.4s-4.9 2.6-4.9 6.4 1.7 6.4 4.9 6.4 4.9-2.6 4.9-6.4z"/><path d="m354.1 533.7h5.2v2.3h.1c1.1-1.7 3.2-2.7 5.7-2.7 2.7 0 4.8 1 6 2.9 1.4-2 3.6-2.9 6.2-2.9 3.9 0 7.1 2 7.1 7.4v13.3h-5.2v-12.4c0-2.5-1.1-3.9-3.5-3.9-2.3 0-3.8 1.7-3.8 4.1v12.2h-5.2v-12.4c0-2.5-1.1-3.9-3.5-3.9-2.3 0-3.8 1.7-3.8 4.1v12.2h-5.2v-20.3z"/><path d="m389.1 533.7h5.2v2.3h.1c1-1.6 3.1-2.8 6.1-2.8 6 0 8.8 4.3 8.8 10.7s-2.8 10.7-8.9 10.7c-2.9 0-5-1.1-6-2.7h-.1v10.3h-5.2zm14.8 10.1c0-3.7-1.6-6.3-4.8-6.3s-4.8 2.6-4.8 6.3 1.6 6.3 4.8 6.3 4.8-2.5 4.8-6.3z"/><path d="m412 544c0-6.6 3.4-10.9 9.8-10.9 6.7 0 9.8 4.8 9.8 10.9v1.1h-14.2c0 3.2 1.7 5.4 5 5.4 2.4 0 4-1.2 5-3.4l3.9 2c-1.8 3.5-4.9 5.6-9.3 5.6-6.6-.1-10-4.4-10-10.7zm14.3-2.4c-.2-2.8-1.7-4.6-4.5-4.6s-4.2 1.9-4.4 4.6z"/><path d="m436.2 548.4v-10.7h-3.2v-4h3.1v-5.8h5.2v5.8h3.4v4h-3.4v10.5c0 1.4.5 1.9 1.8 1.9.5 0 .9-.1 1.4-.2l.4 4c-.7.2-1.8.4-3.4.4-4 0-5.3-2-5.3-5.9z"/><path d="m448.2 525.4h5.2v4.6h-5.2zm0 8.3h5.2v20.3h-5.2z"/><path d="m459.3 548.4v-10.7h-3.1v-4h3.1v-5.8h5.2v5.8h3.4v4h-3.4v10.5c0 1.4.5 1.9 1.8 1.9.5 0 .9-.1 1.4-.2l.4 4c-.7.2-1.8.4-3.4.4-4 0-5.4-2-5.4-5.9z"/><path d="m471.4 525.4h5.2v4.6h-5.2zm0 8.3h5.2v20.3h-5.2z"/><path d="m480.3 543.8c0-6.6 4-10.7 10.2-10.7s10.2 4.1 10.2 10.7-4 10.7-10.2 10.7-10.2-4.1-10.2-10.7zm15.1 0c0-3.8-1.7-6.4-4.9-6.4s-4.9 2.6-4.9 6.4 1.7 6.4 4.9 6.4 4.9-2.6 4.9-6.4z"/><path d="m504.4 533.7h5.2v2.3h.1c1.2-1.7 3.3-2.7 5.8-2.7 4.3 0 7.3 2 7.3 7.1v13.6h-5.2v-12.4c0-2.9-1.5-3.9-3.7-3.9-2.5 0-4.2 1.7-4.2 4.1v12.2h-5.2v-20.3z"/><path d="m537.3 549.3 3.9-2.4c1.4 2.4 3.4 3.5 6.3 3.5 2.2 0 3.5-.9 3.5-2.2 0-1.4-1.1-2-4.6-2.5-4.5-.7-7.6-2.5-7.6-6.4s3.4-6.3 8.1-6.3c4.1 0 7.2 1.4 8.7 4l-3.4 2.5c-1.2-1.7-2.9-2.5-5.2-2.5-1.8 0-3 .7-3 1.8 0 1.4 1.4 2 4.9 2.6 4.4.7 7.3 2.5 7.3 6.4 0 4.3-3.7 6.7-8.7 6.7-5 .1-8.9-1.7-10.2-5.2z"/><path d="m559.5 525.4h5.2v10.5h.1c1.2-1.7 3.3-2.7 5.8-2.7 4.3 0 7.3 2 7.3 7.1v13.7h-5.2v-12.4c0-2.9-1.5-3.9-3.7-3.9-2.5 0-4.2 1.7-4.2 4.1v12.2h-5.2v-28.6z"/><path d="m581.5 543.8c0-6.6 4-10.7 10.2-10.7s10.2 4.1 10.2 10.7-4 10.7-10.2 10.7-10.2-4.1-10.2-10.7zm15.1 0c0-3.8-1.7-6.4-4.9-6.4s-4.9 2.6-4.9 6.4 1.7 6.4 4.9 6.4 4.9-2.6 4.9-6.4z"/><path d="m603 533.7h5.3l3.5 13.8h.1l3.9-13.8h5l3.8 13.8h.1l3.8-13.8h5.2l-6.6 20.4h-4.8l-3.8-13.4h-.1l-4 13.4h-5z"/><path d="m634.8 543.8c0-6.4 3.5-10.7 9.8-10.7 5.2 0 8.3 2.8 9.3 6.4l-4.6 1.3c-.6-2.1-2.1-3.3-4.3-3.3-3.2 0-4.7 2.5-4.7 6.4s1.6 6.4 4.8 6.4c2.5 0 3.9-1.6 4.5-3.7l4.6 1.2c-1 4-4.1 6.9-9.3 6.9-6.5-.1-10.1-4.1-10.1-10.9z"/><path d="m656.4 548.8c0-4 2.6-6 8.8-7.2l4.3-.8v-.8c0-2.2-.7-3.2-3.3-3.2-2.3 0-3.7.9-3.7 3.1l-5-.3c.3-4.7 3.6-6.5 9.1-6.5 5.6 0 8.2 2.3 8.2 6.4v9.2c0 2.1.2 3.9.5 5.4h-5.3c-.2-.5-.3-1.6-.3-2.5-1.3 2.1-4 2.9-6.6 2.9-4.1 0-6.7-2.2-6.7-5.7zm13.1-2.4v-2.1l-3.8.8c-3 .6-4 1.5-4 3.1s1.2 2.5 3.1 2.5c2.5 0 4.7-1.4 4.7-4.3z"/><path d="m677.5 549.3 3.9-2.4c1.4 2.4 3.4 3.5 6.3 3.5 2.2 0 3.5-.9 3.5-2.2 0-1.4-1.1-2-4.6-2.5-4.5-.7-7.6-2.5-7.6-6.4s3.4-6.3 8.1-6.3c4.1 0 7.2 1.4 8.7 4l-3.4 2.5c-1.2-1.7-2.9-2.5-5.2-2.5-1.8 0-3 .7-3 1.8 0 1.4 1.4 2 4.9 2.6 4.4.7 7.3 2.5 7.3 6.4 0 4.3-3.7 6.7-8.7 6.7-5 .1-8.8-1.7-10.2-5.2z"/><path d="m699.8 525.4h5.2v4.6h-5.2zm0 8.3h5.2v20.3h-5.2z"/><path d="m709.7 533.7h5.2v2.3h.1c1.2-1.7 3.3-2.7 5.8-2.7 4.3 0 7.3 2 7.3 7.1v13.6h-5.2v-12.4c0-2.9-1.5-3.9-3.7-3.9-2.5 0-4.2 1.7-4.2 4.1v12.2h-5.2v-20.3z"/><path d="m732.1 555.7 5.2-.4c.1 2.3 1.8 3.3 4.4 3.3 3.5 0 4.6-1.5 4.6-5v-2.5h-.1c-1.1 1.5-3.1 2.5-5.7 2.5-5.8 0-8.7-4-8.7-10.2 0-5.8 2.8-10.3 8.6-10.3 2.9 0 4.8 1 5.8 2.5h.1v-2h5.1v20.2c0 5.6-3.1 8.7-9.7 8.7-5.9.1-9.4-1.9-9.6-6.8zm14.2-12.3c0-4-2-6-4.7-6s-4.7 2-4.7 6c0 3.9 2 6 4.7 6s4.7-2 4.7-6z"/><path d="m78 598.7v-10.7h-3.1v-4h3.1v-5.8h5.2v5.8h3.4v4h-3.4v10.5c0 1.4.5 1.9 1.8 1.9.5 0 .9-.1 1.4-.2l.4 4c-.7.2-1.8.4-3.4.4-4.1 0-5.4-1.9-5.4-5.9z"/><path d="m90 575.7h5.2v10.5h.1c1.2-1.7 3.3-2.7 5.8-2.7 4.3 0 7.3 2 7.3 7.1v13.7h-5.2v-12.3c0-2.9-1.5-3.9-3.7-3.9-2.5 0-4.2 1.7-4.2 4.1v12.2h-5.3z"/><path d="m111.9 594.3c0-6.6 3.4-10.9 9.8-10.9 6.7 0 9.8 4.8 9.8 10.9v1.1h-14.2c0 3.2 1.7 5.4 5 5.4 2.4 0 4-1.2 5-3.4l3.9 2c-1.8 3.5-4.9 5.6-9.3 5.6-6.5-.1-10-4.4-10-10.7zm14.3-2.3c-.2-2.8-1.7-4.6-4.5-4.6s-4.2 1.9-4.4 4.6z"/><path d="m152 602.1-.1 2.3h-5.2v-28.7h5.2v10.6h.1c1-1.6 3.1-2.8 6.1-2.8 6 0 8.8 4.3 8.8 10.7s-2.8 10.7-8.9 10.7c-2.8 0-5-1.2-6-2.8zm9.6-7.9c0-3.7-1.6-6.3-4.8-6.3s-4.8 2.6-4.8 6.3 1.6 6.3 4.8 6.3 4.8-2.6 4.8-6.3z"/><path d="m169.6 594.3c0-6.6 3.4-10.9 9.8-10.9 6.7 0 9.8 4.8 9.8 10.9v1.1h-14.2c0 3.2 1.7 5.4 5 5.4 2.4 0 4-1.2 5-3.4l3.9 2c-1.8 3.5-4.9 5.6-9.3 5.6-6.5-.1-10-4.4-10-10.7zm14.3-2.3c-.2-2.8-1.7-4.6-4.5-4.6s-4.2 1.9-4.4 4.6z"/><path d="m191.2 599.7 3.9-2.4c1.4 2.4 3.4 3.5 6.3 3.5 2.2 0 3.5-.9 3.5-2.2 0-1.4-1.1-2-4.6-2.5-4.5-.7-7.6-2.5-7.6-6.4s3.4-6.3 8.1-6.3c4.1 0 7.2 1.4 8.7 4l-3.5 2.6c-1.2-1.7-2.9-2.5-5.2-2.5-1.8 0-3 .7-3 1.8 0 1.4 1.4 2 4.9 2.6 4.4.7 7.3 2.5 7.3 6.4 0 4.3-3.7 6.7-8.7 6.7-4.9-.1-8.7-1.9-10.1-5.3z"/><path d="m214.8 598.7v-10.7h-3.1v-4h3.1v-5.8h5.2v5.8h3.4v4h-3.4v10.5c0 1.4.5 1.9 1.8 1.9.5 0 .9-.1 1.4-.2l.4 4c-.7.2-1.8.4-3.4.4-4 0-5.4-1.9-5.4-5.9z"/><path d="m237.8 606 5.2-.4c.1 2.3 1.8 3.3 4.4 3.3 3.5 0 4.6-1.5 4.6-5v-2.5h-.1c-1.1 1.5-3.1 2.5-5.7 2.5-5.8 0-8.7-4-8.7-10.2 0-5.8 2.8-10.3 8.6-10.3 2.9 0 4.8 1 5.8 2.5h.1v-2h5.1v20.2c0 5.6-3.1 8.7-9.7 8.7-5.8.1-9.4-1.9-9.6-6.8zm14.2-12.2c0-4-2-6-4.7-6s-4.7 2-4.7 6c0 3.9 2 6 4.7 6 2.7-.1 4.7-2.1 4.7-6z"/><path d="m261.8 584h5.2v3h.1c1.3-2.3 3.3-3.2 5.9-3.2h.6l-.5 4.9c-.5-.1-.9-.1-1.4-.1-2.9 0-4.6 1.8-4.6 4.8v11h-5.2v-20.4z"/><path d="m274.9 599.1c0-4 2.6-6 8.8-7.2l4.3-.8v-.8c0-2.2-.7-3.2-3.3-3.2-2.3 0-3.7.9-3.7 3.1l-5-.3c.3-4.7 3.6-6.5 9.1-6.5 5.6 0 8.2 2.3 8.2 6.4v9.2c0 2.1.2 3.9.5 5.4h-5.1c-.2-.5-.3-1.6-.3-2.5-1.3 2.1-4 2.9-6.6 2.9-4.3.1-6.9-2.2-6.9-5.7zm13.1-2.4v-2.1l-3.8.8c-3 .6-4 1.5-4 3.1s1.2 2.5 3.1 2.5c2.5 0 4.7-1.3 4.7-4.3z"/><path d="m297.9 584h5.2v2.3h.1c1-1.6 3.1-2.8 6.1-2.8 6 0 8.8 4.3 8.8 10.7s-2.8 10.7-8.9 10.7c-2.9 0-5-1.1-6-2.7h-.1v10.3h-5.2zm14.9 10.2c0-3.7-1.6-6.3-4.8-6.3s-4.8 2.6-4.8 6.3 1.6 6.3 4.8 6.3 4.8-2.6 4.8-6.3z"/><path d="m321.9 575.7h5.2v10.5h.1c1.2-1.7 3.3-2.7 5.8-2.7 4.3 0 7.3 2 7.3 7.1v13.7h-5.3v-12.3c0-2.9-1.5-3.9-3.7-3.9-2.5 0-4.2 1.7-4.2 4.1v12.2h-5.2z"/><path d="m344.9 575.7h5.2v4.6h-5.2zm0 8.3h5.2v20.4h-5.2z"/><path d="m353.8 594.2c0-6.4 3.5-10.7 9.8-10.7 5.2 0 8.3 2.8 9.3 6.4l-4.6 1.3c-.6-2.1-2.1-3.3-4.3-3.3-3.2 0-4.8 2.5-4.8 6.4s1.6 6.4 4.8 6.4c2.5 0 3.9-1.6 4.5-3.7l4.6 1.2c-1 4-4.1 6.9-9.3 6.9-6.4-.2-10-4.1-10-10.9z"/><path d="m387 594.2c0-6.4 2.8-10.7 8.8-10.7 2.9 0 5 1.2 6.1 2.8h.1v-10.6h5.2v28.7h-5.2v-2.3h-.1c-1 1.6-3.2 2.7-6 2.7-6.1.1-8.9-4.2-8.9-10.6zm15 0c0-3.7-1.6-6.3-4.8-6.3s-4.8 2.6-4.8 6.3 1.6 6.3 4.8 6.3 4.8-2.6 4.8-6.3z"/><path d="m410.8 594.3c0-6.6 3.4-10.9 9.8-10.9 6.7 0 9.8 4.8 9.8 10.9v1.1h-14.2c0 3.2 1.7 5.4 5 5.4 2.4 0 4-1.2 5-3.4l3.9 2c-1.8 3.5-4.9 5.6-9.3 5.6-6.5-.1-10-4.4-10-10.7zm14.3-2.3c-.2-2.8-1.7-4.6-4.5-4.6s-4.2 1.9-4.4 4.6z"/><path d="m432.5 599.7 3.9-2.4c1.4 2.4 3.4 3.5 6.3 3.5 2.2 0 3.5-.9 3.5-2.2 0-1.4-1.1-2-4.6-2.5-4.5-.7-7.6-2.5-7.6-6.4s3.4-6.3 8.1-6.3c4.1 0 7.2 1.4 8.7 4l-3.4 2.5c-1.2-1.7-2.9-2.5-5.2-2.5-1.8 0-3 .7-3 1.8 0 1.4 1.4 2 4.9 2.6 4.4.7 7.3 2.5 7.3 6.4 0 4.3-3.7 6.7-8.7 6.7s-8.9-1.8-10.2-5.2z"/><path d="m454.7 575.7h5.2v4.6h-5.2zm0 8.3h5.2v20.4h-5.2z"/><path d="m464 606 5.2-.4c.1 2.3 1.8 3.3 4.4 3.3 3.5 0 4.6-1.5 4.6-5v-2.5h-.1c-1.1 1.5-3.1 2.5-5.7 2.5-5.8 0-8.7-4-8.7-10.2 0-5.8 2.8-10.3 8.6-10.3 2.9 0 4.8 1 5.8 2.5h.1v-2h5.1v20.2c0 5.6-3.1 8.7-9.7 8.7-5.8.1-9.4-1.9-9.6-6.8zm14.2-12.2c0-4-2-6-4.7-6s-4.7 2-4.7 6c0 3.9 2 6 4.7 6 2.8-.1 4.7-2.1 4.7-6z"/><path d="m488 584h5.2v2.3h.1c1.2-1.7 3.3-2.7 5.8-2.7 4.3 0 7.3 2 7.3 7.1v13.7h-5.2v-12.4c0-2.9-1.5-3.9-3.7-3.9-2.5 0-4.2 1.7-4.2 4.1v12.2h-5.3z"/><path d="m509.2 599.7 3.9-2.4c1.4 2.4 3.4 3.5 6.3 3.5 2.2 0 3.5-.9 3.5-2.2 0-1.4-1.1-2-4.6-2.5-4.5-.7-7.6-2.5-7.6-6.4s3.4-6.3 8.1-6.3c4.1 0 7.2 1.4 8.7 4l-3.5 2.6c-1.2-1.7-2.9-2.5-5.2-2.5-1.8 0-3 .7-3 1.8 0 1.4 1.4 2 4.9 2.6 4.4.7 7.3 2.5 7.3 6.4 0 4.3-3.7 6.7-8.7 6.7-4.9-.1-8.7-1.9-10.1-5.3z"/><path d="m543.1 575.7h5.2v4.6h-5.2zm0 8.3h5.2v20.4h-5.2z"/><path d="m553 584h5.2v2.3h.1c1.2-1.7 3.3-2.7 5.8-2.7 4.3 0 7.3 2 7.3 7.1v13.7h-5.2v-12.4c0-2.9-1.5-3.9-3.7-3.9-2.5 0-4.2 1.7-4.2 4.1v12.2h-5.3z"/><path d="m586.5 599.1c0-4 2.6-6 8.8-7.2l4.3-.8v-.8c0-2.2-.7-3.2-3.3-3.2-2.3 0-3.7.9-3.7 3.1l-5-.3c.3-4.7 3.6-6.5 9.1-6.5 5.6 0 8.2 2.3 8.2 6.4v9.2c0 2.1.2 3.9.5 5.4h-5.1c-.2-.5-.3-1.6-.3-2.5-1.3 2.1-4 2.9-6.6 2.9-4.3.1-6.9-2.2-6.9-5.7zm13.1-2.4v-2.1l-3.8.8c-3 .6-4 1.5-4 3.1s1.2 2.5 3.1 2.5c2.5 0 4.7-1.3 4.7-4.3z"/><path d="m609.5 575.7h5.2v28.7h-5.2z"/><path d="m619.4 575.7h5.2v28.7h-5.2z"/><path d="m639.9 599.1c0-4 2.6-6 8.8-7.2l4.3-.8v-.8c0-2.2-.7-3.2-3.3-3.2-2.3 0-3.7.9-3.7 3.1l-5-.3c.3-4.7 3.6-6.5 9.1-6.5 5.6 0 8.2 2.3 8.2 6.4v9.2c0 2.1.2 3.9.5 5.4h-5.1c-.2-.5-.3-1.6-.3-2.5-1.3 2.1-4 2.9-6.6 2.9-4.3.1-6.9-2.2-6.9-5.7zm13.1-2.4v-2.1l-3.8.8c-3 .6-4 1.5-4 3.1s1.2 2.5 3.1 2.5c2.4 0 4.7-1.3 4.7-4.3z"/><path d="m662.9 584h5.2v3h.1c1.3-2.3 3.3-3.2 5.9-3.2h.6l-.5 4.9c-.5-.1-.9-.1-1.4-.1-2.9 0-4.6 1.8-4.6 4.8v11h-5.2v-20.4z"/><path d="m676.1 594.3c0-6.6 3.4-10.9 9.8-10.9 6.7 0 9.8 4.8 9.8 10.9v1.1h-14.2c0 3.2 1.7 5.4 5 5.4 2.4 0 4-1.2 5-3.4l3.9 2c-1.8 3.5-4.9 5.6-9.3 5.6-6.5-.1-10-4.4-10-10.7zm14.3-2.3c-.2-2.8-1.7-4.6-4.5-4.6s-4.2 1.9-4.4 4.6z"/><path d="m698 599.1c0-4 2.6-6 8.8-7.2l4.3-.8v-.8c0-2.2-.7-3.2-3.3-3.2-2.3 0-3.7.9-3.7 3.1l-5-.3c.3-4.7 3.6-6.5 9.1-6.5 5.6 0 8.2 2.3 8.2 6.4v9.2c0 2.1.2 3.9.5 5.4h-5.1c-.2-.5-.3-1.6-.3-2.5-1.3 2.1-4 2.9-6.6 2.9-4.3.1-6.9-2.2-6.9-5.7zm13.1-2.4v-2.1l-3.8.8c-3 .6-4 1.5-4 3.1s1.2 2.5 3.1 2.5c2.5 0 4.7-1.3 4.7-4.3z"/><path d="m719.1 599.7 3.9-2.4c1.4 2.4 3.4 3.5 6.3 3.5 2.2 0 3.5-.9 3.5-2.2 0-1.4-1.1-2-4.6-2.5-4.5-.7-7.6-2.5-7.6-6.4s3.4-6.3 8.1-6.3c4.1 0 7.2 1.4 8.7 4l-3.4 2.5c-1.2-1.7-2.9-2.5-5.2-2.5-1.8 0-3 .7-3 1.8 0 1.4 1.4 2 4.9 2.6 4.4.7 7.3 2.5 7.3 6.4 0 4.3-3.7 6.7-8.7 6.7s-8.8-1.8-10.2-5.2z"/><path d="m75.8 644.5c0-6.6 4-10.7 10.2-10.7s10.2 4.1 10.2 10.7-4 10.7-10.2 10.7-10.2-4.1-10.2-10.7zm15.1 0c0-3.8-1.7-6.4-4.9-6.4s-4.9 2.6-4.9 6.4 1.7 6.4 4.9 6.4 4.9-2.6 4.9-6.4z"/><path d="m100.9 638.3h-3.1v-4h3.1v-2.4c0-4.2 1.7-6.2 5.9-6.2 1.4 0 2.7.2 3.3.4l-.2 3.8c-.5-.1-1-.2-1.7-.2-1.4 0-2.1.6-2.1 2.1v2.5h3.5v4h-3.5v16.4h-5.2z"/><path d="m122.2 634.4h5.4l4.6 13.9h.1l4.5-13.9h5.4l-7.5 20.4h-5z"/><path d="m144.8 626.1h5.2v4.6h-5.2zm0 8.3h5.2v20.4h-5.2z"/><path d="m152.9 650.1 3.9-2.4c1.4 2.4 3.4 3.5 6.3 3.5 2.2 0 3.5-.9 3.5-2.2 0-1.4-1.1-2-4.6-2.5-4.5-.7-7.6-2.5-7.6-6.4s3.4-6.3 8.1-6.3c4.1 0 7.2 1.4 8.7 4l-3.4 2.5c-1.2-1.7-2.9-2.5-5.2-2.5-1.8 0-3 .7-3 1.8 0 1.4 1.4 2 4.9 2.6 4.4.7 7.3 2.5 7.3 6.4 0 4.3-3.7 6.7-8.7 6.7s-8.8-1.8-10.2-5.2z"/><path d="m175 648.2v-13.8h5.2v12.4c0 2.8 1.4 3.9 3.7 3.9 2.5 0 4.1-1.6 4.1-4.1v-12.2h5.2v20.4h-5.2v-2.3c-1.2 1.7-3.3 2.8-5.8 2.8-4.2-.1-7.2-2.1-7.2-7.1z"/><path d="m196.9 649.5c0-4 2.6-6 8.8-7.2l4.3-.8v-.8c0-2.2-.7-3.2-3.3-3.2-2.3 0-3.7.9-3.7 3.1l-5-.3c.3-4.7 3.6-6.5 9.1-6.5 5.6 0 8.2 2.3 8.2 6.4v9.2c0 2.1.2 3.9.5 5.4h-5.1c-.2-.5-.3-1.6-.3-2.5-1.3 2.1-4 2.9-6.6 2.9-4.3 0-6.9-2.2-6.9-5.7zm13.1-2.4v-2.1l-3.8.8c-3 .6-4 1.5-4 3.1s1.2 2.5 3.1 2.5c2.5 0 4.7-1.4 4.7-4.3z"/><path d="m219.9 626.1h5.2v28.7h-5.2z"/><path d="m240.3 644.5c0-6.4 3.5-10.7 9.8-10.7 5.2 0 8.3 2.8 9.3 6.4l-4.6 1.3c-.6-2.1-2.1-3.3-4.3-3.3-3.2 0-4.8 2.5-4.8 6.4s1.6 6.4 4.8 6.4c2.5 0 3.9-1.6 4.5-3.7l4.6 1.2c-1 4-4.1 6.9-9.3 6.9-6.4-.1-10-4.1-10-10.9z"/><path d="m261.8 644.5c0-6.6 4-10.7 10.2-10.7s10.2 4.1 10.2 10.7-4 10.7-10.2 10.7-10.2-4.1-10.2-10.7zm15.1 0c0-3.8-1.7-6.4-4.9-6.4s-4.9 2.6-4.9 6.4 1.7 6.4 4.9 6.4 4.9-2.6 4.9-6.4z"/><path d="m285.9 634.4h5.2v2.3h.1c1.1-1.7 3.2-2.7 5.7-2.7 2.7 0 4.8 1 6 2.9 1.4-2 3.6-2.9 6.2-2.9 3.9 0 7.1 2 7.1 7.4v13.5h-5.2v-12.4c0-2.5-1.1-3.9-3.5-3.9-2.3 0-3.8 1.7-3.8 4.1v12.2h-5.2v-12.4c0-2.5-1.1-3.9-3.5-3.9-2.3 0-3.8 1.7-3.8 4.1v12.2h-5.2v-20.5z"/><path d="m320.9 634.4h5.2v2.3h.1c1.1-1.7 3.2-2.7 5.7-2.7 2.7 0 4.8 1 6 2.9 1.4-2 3.6-2.9 6.2-2.9 3.9 0 7.1 2 7.1 7.4v13.5h-5.2v-12.4c0-2.5-1.1-3.9-3.5-3.9-2.3 0-3.8 1.7-3.8 4.1v12.2h-5.2v-12.4c0-2.5-1.1-3.9-3.5-3.9-2.3 0-3.8 1.7-3.8 4.1v12.2h-5.2v-20.5z"/><path d="m355.7 648.2v-13.8h5.2v12.4c0 2.8 1.4 3.9 3.7 3.9 2.5 0 4.1-1.6 4.1-4.1v-12.2h5.2v20.4h-5.2v-2.3h-.1c-1.2 1.7-3.3 2.8-5.8 2.8-4.2-.1-7.1-2.1-7.1-7.1z"/><path d="m378.8 634.4h5.2v2.3h.1c1.2-1.7 3.3-2.7 5.8-2.7 4.3 0 7.3 2 7.3 7.1v13.7h-5.2v-12.4c0-2.9-1.5-3.9-3.7-3.9-2.5 0-4.2 1.7-4.2 4.1v12.2h-5.2v-20.4z"/><path d="m401.8 626.1h5.2v4.6h-5.2zm0 8.3h5.2v20.4h-5.2z"/><path d="m410.7 644.5c0-6.4 3.5-10.7 9.8-10.7 5.2 0 8.3 2.8 9.3 6.4l-4.6 1.3c-.6-2.1-2.1-3.3-4.3-3.3-3.2 0-4.8 2.5-4.8 6.4s1.6 6.4 4.8 6.4c2.5 0 3.9-1.6 4.5-3.7l4.6 1.2c-1 4-4.1 6.9-9.3 6.9-6.3-.1-10-4.1-10-10.9z"/><path d="m432.4 649.5c0-4 2.6-6 8.8-7.2l4.3-.8v-.8c0-2.2-.7-3.2-3.3-3.2-2.3 0-3.7.9-3.7 3.1l-5-.3c.3-4.7 3.6-6.5 9.1-6.5 5.6 0 8.2 2.3 8.2 6.4v9.2c0 2.1.2 3.9.5 5.4h-5.3c-.2-.5-.3-1.6-.3-2.5-1.3 2.1-4 2.9-6.6 2.9-4.1 0-6.7-2.2-6.7-5.7zm13.1-2.4v-2.1l-3.8.8c-3 .6-4 1.5-4 3.1s1.2 2.5 3.1 2.5c2.5 0 4.7-1.4 4.7-4.3z"/><path d="m456.4 649.1v-10.7h-3.1v-4h3.1v-5.8h5.2v5.8h3.4v4h-3.4v10.5c0 1.4.5 1.9 1.8 1.9.5 0 .9-.1 1.4-.2l.4 4c-.7.2-1.8.4-3.4.4-4 0-5.4-2-5.4-5.9z"/><path d="m468.5 626.1h5.2v4.6h-5.2zm0 8.3h5.2v20.4h-5.2z"/><path d="m477.4 644.5c0-6.6 4-10.7 10.2-10.7s10.2 4.1 10.2 10.7-4 10.7-10.2 10.7-10.2-4.1-10.2-10.7zm15.1 0c0-3.8-1.7-6.4-4.9-6.4s-4.9 2.6-4.9 6.4 1.7 6.4 4.9 6.4 4.9-2.6 4.9-6.4z"/><path d="m501.5 634.4h5.2v2.3h.1c1.2-1.7 3.3-2.7 5.8-2.7 4.3 0 7.3 2 7.3 7.1v13.7h-5.2v-12.4c0-2.9-1.5-3.9-3.7-3.9-2.5 0-4.2 1.7-4.2 4.1v12.2h-5.2v-20.4z"/><path d="m537.2 638.3h-3.1v-4h3.1v-2.4c0-4.2 1.7-6.2 5.9-6.2 1.4 0 2.7.2 3.3.4l-.2 3.8c-.5-.1-1-.2-1.7-.2-1.4 0-2.1.6-2.1 2.1v2.5h3.5v4h-3.5v16.4h-5.2z"/><path d="m548.7 634.4h5.2v3h.1c1.3-2.3 3.3-3.2 5.9-3.2h.6l-.5 4.9c-.5-.1-.9-.1-1.4-.1-2.9 0-4.6 1.8-4.6 4.8v11h-5.2v-20.4z"/><path d="m561.9 644.5c0-6.6 4-10.7 10.2-10.7s10.2 4.1 10.2 10.7-4 10.7-10.2 10.7-10.2-4.1-10.2-10.7zm15.1 0c0-3.8-1.7-6.4-4.9-6.4s-4.9 2.6-4.9 6.4 1.7 6.4 4.9 6.4 4.9-2.6 4.9-6.4z"/><path d="m586 634.4h5.2v2.3h.1c1.1-1.7 3.2-2.7 5.7-2.7 2.7 0 4.8 1 6 2.9 1.4-2 3.6-2.9 6.2-2.9 3.9 0 7.1 2 7.1 7.4v13.5h-5.3v-12.4c0-2.5-1.1-3.9-3.5-3.9-2.3 0-3.8 1.7-3.8 4.1v12.2h-5.2v-12.4c0-2.5-1.1-3.9-3.5-3.9-2.3 0-3.8 1.7-3.8 4.1v12.2h-5.2z"/><path d="m632.8 626.1h12.6c6.8 0 10.5 3.5 10.5 9.1 0 6-3.8 9.3-10.5 9.3h-6.8v10.2h-5.8zm12 13.9c3.6 0 5.5-1.7 5.5-4.6 0-3-1.9-4.7-5.6-4.7h-6.2v9.3z"/><path d="m658 644.5c0-6.6 4-10.7 10.2-10.7s10.2 4.1 10.2 10.7-4 10.7-10.2 10.7-10.2-4.1-10.2-10.7zm15.1 0c0-3.8-1.7-6.4-4.9-6.4s-4.9 2.6-4.9 6.4 1.7 6.4 4.9 6.4 4.9-2.6 4.9-6.4z"/><path d="m682.1 626.1h5.2v28.7h-5.2z"/><path d="m690.9 649.5c0-4 2.6-6 8.8-7.2l4.3-.8v-.8c0-2.2-.7-3.2-3.3-3.2-2.3 0-3.7.9-3.7 3.1l-5-.3c.3-4.7 3.6-6.5 9.1-6.5 5.6 0 8.2 2.3 8.2 6.4v9.2c0 2.1.2 3.9.5 5.4h-5.1c-.2-.5-.3-1.6-.3-2.5-1.3 2.1-4 2.9-6.6 2.9-4.3 0-6.9-2.2-6.9-5.7zm13.1-2.4v-2.1l-3.8.8c-3 .6-4 1.5-4 3.1s1.2 2.5 3.1 2.5c2.5 0 4.7-1.4 4.7-4.3z"/><path d="m713.9 634.4h5.2v2.3h.1c1.2-1.7 3.3-2.7 5.8-2.7 4.3 0 7.3 2 7.3 7.1v13.7h-5.2v-12.4c0-2.9-1.5-3.9-3.7-3.9-2.5 0-4.2 1.7-4.2 4.1v12.2h-5.2v-20.4z"/><path d="m735.9 644.5c0-6.4 2.8-10.7 8.8-10.7 2.9 0 5 1.2 6.1 2.8h.1v-10.6h5.2v28.7h-5.2v-2.3h-.1c-1 1.6-3.2 2.7-6 2.7-6.1.1-8.9-4.2-8.9-10.6zm15 0c0-3.7-1.6-6.3-4.8-6.3s-4.8 2.6-4.8 6.3 1.6 6.3 4.8 6.3c3.2.1 4.8-2.5 4.8-6.3z"/><path d="m761.1 648.7h5.5v6h-5.5z"/><path d="m77.3 726.8h12.6c6.8 0 10.5 3.5 10.5 9.1 0 6-3.8 9.3-10.5 9.3h-6.9v10.2h-5.8v-28.6zm11.9 13.9c3.6 0 5.5-1.7 5.5-4.6 0-3-1.9-4.7-5.6-4.7h-6.1v9.3z"/><path d="m103.8 735.1h5.2v3h.1c1.3-2.3 3.3-3.2 5.9-3.2h.6l-.5 4.9c-.5-.1-.9-.1-1.4-.1-2.9 0-4.6 1.8-4.6 4.8v11h-5.2v-20.4z"/><path d="m117.1 745.4c0-6.6 3.4-10.9 9.8-10.9 6.7 0 9.8 4.8 9.8 10.9v1.1h-14.2c0 3.2 1.7 5.4 5 5.4 2.4 0 4-1.2 5-3.4l3.9 2c-1.8 3.5-4.9 5.6-9.3 5.6-6.6-.1-10-4.4-10-10.7zm14.2-2.4c-.2-2.8-1.7-4.6-4.5-4.6s-4.2 1.9-4.4 4.6z"/><path d="m138.7 750.8 3.9-2.4c1.4 2.4 3.4 3.5 6.3 3.5 2.2 0 3.5-.9 3.5-2.2 0-1.4-1.1-2-4.6-2.5-4.5-.7-7.6-2.5-7.6-6.4s3.4-6.3 8.1-6.3c4.1 0 7.2 1.4 8.7 4l-3.4 2.5c-1.2-1.7-2.9-2.5-5.2-2.5-1.8 0-3 .7-3 1.8 0 1.4 1.4 2 4.9 2.6 4.4.7 7.3 2.5 7.3 6.4 0 4.3-3.7 6.7-8.7 6.7s-8.9-1.8-10.2-5.2z"/><path d="m159.8 745.4c0-6.6 3.4-10.9 9.8-10.9 6.7 0 9.8 4.8 9.8 10.9v1.1h-14.2c0 3.2 1.7 5.4 5 5.4 2.4 0 4-1.2 5-3.4l3.9 2c-1.8 3.5-4.9 5.6-9.3 5.6-6.5-.1-10-4.4-10-10.7zm14.3-2.4c-.2-2.8-1.7-4.6-4.5-4.6s-4.2 1.9-4.4 4.6z"/><path d="m182.9 735.1h5.2v2.3h.1c1.2-1.7 3.3-2.7 5.8-2.7 4.3 0 7.3 2 7.3 7.1v13.7h-5.2v-12.4c0-2.9-1.5-3.9-3.7-3.9-2.5 0-4.2 1.7-4.2 4.1v12.2h-5.2v-20.4z"/><path d="m207 749.8v-10.7h-3.1v-4h3.1v-5.8h5.2v5.8h3.4v4h-3.4v10.5c0 1.4.5 1.9 1.8 1.9.5 0 .9-.1 1.4-.2l.4 4c-.7.2-1.8.4-3.4.4-4 0-5.4-1.9-5.4-5.9z"/><path d="m217.6 745.4c0-6.6 3.4-10.9 9.8-10.9 6.7 0 9.8 4.8 9.8 10.9v1.1h-14.2c0 3.2 1.7 5.4 5 5.4 2.4 0 4-1.2 5-3.4l3.9 2c-1.8 3.5-4.9 5.6-9.3 5.6-6.6-.1-10-4.4-10-10.7zm14.3-2.4c-.2-2.8-1.7-4.6-4.5-4.6s-4.2 1.9-4.4 4.6z"/><path d="m239.7 745.3c0-6.4 2.8-10.7 8.8-10.7 2.9 0 5 1.2 6.1 2.8h.1v-10.6h5.2v28.7h-5.2v-2.3h-.1c-1 1.6-3.2 2.7-6 2.7-6 0-8.9-4.3-8.9-10.6zm15.1 0c0-3.7-1.6-6.3-4.8-6.3s-4.8 2.6-4.8 6.3 1.6 6.3 4.8 6.3 4.8-2.6 4.8-6.3z"/><path d="m277.3 749.8v-10.7h-3.1v-4h3.1v-5.8h5.2v5.8h3.4v4h-3.4v10.5c0 1.4.5 1.9 1.8 1.9.5 0 .9-.1 1.4-.2l.4 4c-.7.2-1.8.4-3.4.4-4 0-5.4-1.9-5.4-5.9z"/><path d="m289.4 726.8h5.2v10.5h.1c1.2-1.7 3.3-2.7 5.8-2.7 4.3 0 7.3 2 7.3 7.1v13.7h-5.2v-12.4c0-2.9-1.5-3.9-3.7-3.9-2.5 0-4.2 1.7-4.2 4.1v12.2h-5.2v-28.6z"/><path d="m311.3 745.4c0-6.6 3.4-10.9 9.8-10.9 6.7 0 9.8 4.8 9.8 10.9v1.1h-14.2c0 3.2 1.7 5.4 5 5.4 2.4 0 4-1.2 5-3.4l3.9 2c-1.8 3.5-4.9 5.6-9.3 5.6-6.5-.1-10-4.4-10-10.7zm14.3-2.4c-.2-2.8-1.7-4.6-4.5-4.6s-4.2 1.9-4.4 4.6z"/><path d="m334.5 735.1h5.2v3h.1c1.3-2.3 3.3-3.2 5.9-3.2h.6l-.5 4.9c-.5-.1-.9-.1-1.4-.1-2.9 0-4.6 1.8-4.6 4.8v11h-5.2v-20.4z"/><path d="m347.7 745.4c0-6.6 3.4-10.9 9.8-10.9 6.7 0 9.8 4.8 9.8 10.9v1.1h-14.2c0 3.2 1.7 5.4 5 5.4 2.4 0 4-1.2 5-3.4l3.9 2c-1.8 3.5-4.9 5.6-9.3 5.6-6.5-.1-10-4.4-10-10.7zm14.3-2.4c-.2-2.8-1.7-4.6-4.5-4.6s-4.2 1.9-4.4 4.6z"/><path d="m380.7 735.1h5.3l3.5 13.8h.1l3.9-13.8h5l3.8 13.8h.1l3.8-13.8h5.2l-6.6 20.4h-4.8l-3.8-13.4h-.2l-4 13.4h-5z"/><path d="m414.2 726.8h5.2v4.6h-5.2zm0 8.3h5.2v20.4h-5.2z"/><path d="m424.1 726.8h5.2v28.7h-5.2z"/><path d="m434.1 726.8h5.2v28.7h-5.2z"/><path d="m461.1 753.2-.1 2.3h-5.2v-28.7h5.2v10.6h.1c1-1.6 3.1-2.8 6.1-2.8 6 0 8.8 4.3 8.8 10.7s-2.8 10.7-8.9 10.7c-2.8-.1-5-1.2-6-2.8zm9.5-7.9c0-3.7-1.6-6.3-4.8-6.3s-4.8 2.6-4.8 6.3 1.6 6.3 4.8 6.3 4.8-2.6 4.8-6.3z"/><path d="m478.7 745.4c0-6.6 3.4-10.9 9.8-10.9 6.7 0 9.8 4.8 9.8 10.9v1.1h-14.3c0 3.2 1.7 5.4 5 5.4 2.4 0 4-1.2 5-3.4l3.9 2c-1.8 3.5-4.9 5.6-9.3 5.6-6.5-.1-9.9-4.4-9.9-10.7zm14.3-2.4c-.2-2.8-1.7-4.6-4.5-4.6s-4.2 1.9-4.4 4.6z"/><path d="m512.2 750.2c0-4 2.6-6 8.8-7.2l4.3-.8v-.8c0-2.2-.7-3.2-3.3-3.2-2.3 0-3.7.9-3.7 3.1l-5-.3c.3-4.7 3.6-6.5 9.1-6.5 5.6 0 8.2 2.3 8.2 6.4v9.2c0 2.1.2 3.9.5 5.4h-5.1c-.2-.5-.3-1.6-.3-2.5-1.3 2.1-4 2.9-6.6 2.9-4.4 0-6.9-2.2-6.9-5.7zm13-2.4v-2.1l-3.8.8c-3 .6-4 1.5-4 3.1s1.2 2.5 3.1 2.5c2.5 0 4.7-1.4 4.7-4.3z"/><path d="m532.7 735.1h5.3l3.5 13.8h.1l3.9-13.8h5l3.8 13.8h.1l3.8-13.8h5.2l-6.6 20.4h-4.8l-3.8-13.4h-.2l-4 13.4h-5z"/><path d="m564.4 750.2c0-4 2.6-6 8.8-7.2l4.3-.8v-.8c0-2.2-.7-3.2-3.3-3.2-2.3 0-3.7.9-3.7 3.1l-5-.3c.3-4.7 3.6-6.5 9.1-6.5 5.6 0 8.2 2.3 8.2 6.4v9.2c0 2.1.2 3.9.5 5.4h-5.3c-.2-.5-.3-1.6-.3-2.5-1.3 2.1-4 2.9-6.6 2.9-4.2 0-6.7-2.2-6.7-5.7zm13.1-2.4v-2.1l-3.8.8c-3 .6-4 1.5-4 3.1s1.2 2.5 3.1 2.5c2.4 0 4.7-1.4 4.7-4.3z"/><path d="m587.4 735.1h5.2v3h.1c1.3-2.3 3.3-3.2 5.9-3.2h.6l-.5 4.9c-.5-.1-.9-.1-1.4-.1-2.9 0-4.6 1.8-4.6 4.8v11h-5.2v-20.4z"/><path d="m600.7 745.3c0-6.4 2.8-10.7 8.8-10.7 2.9 0 5 1.2 6.1 2.8h.1v-10.6h5.2v28.7h-5.2v-2.3h-.1c-1 1.6-3.2 2.7-6 2.7-6.1 0-8.9-4.3-8.9-10.6zm15 0c0-3.7-1.6-6.3-4.8-6.3s-4.8 2.6-4.8 6.3 1.6 6.3 4.8 6.3 4.8-2.6 4.8-6.3z"/><path d="m624.6 745.4c0-6.6 3.4-10.9 9.8-10.9 6.7 0 9.8 4.8 9.8 10.9v1.1h-14.2c0 3.2 1.7 5.4 5 5.4 2.4 0 4-1.2 5-3.4l3.9 2c-1.8 3.5-4.9 5.6-9.3 5.6-6.6-.1-10-4.4-10-10.7zm14.3-2.4c-.2-2.8-1.7-4.6-4.5-4.6s-4.2 1.9-4.4 4.6z"/><path d="m646.8 745.3c0-6.4 2.8-10.7 8.8-10.7 2.9 0 5 1.2 6.1 2.8h.1v-10.6h5.2v28.7h-5.2v-2.3h-.1c-1 1.6-3.2 2.7-6 2.7-6.1 0-8.9-4.3-8.9-10.6zm15 0c0-3.7-1.6-6.3-4.8-6.3s-4.8 2.6-4.8 6.3 1.6 6.3 4.8 6.3 4.8-2.6 4.8-6.3z"/><path d="m75.8 800.6c0-4 2.6-6 8.8-7.2l4.3-.8v-.8c0-2.2-.7-3.2-3.3-3.2-2.3 0-3.7.9-3.7 3.1l-5-.3c.3-4.7 3.6-6.5 9.1-6.5 5.6 0 8.2 2.3 8.2 6.4v9.2c0 2.1.2 3.9.5 5.4h-5.1c-.2-.5-.3-1.6-.3-2.5-1.3 2.1-4 2.9-6.6 2.9-4.3 0-6.9-2.2-6.9-5.7zm13.1-2.5v-2.1l-3.8.8c-3 .6-4 1.5-4 3.1s1.2 2.5 3.1 2.5c2.5.1 4.7-1.3 4.7-4.3z"/><path d="m98.8 785.4h5.2v2.3h.1c1.2-1.7 3.3-2.7 5.8-2.7 4.3 0 7.3 2 7.3 7.1v13.7h-5.2v-12.4c0-2.9-1.5-3.9-3.7-3.9-2.5 0-4.2 1.7-4.2 4.1v12.2h-5.2v-20.4z"/><path d="m120.8 795.6c0-6.4 2.8-10.7 8.8-10.7 2.9 0 5 1.2 6.1 2.8h.1v-10.6h5.2v28.7h-5.2v-2.3h-.1c-1 1.6-3.2 2.7-6 2.7-6.1.1-8.9-4.2-8.9-10.6zm15 0c0-3.7-1.6-6.3-4.8-6.3s-4.8 2.6-4.8 6.3 1.6 6.3 4.8 6.3 4.8-2.5 4.8-6.3z"/><path d="m157.5 777.1h5.2v10.5h.1c1.2-1.7 3.3-2.7 5.8-2.7 4.3 0 7.3 2 7.3 7.1v13.7h-5.2v-12.4c0-2.9-1.5-3.9-3.7-3.9-2.5 0-4.2 1.7-4.2 4.1v12.2h-5.2v-28.6z"/><path d="m179.4 795.6c0-6.6 4-10.7 10.2-10.7s10.2 4.1 10.2 10.7-4 10.7-10.2 10.7-10.2-4.1-10.2-10.7zm15.1 0c0-3.8-1.7-6.4-4.9-6.4s-4.9 2.6-4.9 6.4 1.7 6.4 4.9 6.4 4.9-2.6 4.9-6.4z"/><path d="m203.5 785.4h5.2v2.3h.1c1.2-1.7 3.3-2.7 5.8-2.7 4.3 0 7.3 2 7.3 7.1v13.7h-5.2v-12.4c0-2.9-1.5-3.9-3.7-3.9-2.5 0-4.2 1.7-4.2 4.1v12.2h-5.2v-20.4z"/><path d="m225.5 795.6c0-6.6 4-10.7 10.2-10.7s10.2 4.1 10.2 10.7-4 10.7-10.2 10.7-10.2-4.1-10.2-10.7zm15 0c0-3.8-1.7-6.4-4.9-6.4s-4.9 2.6-4.9 6.4 1.7 6.4 4.9 6.4 4.9-2.6 4.9-6.4z"/><path d="m249.4 799.2v-13.8h5.2v12.4c0 2.8 1.4 3.9 3.7 3.9 2.5 0 4.1-1.6 4.1-4.1v-12.2h5.2v20.4h-5.2v-2.3h-.1c-1.2 1.7-3.3 2.8-5.8 2.8-4.2 0-7.1-2-7.1-7.1z"/><path d="m272.5 785.4h5.2v3h.1c1.3-2.3 3.3-3.2 5.9-3.2h.6l-.5 4.9c-.5-.1-.9-.1-1.4-.1-2.9 0-4.6 1.8-4.6 4.8v11h-5.2v-20.4z"/><path d="m285.7 795.7c0-6.6 3.4-10.9 9.8-10.9 6.7 0 9.8 4.8 9.8 10.9v1.1h-14.2c0 3.2 1.7 5.4 5 5.4 2.4 0 4-1.2 5-3.4l3.9 2c-1.8 3.5-4.9 5.6-9.3 5.6-6.5 0-10-4.3-10-10.7zm14.3-2.3c-.2-2.8-1.7-4.6-4.5-4.6s-4.2 1.9-4.4 4.6z"/><path d="m307.9 795.6c0-6.4 2.8-10.7 8.8-10.7 2.9 0 5 1.2 6.1 2.8h.1v-10.6h5.2v28.7h-5.2v-2.3h-.1c-1 1.6-3.2 2.7-6 2.7-6.1.1-8.9-4.2-8.9-10.6zm15 0c0-3.7-1.6-6.3-4.8-6.3s-4.8 2.6-4.8 6.3 1.6 6.3 4.8 6.3 4.8-2.5 4.8-6.3z"/><path d="m344.5 785.4h5.2v2.3h.1c1-1.6 3.1-2.8 6.1-2.8 6 0 8.8 4.3 8.8 10.7s-2.8 10.7-8.9 10.7c-2.9 0-5-1.1-6-2.7h-.1v10.3h-5.2zm14.9 10.2c0-3.7-1.6-6.3-4.8-6.3s-4.8 2.6-4.8 6.3 1.6 6.3 4.8 6.3 4.8-2.5 4.8-6.3z"/><path d="m368.3 799.2v-13.8h5.2v12.4c0 2.8 1.4 3.9 3.7 3.9 2.5 0 4.1-1.6 4.1-4.1v-12.2h5.2v20.4h-5.2v-2.3h-.1c-1.2 1.7-3.3 2.8-5.8 2.8-4.1 0-7.1-2-7.1-7.1z"/><path d="m396.7 803.5-.1 2.3h-5.2v-28.7h5.2v10.6h.1c1-1.6 3.1-2.8 6.1-2.8 6 0 8.8 4.3 8.8 10.7s-2.8 10.7-8.9 10.7c-2.8 0-5-1.1-6-2.8zm9.6-7.9c0-3.7-1.6-6.3-4.8-6.3s-4.8 2.6-4.8 6.3 1.6 6.3 4.8 6.3 4.8-2.5 4.8-6.3z"/><path d="m415.4 777.1h5.2v28.7h-5.2z"/><path d="m425.3 777.1h5.2v4.6h-5.2zm0 8.3h5.2v20.4h-5.2z"/><path d="m434.2 795.6c0-6.4 3.5-10.7 9.8-10.7 5.2 0 8.3 2.8 9.3 6.4l-4.6 1.3c-.6-2.1-2.1-3.3-4.3-3.3-3.2 0-4.7 2.5-4.7 6.4s1.6 6.4 4.8 6.4c2.5 0 3.9-1.6 4.5-3.7l4.6 1.2c-1 4-4.1 6.9-9.3 6.9-6.5-.1-10.1-4.1-10.1-10.9z"/><path d="m455.9 800.6c0-4 2.6-6 8.8-7.2l4.3-.8v-.8c0-2.2-.7-3.2-3.3-3.2-2.3 0-3.7.9-3.7 3.1l-5-.3c.3-4.7 3.6-6.5 9.1-6.5 5.6 0 8.2 2.3 8.2 6.4v9.2c0 2.1.2 3.9.5 5.4h-5.1c-.2-.5-.3-1.6-.3-2.5-1.3 2.1-4 2.9-6.6 2.9-4.4 0-6.9-2.2-6.9-5.7zm13-2.5v-2.1l-3.8.8c-3 .6-4 1.5-4 3.1s1.2 2.5 3.1 2.5c2.5.1 4.7-1.3 4.7-4.3z"/><path d="m479.9 800.2v-10.7h-3.1v-4h3.1v-5.8h5.2v5.8h3.4v4h-3.4v10.5c0 1.4.5 1.9 1.8 1.9.5 0 .9-.1 1.4-.2l.4 4c-.7.2-1.8.4-3.4.4-4-.1-5.4-2-5.4-5.9z"/><path d="m492 777.1h5.2v4.6h-5.2zm0 8.3h5.2v20.4h-5.2z"/><path d="m500.9 795.6c0-6.6 4-10.7 10.2-10.7s10.2 4.1 10.2 10.7-4 10.7-10.2 10.7-10.2-4.1-10.2-10.7zm15 0c0-3.8-1.7-6.4-4.9-6.4s-4.9 2.6-4.9 6.4 1.7 6.4 4.9 6.4 4.9-2.6 4.9-6.4z"/><path d="m525 785.4h5.2v2.3h.1c1.2-1.7 3.3-2.7 5.8-2.7 4.3 0 7.3 2 7.3 7.1v13.7h-5.2v-12.4c0-2.9-1.5-3.9-3.7-3.9-2.5 0-4.2 1.7-4.2 4.1v12.2h-5.3z"/><path d="m546.1 801.1 3.9-2.4c1.4 2.4 3.4 3.5 6.3 3.5 2.2 0 3.5-.9 3.5-2.2 0-1.4-1.1-2-4.6-2.5-4.5-.7-7.6-2.5-7.6-6.4s3.4-6.3 8.1-6.3c4.1 0 7.2 1.4 8.7 4l-3.4 2.5c-1.2-1.7-2.9-2.5-5.2-2.5-1.8 0-3 .7-3 1.8 0 1.4 1.4 2 4.9 2.6 4.4.7 7.3 2.5 7.3 6.4 0 4.3-3.7 6.7-8.7 6.7-5 .1-8.8-1.8-10.2-5.2z"/><path d="m581 800.2v-10.7h-3.1v-4h3.1v-5.8h5.2v5.8h3.4v4h-3.4v10.5c0 1.4.5 1.9 1.8 1.9.5 0 .9-.1 1.4-.2l.4 4c-.7.2-1.8.4-3.4.4-4.1-.1-5.4-2-5.4-5.9z"/><path d="m593 777.1h5.2v10.5h.1c1.2-1.7 3.3-2.7 5.8-2.7 4.3 0 7.3 2 7.3 7.1v13.7h-5.2v-12.4c0-2.9-1.5-3.9-3.7-3.9-2.5 0-4.2 1.7-4.2 4.1v12.2h-5.3z"/><path d="m614.8 800.6c0-4 2.6-6 8.8-7.2l4.3-.8v-.8c0-2.2-.7-3.2-3.3-3.2-2.3 0-3.7.9-3.7 3.1l-5-.3c.3-4.7 3.6-6.5 9.1-6.5 5.6 0 8.2 2.3 8.2 6.4v9.2c0 2.1.2 3.9.5 5.4h-5.1c-.2-.5-.3-1.6-.3-2.5-1.3 2.1-4 2.9-6.6 2.9-4.3 0-6.9-2.2-6.9-5.7zm13.1-2.5v-2.1l-3.8.8c-3 .6-4 1.5-4 3.1s1.2 2.5 3.1 2.5c2.5.1 4.7-1.3 4.7-4.3z"/><path d="m638.9 800.2v-10.7h-3.1v-4h3.1v-5.8h5.2v5.8h3.4v4h-3.4v10.5c0 1.4.5 1.9 1.8 1.9.5 0 .9-.1 1.4-.2l.4 4c-.7.2-1.8.4-3.4.4-4.1-.1-5.4-2-5.4-5.9z"/><path d="m75.2 835.8h5.3l3.5 13.8h.1l3.9-13.8h5l3.8 13.8h.1l3.8-13.8h5.2l-6.6 20.4h-4.8l-3.8-13.4h-.1l-4 13.4h-5z"/><path d="m107 846.1c0-6.6 3.4-10.9 9.8-10.9 6.7 0 9.8 4.8 9.8 10.9v1.1h-14.2c0 3.2 1.7 5.4 5 5.4 2.4 0 4-1.2 5-3.4l3.9 2c-1.8 3.5-4.9 5.6-9.3 5.6-6.6-.1-10-4.4-10-10.7zm14.2-2.3c-.2-2.8-1.7-4.6-4.5-4.6s-4.2 1.9-4.4 4.6z"/><path d="m130.1 835.8h5.2v3h.1c1.3-2.3 3.3-3.2 5.9-3.2h.6l-.5 4.9c-.5-.1-.9-.1-1.4-.1-2.9 0-4.6 1.8-4.6 4.8v11h-5.2v-20.4z"/><path d="m143.4 846.1c0-6.6 3.4-10.9 9.8-10.9 6.7 0 9.8 4.8 9.8 10.9v1.1h-14.2c0 3.2 1.7 5.4 5 5.4 2.4 0 4-1.2 5-3.4l3.9 2c-1.8 3.5-4.9 5.6-9.3 5.6-6.6-.1-10-4.4-10-10.7zm14.3-2.3c-.2-2.8-1.7-4.6-4.5-4.6s-4.2 1.9-4.4 4.6z"/><path d="m178.2 835.8h5.2v3h.1c1.3-2.3 3.3-3.2 5.9-3.2h.6l-.5 4.9c-.5-.1-.9-.1-1.4-.1-2.9 0-4.6 1.8-4.6 4.8v11h-5.2v-20.4z"/><path d="m191.4 846.1c0-6.6 3.4-10.9 9.8-10.9 6.7 0 9.8 4.8 9.8 10.9v1.1h-14.2c0 3.2 1.7 5.4 5 5.4 2.4 0 4-1.2 5-3.4l3.9 2c-1.8 3.5-4.9 5.6-9.3 5.6-6.5-.1-10-4.4-10-10.7zm14.3-2.3c-.2-2.8-1.7-4.6-4.5-4.6s-4.2 1.9-4.4 4.6z"/><path d="m213.3 850.9c0-4 2.6-6 8.8-7.2l4.3-.8v-.8c0-2.2-.7-3.2-3.3-3.2-2.3 0-3.7.9-3.7 3.1l-5-.3c.3-4.7 3.6-6.5 9.1-6.5 5.6 0 8.2 2.3 8.2 6.4v9.2c0 2.1.2 3.9.5 5.4h-5.1c-.2-.5-.3-1.6-.3-2.5-1.3 2.1-4 2.9-6.6 2.9-4.3 0-6.9-2.2-6.9-5.7zm13.1-2.4v-2.1l-3.8.8c-3 .6-4 1.5-4 3.1s1.2 2.5 3.1 2.5c2.5 0 4.7-1.4 4.7-4.3z"/><path d="m236.3 827.5h5.2v28.7h-5.2z"/><path d="m246.2 827.5h5.2v4.6h-5.2zm0 8.3h5.2v20.4h-5.2z"/><path d="m254.7 851.8 10.9-11.9h-10v-4.1h16.2v4.3l-10.8 11.9h11.1v4.1h-17.3v-4.3z"/><path d="m274.1 846.1c0-6.6 3.4-10.9 9.8-10.9 6.7 0 9.8 4.8 9.8 10.9v1.1h-14.2c0 3.2 1.7 5.4 5 5.4 2.4 0 4-1.2 5-3.4l3.9 2c-1.8 3.5-4.9 5.6-9.3 5.6-6.6-.1-10-4.4-10-10.7zm14.3-2.3c-.2-2.8-1.7-4.6-4.5-4.6s-4.2 1.9-4.4 4.6z"/><path d="m296.3 846c0-6.4 2.8-10.7 8.8-10.7 2.9 0 5 1.2 6.1 2.8h.1v-10.6h5.2v28.7h-5.2v-2.3h-.1c-1 1.6-3.2 2.7-6 2.7-6.1 0-8.9-4.3-8.9-10.6zm15 0c0-3.7-1.6-6.3-4.8-6.3s-4.8 2.6-4.8 6.3 1.6 6.3 4.8 6.3 4.8-2.6 4.8-6.3z"/><path d="m332.9 827.5h5.2v4.6h-5.2zm0 8.3h5.2v20.4h-5.2z"/><path d="m342.9 835.8h5.2v2.3h.1c1.2-1.7 3.3-2.7 5.8-2.7 4.3 0 7.3 2 7.3 7.1v13.7h-5.3v-12.4c0-2.9-1.5-3.9-3.7-3.9-2.5 0-4.2 1.7-4.2 4.1v12.2h-5.2z"/><path d="m377.8 827.5h12.6c6.8 0 10.5 3.5 10.5 9.1 0 6-3.8 9.3-10.5 9.3h-6.8v10.2h-5.8zm12 13.9c3.6 0 5.5-1.7 5.5-4.6 0-3-1.9-4.7-5.6-4.7h-6.2v9.3z"/><path d="m403 846c0-6.6 4-10.7 10.2-10.7s10.2 4.1 10.2 10.7-4 10.7-10.2 10.7-10.2-4.1-10.2-10.7zm15.1 0c0-3.8-1.7-6.4-4.9-6.4s-4.9 2.6-4.9 6.4 1.7 6.4 4.9 6.4 4.9-2.6 4.9-6.4z"/><path d="m427.2 827.5h5.2v28.7h-5.2z"/><path d="m435.9 850.9c0-4 2.6-6 8.8-7.2l4.3-.8v-.8c0-2.2-.7-3.2-3.3-3.2-2.3 0-3.7.9-3.7 3.1l-5-.3c.3-4.7 3.6-6.5 9.1-6.5 5.6 0 8.2 2.3 8.2 6.4v9.2c0 2.1.2 3.9.5 5.4h-5.1c-.2-.5-.3-1.6-.3-2.5-1.3 2.1-4 2.9-6.6 2.9-4.3 0-6.9-2.2-6.9-5.7zm13.1-2.4v-2.1l-3.8.8c-3 .6-4 1.5-4 3.1s1.2 2.5 3.1 2.5c2.5 0 4.7-1.4 4.7-4.3z"/><path d="m458.9 835.8h5.2v2.3h.1c1.2-1.7 3.3-2.7 5.8-2.7 4.3 0 7.3 2 7.3 7.1v13.7h-5.2v-12.4c0-2.9-1.5-3.9-3.7-3.9-2.5 0-4.2 1.7-4.2 4.1v12.2h-5.2v-20.4z"/><path d="m480.9 846c0-6.4 2.8-10.7 8.8-10.7 2.9 0 5 1.2 6.1 2.8h.1v-10.6h5.2v28.7h-5.2v-2.3h-.1c-1 1.6-3.2 2.7-6 2.7-6.1 0-8.9-4.3-8.9-10.6zm15 0c0-3.7-1.6-6.3-4.8-6.3s-4.8 2.6-4.8 6.3 1.6 6.3 4.8 6.3 4.8-2.6 4.8-6.3z"/><path d="m517.6 827.5h5.2v4.6h-5.2zm0 8.3h5.2v20.4h-5.2z"/><path d="m527.5 835.8h5.2v2.3h.1c1.2-1.7 3.3-2.7 5.8-2.7 4.3 0 7.3 2 7.3 7.1v13.7h-5.2v-12.4c0-2.9-1.5-3.9-3.7-3.9-2.5 0-4.2 1.7-4.2 4.1v12.2h-5.2v-20.4z"/><path d="m561.6 851.4c10.2-6.9 13.7-10.7 13.7-15.3 0-2.9-1.7-4.6-4.3-4.6-3.1 0-4.4 1.9-5 5l-5-.9c1.1-6 4.9-8.7 10.3-8.7 5.9 0 9.4 3.5 9.4 9.1 0 6.1-3.7 10-11 15.3v.1h10.9v4.8h-18.9v-4.8z"/><path d="m584.3 841.8c0-9.6 3.4-14.9 10.5-14.9s10.5 5.3 10.5 14.9c0 9.5-3.4 14.9-10.5 14.9-7 0-10.5-5.3-10.5-14.9zm15.8 0c0-7.2-1.7-10.3-5.2-10.3s-5.2 3.1-5.2 10.3 1.7 10.3 5.2 10.3 5.2-3.2 5.2-10.3z"/><path d="m614.2 836h-5.5v-4c4.3 0 5.8-.9 6.3-4.5h4.4v28.7h-5.2z"/><path d="m625.2 848.1c0-3.6 2.1-6 4.8-7v-.1c-2.4-1-4.1-3.4-4.1-6.3 0-4.9 3.9-7.8 9.7-7.8s9.7 2.9 9.7 7.8c0 2.9-1.7 5.3-4.1 6.3v.1c2.6 1 4.8 3.4 4.8 7 0 5.5-4.1 8.6-10.4 8.6-6.4 0-10.4-3.1-10.4-8.6zm15.5-.1c0-2.8-1.9-4.5-5.1-4.5s-5.1 1.8-5.1 4.5 1.9 4.5 5.1 4.5 5.1-1.8 5.1-4.5zm-.5-12.9c0-2.4-1.7-4-4.6-4s-4.6 1.7-4.6 4c0 2.6 1.7 4.2 4.6 4.2s4.6-1.6 4.6-4.2z"/><path d="m650.6 850.1h5.5v6h-5.5z"/><path d="m83.4 882.8h-8.2v-5h22.1v5h-8.2v23.7h-5.8v-23.7z"/><path d="m100.4 877.8h5.2v10.5h.1c1.2-1.7 3.3-2.7 5.8-2.7 4.3 0 7.3 2 7.3 7.1v13.7h-5.2v-12.4c0-2.9-1.5-3.9-3.7-3.9-2.5 0-4.2 1.7-4.2 4.1v12.2h-5.2v-28.6z"/><path d="m122.4 896.4c0-6.6 3.4-10.9 9.8-10.9 6.7 0 9.8 4.8 9.8 10.9v1.1h-14.2c0 3.2 1.7 5.4 5 5.4 2.4 0 4-1.2 5-3.4l3.9 2c-1.8 3.5-4.9 5.6-9.3 5.6-6.6 0-10-4.3-10-10.7zm14.3-2.3c-.2-2.8-1.7-4.6-4.5-4.6s-4.2 1.9-4.4 4.6z"/><path d="m155.9 896.4c0-6.6 3.4-10.9 9.8-10.9 6.7 0 9.8 4.8 9.8 10.9v1.1h-14.2c0 3.2 1.7 5.4 5 5.4 2.4 0 4-1.2 5-3.4l3.9 2c-1.8 3.5-4.9 5.6-9.3 5.6-6.5 0-10-4.3-10-10.7zm14.3-2.3c-.2-2.8-1.7-4.6-4.5-4.6s-4.2 1.9-4.4 4.6z"/><path d="m182.9 895.8-6.2-9.7h5.8l3.7 6.1 3.7-6.1h5.6l-6.2 9.7 6.8 10.6h-5.8l-4.2-7-4.3 7h-5.8z"/><path d="m198.8 877.8h5.2v10.5h.1c1.2-1.7 3.3-2.7 5.8-2.7 4.3 0 7.3 2 7.3 7.1v13.7h-5.2v-12.4c0-2.9-1.5-3.9-3.7-3.9-2.5 0-4.2 1.7-4.2 4.1v12.2h-5.2v-28.6z"/><path d="m221.9 877.8h5.2v4.6h-5.2zm0 8.3h5.2v20.4h-5.2z"/><path d="m237.1 904.3-.1 2.3h-5.2v-28.7h5.2v10.6h.1c1-1.6 3.1-2.8 6.1-2.8 6 0 8.8 4.3 8.8 10.7s-2.8 10.7-8.9 10.7c-2.8-.1-5-1.2-6-2.8zm9.6-8c0-3.7-1.6-6.3-4.8-6.3s-4.8 2.6-4.8 6.3 1.6 6.3 4.8 6.3 4.8-2.5 4.8-6.3z"/><path d="m255.8 877.8h5.2v4.6h-5.2zm0 8.3h5.2v20.4h-5.2z"/><path d="m266.9 900.9v-10.7h-3.1v-4h3.1v-5.8h5.2v5.8h3.4v4h-3.4v10.5c0 1.4.5 1.9 1.8 1.9.5 0 .9-.1 1.4-.2l.4 4c-.7.2-1.8.4-3.4.4-4.1-.1-5.4-2-5.4-5.9z"/><path d="m278.9 877.8h5.2v4.6h-5.2zm0 8.3h5.2v20.4h-5.2z"/><path d="m287.8 896.3c0-6.6 4-10.7 10.2-10.7s10.2 4.1 10.2 10.7-4 10.7-10.2 10.7-10.2-4.1-10.2-10.7zm15.1 0c0-3.8-1.7-6.4-4.9-6.4s-4.9 2.6-4.9 6.4 1.7 6.4 4.9 6.4 4.9-2.6 4.9-6.4z"/><path d="m312 886.1h5.2v2.3h.1c1.2-1.7 3.3-2.7 5.8-2.7 4.3 0 7.3 2 7.3 7.1v13.7h-5.2v-12.4c0-2.9-1.5-3.9-3.7-3.9-2.5 0-4.2 1.7-4.2 4.1v12.2h-5.3z"/><path d="m344.8 886.1h5.3l3.5 13.8h.1l3.9-13.8h5l3.8 13.8h.1l3.8-13.8h5.2l-6.6 20.4h-4.8l-3.8-13.4h-.1l-4 13.4h-5z"/><path d="m378.4 877.8h5.2v4.6h-5.2zm0 8.3h5.2v20.4h-5.2z"/><path d="m388.3 877.8h5.2v28.7h-5.2z"/><path d="m398.3 877.8h5.2v28.7h-5.2z"/><path d="m418.1 901.8 3.9-2.4c1.4 2.4 3.4 3.5 6.3 3.5 2.2 0 3.5-.9 3.5-2.2 0-1.4-1.1-2-4.6-2.5-4.5-.7-7.6-2.5-7.6-6.4s3.4-6.3 8.1-6.3c4.1 0 7.2 1.4 8.7 4l-3.4 2.5c-1.2-1.7-2.9-2.5-5.2-2.5-1.8 0-3 .7-3 1.8 0 1.4 1.4 2 4.9 2.6 4.4.7 7.3 2.5 7.3 6.4 0 4.3-3.7 6.7-8.7 6.7-5 .1-8.8-1.7-10.2-5.2z"/><path d="m440.4 877.8h5.2v10.5h.1c1.2-1.7 3.3-2.7 5.8-2.7 4.3 0 7.3 2 7.3 7.1v13.7h-5.2v-12.4c0-2.9-1.5-3.9-3.7-3.9-2.5 0-4.2 1.7-4.2 4.1v12.2h-5.2v-28.6z"/><path d="m462.3 896.3c0-6.6 4-10.7 10.2-10.7s10.2 4.1 10.2 10.7-4 10.7-10.2 10.7-10.2-4.1-10.2-10.7zm15.1 0c0-3.8-1.7-6.4-4.9-6.4s-4.9 2.6-4.9 6.4 1.7 6.4 4.9 6.4 4.9-2.6 4.9-6.4z"/><path d="m483.8 886.1h5.3l3.5 13.8h.1l3.9-13.8h5l3.8 13.8h.1l3.8-13.8h5.2l-6.6 20.4h-4.8l-3.8-13.4h-.1l-4 13.4h-5z"/><path d="m515.6 896.3c0-6.4 3.5-10.7 9.8-10.7 5.2 0 8.3 2.8 9.3 6.4l-4.6 1.3c-.6-2.1-2.1-3.3-4.3-3.3-3.2 0-4.7 2.5-4.7 6.4s1.6 6.4 4.8 6.4c2.5 0 3.9-1.6 4.5-3.7l4.6 1.2c-1 4-4.1 6.9-9.3 6.9-6.5-.1-10.1-4.1-10.1-10.9z"/><path d="m537.2 901.3c0-4 2.6-6 8.8-7.2l4.3-.8v-.8c0-2.2-.7-3.2-3.3-3.2-2.3 0-3.7.9-3.7 3.1l-5-.3c.3-4.7 3.6-6.5 9.1-6.5 5.6 0 8.2 2.3 8.2 6.4v9.2c0 2.1.2 3.9.5 5.4h-5.1c-.2-.5-.3-1.6-.3-2.5-1.3 2.1-4 2.9-6.6 2.9-4.3 0-6.9-2.2-6.9-5.7zm13.1-2.4v-2.1l-3.8.8c-3 .6-4 1.5-4 3.1s1.2 2.5 3.1 2.5c2.5 0 4.7-1.4 4.7-4.3z"/><path d="m558.3 901.8 3.9-2.4c1.4 2.4 3.4 3.5 6.3 3.5 2.2 0 3.5-.9 3.5-2.2 0-1.4-1.1-2-4.6-2.5-4.5-.7-7.6-2.5-7.6-6.4s3.4-6.3 8.1-6.3c4.1 0 7.2 1.4 8.7 4l-3.4 2.5c-1.2-1.7-2.9-2.5-5.2-2.5-1.8 0-3 .7-3 1.8 0 1.4 1.4 2 4.9 2.6 4.4.7 7.3 2.5 7.3 6.4 0 4.3-3.7 6.7-8.7 6.7-5 .1-8.8-1.7-10.2-5.2z"/><path d="m579.5 896.4c0-6.6 3.4-10.9 9.8-10.9 6.7 0 9.8 4.8 9.8 10.9v1.1h-14.2c0 3.2 1.7 5.4 5 5.4 2.4 0 4-1.2 5-3.4l3.9 2c-1.8 3.5-4.9 5.6-9.3 5.6-6.6 0-10-4.3-10-10.7zm14.3-2.3c-.2-2.8-1.7-4.6-4.5-4.6s-4.2 1.9-4.4 4.6z"/><path d="m614.2 877.8h5.2v28.7h-5.2z"/><path d="m624.2 877.8h5.2v4.6h-5.2zm0 8.3h5.2v20.4h-5.2z"/><path d="m635.3 900.9v-10.7h-3.1v-4h3.1v-5.8h5.2v5.8h3.4v4h-3.4v10.5c0 1.4.5 1.9 1.8 1.9.5 0 .9-.1 1.4-.2l.4 4c-.7.2-1.8.4-3.4.4-4.1-.1-5.4-2-5.4-5.9z"/><path d="m645.8 896.4c0-6.6 3.4-10.9 9.8-10.9 6.7 0 9.8 4.8 9.8 10.9v1.1h-14.2c0 3.2 1.7 5.4 5 5.4 2.4 0 4-1.2 5-3.4l3.9 2c-1.8 3.5-4.9 5.6-9.3 5.6-6.5 0-10-4.3-10-10.7zm14.3-2.3c-.2-2.8-1.7-4.6-4.5-4.6s-4.2 1.9-4.4 4.6z"/><path d="m668.9 886.1h5.2v3h.1c1.3-2.3 3.3-3.2 5.9-3.2h.6l-.5 4.9c-.5-.1-.9-.1-1.4-.1-2.9 0-4.6 1.8-4.6 4.8v11h-5.2v-20.4z"/><path d="m682.1 901.3c0-4 2.6-6 8.8-7.2l4.3-.8v-.8c0-2.2-.7-3.2-3.3-3.2-2.3 0-3.7.9-3.7 3.1l-5-.3c.3-4.7 3.6-6.5 9.1-6.5 5.6 0 8.2 2.3 8.2 6.4v9.2c0 2.1.2 3.9.5 5.4h-5.1c-.2-.5-.3-1.6-.3-2.5-1.3 2.1-4 2.9-6.6 2.9-4.3 0-6.9-2.2-6.9-5.7zm13.1-2.4v-2.1l-3.8.8c-3 .6-4 1.5-4 3.1s1.2 2.5 3.1 2.5c2.5 0 4.7-1.4 4.7-4.3z"/><path d="m706.1 900.9v-10.7h-3.1v-4h3.1v-5.8h5.2v5.8h3.4v4h-3.4v10.5c0 1.4.5 1.9 1.8 1.9.5 0 .9-.1 1.4-.2l.4 4c-.7.2-1.8.4-3.4.4-4-.1-5.4-2-5.4-5.9z"/><path d="m717.8 899.9v-13.8h5.2v12.4c0 2.8 1.4 3.9 3.7 3.9 2.5 0 4.1-1.6 4.1-4.1v-12.2h5.2v20.4h-5.2v-2.3h-.1c-1.2 1.7-3.3 2.8-5.8 2.8-4.1 0-7.1-2-7.1-7.1z"/><path d="m740.9 886.1h5.2v3h.1c1.3-2.3 3.3-3.2 5.9-3.2h.6l-.5 4.9c-.5-.1-.9-.1-1.4-.1-2.9 0-4.6 1.8-4.6 4.8v11h-5.2v-20.4z"/><path d="m754.2 896.4c0-6.6 3.4-10.9 9.8-10.9 6.7 0 9.8 4.8 9.8 10.9v1.1h-14.2c0 3.2 1.7 5.4 5 5.4 2.4 0 4-1.2 5-3.4l3.9 2c-1.8 3.5-4.9 5.6-9.3 5.6-6.6 0-10-4.3-10-10.7zm14.2-2.3c-.2-2.8-1.7-4.6-4.5-4.6s-4.2 1.9-4.4 4.6z"/><path d="m82.4 954.6-.1 2.3h-5.3v-28.7h5.2v10.6h.1c1-1.6 3.1-2.8 6.1-2.8 6 0 8.8 4.3 8.8 10.7s-2.8 10.7-8.9 10.7c-2.8-.1-4.9-1.2-5.9-2.8zm9.5-7.9c0-3.7-1.6-6.3-4.8-6.3s-4.8 2.6-4.8 6.3 1.6 6.3 4.8 6.3 4.8-2.6 4.8-6.3z"/><path d="m99.9 946.7c0-6.6 4-10.7 10.2-10.7s10.2 4.1 10.2 10.7-4 10.7-10.2 10.7-10.2-4.1-10.2-10.7zm15.1 0c0-3.8-1.7-6.4-4.9-6.4s-4.9 2.6-4.9 6.4 1.7 6.4 4.9 6.4 4.9-2.6 4.9-6.4z"/><path d="m122.8 946.7c0-6.6 4-10.7 10.2-10.7s10.2 4.1 10.2 10.7-4 10.7-10.2 10.7-10.2-4.1-10.2-10.7zm15.1 0c0-3.8-1.7-6.4-4.9-6.4s-4.9 2.6-4.9 6.4 1.7 6.4 4.9 6.4 4.9-2.6 4.9-6.4z"/><path d="m146.9 928.2h5.2v16l6.8-7.7h5.9l-7.1 8.1 8.1 12.3h-5.9l-5.6-8.9-2.2 2.4v6.5h-5.2z"/><path d="m166.3 952.2 3.9-2.4c1.4 2.4 3.4 3.5 6.3 3.5 2.2 0 3.5-.9 3.5-2.2 0-1.4-1.1-2-4.6-2.5-4.5-.7-7.6-2.5-7.6-6.4s3.4-6.3 8.1-6.3c4.1 0 7.2 1.4 8.7 4l-3.4 2.5c-1.2-1.7-2.9-2.5-5.2-2.5-1.8 0-3 .7-3 1.8 0 1.4 1.4 2 4.9 2.6 4.4.7 7.3 2.5 7.3 6.4 0 4.3-3.7 6.7-8.7 6.7s-8.8-1.8-10.2-5.2z"/><path d="m188.9 961.7c1.7-1.2 2.4-2.5 2.4-4.8h-2.3v-6h5.5v5.4c0 3.9-1.3 6.1-3.8 7.8z"/><path d="m209.8 951.6c0-4 2.6-6 8.8-7.2l4.3-.8v-.8c0-2.2-.7-3.2-3.3-3.2-2.3 0-3.7.9-3.7 3.1l-5-.3c.3-4.7 3.6-6.5 9.1-6.5 5.6 0 8.2 2.3 8.2 6.4v9.2c0 2.1.2 3.9.5 5.4h-5.1c-.2-.5-.3-1.6-.3-2.5-1.3 2.1-4 2.9-6.6 2.9-4.4 0-6.9-2.2-6.9-5.7zm13-2.4v-2.1l-3.8.8c-3 .6-4 1.5-4 3.1s1.2 2.5 3.1 2.5c2.5 0 4.7-1.3 4.7-4.3z"/><path d="m232.7 936.5h5.2v3h.1c1.3-2.3 3.3-3.2 5.9-3.2h.6l-.5 4.9c-.5-.1-.9-.1-1.4-.1-2.9 0-4.6 1.8-4.6 4.8v11h-5.2v-20.4z"/><path d="m249.3 951.2v-10.7h-3.1v-4h3.1v-5.8h5.2v5.8h3.4v4h-3.4v10.5c0 1.4.5 1.9 1.8 1.9.5 0 .9-.1 1.4-.2l.4 4c-.7.2-1.8.4-3.4.4-4 0-5.4-1.9-5.4-5.9z"/><path d="m271.8 951.6c0-4 2.6-6 8.8-7.2l4.3-.8v-.8c0-2.2-.7-3.2-3.3-3.2-2.3 0-3.7.9-3.7 3.1l-5-.3c.3-4.7 3.6-6.5 9.1-6.5 5.6 0 8.2 2.3 8.2 6.4v9.2c0 2.1.2 3.9.5 5.4h-5.1c-.2-.5-.3-1.6-.3-2.5-1.3 2.1-4 2.9-6.6 2.9-4.3 0-6.9-2.2-6.9-5.7zm13.1-2.4v-2.1l-3.8.8c-3 .6-4 1.5-4 3.1s1.2 2.5 3.1 2.5c2.4 0 4.7-1.3 4.7-4.3z"/><path d="m294.8 928.2h5.2v28.7h-5.2z"/><path d="m310 954.6-.1 2.3h-5.2v-28.7h5.2v10.6h.1c1-1.6 3.1-2.8 6.1-2.8 6 0 8.8 4.3 8.8 10.7s-2.8 10.7-8.9 10.7c-2.8-.1-5-1.2-6-2.8zm9.5-7.9c0-3.7-1.6-6.3-4.8-6.3s-4.8 2.6-4.8 6.3 1.6 6.3 4.8 6.3 4.8-2.6 4.8-6.3z"/><path d="m328.5 950.3v-13.8h5.2v12.4c0 2.8 1.4 3.9 3.7 3.9 2.5 0 4.1-1.6 4.1-4.1v-12.2h5.2v20.4h-5.2v-2.3h-.1c-1.2 1.7-3.3 2.8-5.8 2.8-4.2-.1-7.1-2.1-7.1-7.1z"/><path d="m351.6 936.5h5.2v2.3h.1c1.1-1.7 3.2-2.7 5.7-2.7 2.7 0 4.8 1 6 2.9 1.4-2 3.6-2.9 6.2-2.9 3.9 0 7.1 2 7.1 7.4v13.5h-5.2v-12.4c0-2.5-1.1-3.9-3.5-3.9-2.3 0-3.8 1.7-3.8 4.1v12.2h-5.2v-12.4c0-2.5-1.1-3.9-3.5-3.9-2.3 0-3.8 1.7-3.8 4.1v12.2h-5.2v-20.5z"/><path d="m384.6 952.2 3.9-2.4c1.4 2.4 3.4 3.5 6.3 3.5 2.2 0 3.5-.9 3.5-2.2 0-1.4-1.1-2-4.6-2.5-4.5-.7-7.6-2.5-7.6-6.4s3.4-6.3 8.1-6.3c4.1 0 7.2 1.4 8.7 4l-3.4 2.5c-1.2-1.7-2.9-2.5-5.2-2.5-1.8 0-3 .7-3 1.8 0 1.4 1.4 2 4.9 2.6 4.4.7 7.3 2.5 7.3 6.4 0 4.3-3.7 6.7-8.7 6.7s-8.8-1.8-10.2-5.2z"/><path d="m407.3 961.7c1.7-1.2 2.4-2.5 2.4-4.8h-2.4v-6h5.5v5.4c0 3.9-1.3 6.1-3.8 7.8z"/><path d="m429.4 936.5h5.2v2.3h.1c1-1.6 3.1-2.8 6.1-2.8 6 0 8.8 4.3 8.8 10.7s-2.8 10.7-8.9 10.7c-2.9 0-5-1.1-6-2.7h-.1v10.3h-5.2zm14.8 10.2c0-3.7-1.6-6.3-4.8-6.3s-4.8 2.6-4.8 6.3 1.6 6.3 4.8 6.3 4.8-2.6 4.8-6.3z"/><path d="m453.2 950.3v-13.8h5.2v12.4c0 2.8 1.4 3.9 3.7 3.9 2.5 0 4.1-1.6 4.1-4.1v-12.2h5.2v20.4h-5.2v-2.3h-.1c-1.2 1.7-3.3 2.8-5.8 2.8-4.2-.1-7.1-2.1-7.1-7.1z"/><path d="m481.6 954.6-.1 2.3h-5.2v-28.7h5.2v10.6h.1c1-1.6 3.1-2.8 6.1-2.8 6 0 8.8 4.3 8.8 10.7s-2.8 10.7-8.9 10.7c-2.8-.1-5-1.2-6-2.8zm9.5-7.9c0-3.7-1.6-6.3-4.8-6.3s-4.8 2.6-4.8 6.3 1.6 6.3 4.8 6.3 4.8-2.6 4.8-6.3z"/><path d="m500.2 928.2h5.2v28.7h-5.2z"/><path d="m510.1 928.2h5.2v4.6h-5.2zm0 8.3h5.2v20.4h-5.2z"/><path d="m519 946.7c0-6.4 3.5-10.7 9.8-10.7 5.2 0 8.3 2.8 9.3 6.4l-4.6 1.3c-.6-2.1-2.1-3.3-4.3-3.3-3.2 0-4.7 2.5-4.7 6.4s1.6 6.4 4.8 6.4c2.5 0 3.9-1.6 4.5-3.7l4.6 1.2c-1 4-4.1 6.9-9.3 6.9-6.4-.2-10.1-4.2-10.1-10.9z"/><path d="m540.7 951.6c0-4 2.6-6 8.8-7.2l4.3-.8v-.8c0-2.2-.7-3.2-3.3-3.2-2.3 0-3.7.9-3.7 3.1l-5-.3c.3-4.7 3.6-6.5 9.1-6.5 5.6 0 8.2 2.3 8.2 6.4v9.2c0 2.1.2 3.9.5 5.4h-5.1c-.2-.5-.3-1.6-.3-2.5-1.3 2.1-4 2.9-6.6 2.9-4.3 0-6.9-2.2-6.9-5.7zm13.1-2.4v-2.1l-3.8.8c-3 .6-4 1.5-4 3.1s1.2 2.5 3.1 2.5c2.5 0 4.7-1.3 4.7-4.3z"/><path d="m564.7 951.2v-10.7h-3.1v-4h3.1v-5.8h5.2v5.8h3.4v4h-3.4v10.5c0 1.4.5 1.9 1.8 1.9.5 0 .9-.1 1.4-.2l.4 4c-.7.2-1.8.4-3.4.4-4 0-5.4-1.9-5.4-5.9z"/><path d="m576.8 928.2h5.2v4.6h-5.2zm0 8.3h5.2v20.4h-5.2z"/><path d="m585.7 946.7c0-6.6 4-10.7 10.2-10.7s10.2 4.1 10.2 10.7-4 10.7-10.2 10.7-10.2-4.1-10.2-10.7zm15.1 0c0-3.8-1.7-6.4-4.9-6.4s-4.9 2.6-4.9 6.4 1.7 6.4 4.9 6.4 4.9-2.6 4.9-6.4z"/><path d="m609.8 936.5h5.2v2.3h.1c1.2-1.7 3.3-2.7 5.8-2.7 4.3 0 7.3 2 7.3 7.1v13.7h-5.2v-12.4c0-2.9-1.5-3.9-3.7-3.9-2.5 0-4.2 1.7-4.2 4.1v12.2h-5.2v-20.4z"/><path d="m631 952.2 3.9-2.4c1.4 2.4 3.4 3.5 6.3 3.5 2.2 0 3.5-.9 3.5-2.2 0-1.4-1.1-2-4.6-2.5-4.5-.7-7.6-2.5-7.6-6.4s3.4-6.3 8.1-6.3c4.1 0 7.2 1.4 8.7 4l-3.4 2.5c-1.2-1.7-2.9-2.5-5.2-2.5-1.8 0-3 .7-3 1.8 0 1.4 1.4 2 4.9 2.6 4.4.7 7.3 2.5 7.3 6.4 0 4.3-3.7 6.7-8.7 6.7s-8.8-1.8-10.2-5.2z"/><path d="m78 990.8h-3.1v-4h3.1v-2.4c0-4.2 1.7-6.2 5.9-6.2 1.4 0 2.7.2 3.3.4l-.2 3.8c-.5-.1-1-.2-1.7-.2-1.4 0-2.1.6-2.1 2.1v2.5h3.5v4h-3.5v16.4h-5.2zm10.4 6.2c0-6.6 4-10.7 10.2-10.7s10.2 4.1 10.2 10.7-4 10.7-10.2 10.7-10.2-4.1-10.2-10.7zm15 0c0-3.8-1.7-6.4-4.9-6.4s-4.9 2.6-4.9 6.4 1.7 6.4 4.9 6.4 4.9-2.6 4.9-6.4zm9.1-10.2h5.2v3h.1c1.3-2.3 3.3-3.2 5.9-3.2h.6l-.5 4.9c-.5-.1-.9-.1-1.4-.1-2.9 0-4.6 1.8-4.6 4.7v11h-5.2v-20.3zm25 10.2c0-6.4 3.5-10.7 9.8-10.7 5.2 0 8.3 2.8 9.3 6.4l-4.6 1.3c-.6-2.1-2.1-3.3-4.3-3.3-3.2 0-4.7 2.5-4.7 6.4s1.6 6.4 4.8 6.4c2.5 0 3.9-1.6 4.5-3.7l4.6 1.2c-1 4-4.1 6.9-9.3 6.9-6.5-.1-10.1-4.1-10.1-10.9zm22.5-18.4h5.2v10.5h.1c1.2-1.7 3.3-2.7 5.8-2.7 4.3 0 7.3 2 7.3 7.1v13.7h-5.2v-12.4c0-2.9-1.5-3.9-3.7-3.9-2.5 0-4.2 1.7-4.2 4.1v12.2h-5.3zm23.1 0h5.2v4.6h-5.2zm0 8.2h5.2v20.4h-5.2zm9.9-8.2h5.2v28.7h-5.2zm8.9 18.4c0-6.4 2.8-10.7 8.8-10.7 2.9 0 5 1.2 6.1 2.8h.1v-10.6h5.2v28.7h-5.2v-2.3h-.1c-1 1.6-3.2 2.7-6 2.7-6 .1-8.9-4.2-8.9-10.6zm15.1 0c0-3.7-1.6-6.3-4.8-6.3s-4.8 2.6-4.8 6.3 1.6 6.3 4.8 6.3 4.8-2.5 4.8-6.3zm9.9-10.2h5.2v3h.1c1.3-2.3 3.3-3.2 5.9-3.2h.6l-.5 4.9c-.5-.1-.9-.1-1.4-.1-2.9 0-4.6 1.8-4.6 4.7v11h-5.2v-20.3zm13.2 10.4c0-6.6 3.4-10.9 9.8-10.9 6.7 0 9.8 4.8 9.8 10.9v1.1h-14.2c0 3.2 1.7 5.4 5 5.4 2.4 0 4-1.2 5-3.4l3.9 2c-1.8 3.5-4.9 5.6-9.3 5.6-6.5-.1-10-4.4-10-10.7zm14.3-2.4c-.2-2.8-1.7-4.6-4.5-4.6s-4.2 1.9-4.4 4.6zm8.8-8h5.2v2.3h.1c1.2-1.7 3.3-2.7 5.8-2.7 4.3 0 7.3 2 7.3 7.1v13.7h-5.2v-12.4c0-2.9-1.5-3.9-3.7-3.9-2.5 0-4.2 1.7-4.2 4.1v12.2h-5.2v-20.4zm23.3 25.2c1.7-1.2 2.4-2.5 2.4-4.8h-2.4v-6h5.5v5.4c0 3.9-1.3 6.1-3.8 7.8zm20.2-9.5 3.9-2.4c1.4 2.4 3.4 3.5 6.3 3.5 2.2 0 3.5-.9 3.5-2.2 0-1.4-1.1-2-4.6-2.5-4.5-.7-7.6-2.5-7.6-6.4s3.4-6.3 8.1-6.3c4.1 0 7.2 1.4 8.7 4l-3.4 2.5c-1.2-1.7-2.9-2.5-5.2-2.5-1.8 0-3 .7-3 1.8 0 1.4 1.4 2 4.9 2.6 4.4.7 7.3 2.5 7.3 6.4 0 4.3-3.7 6.7-8.7 6.7-5 .1-8.8-1.7-10.2-5.2zm21.2-5.5c0-6.4 3.5-10.7 9.8-10.7 5.2 0 8.3 2.8 9.3 6.4l-4.6 1.3c-.6-2.1-2.1-3.3-4.3-3.3-3.2 0-4.7 2.5-4.7 6.4s1.6 6.4 4.8 6.4c2.5 0 3.9-1.6 4.5-3.7l4.6 1.2c-1 4-4.1 6.9-9.3 6.9-6.5-.1-10.1-4.1-10.1-10.9zm22.5-18.4h5.2v4.6h-5.2zm0 8.2h5.2v20.4h-5.2zm8.9 10.4c0-6.6 3.4-10.9 9.8-10.9 6.7 0 9.8 4.8 9.8 10.9v1.1h-14.2c0 3.2 1.7 5.4 5 5.4 2.4 0 4-1.2 5-3.4l3.9 2c-1.8 3.5-4.9 5.6-9.3 5.6-6.5-.1-10-4.4-10-10.7zm14.3-2.4c-.2-2.8-1.7-4.6-4.5-4.6s-4.2 1.9-4.4 4.6zm8.8-8h5.2v2.3h.1c1.2-1.7 3.3-2.7 5.8-2.7 4.3 0 7.3 2 7.3 7.1v13.7h-5.2v-12.4c0-2.9-1.5-3.9-3.7-3.9-2.5 0-4.2 1.7-4.2 4.1v12.2h-5.2v-20.4zm24.1 14.8v-10.7h-3.1v-4h3.1v-5.8h5.2v5.8h3.4v4h-3.4v10.5c0 1.4.5 1.9 1.8 1.9.5 0 .9-.1 1.4-.2l.4 4c-.7.2-1.8.4-3.4.4-4.1 0-5.4-2-5.4-5.9zm12-23h5.2v4.6h-5.2zm0 8.2h5.2v20.4h-5.2zm11.5 4h-3.1v-4h3.1v-2.4c0-4.2 1.7-6.2 5.9-6.2 1.4 0 2.7.2 3.3.4l-.2 3.8c-.5-.1-1-.2-1.7-.2-1.4 0-2.1.6-2.1 2.1v2.5h3.5v4h-3.5v16.4h-5.2zm11.8-12.2h5.2v4.6h-5.2zm0 8.2h5.2v20.4h-5.2zm9.1 10.2c0-6.4 3.5-10.7 9.8-10.7 5.2 0 8.3 2.8 9.3 6.4l-4.6 1.3c-.6-2.1-2.1-3.3-4.3-3.3-3.2 0-4.7 2.5-4.7 6.4s1.6 6.4 4.8 6.4c2.5 0 3.9-1.6 4.5-3.7l4.6 1.2c-1 4-4.1 6.9-9.3 6.9-6.5-.1-10.1-4.1-10.1-10.9zm34.3-10.2h5.2v2.3h.1c1-1.6 3.1-2.8 6.1-2.8 6 0 8.8 4.3 8.8 10.7s-2.8 10.7-8.9 10.7c-2.9 0-5-1.1-6-2.7h-.1v10.3h-5.2zm14.9 10.2c0-3.7-1.6-6.3-4.8-6.3s-4.8 2.6-4.8 6.3 1.6 6.3 4.8 6.3 4.8-2.5 4.8-6.3zm9 3.7v-13.8h5.2v12.4c0 2.8 1.4 3.9 3.7 3.9 2.5 0 4.1-1.6 4.1-4.1v-12.2h5.2v20.4h-5.2v-2.3h-.1c-1.2 1.7-3.3 2.8-5.8 2.8-4.2-.1-7.1-2.1-7.1-7.1zm28.3 4.3-.1 2.3h-5.2v-28.7h5.2v10.6h.1c1-1.6 3.1-2.8 6.1-2.8 6 0 8.8 4.3 8.8 10.7s-2.8 10.7-8.9 10.7c-2.8-.1-5-1.2-6-2.8zm9.6-8c0-3.7-1.6-6.3-4.8-6.3s-4.8 2.6-4.8 6.3 1.6 6.3 4.8 6.3 4.8-2.5 4.8-6.3zm9.1-18.4h5.2v28.7h-5.2zm9.9 0h5.2v4.6h-5.2zm0 8.2h5.2v20.4h-5.2zm8.9 10.2c0-6.4 3.5-10.7 9.8-10.7 5.2 0 8.3 2.8 9.3 6.4l-4.6 1.3c-.6-2.1-2.1-3.3-4.3-3.3-3.2 0-4.7 2.5-4.7 6.4s1.6 6.4 4.8 6.4c2.5 0 3.9-1.6 4.5-3.7l4.6 1.2c-1 4-4.1 6.9-9.3 6.9-6.5-.1-10.1-4.1-10.1-10.9zm21.7 5c0-4 2.6-6 8.8-7.2l4.3-.8v-.8c0-2.2-.7-3.2-3.3-3.2-2.3 0-3.7.9-3.7 3.1l-5-.3c.3-4.7 3.6-6.5 9.1-6.5 5.6 0 8.2 2.3 8.2 6.4v9.2c0 2.1.2 3.9.5 5.4h-5.1c-.2-.5-.3-1.6-.3-2.5-1.3 2.1-4 2.9-6.6 2.9-4.3 0-6.9-2.2-6.9-5.7zm13.1-2.4v-2.1l-3.8.8c-3 .6-4 1.5-4 3.1s1.2 2.5 3.1 2.5c2.5 0 4.7-1.4 4.7-4.3zm10.9 2v-10.7h-3.1v-4h3.1v-5.8h5.2v5.8h3.4v4h-3.4v10.5c0 1.4.5 1.9 1.8 1.9.5 0 .9-.1 1.4-.2l.4 4c-.7.2-1.8.4-3.4.4-4 0-5.4-2-5.4-5.9zm12-23h5.2v4.6h-5.2zm0 8.2h5.2v20.4h-5.2zm8.9 10.2c0-6.6 4-10.7 10.2-10.7s10.3 4.1 10.3 10.7-4 10.7-10.2 10.7-10.3-4.1-10.3-10.7zm15.1 0c0-3.8-1.7-6.4-4.9-6.4s-4.9 2.6-4.9 6.4 1.7 6.4 4.9 6.4 4.9-2.6 4.9-6.4zm9-10.2h5.2v2.3h.1c1.2-1.7 3.3-2.7 5.8-2.7 4.3 0 7.3 2 7.3 7.1v13.7h-5.2v-12.4c0-2.9-1.5-3.9-3.7-3.9-2.5 0-4.2 1.7-4.2 4.1v12.2h-5.2v-20.4zm21.2 15.7 3.9-2.4c1.4 2.4 3.4 3.5 6.3 3.5 2.2 0 3.5-.9 3.5-2.2 0-1.4-1.1-2-4.6-2.5-4.5-.7-7.6-2.5-7.6-6.4s3.4-6.3 8.1-6.3c4.1 0 7.2 1.4 8.7 4l-3.4 2.5c-1.2-1.7-2.9-2.5-5.2-2.5-1.8 0-3 .7-3 1.8 0 1.4 1.4 2 4.9 2.6 4.4.7 7.3 2.5 7.3 6.4 0 4.3-3.7 6.7-8.7 6.7-5 .1-8.8-1.7-10.2-5.2zm22.7 9.5c1.7-1.2 2.4-2.5 2.4-4.8h-2.4v-6h5.5v5.4c0 3.9-1.3 6.1-3.8 7.8z"/><path d="m75.8 1052.3c0-4 2.6-6 8.8-7.2l4.3-.8v-.8c0-2.2-.7-3.2-3.3-3.2-2.3 0-3.7.9-3.7 3.1l-5-.3c.3-4.7 3.6-6.5 9.1-6.5 5.6 0 8.2 2.3 8.2 6.4v9.2c0 2.1.2 3.9.5 5.4h-5.1c-.2-.5-.3-1.6-.3-2.5-1.3 2.1-4 2.9-6.6 2.9-4.3.1-6.9-2.2-6.9-5.7zm13.1-2.4v-2.1l-3.8.8c-3 .6-4 1.5-4 3.1s1.2 2.5 3.1 2.5c2.5 0 4.7-1.3 4.7-4.3z"/><path d="m98.7 1028.9h5.2v28.7h-5.2z"/><path d="m114 1055.3-.1 2.3h-5.2v-28.7h5.2v10.6h.1c1-1.6 3.1-2.8 6.1-2.8 6 0 8.8 4.3 8.8 10.7s-2.8 10.7-8.9 10.7c-2.8 0-5-1.2-6-2.8zm9.5-7.9c0-3.7-1.6-6.3-4.8-6.3s-4.8 2.6-4.8 6.3 1.6 6.3 4.8 6.3 4.8-2.6 4.8-6.3z"/><path d="m132.5 1051v-13.8h5.2v12.4c0 2.8 1.4 3.9 3.7 3.9 2.5 0 4.1-1.6 4.1-4.1v-12.2h5.2v20.4h-5.2v-2.3h-.1c-1.2 1.7-3.3 2.8-5.8 2.8-4.1 0-7.1-2.1-7.1-7.1z"/><path d="m155.6 1037.2h5.2v2.3h.1c1.1-1.7 3.2-2.7 5.7-2.7 2.7 0 4.8 1 6 2.9 1.4-2 3.6-2.9 6.2-2.9 3.9 0 7.1 2 7.1 7.4v13.5h-5.2v-12.4c0-2.5-1.1-3.9-3.5-3.9-2.3 0-3.8 1.7-3.8 4.1v12.2h-5.2v-12.4c0-2.5-1.1-3.9-3.5-3.9-2.3 0-3.8 1.7-3.8 4.1v12.2h-5.2v-20.5z"/><path d="m200.3 1052.9 3.9-2.4c1.4 2.4 3.4 3.5 6.3 3.5 2.2 0 3.5-.9 3.5-2.2 0-1.4-1.1-2-4.6-2.5-4.5-.7-7.6-2.5-7.6-6.4s3.4-6.3 8.1-6.3c4.1 0 7.2 1.4 8.7 4l-3.4 2.5c-1.2-1.7-2.9-2.5-5.2-2.5-1.8 0-3 .7-3 1.8 0 1.4 1.4 2 4.9 2.6 4.4.7 7.3 2.5 7.3 6.4 0 4.3-3.7 6.7-8.7 6.7s-8.8-1.8-10.2-5.2z"/><path d="m222.6 1028.9h5.2v28.7h-5.2z"/><path d="m231.5 1047.5c0-6.6 3.4-10.9 9.8-10.9 6.7 0 9.8 4.8 9.8 10.9v1.1h-14.2c0 3.2 1.7 5.4 5 5.4 2.4 0 4-1.2 5-3.4l3.9 2c-1.8 3.5-4.9 5.6-9.3 5.6-6.6-.1-10-4.4-10-10.7zm14.2-2.3c-.2-2.8-1.7-4.6-4.5-4.6s-4.2 1.9-4.4 4.6z"/><path d="m253.5 1047.5c0-6.6 3.4-10.9 9.8-10.9 6.7 0 9.8 4.8 9.8 10.9v1.1h-14.2c0 3.2 1.7 5.4 5 5.4 2.4 0 4-1.2 5-3.4l3.9 2c-1.8 3.5-4.9 5.6-9.3 5.6-6.5-.1-10-4.4-10-10.7zm14.3-2.3c-.2-2.8-1.7-4.6-4.5-4.6s-4.2 1.9-4.4 4.6z"/><path d="m273.9 1037.2h5.4l4.6 13.9h.1l4.5-13.9h5.4l-7.5 20.4h-5z"/><path d="m294.7 1047.5c0-6.6 3.4-10.9 9.8-10.9 6.7 0 9.8 4.8 9.8 10.9v1.1h-14.3c0 3.2 1.7 5.4 5 5.4 2.4 0 4-1.2 5-3.4l3.9 2c-1.8 3.5-4.9 5.6-9.3 5.6-6.5-.1-9.9-4.4-9.9-10.7zm14.3-2.3c-.2-2.8-1.7-4.6-4.5-4.6s-4.2 1.9-4.4 4.6z"/><path d="m316.3 1052.9 3.9-2.4c1.4 2.4 3.4 3.5 6.3 3.5 2.2 0 3.5-.9 3.5-2.2 0-1.4-1.1-2-4.6-2.5-4.5-.7-7.6-2.5-7.6-6.4s3.4-6.3 8.1-6.3c4.1 0 7.2 1.4 8.7 4l-3.4 2.5c-1.2-1.7-2.9-2.5-5.2-2.5-1.8 0-3 .7-3 1.8 0 1.4 1.4 2 4.9 2.6 4.4.7 7.3 2.5 7.3 6.4 0 4.3-3.7 6.7-8.7 6.7s-8.8-1.8-10.2-5.2z"/><path d="m339 1062.4c1.7-1.2 2.4-2.5 2.4-4.8h-2.4v-6h5.5v5.4c0 3.9-1.3 6.1-3.8 7.8z"/><path d="m359.8 1047.4c0-6.4 3.5-10.7 9.8-10.7 5.2 0 8.3 2.8 9.3 6.4l-4.6 1.3c-.6-2.1-2.1-3.3-4.3-3.3-3.2 0-4.8 2.5-4.8 6.4s1.6 6.4 4.8 6.4c2.5 0 3.9-1.6 4.5-3.7l4.6 1.2c-1 4-4.1 6.9-9.3 6.9-6.4-.2-10-4.1-10-10.9z"/><path d="m381.4 1052.3c0-4 2.6-6 8.8-7.2l4.3-.8v-.8c0-2.2-.7-3.2-3.3-3.2-2.3 0-3.7.9-3.7 3.1l-5-.3c.3-4.7 3.6-6.5 9.1-6.5 5.6 0 8.2 2.3 8.2 6.4v9.2c0 2.1.2 3.9.5 5.4h-5.3c-.2-.5-.3-1.6-.3-2.5-1.3 2.1-4 2.9-6.6 2.9-4.1.1-6.7-2.2-6.7-5.7zm13.1-2.4v-2.1l-3.8.8c-3 .6-4 1.5-4 3.1s1.2 2.5 3.1 2.5c2.5 0 4.7-1.3 4.7-4.3z"/><path d="m404.4 1028.9h5.2v28.7h-5.2z"/><path d="m413.3 1047.5c0-6.6 3.4-10.9 9.8-10.9 6.7 0 9.8 4.8 9.8 10.9v1.1h-14.2c0 3.2 1.7 5.4 5 5.4 2.4 0 4-1.2 5-3.4l3.9 2c-1.8 3.5-4.9 5.6-9.3 5.6-6.6-.1-10-4.4-10-10.7zm14.3-2.3c-.2-2.8-1.7-4.6-4.5-4.6s-4.2 1.9-4.4 4.6z"/><path d="m436.4 1037.2h5.2v2.3h.1c1.2-1.7 3.3-2.7 5.8-2.7 4.3 0 7.3 2 7.3 7.1v13.7h-5.2v-12.4c0-2.9-1.5-3.9-3.7-3.9-2.5 0-4.2 1.7-4.2 4.1v12.2h-5.2v-20.4z"/><path d="m458.4 1047.4c0-6.4 2.8-10.7 8.8-10.7 2.9 0 5 1.2 6.1 2.8h.1v-10.6h5.2v28.7h-5.2v-2.3h-.1c-1 1.6-3.2 2.7-6 2.7-6.1.1-8.9-4.3-8.9-10.6zm15 0c0-3.7-1.6-6.3-4.8-6.3s-4.8 2.6-4.8 6.3 1.6 6.3 4.8 6.3 4.8-2.6 4.8-6.3z"/><path d="m482.2 1052.3c0-4 2.6-6 8.8-7.2l4.3-.8v-.8c0-2.2-.7-3.2-3.3-3.2-2.3 0-3.7.9-3.7 3.1l-5-.3c.3-4.7 3.6-6.5 9.1-6.5 5.6 0 8.2 2.3 8.2 6.4v9.2c0 2.1.2 3.9.5 5.4h-5.1c-.2-.5-.3-1.6-.3-2.5-1.3 2.1-4 2.9-6.6 2.9-4.3.1-6.9-2.2-6.9-5.7zm13.1-2.4v-2.1l-3.8.8c-3 .6-4 1.5-4 3.1s1.2 2.5 3.1 2.5c2.5 0 4.7-1.3 4.7-4.3z"/><path d="m505.2 1037.2h5.2v3h.1c1.3-2.3 3.3-3.2 5.9-3.2h.6l-.5 4.9c-.5-.1-.9-.1-1.4-.1-2.9 0-4.6 1.8-4.6 4.8v11h-5.2v-20.4z"/><path d="m517.9 1052.9 3.9-2.4c1.4 2.4 3.4 3.5 6.3 3.5 2.2 0 3.5-.9 3.5-2.2 0-1.4-1.1-2-4.6-2.5-4.5-.7-7.6-2.5-7.6-6.4s3.4-6.3 8.1-6.3c4.1 0 7.2 1.4 8.7 4l-3.4 2.5c-1.2-1.7-2.9-2.5-5.2-2.5-1.8 0-3 .7-3 1.8 0 1.4 1.4 2 4.9 2.6 4.4.7 7.3 2.5 7.3 6.4 0 4.3-3.7 6.7-8.7 6.7s-8.9-1.8-10.2-5.2z"/><path d="m75.8 1102.7c0-4 2.6-6 8.8-7.2l4.3-.8v-.8c0-2.2-.7-3.2-3.3-3.2-2.3 0-3.7.9-3.7 3.1l-5-.3c.3-4.7 3.6-6.5 9.1-6.5 5.6 0 8.2 2.3 8.2 6.4v9.2c0 2.1.2 3.9.5 5.4h-5.1c-.2-.5-.3-1.6-.3-2.5-1.3 2.1-4 2.9-6.6 2.9-4.3 0-6.9-2.2-6.9-5.7zm13.1-2.4v-2.1l-3.8.8c-3 .6-4 1.5-4 3.1s1.2 2.5 3.1 2.5c2.5 0 4.7-1.4 4.7-4.3z"/><path d="m98.8 1087.6h5.2v2.3h.1c1.2-1.7 3.3-2.7 5.8-2.7 4.3 0 7.3 2 7.3 7.1v13.7h-5.2v-12.4c0-2.9-1.5-3.9-3.7-3.9-2.5 0-4.2 1.7-4.2 4.1v12.2h-5.2v-20.4z"/><path d="m120.8 1097.7c0-6.4 2.8-10.7 8.8-10.7 2.9 0 5 1.2 6.1 2.8h.1v-10.6h5.2v28.7h-5.2v-2.3h-.1c-1 1.6-3.2 2.7-6 2.7-6.1.1-8.9-4.2-8.9-10.6zm15 0c0-3.7-1.6-6.3-4.8-6.3s-4.8 2.6-4.8 6.3 1.6 6.3 4.8 6.3 4.8-2.5 4.8-6.3z"/><path d="m155.6 1103.3 3.9-2.4c1.4 2.4 3.4 3.5 6.3 3.5 2.2 0 3.5-.9 3.5-2.2 0-1.4-1.1-2-4.6-2.5-4.5-.7-7.6-2.5-7.6-6.4s3.4-6.3 8.1-6.3c4.1 0 7.2 1.4 8.7 4l-3.4 2.5c-1.2-1.7-2.9-2.5-5.2-2.5-1.8 0-3 .7-3 1.8 0 1.4 1.4 2 4.9 2.6 4.4.7 7.3 2.5 7.3 6.4 0 4.3-3.7 6.7-8.7 6.7s-8.8-1.8-10.2-5.2z"/><path d="m179.2 1102.3v-10.7h-3.1v-4h3.1v-5.8h5.2v5.8h3.4v4h-3.4v10.5c0 1.4.5 1.9 1.8 1.9.5 0 .9-.1 1.4-.2l.4 4c-.7.2-1.8.4-3.4.4-4 0-5.4-2-5.4-5.9z"/><path d="m190.9 1101.4v-13.8h5.2v12.4c0 2.8 1.4 3.9 3.7 3.9 2.5 0 4.1-1.6 4.1-4.1v-12.2h5.2v20.4h-5.1v-2.3h-.1c-1.2 1.7-3.3 2.8-5.8 2.8-4.2-.1-7.2-2.1-7.2-7.1z"/><path d="m213 1097.7c0-6.4 2.8-10.7 8.8-10.7 2.9 0 5 1.2 6.1 2.8h.1v-10.6h5.2v28.7h-5.2v-2.3h-.1c-1 1.6-3.2 2.7-6 2.7-6.1.1-8.9-4.2-8.9-10.6zm15 0c0-3.7-1.6-6.3-4.8-6.3s-4.8 2.6-4.8 6.3 1.6 6.3 4.8 6.3 4.8-2.5 4.8-6.3z"/><path d="m236.8 1097.9c0-6.6 3.4-10.9 9.8-10.9 6.7 0 9.8 4.8 9.8 10.9v1.1h-14.2c0 3.2 1.7 5.4 5 5.4 2.4 0 4-1.2 5-3.4l3.9 2c-1.8 3.5-4.9 5.6-9.3 5.6-6.5-.1-10-4.4-10-10.7zm14.3-2.4c-.2-2.8-1.7-4.6-4.5-4.6s-4.2 1.9-4.4 4.6z"/><path d="m260 1087.6h5.2v2.3h.1c1.2-1.7 3.3-2.7 5.8-2.7 4.3 0 7.3 2 7.3 7.1v13.7h-5.2v-12.4c0-2.9-1.5-3.9-3.7-3.9-2.5 0-4.2 1.7-4.2 4.1v12.2h-5.3z"/><path d="m284.1 1102.3v-10.7h-3.1v-4h3.1v-5.8h5.2v5.8h3.4v4h-3.4v10.5c0 1.4.5 1.9 1.8 1.9.5 0 .9-.1 1.4-.2l.4 4c-.7.2-1.8.4-3.4.4-4.1 0-5.4-2-5.4-5.9z"/><path d="m307.8 1087.6h5.2v2.3h.1c1-1.6 3.1-2.8 6.1-2.8 6 0 8.8 4.3 8.8 10.7s-2.8 10.7-8.9 10.7c-2.9 0-5-1.1-6-2.7h-.1v10.3h-5.2zm14.9 10.1c0-3.7-1.6-6.3-4.8-6.3s-4.8 2.6-4.8 6.3 1.6 6.3 4.8 6.3 4.8-2.5 4.8-6.3z"/><path d="m331.8 1087.6h5.2v3h.1c1.3-2.3 3.3-3.2 5.9-3.2h.6l-.5 4.9c-.5-.1-.9-.1-1.4-.1-2.9 0-4.6 1.8-4.6 4.8v11h-5.2v-20.4z"/><path d="m345 1097.7c0-6.6 4-10.7 10.2-10.7s10.2 4.1 10.2 10.7-4 10.7-10.2 10.7-10.2-4.1-10.2-10.7zm15.1 0c0-3.8-1.7-6.4-4.9-6.4s-4.9 2.6-4.9 6.4 1.7 6.4 4.9 6.4 4.9-2.6 4.9-6.4z"/><path d="m365.5 1116 .3-4.1c.4.2.9.2 1.3.2 1.2 0 1.8-.6 1.8-2.1v-22.5h5.2v22.3c0 4.1-1.2 6.4-5.8 6.4-1 .1-2-.1-2.8-.2zm3.4-36.7h5.2v4.6h-5.2z"/><path d="m377.8 1097.9c0-6.6 3.4-10.9 9.8-10.9 6.7 0 9.8 4.8 9.8 10.9v1.1h-14.2c0 3.2 1.7 5.4 5 5.4 2.4 0 4-1.2 5-3.4l3.9 2c-1.8 3.5-4.9 5.6-9.3 5.6-6.5-.1-10-4.4-10-10.7zm14.3-2.4c-.2-2.8-1.7-4.6-4.5-4.6s-4.2 1.9-4.4 4.6z"/><path d="m399.9 1097.7c0-6.4 3.5-10.7 9.8-10.7 5.2 0 8.3 2.8 9.3 6.4l-4.6 1.3c-.6-2.1-2.1-3.3-4.3-3.3-3.2 0-4.8 2.5-4.8 6.4s1.6 6.4 4.8 6.4c2.5 0 3.9-1.6 4.5-3.7l4.6 1.2c-1 4-4.1 6.9-9.3 6.9-6.4-.1-10-4.1-10-10.9z"/><path d="m423.9 1102.3v-10.7h-3.1v-4h3.1v-5.8h5.2v5.8h3.4v4h-3.4v10.5c0 1.4.5 1.9 1.8 1.9.5 0 .9-.1 1.4-.2l.4 4c-.7.2-1.8.4-3.4.4-4 0-5.4-2-5.4-5.9z"/><path d="m434.5 1103.3 3.9-2.4c1.4 2.4 3.4 3.5 6.3 3.5 2.2 0 3.5-.9 3.5-2.2 0-1.4-1.1-2-4.6-2.5-4.5-.7-7.6-2.5-7.6-6.4s3.4-6.3 8.1-6.3c4.1 0 7.2 1.4 8.7 4l-3.4 2.5c-1.2-1.7-2.9-2.5-5.2-2.5-1.8 0-3 .7-3 1.8 0 1.4 1.4 2 4.9 2.6 4.4.7 7.3 2.5 7.3 6.4 0 4.3-3.7 6.7-8.7 6.7s-8.8-1.8-10.2-5.2z"/><path d="m457.3 1101.9h5.5v6h-5.5z"/><path d="m74.6 134h38c26.2 0 33.3 11.6 33.3 27.8 0 16.5-7.4 28.2-33.6 28.2h-16.4v58.6h-21.3zm39.5 37c7.4 0 11.3-2.6 11.3-9s-3.9-9-11.3-9h-18.2v18z"/><path d="m229.4 217c0 26.7-21.9 34.1-39.3 34.1-16.1 0-38.7-7.2-38.7-34.1v-52c0-27 21.9-33.3 38.5-33.3 17.5 0 39.5 7.5 39.5 34.1v.5h-21.3v-.5c0-9.8-7.7-14.7-17.7-14.7-8.2 0-17.7 5.9-17.7 17.2v46.4c0 11.3 7.5 16.9 17.5 16.9 11.6 0 17.9-3.9 17.9-16.1v-18.5h-19.3v-18.3h40.6z"/><path d="m272.9 134c31.4 0 40.5 14.1 40.5 40.3v33.9c0 28.7-9 40.5-40.5 40.5h-32.8v-114.7zm-11.5 96.1h15.2c13.1 0 15.6-9.2 15.6-18.2v-40c0-7.4-2.3-19.3-15.9-19.3h-14.9z"/></g><path d="m372.6 212.8h-27.5l-7.9 35.9h-21.3l24.7-114.7h36.5l24.7 114.7h-21.3zm-13.5-63.1h-.7l-9.5 43.4h19.7z" fill="#fff"/><path d="m505.6 166.6-19.8 82.1h-23.6l-11.5-46.4-11.5 46.4h-23.5l-19.9-82.1h20.7l11.9 57.2 12-57.2h20.6l12 57.2 11.9-57.2z" fill="#fff"/><path d="m552.5 241.8c-3.8 6.6-9.8 8.8-17.2 8.8-12.1 0-27.7-7.7-27.7-25.7v-32.4c0-21.3 15.9-28.3 27.4-28.3 6.4 0 13.4 3.3 17.5 9.2v-6.6h20.5v81.9h-20.5zm0-48.5c-.5-8.5-6.9-11.6-12.1-11.6s-12.3 3.3-12.3 12.3v27c0 9 7 12.1 12.3 12.1 5.2 0 12.1-3.1 12.1-12.1z" fill="#fff"/><path d="m582.6 166.6h20.5v9.2c5.4-8.5 20.5-11.6 26.5-11.6v22.4c-15.9-2.6-26.5 1-26.5 16.2l.2 45.9h-20.6v-82.1z" fill="#fff"/><path d="m681.9 238.3c-3.1 9.5-11.3 12.3-19.8 12.3-11.3 0-27.4-5.6-27.4-26.4v-30.6c0-23.6 16.2-29.5 28-29.5 6.9 0 14.6 4.6 16.9 9v-39.1h20.5v114.7h-18.2zm-26.7-17.7c0 9.3 5.1 13.3 12.4 13.3 10 0 12-7.7 12-13.3v-26.5c0-7.5-3.8-13.1-12.1-13.1-8.8 0-12.3 6.2-12.3 13.1z" fill="#fff"/><path d="m725.2 220.8c0 8.7 7.9 12.9 14.4 12.9s12.4-1.3 12.4-7.9c0-8-11.1-9.3-22.8-13.4-11.5-4.1-21.1-8.4-21.1-24.7 0-17.4 17.9-23.7 30.1-23.6 15.9.2 31.1 7.4 31 27v3.4l-17.9-.2v-2.3c0-8.8-6.7-11.1-12.6-11.1-6.4 0-12 2-12 8 0 7 10.5 8.8 20 11.5 16.5 4.6 24.2 10.3 24.2 26.7 0 18.7-15.9 24.1-32.8 23.9-15.7-.2-31-9-31-29.2v-3.3l17.9.2v2.1z" fill="#fff"/><path d="m75.7 84.4h13c7 0 10.8 3.6 10.8 9.4 0 6.2-3.9 9.6-10.8 9.6h-7v10.5h-5.9v-29.5zm12.3 14.3c3.7 0 5.7-1.7 5.7-4.8s-2-4.8-5.7-4.8h-6.3v9.6z" fill="#fff"/><path d="m101.6 99.1c0-8.9 5.5-15.6 14.4-15.6s14.4 6.7 14.4 15.6-5.5 15.6-14.4 15.6-14.4-6.7-14.4-15.6m22.7 0c0-5.8-3.1-10.4-8.3-10.4s-8.3 4.6-8.3 10.4 3.1 10.4 8.3 10.4 8.3-4.6 8.3-10.4" fill="#fff"/><path d="m134.2 84.4h5.9v24.4h13.6v5.1h-19.5z" fill="#fff"/><path d="m156.5 84.4h5.9v29.4h-5.9z" fill="#fff"/><path d="m165.2 107.3 4.5-2.9c1.6 3.3 4.9 5.4 9 5.4 3.8 0 6-1.6 6-4.1 0-2.2-1.5-3.5-7.2-4.6-7.5-1.4-10.6-4.2-10.6-8.9 0-5.6 4.7-8.8 11.1-8.8 5.6 0 9.6 2.2 11.9 6l-4.4 2.9c-1.7-3-4.3-4.2-7.5-4.2-3.3 0-5.2 1.4-5.2 3.4 0 2.2 1.5 3.2 6.8 4.2 7.5 1.4 11 4.3 11 9.4 0 6.2-5.1 9.4-12.1 9.4-6.2.2-11.4-2.4-13.3-7.2" fill="#fff"/><path d="m194.2 84.4h5.9v11.4h13.3v-11.4h5.9v29.5h-5.9v-12.7h-13.3v12.7h-5.9z" fill="#fff"/><path d="m233.3 99.3c0-9.1 5.2-15.7 14.1-15.7 6.3 0 10.8 3 12.8 8l-5.3 1.8c-1.2-2.8-3.5-4.7-7.4-4.7-5 0-8.3 3.8-8.3 10.4 0 6.3 3.1 10.4 8.5 10.4 4.3 0 7.6-2.5 7.6-7h-7.7v-4.8h12.8v16h-5.2v-3.3h-.1c-1.6 2.5-4.9 3.9-8.6 3.9-8.1.2-13.2-5.8-13.2-15" fill="#fff"/><path d="m265.5 84.4h13.1c6.6 0 10.8 2.7 10.8 9.1 0 4.6-2.6 7.5-6.5 8.6l7.4 11.7h-6.7l-6.9-11.2h-5.3v11.2h-5.9zm12.4 13.6c3.3 0 5.6-1.4 5.6-4.5 0-2.9-2-4.5-5.6-4.5h-6.5v9z" fill="#fff"/><path d="m303.3 84.4h6l11.2 29.4h-6.2l-2.2-6.2h-12l-2.2 6.2h-6.1zm7.3 18.5-4.2-11.8h-.1l-4.3 11.8z" fill="#fff"/><path d="m322.9 84.4h13c7 0 10.8 3.6 10.8 9.4 0 6.2-3.9 9.6-10.8 9.6h-7v10.5h-5.9v-29.5zm12.3 14.3c3.7 0 5.7-1.7 5.7-4.8s-2-4.8-5.7-4.8h-6.3v9.6z" fill="#fff"/><path d="m349.5 84.4h5.9v11.4h13.3v-11.4h5.9v29.5h-5.9v-12.7h-13.3v12.7h-5.9z" fill="#fff"/><path d="m379.7 84.4h5.9v29.4h-5.9z" fill="#fff"/><path d="m389.5 99.1c0-8.9 4.9-15.6 14-15.6 6.7 0 11.1 3.6 12.8 8.9l-5.3 1.7c-.9-3.3-3.5-5.5-7.3-5.5-5.3 0-8.1 4.3-8.1 10.4 0 6.7 3.2 10.4 8.2 10.4 4 0 6.3-2.2 7.4-5.7l5.3 1.6c-1.7 5.6-6.2 9.3-13 9.3-9 .1-14-6-14-15.5" fill="#fff"/><path d="m430.1 84.4h12c9.5 0 14 5.3 14 14.8 0 9.2-4.7 14.6-14 14.6h-12zm11.7 24.4c6.1 0 8.3-3.8 8.3-9.8 0-5.9-2.3-9.5-8.1-9.5h-6v19.3z" fill="#fff"/><path d="m460 84.4h21.5v4.8h-15.5v7.1h13.8v4.7h-13.8v8h16v4.9h-22z" fill="#fff"/><path d="m483.8 107.3 4.5-2.9c1.6 3.3 4.9 5.4 9 5.4 3.8 0 6-1.6 6-4.1 0-2.2-1.5-3.5-7.2-4.6-7.5-1.4-10.6-4.2-10.6-8.9 0-5.6 4.7-8.8 11.1-8.8 5.6 0 9.6 2.2 11.9 6l-4.4 2.9c-1.7-3-4.3-4.2-7.5-4.2-3.3 0-5.2 1.4-5.2 3.4 0 2.2 1.5 3.2 6.8 4.2 7.5 1.4 11 4.3 11 9.4 0 6.2-5.1 9.4-12.1 9.4-6.2.2-11.4-2.4-13.3-7.2" fill="#fff"/><path d="m512.8 84.4h5.9v29.4h-5.9z" fill="#fff"/><path d="m522.6 99.3c0-9.1 5.2-15.7 14.1-15.7 6.3 0 10.8 3 12.8 8l-5.3 1.8c-1.2-2.8-3.5-4.7-7.4-4.7-5 0-8.3 3.8-8.3 10.4 0 6.3 3.1 10.4 8.5 10.4 4.3 0 7.6-2.5 7.6-7h-7.7v-4.8h12.8v16h-5.2v-3.3h-.1c-1.6 2.5-4.9 3.9-8.6 3.9-8.2.2-13.2-5.8-13.2-15" fill="#fff"/><path d="m554.8 84.4h6.2l13 20.4h.1v-20.4h5.6v29.5h-6.1l-13.2-20.2v20.2h-5.6z" fill="#fff"/><path d="m603.6 84.4h6l11.3 29.4h-6.2l-2.2-6.2h-12l-2.2 6.2h-6.1zm7.2 18.5-4.2-11.8h-.1l-4.3 11.8z" fill="#fff"/><path d="m618.8 84.4h6l5.2 21.7h.1l5.9-21.7h5.4l6 21.7h.1l5.2-21.7h6l-8.2 29.5h-6.1l-5.7-21.2-5.9 21.2h-5.8z" fill="#fff"/><path d="m668 84.4h6l11.3 29.4h-6.2l-2.2-6.2h-12l-2.2 6.2h-6.1zm7.3 18.5-4.2-11.8h-.1l-4.3 11.8z" fill="#fff"/><path d="m687.6 84.4h13.1c6.6 0 10.8 2.7 10.8 9.1 0 4.6-2.6 7.5-6.5 8.6l7.4 11.7h-6.7l-6.9-11.2h-5.3v11.2h-5.9zm12.4 13.6c3.4 0 5.6-1.4 5.6-4.5 0-2.9-2-4.5-5.6-4.5h-6.5v9z" fill="#fff"/><path d="m715.6 84.4h12c9.5 0 14 5.3 14 14.8 0 9.2-4.7 14.6-14 14.6h-12zm11.7 24.4c6.1 0 8.3-3.8 8.3-9.8 0-5.9-2.3-9.5-8.1-9.5h-6v19.3z" fill="#fff"/><path d="m743.1 107.3 4.5-2.9c1.6 3.3 4.9 5.4 9 5.4 3.8 0 6-1.6 6-4.1 0-2.2-1.5-3.5-7.2-4.6-7.5-1.4-10.6-4.2-10.6-8.9 0-5.6 4.7-8.8 11.1-8.8 5.6 0 9.6 2.2 11.9 6l-4.4 2.9c-1.7-3-4.3-4.2-7.5-4.2-3.3 0-5.2 1.4-5.2 3.4 0 2.2 1.5 3.2 6.8 4.2 7.5 1.4 11 4.3 11 9.4 0 6.2-5.1 9.4-12.1 9.4-6.2.2-11.3-2.4-13.3-7.2" fill="#fff"/></svg>