<svg width="290" height="290" viewBox="0 0 290 290" fill="none" xmlns="http://www.w3.org/2000/svg">
<rect width="290" height="290" fill="white"/>
<g clip-path="url(#clip0)">
<path d="M205.6 127.4H193.5V115.3H204.9H205.6V127.4ZM229.9 127.4H217.8V115.3H229.2H229.9V127.4ZM205.6 103.1H193.5V91H204.9H205.6V103.1ZM229.9 103.1H217.8V91H229.2H229.9V103.1Z" fill="#ED1846"/>
<path fill-rule="evenodd" clip-rule="evenodd" d="M187 159.7C188.1 158.1 188.6 156.3 188.6 154.2C188.6 152.5 188.3 151.1 187.7 149.9C187.1 148.7 186.3 147.7 185.3 146.9C184.3 146.1 183.2 145.4 181.9 144.8C180.6 144.2 179.3 143.7 178 143.2C176.6 142.7 175.4 142.2 174.4 141.7C173.4 141.2 172.5 140.5 171.9 139.7C171.3 138.9 171 137.8 171 136.6C171 135.6 171.3 134.7 171.8 133.8C172.3 133 173.1 132.3 174.1 131.9C175.1 131.4 176.4 131.2 177.8 131.2C178.8 131.2 179.7 131.3 180.7 131.5C181.6 131.7 182.5 132 183.4 132.3C184.2 132.6 184.9 133 185.5 133.3L187.5 129.3C186.3 128.5 184.8 127.9 183.1 127.5C181.4 127 179.5 126.8 177.4 126.8C174.8 126.8 172.6 127.2 170.9 128.1C169.1 128.9 167.7 130.1 166.8 131.5C165.9 133 165.4 134.7 165.4 136.6C165.4 138.2 165.7 139.6 166.3 140.8C166.9 142 167.6 142.9 168.6 143.7C169.6 144.5 170.7 145.2 171.9 145.8C173.1 146.4 174.4 146.9 175.7 147.4C177.1 147.9 178.4 148.4 179.5 149C180.6 149.6 181.5 150.3 182.1 151.1C182.7 151.9 183 153 183.1 154.2C183.1 155.4 182.8 156.4 182.1 157.3C181.5 158.2 180.6 158.8 179.4 159.3C178.2 159.8 176.9 160 175.3 160C174.3 160 173.3 159.9 172.2 159.7C171.1 159.5 170.1 159.2 169.1 158.8C168.1 158.5 167.3 158.1 166.6 157.7L164.6 162C165.5 162.5 166.5 162.9 167.7 163.3C168.9 163.7 170.1 164 171.4 164.2C172.7 164.4 174 164.5 175.4 164.6C178.3 164.6 180.7 164.1 182.7 163.3C184.4 162.4 185.9 161.2 187 159.7ZM156.3 159.7C157.4 158.1 157.9 156.3 157.9 154.2C157.9 152.5 157.6 151.1 157 149.9C156.4 148.7 155.6 147.7 154.6 146.9C153.6 146.1 152.5 145.4 151.2 144.8C149.9 144.2 148.6 143.7 147.3 143.2C145.9 142.7 144.7 142.2 143.7 141.7C142.7 141.2 141.8 140.5 141.2 139.7C140.6 138.9 140.3 137.8 140.3 136.6C140.3 135.6 140.6 134.7 141.1 133.8C141.6 133 142.4 132.3 143.4 131.9C144.4 131.4 145.7 131.2 147.1 131.2C148.1 131.2 149 131.3 150 131.5C150.9 131.7 151.8 132 152.7 132.3C153.5 132.6 154.2 133 154.8 133.3L156.8 129.3C155.6 128.5 154.1 127.9 152.4 127.5C150.7 127 148.8 126.8 146.7 126.8C144.1 126.8 141.9 127.2 140.2 128.1C138.4 128.9 137 130.1 136.1 131.5C135.2 133 134.7 134.7 134.7 136.6C134.7 138.2 135 139.6 135.6 140.8C136.2 142 136.9 142.9 137.9 143.7C138.9 144.5 140 145.2 141.2 145.8C142.4 146.4 143.7 146.9 145 147.4C146.4 147.9 147.7 148.4 148.8 149C149.9 149.6 150.8 150.3 151.4 151.1C152 151.9 152.3 153 152.4 154.2C152.4 155.4 152.1 156.4 151.4 157.3C150.8 158.2 149.9 158.8 148.7 159.3C147.5 159.8 146.2 160 144.6 160C143.6 160 142.6 159.9 141.5 159.7C140.4 159.5 139.4 159.2 138.4 158.8C137.4 158.5 136.6 158.1 135.9 157.7L133.9 162C134.8 162.5 135.8 162.9 137 163.3C138.2 163.7 139.4 164 140.7 164.2C142 164.4 143.3 164.5 144.7 164.6C147.6 164.6 150 164.1 152 163.3C153.7 162.4 155.3 161.2 156.3 159.7ZM111.6 163.9H124.9V127.4H119.3V159.1H111.6C108.8 159.1 106.7 158.5 105.3 157.1C103.9 155.8 103.2 153.8 103.2 151.1V127.4H97.5V151.1C97.5 154 98.1 156.4 99.1 158.3C100.2 160.2 101.8 161.6 103.8 162.5C106 163.4 108.6 163.9 111.6 163.9ZM82.1 163.9H87.7V139.5C87.7 136.9 87.1 134.7 86 132.9C84.9 131.1 83.3 129.8 81.3 128.8C79.3 127.9 76.9 127.4 74.1 127.4H65.5V109.2H59.8V163.9H65.5V132H73.1C75 132 76.5 132.3 77.9 132.9C79.2 133.5 80.3 134.3 81 135.5C81.7 136.7 82.1 138.1 82.1 139.9V163.9Z" fill="black"/>
<path d="M66.2 178.899V184.499C66.7 183.399 67.7 182.799 68.7 182.799C71.8 182.799 72.7 185.599 72.7 188.899C72.7 192.399 71.9 195.499 68.8 195.499C67.6 195.499 66.9 194.899 66.2 193.899V199.299H64.5V193.899C63.8 194.899 63.1 195.499 61.9 195.499C58.7 195.499 58 192.399 58 188.899C58 185.599 58.9 182.799 62 182.799C63 182.799 64 183.299 64.5 184.499V178.899H66.2ZM59.8 189.099C59.8 191.399 59.9 193.999 62.1 193.999C63.9 193.999 64.5 192.099 64.5 188.899C64.5 187.299 64.3 184.199 62.1 184.199C60 184.199 59.8 186.999 59.8 189.099ZM66.2 189.099C66.2 191.399 66.3 193.999 68.5 193.999C70.3 193.999 70.9 192.099 70.9 188.899C70.9 187.299 70.7 184.199 68.5 184.199C66.4 184.199 66.2 186.999 66.2 189.099Z" fill="black"/>
<path d="M75.2 186.3C75.2 183.8 76.4 182.7 78.7 182.7C81.1 182.7 82.1 184.2 82.1 185.8V192.9C82.1 193.5 82.3 193.9 82.8 193.9C82.9 193.9 83.1 193.9 83.2 193.9V195.2C83.1 195.3 82.8 195.3 82.5 195.3C81.5 195.3 80.9 195.2 80.6 193.5C80.2 194.6 79.1 195.5 77.9 195.5C75.8 195.5 74.8 194.4 74.8 192.2C74.8 190 75.7 189.3 77.8 188.5C78.6 188.2 79.8 187.7 80 187.6C80.4 187.4 80.5 186.8 80.5 186.2C80.5 184.8 80 184.3 78.7 184.3C77.4 184.3 76.9 185 76.9 186.4H75.2V186.3ZM76.5 192.1C76.5 193.2 77 194 78.1 194C79.9 194 80.3 192.8 80.3 191.5V188.6C78.5 189.6 76.5 189.8 76.5 192.1Z" fill="black"/>
<path d="M87.9 183.1L90.1 191.1C90.3 191.7 90.4 192.7 90.5 193.6C90.6 192.8 90.7 191.8 90.9 191.1L93.1 183.1H95.8V195.2H94.1V184.5L91 195.2H90L87 184.5V195.2H85.3V183.1H87.9Z" fill="black"/>
<path d="M99 181V178.8H100.7V181H99ZM100.8 195.2H99V183.1H100.7V195.2H100.8Z" fill="black"/>
<path d="M111.8 183.1V195.2H110.1V184.5H106.3V189.3C106.3 192.8 105.8 195.3 103.7 195.3C103.2 195.3 103 195.3 102.7 195.1V193.7C102.9 193.7 103.2 193.8 103.4 193.8C104.3 193.8 104.7 193.1 104.7 189.1V183H111.8V183.1Z" fill="black"/>
<path d="M116.7 188.1H119.1C121.1 188.1 122.5 189.7 122.5 191.8C122.5 193.9 121.1 195.3 119.1 195.3H115V183.1H116.7V188.1ZM116.7 193.7H118.5C120.1 193.7 120.7 193 120.7 191.6C120.7 190.3 120.1 189.5 118.6 189.5H116.7V193.7Z" fill="black"/>
<path d="M126.9 188.1H131.2V183.1H132.9V195.2H131.2V189.6H126.9V195.2H125.2V183.1H126.9V188.1Z" fill="black"/>
<path d="M135.9 186.3C135.9 183.8 137.1 182.7 139.4 182.7C141.8 182.7 142.8 184.2 142.8 185.8V192.9C142.8 193.5 143 193.9 143.5 193.9C143.6 193.9 143.8 193.9 143.9 193.9V195.2C143.8 195.3 143.5 195.3 143.2 195.3C142.2 195.3 141.6 195.2 141.3 193.5C140.9 194.6 139.8 195.5 138.6 195.5C136.5 195.5 135.5 194.4 135.5 192.2C135.5 190 136.4 189.3 138.5 188.5C139.3 188.2 140.5 187.7 140.7 187.6C141.1 187.4 141.2 186.8 141.2 186.2C141.2 184.8 140.7 184.3 139.4 184.3C138.1 184.3 137.6 185 137.6 186.4H135.9V186.3ZM137.2 192.1C137.2 193.2 137.7 194 138.8 194C140.6 194 141 192.8 141 191.5V188.6C139.3 189.6 137.2 189.8 137.2 192.1Z" fill="black"/>
<path d="M152.8 187.1V183.1H159.4V193.8H160.6V198.5H159V195.2H151.9V198.5H150.3V193.8H151.3C152.4 191.5 152.8 190.1 152.8 187.1ZM157.7 184.5H154.5V188C154.5 190.5 154.1 191.7 153.2 193.7H157.8V184.5H157.7Z" fill="black"/>
<path d="M164.3 184.4C164.9 183.3 166 182.7 166.8 182.7C169.9 182.7 170.8 185.5 170.8 188.9C170.8 192.6 170 195.5 166.9 195.5C165.7 195.5 164.9 194.9 164.3 193.9V199.4H162.6V183.1H164.3V184.4ZM164.3 189.1C164.3 191.4 164.4 194 166.6 194C168.4 194 169 192.1 169 188.9C169 187.3 168.8 184.2 166.6 184.2C164.5 184.2 164.3 187 164.3 189.1Z" fill="black"/>
<path d="M174.1 183.1L177 192.8L179.7 183.1H181.5L177.7 195.3C177 197.5 176.4 199.4 174 199.4C173.6 199.4 173.2 199.3 172.8 199.2V197.7C173.2 197.9 173.7 198 174.1 198C175.3 198 175.8 196.9 176.2 195.5L172.3 183.2H174.1V183.1Z" fill="black"/>
<path d="M184.9 188.7L189.1 183.1H191.1L187.4 187.8L191.3 195.2H189.3L186.3 189.2L185 190.9V195.2H183.3V183.1H185V188.7H184.9Z" fill="black"/>
<path d="M192.9 186.3C192.9 183.8 194.1 182.7 196.4 182.7C198.8 182.7 199.8 184.2 199.8 185.8V192.9C199.8 193.5 200 193.9 200.5 193.9C200.6 193.9 200.8 193.9 200.9 193.9V195.2C200.8 195.3 200.5 195.3 200.2 195.3C199.2 195.3 198.6 195.2 198.3 193.5C197.9 194.6 196.8 195.5 195.6 195.5C193.5 195.5 192.5 194.4 192.5 192.2C192.5 190 193.4 189.3 195.5 188.5C196.3 188.2 197.5 187.7 197.7 187.6C198.1 187.4 198.2 186.8 198.2 186.2C198.2 184.8 197.7 184.3 196.4 184.3C195.1 184.3 194.6 185 194.6 186.4H192.9V186.3ZM194.2 192.1C194.2 193.2 194.7 194 195.8 194C197.6 194 198 192.8 198 191.5V188.6C196.3 189.6 194.2 189.8 194.2 192.1Z" fill="black"/>
<path d="M204.7 184.4C205.3 183.3 206.4 182.7 207.2 182.7C210.3 182.7 211.2 185.5 211.2 188.9C211.2 192.6 210.4 195.5 207.3 195.5C206.1 195.5 205.3 194.9 204.7 193.9V199.4H203V183.1H204.7V184.4ZM204.7 189.1C204.7 191.4 204.8 194 207 194C208.8 194 209.4 192.1 209.4 188.9C209.4 187.3 209.2 184.2 207 184.2C204.9 184.2 204.7 187 204.7 189.1Z" fill="black"/>
<path d="M215.6 188.1H219.9V183.1H221.6V195.2H219.9V189.6H215.6V195.2H213.9V183.1H215.6V188.1Z" fill="black"/>
<path d="M228.3 190.1L225.8 195.2H224L226.6 189.9C225.3 189.4 224.4 188.1 224.4 186.5C224.4 184.4 225.8 183.1 227.8 183.1H232V195.2H230.3V190.1H228.3ZM230.2 184.5H228.3C226.7 184.5 226.2 185.2 226.2 186.6C226.2 187.9 226.8 188.6 228.3 188.6H230.3V184.5H230.2Z" fill="black"/>
</g>
<defs>
<clipPath id="clip0">
<rect width="173.9" height="108.4" fill="white" transform="translate(58 91)"/>
</clipPath>
</defs>
</svg>
