<svg width="290" height="290" viewBox="0 0 290 290" fill="none" xmlns="http://www.w3.org/2000/svg">
<rect width="290" height="290" fill="white"/>
<g clip-path="url(#clip0)">
<path d="M132.542 134.81C145.336 134.81 168.449 104.659 168.449 89.914C168.449 88.1457 166.183 87.3965 165.437 87.3965C165.437 98.1559 137.492 133.101 128.873 128.516C122.61 125.159 128.336 134.81 132.542 134.81Z" fill="#010101"/>
<path d="M110.711 74C92.4583 74 64.3344 101.902 64.3344 118.626C64.3344 131.753 69.6133 137.657 69.6133 154.77C69.6133 169.216 60.9345 183.422 50.1383 183.422C47.812 183.422 46.5296 182.493 46.5296 181.024C46.5296 179.556 65.6765 164.661 65.6765 160.285C65.6765 158.277 64.9607 156.059 63.5888 156.059C63.5888 157.618 38 171.344 38 176.379C38 181.594 38.6859 193.282 54.1645 193.282C69.6431 193.282 80.5884 177.218 80.5884 166.159C80.5884 145.749 72.5956 138.736 72.5956 127.887C72.5956 117.307 94.1583 85.179 117.242 85.179C145.694 85.179 92.2794 135.2 79.1271 135.2C75.7868 135.2 80.4393 143.981 86.3146 143.981C92.1899 143.981 131.11 118.057 131.11 91.3829C131.11 85.2389 121.805 74 110.711 74Z" fill="#010101"/>
<path d="M164.423 81.5527C151.122 81.5527 88.7603 156.839 88.7603 175.81C88.7603 183.183 94.6355 185.071 95.8583 185.071C97.0811 185.071 96.8425 182.493 96.8425 180.725C96.8425 162.982 162.455 90.1842 167.376 90.1842C169.255 90.1842 169.344 87.9065 169.344 87.7266C169.314 83.261 166.63 81.5527 164.423 81.5527Z" fill="#010101"/>
<path d="M135.613 138.497C123.833 154.651 115.333 168.647 115.333 175.81C115.333 183.183 121.208 185.071 122.431 185.071C123.654 185.071 123.415 182.493 123.415 180.725C123.415 173.382 129.738 165.38 142.503 146.799C142.652 145.899 152.822 132.413 135.613 138.497Z" fill="#010101"/>
<path d="M194.486 133.551C182.705 149.705 174.205 163.701 174.205 170.864C174.205 178.237 180.081 180.125 181.304 180.125C182.526 180.125 182.288 177.548 182.288 175.779C182.288 168.437 188.61 160.434 201.375 141.853C201.554 140.984 211.724 127.467 194.486 133.551Z" fill="#010101"/>
<path d="M140.296 137.537C126.398 137.537 95.8582 170.385 95.8582 178.836C95.8582 178.836 94.1881 184.531 96.4845 184.711C96.4845 178.956 132.691 139.425 138.655 143.351C144.62 147.278 147.513 137.537 140.296 137.537Z" fill="#010101"/>
<path d="M122.252 185.04C125.444 185.7 134.599 179.676 145.097 170.025C149.72 163.881 145.903 161.364 143.576 163.552C134.182 173.172 124.489 181.354 121.656 179.466C115.721 175.57 119.27 182.043 122.252 185.04Z" fill="#010101"/>
<path d="M240.325 131.993C231.557 131.993 201.942 167.328 201.942 175.72C201.942 175.72 199.615 179.346 202.538 179.586C202.538 175.84 239.758 135.62 245.723 139.576C251.658 143.502 244.53 131.993 240.325 131.993Z" fill="#010101"/>
<path d="M229.827 118.506C224.13 111.822 149.78 122.642 143.427 128.126C143.427 128.126 139.162 128.726 140.892 131.093C143.725 128.666 225.353 121.653 230.185 126.928C235.135 132.382 232.571 121.713 229.827 118.506Z" fill="#010101"/>
<path d="M253 111.763C249.362 111.193 245.216 110.354 240.564 109.155C241.041 107.657 241.518 106.098 242.055 104.51C240.504 105.169 239.013 105.769 237.551 106.338C236.03 101.753 234.897 97.6765 234.062 94.0801C233.495 97.7365 232.66 101.902 231.467 106.578C229.976 106.098 228.425 105.619 226.845 105.079C227.501 106.638 228.097 108.136 228.664 109.605C224.101 111.133 220.045 112.272 216.466 113.111C217.39 113.261 229.797 113.261 232.601 115.719C234.062 117.067 234.897 118.746 235.285 121.353C235.434 122.432 236.955 122.492 237.223 121.413C237.462 120.394 237.7 119.375 237.969 118.326C239.46 118.806 241.011 119.285 242.592 119.825C241.935 118.266 241.339 116.768 240.772 115.299C245.335 113.741 249.421 112.572 253 111.763Z" fill="#010101"/>
<path d="M170.299 134.81C175.995 134.81 178.769 143.201 173.818 143.201C170.299 143.201 146.976 154.26 146.976 181.743C146.976 183.332 140.177 182.463 140.177 172.752C140.147 151.263 162.216 134.81 170.299 134.81Z" fill="#010101"/>
<path d="M147.394 183.272C141.697 183.272 137.761 171.914 142.741 171.914C143.606 171.914 145.992 173.742 147.662 173.742C153.03 173.742 166.63 163.072 171.67 148.567C171.939 147.817 192.577 140.025 192.577 137.118C192.577 135.529 196.394 136.219 196.394 141.883C196.394 144.64 176.89 148.147 175.995 151.054C171.044 166.998 154.253 183.272 147.394 183.272Z" fill="#010101"/>
<path d="M200.689 152.463C200.182 151.414 205.103 152.014 207.34 156.479C209.099 159.956 201.971 167.448 202.538 178.927C202.687 182.104 195.529 180.006 195.201 177.548C193.531 164.871 202.031 155.19 200.689 152.463Z" fill="#010101"/>
<path d="M180.469 177.998C180.618 174.191 197.17 154.291 202.359 154.291C207.757 154.291 204.268 159.596 202.15 159.596C197.558 159.596 183.063 178.387 181.304 180.156C180.409 180.126 180.349 178.597 180.469 177.998Z" fill="#010101"/>
<path d="M93.2039 205.122C93.1741 205.062 93.025 204.972 92.7566 204.792C92.4881 204.642 92.1899 204.462 91.8022 204.312C91.4145 204.133 90.997 203.983 90.5496 203.863C90.1022 203.743 89.6549 203.683 89.2075 203.683C87.9549 203.683 87.3286 204.103 87.3286 204.942C87.3286 205.212 87.3883 205.421 87.5374 205.571C87.6865 205.751 87.8654 205.901 88.1339 206.021C88.4023 206.171 88.7303 206.29 89.118 206.38C89.5058 206.5 89.9829 206.62 90.4899 206.77C91.2057 206.98 91.8618 207.19 92.4285 207.429C92.9952 207.669 93.5022 207.969 93.8899 208.298C94.3074 208.658 94.6056 209.078 94.8144 209.557C95.0232 210.067 95.1425 210.666 95.1425 211.355C95.1425 212.195 94.9934 212.944 94.6653 213.513C94.3372 214.113 93.9197 214.592 93.4127 214.952C92.8759 215.312 92.2794 215.581 91.6233 215.731C90.9373 215.881 90.2514 215.971 89.5356 215.971C88.9988 215.971 88.4321 215.941 87.8356 215.851C87.269 215.761 86.7023 215.641 86.1357 215.491C85.5988 215.342 85.062 215.132 84.5252 214.892C83.9883 214.652 83.541 214.412 83.0936 214.113L84.6146 211.056C84.6743 211.116 84.8532 211.266 85.1515 211.475C85.4497 211.685 85.8374 211.865 86.3146 212.075C86.762 212.285 87.2988 212.464 87.8654 212.614C88.4321 212.764 88.9988 212.854 89.5952 212.854C90.818 212.854 91.4443 212.464 91.4443 211.715C91.4443 211.445 91.3548 211.206 91.1759 211.026C90.997 210.846 90.7285 210.666 90.4005 210.516C90.0724 210.366 89.6847 210.217 89.2373 210.097C88.79 209.977 88.3128 209.827 87.776 209.677C87.09 209.467 86.4935 209.228 85.9865 208.988C85.4795 208.748 85.062 208.448 84.7339 208.119C84.4059 207.789 84.1673 207.429 83.9883 206.98C83.8392 206.56 83.7498 206.051 83.7498 205.481C83.7498 204.672 83.8989 203.983 84.1971 203.383C84.4953 202.784 84.8831 202.244 85.4199 201.825C85.9269 201.405 86.5234 201.076 87.1795 200.866C87.8356 200.656 88.5514 200.536 89.297 200.536C89.8338 200.536 90.3408 200.596 90.8478 200.686C91.3548 200.776 91.832 200.926 92.3092 201.076C92.7864 201.225 93.2039 201.405 93.6215 201.615C94.039 201.825 94.3969 202.005 94.7249 202.214L93.2039 205.122Z" fill="#010101"/>
<path d="M109.905 212.764V215.821H99.3177V200.686H109.696V203.772H102.777V206.71H108.712V209.557H102.777V212.764H109.905Z" fill="#010101"/>
<path d="M114.17 215.821V200.686H120.94C121.656 200.686 122.312 200.835 122.908 201.135C123.505 201.435 124.042 201.824 124.459 202.304C124.907 202.783 125.235 203.323 125.473 203.952C125.712 204.552 125.831 205.181 125.831 205.81C125.831 206.29 125.772 206.74 125.652 207.159C125.533 207.579 125.384 207.998 125.175 208.388C124.966 208.778 124.698 209.107 124.4 209.407C124.101 209.707 123.743 209.976 123.386 210.186L126.696 215.821H122.759L119.866 210.935H117.63V215.821H114.17ZM117.63 207.908H120.821C121.238 207.908 121.596 207.699 121.894 207.309C122.193 206.919 122.342 206.41 122.342 205.81C122.342 205.181 122.163 204.702 121.835 204.312C121.507 203.952 121.119 203.772 120.731 203.772H117.63V207.908Z" fill="#010101"/>
<path d="M132.303 200.716L135.852 211.445L139.341 200.716H143.01L137.313 215.821H134.391L128.635 200.686H132.303V200.716Z" fill="#010101"/>
<path d="M146.529 215.821V200.686H150.018V215.821H146.529Z" fill="#010101"/>
<path d="M154.134 208.149C154.134 207.25 154.313 206.321 154.641 205.422C154.969 204.523 155.476 203.714 156.132 202.994C156.788 202.275 157.564 201.706 158.518 201.256C159.443 200.806 160.516 200.597 161.709 200.597C163.111 200.597 164.364 200.896 165.378 201.526C166.421 202.125 167.197 202.934 167.704 203.923L165.02 205.812C164.841 205.422 164.632 205.092 164.364 204.823C164.095 204.553 163.827 204.343 163.499 204.193C163.2 204.043 162.872 203.923 162.544 203.863C162.216 203.804 161.888 203.774 161.59 203.774C160.934 203.774 160.337 203.923 159.86 204.193C159.353 204.463 158.965 204.823 158.637 205.242C158.309 205.662 158.071 206.141 157.922 206.681C157.773 207.22 157.683 207.76 157.683 208.329C157.683 208.928 157.773 209.498 157.951 210.067C158.13 210.607 158.399 211.116 158.757 211.536C159.115 211.955 159.532 212.285 160.009 212.555C160.487 212.825 161.053 212.915 161.65 212.915C161.948 212.915 162.276 212.885 162.604 212.795C162.932 212.705 163.26 212.585 163.558 212.435C163.857 212.285 164.155 212.045 164.393 211.806C164.632 211.566 164.841 211.206 165.02 210.847L167.853 212.525C167.614 213.064 167.286 213.574 166.839 214.023C166.392 214.473 165.885 214.833 165.288 215.132C164.721 215.432 164.095 215.672 163.439 215.822C162.783 215.971 162.157 216.061 161.53 216.061C160.427 216.061 159.443 215.852 158.518 215.402C157.594 214.952 156.818 214.353 156.162 213.634C155.506 212.885 154.999 212.045 154.641 211.116C154.313 210.067 154.134 209.108 154.134 208.149Z" fill="#010101"/>
<path d="M182.318 212.764V215.821H171.73V200.686H182.109V203.772H175.19V206.71H181.125V209.557H175.19V212.764H182.318Z" fill="#010101"/>
<path d="M205.491 207.129H192.338V209.586H205.491V207.129Z" fill="#010101"/>
<path d="M72.7746 207.129H59.6223V209.586H72.7746V207.129Z" fill="#010101"/>
</g>
<defs>
<clipPath id="clip0">
<rect width="215" height="142" fill="white" transform="translate(38 74)"/>
</clipPath>
</defs>
</svg>
