<svg width="290" height="290" viewBox="0 0 290 290" fill="none" xmlns="http://www.w3.org/2000/svg">
<rect width="290" height="290" fill="white"/>
<path d="M149.74 124.473H156.793V126.688H152.196V128.508H155.683V130.645H152.196V133.731H149.74V124.473Z" fill="black"/>
<path d="M157.03 126.847H159.249V127.875H159.408C159.408 127.875 159.804 126.768 161.072 126.768H161.785V128.983H160.676C159.883 128.983 159.328 129.537 159.328 130.329V133.731H157.11V126.847H157.03Z" fill="black"/>
<path d="M165.747 126.688C167.966 126.688 169.551 128.349 169.551 130.328C169.551 132.306 167.887 133.968 165.747 133.968C163.528 133.968 161.944 132.306 161.944 130.328C161.864 128.349 163.528 126.688 165.747 126.688ZM165.747 131.989C166.619 131.989 167.253 131.356 167.253 130.248C167.253 129.141 166.619 128.508 165.747 128.508C164.876 128.508 164.242 129.141 164.242 130.248C164.242 131.356 164.876 131.989 165.747 131.989Z" fill="black"/>
<path d="M170.581 126.846H172.8V127.795H172.959C172.959 127.795 173.513 126.688 174.94 126.688C176.683 126.688 177.159 127.954 177.159 127.954H177.317C177.317 127.954 177.793 126.688 179.457 126.688C181.042 126.688 182.072 127.716 182.072 129.536V133.73H179.853V129.853C179.853 128.982 179.457 128.587 178.823 128.587C178.109 128.587 177.555 129.141 177.555 130.011V133.73H175.336V129.853C175.336 128.982 174.94 128.587 174.306 128.587C173.593 128.587 173.038 129.141 173.038 130.011V133.73H170.819V126.846H170.581Z" fill="black"/>
<path d="M187.144 124.473H190.71C193.8 124.473 195.861 126.53 195.861 129.141C195.861 131.753 193.8 133.81 190.71 133.81H187.144V124.473ZM190.71 131.515C192.374 131.515 193.325 130.566 193.325 129.141C193.325 127.717 192.374 126.768 190.71 126.768H189.6V131.515H190.71Z" fill="black"/>
<path d="M200.457 126.688C202.676 126.688 204.261 128.349 204.261 130.328V130.723H199.03C199.189 131.673 199.664 132.148 200.457 132.148C201.487 132.148 201.804 131.435 201.804 131.435H204.181C204.181 131.435 203.547 133.968 200.457 133.968C198.317 133.968 196.653 132.306 196.653 130.328C196.732 128.349 198.317 126.688 200.457 126.688ZM201.883 129.536C201.725 128.903 201.249 128.428 200.457 128.428C199.744 128.428 199.189 128.982 199.03 129.536H201.883Z" fill="black"/>
<path d="M207.192 131.516C207.192 131.516 207.43 132.228 208.46 132.228C209.094 132.228 209.411 131.99 209.411 131.753C209.411 130.803 205.291 131.436 205.291 128.746C205.291 127.638 206.242 126.609 208.302 126.609C211.313 126.609 211.709 128.904 211.709 128.904H209.491C209.491 128.904 209.332 128.271 208.46 128.271C207.906 128.271 207.668 128.509 207.668 128.746C207.668 129.696 211.789 128.983 211.789 131.674C211.789 132.861 210.759 133.89 208.54 133.89C205.449 133.89 205.053 131.436 205.053 131.436H207.192V131.516Z" fill="black"/>
<path d="M213.849 123.918C214.562 123.918 215.117 124.472 215.117 125.026C215.117 125.659 214.562 126.134 213.849 126.134C213.136 126.134 212.581 125.58 212.581 125.026C212.581 124.393 213.136 123.918 213.849 123.918ZM212.74 126.846H214.959V133.73H212.74V126.846Z" fill="black"/>
<path d="M219.159 126.688C220.585 126.688 221.219 127.716 221.219 127.716H221.377V126.846H223.596V136.263H217.019V134.443H221.298V132.622H221.14C221.14 132.622 220.506 133.651 219.079 133.651C217.415 133.651 216.068 132.227 216.068 130.169C216.068 128.112 217.494 126.688 219.159 126.688ZM219.872 131.752C220.743 131.752 221.298 131.119 221.298 130.169C221.298 129.22 220.664 128.587 219.872 128.587C219 128.587 218.445 129.22 218.445 130.169C218.445 131.119 219 131.752 219.872 131.752Z" fill="black"/>
<path d="M224.943 126.846H227.162V127.795H227.321C227.321 127.795 227.955 126.688 229.381 126.688C230.966 126.688 231.996 127.716 231.996 129.536V133.73H229.698V129.853C229.698 129.061 229.223 128.587 228.51 128.587C227.796 128.587 227.162 129.22 227.162 130.09V133.73H224.943V126.846Z" fill="black"/>
<path d="M148.947 140.377H157.268V142.593H154.336V149.635H151.879V142.593H148.947V140.377Z" fill="black"/>
<path d="M158.06 140.377H160.279V143.701H160.438C160.438 143.701 161.072 142.593 162.498 142.593C164.083 142.593 165.113 143.621 165.113 145.441V149.715H162.894V145.837C162.894 145.046 162.419 144.571 161.706 144.571C160.992 144.571 160.359 145.204 160.359 146.075V149.715H158.14V140.377H158.06Z" fill="black"/>
<path d="M167.491 139.744C168.204 139.744 168.759 140.298 168.759 140.852C168.759 141.485 168.204 141.96 167.491 141.96C166.777 141.96 166.223 141.406 166.223 140.852C166.302 140.298 166.777 139.744 167.491 139.744ZM166.381 142.751H168.6V149.636H166.381V142.751Z" fill="black"/>
<path d="M170.026 142.752H172.245V143.702H172.404C172.404 143.702 173.038 142.594 174.464 142.594C176.049 142.594 177.079 143.622 177.079 145.443V149.716H174.86V145.838C174.86 145.047 174.385 144.572 173.672 144.572C172.959 144.572 172.325 145.205 172.325 146.076V149.716H170.106V142.752H170.026Z" fill="black"/>
<path d="M178.347 140.377H180.566V145.204H181.279L182.785 142.751H185.162L183.181 145.995L185.4 149.635H182.944L181.438 147.103H180.566V149.635H178.347V140.377Z" fill="black"/>
<path d="M187.302 139.744C188.015 139.744 188.57 140.298 188.57 140.852C188.57 141.485 188.015 141.96 187.302 141.96C186.589 141.96 186.034 141.406 186.034 140.852C186.034 140.298 186.589 139.744 187.302 139.744ZM186.193 142.751H188.411V149.636H186.193V142.751Z" fill="black"/>
<path d="M189.838 142.752H192.057V143.702H192.215C192.215 143.702 192.849 142.594 194.276 142.594C195.86 142.594 196.891 143.622 196.891 145.443V149.716H194.672V145.838C194.672 145.047 194.196 144.572 193.483 144.572C192.77 144.572 192.136 145.205 192.136 146.076V149.716H189.917V142.752H189.838Z" fill="black"/>
<path d="M200.853 142.514C202.279 142.514 202.913 143.542 202.913 143.542H203.072V142.672H205.291V152.089H198.713V150.348H202.993V148.528H202.834C202.834 148.528 202.2 149.556 200.774 149.556C199.109 149.556 197.762 148.132 197.762 146.075C197.762 144.017 199.189 142.514 200.853 142.514ZM201.566 147.657C202.438 147.657 202.993 147.024 202.993 146.075C202.993 145.125 202.359 144.492 201.566 144.492C200.694 144.492 200.14 145.125 200.14 146.075C200.14 147.024 200.774 147.657 201.566 147.657Z" fill="black"/>
<path d="M209.887 142.753H210.759V141.328H212.977V142.753H214.8V144.573H212.977V147.896H214.879V149.716H210.679V144.652H209.887V142.753Z" fill="black"/>
<path d="M219.238 142.514C221.457 142.514 223.042 144.175 223.042 146.154C223.042 148.132 221.378 149.794 219.238 149.794C217.019 149.794 215.434 148.132 215.434 146.154C215.355 144.175 217.019 142.514 219.238 142.514ZM219.238 147.895C220.11 147.895 220.744 147.262 220.744 146.154C220.744 145.046 220.11 144.413 219.238 144.413C218.366 144.413 217.732 145.046 217.732 146.154C217.732 147.262 218.366 147.895 219.238 147.895Z" fill="black"/>
<path d="M149.74 156.205H153.306C156.396 156.205 158.457 158.263 158.457 160.874C158.457 163.485 156.396 165.543 153.306 165.543H149.74V156.205ZM153.306 163.248C154.97 163.248 155.921 162.298 155.921 160.874C155.921 159.45 154.97 158.5 153.306 158.5H152.196V163.248H153.306Z" fill="black"/>
<path d="M163.053 158.42C165.272 158.42 166.857 160.082 166.857 162.06V162.456H161.547C161.706 163.405 162.181 163.88 162.974 163.88C164.004 163.88 164.321 163.168 164.321 163.168H166.698C166.698 163.168 166.064 165.7 162.974 165.7C160.834 165.7 159.17 164.038 159.17 162.06C159.249 160.082 160.913 158.42 163.053 158.42ZM164.4 161.348C164.242 160.715 163.766 160.24 162.974 160.24C162.26 160.24 161.706 160.794 161.547 161.348H164.4Z" fill="black"/>
<path d="M169.71 163.246C169.71 163.246 169.947 163.958 170.977 163.958C171.611 163.958 171.928 163.721 171.928 163.483C171.928 162.534 167.808 163.167 167.808 160.476C167.808 159.369 168.759 158.34 170.819 158.34C173.83 158.34 174.227 160.635 174.227 160.635H172.008C172.008 160.635 171.849 160.002 170.977 160.002C170.423 160.002 170.185 160.239 170.185 160.476C170.185 161.426 174.306 160.714 174.306 163.404C174.306 164.591 173.276 165.62 171.057 165.62C167.966 165.62 167.57 163.167 167.57 163.167H169.71V163.246Z" fill="black"/>
<path d="M176.445 155.65C177.159 155.65 177.713 156.204 177.713 156.758C177.713 157.391 177.159 157.866 176.445 157.866C175.732 157.866 175.177 157.312 175.177 156.758C175.177 156.125 175.653 155.65 176.445 155.65ZM175.257 158.657H177.476V165.542H175.257V158.657Z" fill="black"/>
<path d="M181.676 158.42C183.102 158.42 183.736 159.449 183.736 159.449H183.894V158.578H186.113V167.995H179.536V166.175H183.815V164.355H183.736C183.736 164.355 183.102 165.384 181.676 165.384C180.011 165.384 178.664 163.959 178.664 161.902C178.664 159.844 180.091 158.42 181.676 158.42ZM182.468 163.484C183.34 163.484 183.894 162.851 183.894 161.902C183.894 160.952 183.261 160.319 182.468 160.319C181.596 160.319 181.042 160.952 181.042 161.902C181.042 162.851 181.596 163.484 182.468 163.484Z" fill="black"/>
<path d="M187.46 158.656H189.679V159.606H189.838C189.838 159.606 190.472 158.498 191.898 158.498C193.483 158.498 194.513 159.527 194.513 161.347V165.62H192.294V161.742C192.294 160.951 191.819 160.476 191.106 160.476C190.393 160.476 189.759 161.109 189.759 161.98V165.62H187.54V158.656H187.46Z" fill="black"/>
<path d="M199.664 156.205H203.23C206.321 156.205 208.381 158.263 208.381 160.874C208.381 163.485 206.321 165.543 203.23 165.543H199.664V156.205ZM203.23 163.248C204.894 163.248 205.845 162.298 205.845 160.874C205.845 159.45 204.894 158.5 203.23 158.5H202.121V163.248H203.23Z" fill="black"/>
<path d="M213.057 158.42C215.276 158.42 216.86 160.082 216.86 162.06C216.86 164.038 215.196 165.7 213.057 165.7C210.838 165.7 209.253 164.038 209.253 162.06C209.253 160.082 210.838 158.42 213.057 158.42ZM213.057 163.801C213.928 163.801 214.562 163.168 214.562 162.06C214.562 160.952 213.928 160.319 213.057 160.319C212.185 160.319 211.551 160.952 211.551 162.06C211.551 163.168 212.185 163.801 213.057 163.801Z" fill="black"/>
<path d="M219.079 155.65C219.793 155.65 220.347 156.204 220.347 156.758C220.347 157.391 219.793 157.866 219.079 157.866C218.366 157.866 217.811 157.312 217.811 156.758C217.811 156.125 218.366 155.65 219.079 155.65ZM217.97 158.657H220.189V165.542H217.97V158.657Z" fill="black"/>
<path d="M221.615 158.656H223.834V159.606H223.993C223.993 159.606 224.627 158.498 226.053 158.498C227.638 158.498 228.668 159.527 228.668 161.347V165.62H226.449V161.742C226.449 160.951 225.974 160.476 225.261 160.476C224.547 160.476 223.913 161.109 223.913 161.98V165.62H221.694V158.656H221.615Z" fill="black"/>
<path d="M232.709 158.42C234.136 158.42 234.77 159.449 234.77 159.449H234.928V158.578H237.147V167.995H230.57V166.175H234.849V164.355H234.691C234.691 164.355 234.057 165.384 232.63 165.384C230.966 165.384 229.619 163.959 229.619 161.902C229.619 159.844 231.045 158.42 232.709 158.42ZM233.423 163.484C234.294 163.484 234.849 162.851 234.849 161.902C234.849 160.952 234.215 160.319 233.423 160.319C232.551 160.319 231.996 160.952 231.996 161.902C231.996 162.851 232.551 163.484 233.423 163.484Z" fill="black"/>
<path d="M213.294 72.6388H222.566V113.709H213.294V105.162L196.574 91.7889V113.709H187.381V72.3223L213.294 93.0551V72.6388Z" fill="black"/>
<path d="M45.9283 72.6387C36.2604 72.6387 30 72.6387 30 72.6387V113.709H44.8981C44.8981 113.709 51.7925 113.392 55.6755 110.543C59.5585 107.694 65.3434 102.551 65.3434 92.6593C65.3434 80.6311 54.0113 72.6387 45.9283 72.6387ZM53.8528 100.573C50.9208 104.846 45.6906 105.321 45.6906 105.321H39.2717V81.0267C39.2717 81.0267 42.9962 81.0267 45.3736 81.0267C51.7132 81.0267 55.9925 87.5948 55.9925 92.8967C56.0717 96.062 55.517 98.1986 53.8528 100.573Z" fill="black"/>
<path d="M94.1094 72.6387V81.7389H80.3207L87.9283 93.1341L80.3207 104.608H94.1094V113.709H63.9962L77.5472 93.1341L63.9962 72.6387H94.1094Z" fill="black"/>
<path d="M188.887 176.145H179.536V217.214H188.887V176.145Z" fill="black"/>
<path d="M139.121 72.5586H129.77V113.629H139.121V72.5586Z" fill="black"/>
<path d="M180.724 79.84L173.751 85.5376C173.751 85.5376 172.166 83.7175 171.057 82.9262C168.6 81.1061 167.015 80.9479 163.766 80.9479C158.774 80.9479 152.355 85.3002 152.355 93.0552C152.355 100.573 158.536 105.004 163.37 105.004C165.43 105.004 167.808 105.004 169.551 104.371C171.691 103.58 172.087 103.026 172.087 103.026V97.3284H162.102L166.064 88.7029H181.121V107.378C181.121 107.378 177.713 110.939 173.83 112.284C169.947 113.63 168.204 114.025 164.4 114.025C159.487 114.025 152.592 112.68 146.808 105.004C144.113 101.522 143.162 95.6666 143.162 92.976C143.162 90.2064 143.241 84.2714 149.819 77.7034C154.098 73.5885 159.566 72.0059 164.875 72.0059C168.679 72.0059 175.257 73.1929 180.724 79.84Z" fill="black"/>
<path d="M194.989 175.906V217.53H204.26V196.006L230.253 218.005V176.46H220.981V198.063L194.989 175.906Z" fill="black"/>
<path d="M122.242 77.2283L116.14 83.7963C116.14 83.7963 115.109 81.9763 113.128 81.0267C111.464 80.2353 108.611 80.7893 107.977 82.1345C107.264 83.638 107.898 85.379 109.087 86.2494C110.909 87.5947 113.525 88.386 116.377 89.8895C119.785 91.7096 122.321 94.0044 123.272 96.3784C124.064 98.2776 125.966 103.975 122.162 109.04C118.358 114.104 113.128 114.025 110.909 114.025C108.691 114.025 104.174 113.709 100.053 110.464C98.1509 109.277 96.566 106.191 96.566 106.191L103.54 100.414C103.54 100.414 105.838 104.054 108.928 105.083C112.177 106.191 114.158 104.687 114.158 104.687C114.158 104.687 115.823 103.659 114.792 101.126C113.762 98.5941 109.166 98.0402 106.234 95.9828C103.302 93.9253 98.6264 91.4722 98.3887 84.5085C98.1509 77.5448 103.381 72.6386 109.325 72.0847C115.268 71.5307 119.468 73.7464 122.242 77.2283Z" fill="black"/>
<path d="M30 124.471V165.541H39.2717V149.398H50.9208V140.535H39.2717V133.571H54.4868V124.471H30Z" fill="black"/>
<path d="M60.034 124.471V165.461H101.083V124.471H60.034ZM91.8906 156.361H69.3849V133.571H91.9698V156.361H91.8906Z" fill="black"/>
<path d="M109.483 124.471V165.541H118.675V132.78H127.551L121.053 146.786L131.672 165.541H141.736L131.038 146.628L141.419 124.471H109.483Z" fill="black"/>
<path d="M107.106 217.293L90.8604 196.955L105.283 176.223H94.6642L80.2415 196.876V176.223H71.0491V217.293H80.2415V197.905L95.6944 217.293H107.106Z" fill="black"/>
<path d="M30 176.223V202.574C30 202.574 30.1585 205.423 31.1887 207.717C32.2189 210.091 35.9434 217.609 47.0377 217.609C58.1321 217.609 61.6981 209.221 61.6981 209.221C61.6981 209.221 63.6 206.056 63.6 202.495C63.6 199.646 63.6 176.223 63.6 176.223H54.3283V202.099C54.3283 202.099 54.0906 203.998 53.3774 205.264C52.5849 206.451 50.6038 208.904 46.8 208.904C42.9962 208.904 41.3321 206.926 40.2226 205.502C39.1132 204.077 39.1925 201.466 39.1925 201.466V176.223H30Z" fill="black"/>
<path d="M128.74 199.805C128.74 199.805 131.117 199.093 132.86 197.273C134.604 195.453 136.664 192.842 136.664 188.568C136.664 184.295 134.366 180.259 131.117 178.202C127.868 176.145 126.204 176.145 125.491 176.145C124.777 176.145 108.849 176.145 108.849 176.145V217.214H118.042V200.438L131.038 217.214H142.053L128.74 199.805ZM126.6 191.575C125.253 193 123.509 192.921 123.509 192.921H118.2V184.691C118.2 184.691 120.498 184.691 123.589 184.691C126.442 184.691 127.709 187.223 127.709 188.806C127.789 189.835 127.789 190.388 126.6 191.575Z" fill="black"/>
<path d="M261 176.144V185.323C261 185.323 248.479 185.323 248.162 185.323C247.766 185.323 244.834 185.64 244.834 188.488C244.834 191.258 246.657 192.128 247.766 192.128C248.638 192.128 257.513 192.128 257.513 192.128V200.991C257.513 200.991 248.4 200.991 248.004 200.991C247.608 200.991 244.834 201.466 244.834 204.315C244.834 207.005 246.815 208.034 247.766 208.034C248.558 208.034 261 208.034 261 208.034V217.134C261 217.134 250.381 217.134 247.053 217.134C241.981 217.134 235.483 211.832 235.483 204.869C235.483 204.869 235.245 200.516 238.494 196.639C237.464 195.373 235.483 192.92 235.483 188.172C235.483 183.424 239.842 176.064 247.925 176.064C254.977 176.144 261 176.144 261 176.144Z" fill="black"/>
<path d="M157.823 175.828L137.615 217.294H178.189L157.823 175.828ZM151.642 208.114L157.823 194.741L164.162 208.114H151.642Z" fill="black"/>
</svg>
