<svg width="290" height="290" viewBox="0 0 290 290" fill="none" xmlns="http://www.w3.org/2000/svg">
<rect width="290" height="290" fill="white"/>
<path fill-rule="evenodd" clip-rule="evenodd" d="M250.253 114.027L234.932 129.303L219.614 114.027C217.005 111.427 212.777 111.427 210.165 114.027C207.557 116.627 207.557 120.847 210.165 123.45L225.484 138.725L210.165 154.001C207.557 156.603 207.557 160.821 210.165 163.425C211.473 164.724 213.18 165.374 214.89 165.374C216.602 165.374 218.311 164.724 219.614 163.425L234.932 148.147L250.253 163.425C251.557 164.724 253.266 165.374 254.977 165.374C256.687 165.374 258.398 164.724 259.701 163.425C262.31 160.821 262.31 156.603 259.701 154.001L244.383 138.725L259.701 123.45C262.31 120.847 262.31 116.627 259.701 114.027C258.398 112.726 256.687 112.076 254.977 112.076C253.268 112.076 251.557 112.726 250.253 114.027ZM148.056 138.734V158.712C148.056 162.392 151.046 165.374 154.736 165.374C158.425 165.374 161.418 162.392 161.418 158.712V152.051H188.139V158.712C188.139 162.392 191.132 165.374 194.822 165.374C198.511 165.374 201.504 162.392 201.504 158.712V138.734C201.504 124.038 189.513 112.084 174.777 112.084C160.042 112.084 148.056 124.038 148.056 138.734ZM174.777 125.408C182.144 125.408 188.136 131.381 188.139 138.725H161.418C161.421 131.381 167.413 125.408 174.777 125.408ZM95.8955 119.743L80.2019 133.691C80.1515 133.732 80.1043 133.774 80.0555 133.818L64.2171 147.892C64.1227 147.977 64.0299 148.065 63.9386 148.156C61.4161 150.673 58.0596 152.057 54.4906 152.057C47.123 152.057 41.1291 146.08 41.1291 138.734C41.1291 131.386 47.123 125.408 54.4906 125.408C58.0596 125.408 61.4145 126.794 63.9386 129.309C66.5492 131.913 70.7791 131.911 73.3881 129.309C75.9956 126.706 75.9956 122.49 73.3866 119.886C68.3384 114.855 61.627 112.084 54.4906 112.084C39.7553 112.084 27.766 124.038 27.766 138.734C27.766 153.427 39.7553 165.383 54.4906 165.383C61.5609 165.383 68.2094 162.663 73.2418 157.722L84.5671 147.657L95.8955 157.724C100.925 162.663 107.575 165.383 114.645 165.383C129.379 165.383 141.37 153.427 141.37 138.734C141.37 124.038 129.379 112.084 114.645 112.084C107.575 112.084 100.925 114.802 95.8955 119.743ZM105.199 148.157C105.106 148.066 105.016 147.979 104.917 147.894L94.6083 138.734L104.917 129.573C105.011 129.488 105.106 129.404 105.197 129.313C107.72 126.794 111.076 125.408 114.645 125.408C122.013 125.408 128.005 131.386 128.005 138.734C128.005 146.08 122.013 152.057 114.645 152.057C111.076 152.057 107.721 150.673 105.199 148.157Z" fill="#265AD6"/>
<mask id="mask0" mask-type="alpha" maskUnits="userSpaceOnUse" x="85" y="179" width="118" height="11">
<path d="M202.813 189.751H196.611V179.754H202.742V181.638H198.588V183.766H202.383V185.623H198.588V187.865H202.813V189.751ZM102.003 181.067C103.019 180.053 104.251 179.553 105.698 179.553C107.144 179.553 108.376 180.053 109.392 181.067C110.409 182.068 110.909 183.295 110.909 184.753C110.909 186.209 110.409 187.437 109.392 188.45C108.376 189.451 107.144 189.95 105.698 189.95C104.251 189.95 103.019 189.451 102.003 188.45C100.999 187.437 100.498 186.209 100.498 184.753C100.498 183.295 100.999 182.068 102.003 181.067ZM103.392 187.109C104.009 187.722 104.78 188.022 105.698 188.022C106.613 188.022 107.386 187.722 108.003 187.109C108.618 186.493 108.934 185.709 108.934 184.753C108.934 183.796 108.618 183.01 108.003 182.396C107.386 181.781 106.613 181.467 105.698 181.467C104.78 181.467 104.009 181.781 103.392 182.396C102.777 183.01 102.459 183.796 102.459 184.753C102.459 185.709 102.777 186.493 103.392 187.109ZM87.3634 180.369C88.007 179.824 88.7954 179.553 89.6971 179.553C91.3147 179.553 92.5909 180.381 93.277 181.795L91.6169 182.754C91.2156 181.896 90.5704 181.467 89.6971 181.467C88.8819 181.467 88.3815 181.88 88.3815 182.467C88.3815 182.782 88.509 183.038 88.7655 183.237C89.0377 183.424 89.5397 183.639 90.284 183.867L90.9701 184.094C91.129 184.138 91.3446 184.224 91.6169 184.337C91.8875 184.438 92.1031 184.538 92.2463 184.639C92.5469 184.824 93.0064 185.18 93.1905 185.524C93.4061 185.866 93.5634 186.365 93.5634 186.938C93.5634 187.867 93.2204 188.595 92.5469 189.136C91.8734 189.679 91 189.95 89.9252 189.95C87.9362 189.95 86.5467 189.007 85.9896 187.48L87.6781 186.493C88.0652 187.509 88.8379 188.022 89.9834 188.022C91.0865 188.022 91.5901 187.581 91.5901 186.966C91.5901 186.608 91.4312 186.337 91.1149 186.153C90.8002 185.954 90.2415 185.737 89.4248 185.51C88.5231 185.238 87.9802 185.025 87.3492 184.581C86.7324 184.124 86.4035 183.44 86.4035 182.523C86.4035 181.624 86.7182 180.896 87.3634 180.369ZM181.645 179.754H185.654C186.584 179.754 187.373 180.082 188.018 180.725C188.661 181.367 188.99 182.153 188.99 183.066C188.99 184.309 188.218 185.451 187.058 185.98L189.277 189.751H187.143L185.122 186.282H183.62V189.751H181.645V179.754ZM183.62 181.596V184.554H185.654C186.399 184.554 187.015 183.881 187.015 183.066C187.015 182.253 186.399 181.596 185.654 181.596H183.62ZM168.521 179.754H170.971L174.494 189.751H172.345L171.745 187.953H167.75L167.147 189.751H165.012L168.521 179.754ZM169.753 182.023L168.379 186.109H171.128L169.753 182.023ZM157.076 179.754H159.153L156.344 189.751H154.097L152.207 183.153L150.33 189.751H148.083L145.274 179.754H147.351L149.272 187.165L151.361 179.754H153.051L155.158 187.165L157.076 179.754ZM131.338 179.754H138.713V181.638H136.007V189.751H134.03V181.638H131.338V179.754ZM118.475 179.754H124.461V181.64H120.452V184.009H124.348V185.894H120.452V189.751H118.475V179.754Z" fill="white"/>
</mask>
<g mask="url(#mask0)">
<path d="M202.813 189.751H196.611V179.754H202.742V181.638H198.588V183.766H202.383V185.623H198.588V187.865H202.813V189.751ZM102.003 181.067C103.019 180.053 104.251 179.553 105.698 179.553C107.144 179.553 108.376 180.053 109.392 181.067C110.409 182.068 110.909 183.295 110.909 184.753C110.909 186.209 110.409 187.437 109.392 188.45C108.376 189.451 107.144 189.95 105.698 189.95C104.251 189.95 103.019 189.451 102.003 188.45C100.999 187.437 100.498 186.209 100.498 184.753C100.498 183.295 100.999 182.068 102.003 181.067ZM103.392 187.109C104.009 187.722 104.78 188.022 105.698 188.022C106.613 188.022 107.386 187.722 108.003 187.109C108.618 186.493 108.934 185.709 108.934 184.753C108.934 183.796 108.618 183.01 108.003 182.396C107.386 181.781 106.613 181.467 105.698 181.467C104.78 181.467 104.009 181.781 103.392 182.396C102.777 183.01 102.459 183.796 102.459 184.753C102.459 185.709 102.777 186.493 103.392 187.109ZM87.3634 180.369C88.007 179.824 88.7954 179.553 89.6971 179.553C91.3147 179.553 92.5909 180.381 93.277 181.795L91.6169 182.754C91.2156 181.896 90.5704 181.467 89.6971 181.467C88.8819 181.467 88.3815 181.88 88.3815 182.467C88.3815 182.782 88.509 183.038 88.7655 183.237C89.0377 183.424 89.5397 183.639 90.284 183.867L90.9701 184.094C91.129 184.138 91.3446 184.224 91.6169 184.337C91.8875 184.438 92.1031 184.538 92.2463 184.639C92.5469 184.824 93.0064 185.18 93.1905 185.524C93.4061 185.866 93.5634 186.365 93.5634 186.938C93.5634 187.867 93.2204 188.595 92.5469 189.136C91.8734 189.679 91 189.95 89.9252 189.95C87.9362 189.95 86.5467 189.007 85.9896 187.48L87.6781 186.493C88.0652 187.509 88.8379 188.022 89.9834 188.022C91.0865 188.022 91.5901 187.581 91.5901 186.966C91.5901 186.608 91.4312 186.337 91.1149 186.153C90.8002 185.954 90.2415 185.737 89.4248 185.51C88.5231 185.238 87.9802 185.025 87.3492 184.581C86.7324 184.124 86.4035 183.44 86.4035 182.523C86.4035 181.624 86.7182 180.896 87.3634 180.369ZM181.645 179.754H185.654C186.584 179.754 187.373 180.082 188.018 180.725C188.661 181.367 188.99 182.153 188.99 183.066C188.99 184.309 188.218 185.451 187.058 185.98L189.277 189.751H187.143L185.122 186.282H183.62V189.751H181.645V179.754ZM183.62 181.596V184.554H185.654C186.399 184.554 187.015 183.881 187.015 183.066C187.015 182.253 186.399 181.596 185.654 181.596H183.62ZM168.521 179.754H170.971L174.494 189.751H172.345L171.745 187.953H167.75L167.147 189.751H165.012L168.521 179.754ZM169.753 182.023L168.379 186.109H171.128L169.753 182.023ZM157.076 179.754H159.153L156.344 189.751H154.097L152.207 183.153L150.33 189.751H148.083L145.274 179.754H147.351L149.272 187.165L151.361 179.754H153.051L155.158 187.165L157.076 179.754ZM131.338 179.754H138.713V181.638H136.007V189.751H134.03V181.638H131.338V179.754ZM118.475 179.754H124.461V181.64H120.452V184.009H124.348V185.894H120.452V189.751H118.475V179.754Z" fill="#265AD6"/>
</g>
</svg>
