<svg width="290" height="290" viewBox="0 0 290 290" fill="none" xmlns="http://www.w3.org/2000/svg">
<rect width="290" height="290" fill="white"/>
<path fill-rule="evenodd" clip-rule="evenodd" d="M45.9333 195.665V168.199H49.8V195.665H45.9333ZM65.8 171.532V195.665H62.0667V171.532H54.3333V168.332H73.9333L73.5333 171.532H65.8ZM103.8 167.799C105.4 167.799 106.867 168.065 107.933 168.465C109 168.865 110.2 169.532 111.4 170.465L109.4 172.865C107.667 171.532 105.933 170.865 104.067 170.865C101.8 170.865 99.9333 171.799 98.6 173.532C97.2667 175.265 96.4667 178.065 96.4667 181.932C96.4667 185.665 97.1333 188.465 98.4667 190.199C99.8 191.932 101.667 192.865 103.933 192.865C105.133 192.865 106.067 192.732 107 192.332C107.8 191.932 108.733 191.399 109.8 190.599L111.667 192.999C110.867 193.932 109.8 194.599 108.467 195.132C107.133 195.665 105.533 196.065 103.933 196.065C101.667 196.065 99.6667 195.532 97.9333 194.465C96.2 193.399 94.8667 191.799 93.9333 189.665C93 187.532 92.4667 184.999 92.4667 181.932C92.4667 178.999 93 176.332 93.9333 174.199C95 172.065 96.3333 170.466 98.0667 169.399C99.6667 168.332 101.667 167.799 103.8 167.799ZM131.4 192.332L131 195.665H116.467V168.199H120.2V192.332H131.4ZM155 186.865C155 188.732 154.6 190.332 153.933 191.665C153.133 192.999 152.067 194.199 150.6 194.865C149.133 195.665 147.4 196.065 145.4 196.065C142.333 196.065 140.067 195.265 138.333 193.532C136.733 191.799 135.8 189.665 135.8 186.865V168.199H139.533V186.465C139.533 188.599 140.067 190.199 141 191.265C141.933 192.332 143.4 192.865 145.267 192.865C147.267 192.865 148.733 192.332 149.667 191.265C150.6 190.199 151.133 188.599 151.133 186.465V168.199H155V186.865V186.865ZM169.267 167.799C171.133 167.799 172.6 168.065 173.933 168.599C175.267 169.132 176.467 169.932 177.667 170.999L175.533 173.399C174.6 172.466 173.533 171.932 172.6 171.532C171.667 171.132 170.6 170.999 169.4 170.999C167.933 170.999 166.733 171.265 165.8 171.932C164.867 172.599 164.467 173.532 164.467 174.865C164.467 175.665 164.6 176.332 165 176.865C165.267 177.399 165.933 177.932 166.733 178.332C167.533 178.732 168.867 179.265 170.467 179.799C172.2 180.332 173.667 180.865 174.733 181.532C175.933 182.199 176.733 182.999 177.533 184.065C178.2 185.132 178.6 186.465 178.6 188.199C178.6 189.799 178.2 191.132 177.4 192.465C176.6 193.665 175.533 194.599 174.067 195.265C172.6 195.932 170.867 196.332 168.867 196.332C165.133 196.332 161.933 195.132 159.533 192.732L161.667 190.332C163.667 192.199 166.067 193.132 168.733 193.132C170.467 193.132 171.8 192.732 173 191.932C174.067 191.132 174.733 189.932 174.733 188.332C174.733 187.399 174.6 186.732 174.2 186.065C173.8 185.532 173.267 184.999 172.467 184.465C171.667 183.932 170.467 183.532 168.867 182.999C166.067 182.199 164.067 181.132 162.733 179.932C161.4 178.732 160.733 177.132 160.733 175.132C160.733 173.799 161.133 172.466 161.8 171.399C162.467 170.332 163.533 169.532 164.867 168.865C166.067 168.065 167.667 167.799 169.267 167.799ZM191.933 171.532V195.665H188.2V171.532H180.467V168.332H200.067L199.667 171.532H191.933ZM208.067 171.265V180.199H217.267V183.265H208.067V192.599H219.4V195.665H204.2V168.199H219L218.6 171.265H208.067ZM229.267 184.065V195.665H225.533V168.199H232.733C236.2 168.199 238.733 168.865 240.467 170.199C242.2 171.532 243.133 173.399 243.133 175.932C243.133 177.799 242.6 179.399 241.667 180.599C240.733 181.799 239.267 182.732 237.267 183.265L244.6 195.532H240.067L233.533 183.932H229.267V184.065ZM233.133 181.132C235.133 181.132 236.6 180.732 237.667 179.932C238.733 179.132 239.133 177.799 239.133 176.066C239.133 174.332 238.6 173.132 237.667 172.332C236.6 171.532 235 171.265 232.733 171.265H229.4V181.132H233.133ZM87.8 181.665V184.732H76.6V181.665H87.8Z" fill="#404041"/>
<path fill-rule="evenodd" clip-rule="evenodd" d="M69.8 224.733V211.933H70.8667V224.733H69.8ZM79.6667 219.4C81.2667 219.533 82.0667 220.333 82.0667 221.8C82.0667 222.733 81.6667 223.533 81 223.933C80.3334 224.466 79.2667 224.6 78.0667 224.6H75V215C76.0667 214.733 77 214.733 77.9334 214.733C79 214.733 79.9334 215 80.6 215.4C81.2667 215.8 81.5334 216.466 81.5334 217.266C81.5334 218.333 80.8667 219 79.6667 219.4ZM77.9334 215.533C77.2667 215.533 76.6 215.533 76.0667 215.666V219H78.3334C79 219 79.5334 218.866 79.9334 218.6C80.3334 218.333 80.4667 217.933 80.4667 217.266C80.4667 216.2 79.6667 215.533 77.9334 215.533ZM77.9334 223.8C79.9334 223.8 80.8667 223.133 80.8667 221.8C80.8667 221.133 80.6 220.6 80.2 220.333C79.8 220.066 79.1334 219.933 78.3334 219.933H75.9334V223.8H77.9334V223.8ZM91.2667 222.466C91.2667 223 91.2667 223.4 91.4 223.533C91.5334 223.8 91.8 223.933 92.0667 224.066L91.8 224.866C91.4 224.733 91 224.6 90.7334 224.333C90.4667 224.066 90.3334 223.666 90.2001 223.266C89.5334 224.333 88.4667 224.866 87.1334 224.866C86.2 224.866 85.4 224.6 84.8667 224.066C84.3334 223.533 84.0667 222.866 84.0667 221.933C84.0667 220.866 84.4667 220.066 85.1334 219.533C85.8 219 86.8667 218.733 88.0667 218.733H89.9334V217.8C89.9334 217 89.8 216.466 89.4 216.066C89 215.666 88.4667 215.533 87.6667 215.533C86.8667 215.533 86.0667 215.666 85 216.066L84.7334 215.266C85.8 214.866 86.8667 214.6 87.8 214.6C89.9334 214.6 91 215.666 91 217.666V222.466H91.2667ZM87.4 224.066C88.6 224.066 89.5334 223.533 90.0667 222.333V219.666H88.3334C87.4 219.666 86.6 219.8 86.0667 220.2C85.5334 220.6 85.2667 221.133 85.2667 221.933C85.2667 222.6 85.4 223.133 85.8 223.533C86.3334 223.8 86.7334 224.066 87.4 224.066ZM96.2001 220.066V224.6H95.1334V214.866H96.2001V219.133H101V214.866H102.067V224.6H101V220.066H96.2001ZM109.533 214.733C110.867 214.733 111.8 215.133 112.6 216.066C113.267 217 113.667 218.2 113.667 219.8C113.667 221.4 113.267 222.6 112.6 223.533C111.933 224.466 110.867 224.866 109.533 224.866C108.2 224.866 107.267 224.466 106.467 223.533C105.8 222.6 105.4 221.4 105.4 219.8C105.4 218.733 105.533 217.8 105.933 217.133C106.333 216.333 106.733 215.8 107.4 215.4C107.933 214.866 108.6 214.733 109.533 214.733ZM109.533 215.666C108.6 215.666 107.8 216.066 107.267 216.733C106.733 217.4 106.467 218.466 106.467 219.8C106.467 221.133 106.733 222.2 107.267 222.866C107.8 223.533 108.467 223.933 109.4 223.933C110.333 223.933 111.133 223.533 111.667 222.866C112.2 222.2 112.467 221.133 112.467 219.666C112.467 218.333 112.2 217.266 111.667 216.6C111.133 215.933 110.467 215.666 109.533 215.666ZM121 218.333V219.266H116.067V218.333H121ZM136.333 218.2C136.333 220.066 135.8 221.4 134.733 222.333C133.667 223.266 132.2 223.8 130.2 223.8V225.133H129.133V223.8C127.133 223.8 125.667 223.266 124.6 222.333C123.533 221.4 123 220.066 123 218.2C123 216.333 123.533 215 124.6 214.066C125.667 213.133 127.133 212.6 129.133 212.6V211.266H130.333V212.6C132.333 212.6 133.8 213.133 134.867 214.066C135.933 215 136.333 216.333 136.333 218.2ZM124.333 218.2C124.333 219.8 124.733 220.866 125.533 221.666C126.333 222.466 127.667 222.866 129.267 222.866V213.4C127.533 213.533 126.333 213.933 125.533 214.733C124.733 215.4 124.333 216.6 124.333 218.2ZM130.333 223C132.067 222.866 133.267 222.466 134.067 221.666C134.867 220.866 135.267 219.8 135.267 218.2C135.267 216.6 134.867 215.4 134.067 214.733C133.267 213.933 131.933 213.533 130.333 213.533V223ZM143.267 214.733C144.467 214.733 145.4 215.133 145.933 216.066C146.467 217 146.867 218.2 146.867 219.8C146.867 221.4 146.6 222.6 145.933 223.533C145.267 224.466 144.333 224.866 143.133 224.866C142.6 224.866 142.067 224.733 141.533 224.466C141 224.2 140.6 223.933 140.333 223.533V228.333L139.267 228.466V214.866H140.2L140.333 216.333C140.733 215.8 141.133 215.4 141.667 215.133C142.067 214.866 142.6 214.733 143.267 214.733ZM142.867 223.933C143.8 223.933 144.467 223.533 144.867 222.866C145.4 222.2 145.533 221.133 145.533 219.666C145.533 216.866 144.733 215.533 143 215.533C142.467 215.533 141.933 215.666 141.533 215.933C141.133 216.2 140.733 216.6 140.333 217.133V222.333C140.6 222.866 141 223.133 141.4 223.4C141.933 223.8 142.333 223.933 142.867 223.933ZM156.2 222.466C156.2 223 156.2 223.4 156.333 223.533C156.467 223.8 156.733 223.933 157 224.066L156.733 224.866C156.333 224.733 155.933 224.6 155.667 224.333C155.4 224.066 155.267 223.666 155.133 223.266C154.467 224.333 153.4 224.866 152.067 224.866C151.133 224.866 150.333 224.6 149.8 224.066C149.267 223.533 149 222.866 149 221.933C149 220.866 149.4 220.066 150.067 219.533C150.733 219 151.8 218.733 153 218.733H154.867V217.8C154.867 217 154.733 216.466 154.333 216.066C153.933 215.666 153.4 215.533 152.6 215.533C151.8 215.533 151 215.666 149.933 216.066L149.667 215.266C150.733 214.866 151.8 214.6 152.733 214.6C154.867 214.6 155.933 215.666 155.933 217.666V222.466H156.2ZM152.333 224.066C153.533 224.066 154.467 223.533 155 222.333V219.666H153.267C152.333 219.666 151.533 219.8 151 220.2C150.467 220.6 150.2 221.133 150.2 221.933C150.2 222.6 150.333 223.133 150.733 223.533C151.267 223.8 151.667 224.066 152.333 224.066ZM161.133 220.066V224.6H160.067V214.866H161.133V219.133H165.933V214.866H167V224.6H165.933V220.066H161.133ZM178.067 224.733H176.733L173.533 219.933H172.067V224.733H171V215H172.067V219.133H173.533L176.333 215H177.533L174.467 219.533L178.067 224.733ZM180.867 210.6C181.133 210.6 181.267 210.733 181.4 210.866C181.533 211 181.667 211.266 181.667 211.4C181.667 211.666 181.533 211.8 181.4 211.933C181.267 212.066 181 212.2 180.867 212.2C180.6 212.2 180.467 212.066 180.333 211.933C180.2 211.8 180.067 211.666 180.067 211.4C180.067 211.133 180.2 211 180.333 210.866C180.467 210.733 180.733 210.6 180.867 210.6ZM180.333 224.733V215H181.4V224.733H180.333ZM190.067 219.4C191.667 219.533 192.467 220.333 192.467 221.8C192.467 222.733 192.067 223.533 191.4 223.933C190.733 224.466 189.667 224.6 188.467 224.6H185.4V215C186.467 214.733 187.4 214.733 188.333 214.733C189.4 214.733 190.333 215 191 215.4C191.667 215.8 191.933 216.466 191.933 217.266C191.933 218.333 191.4 219 190.067 219.4ZM188.467 215.533C187.8 215.533 187.133 215.533 186.6 215.666V219H188.867C189.533 219 190.067 218.866 190.467 218.6C190.867 218.333 191 217.933 191 217.266C190.867 216.2 190.067 215.533 188.467 215.533ZM188.467 223.8C190.467 223.8 191.4 223.133 191.4 221.8C191.4 221.133 191.133 220.6 190.733 220.333C190.333 220.066 189.667 219.933 188.867 219.933H186.467V223.8H188.467V223.8ZM198.867 214.733C199.4 214.733 199.933 214.866 200.333 215C200.733 215.133 201.133 215.4 201.667 215.8L201.133 216.466C200.867 216.2 200.467 215.933 200.2 215.933C199.8 215.8 199.533 215.8 199 215.8C198.067 215.8 197.4 216.2 196.733 216.866C196.2 217.533 195.933 218.6 195.933 219.933C195.933 221.266 196.2 222.333 196.733 223C197.267 223.666 198.067 224.066 198.867 224.066C199.267 224.066 199.667 223.933 200.067 223.8C200.467 223.666 200.733 223.4 201.133 223.133L201.667 223.933C200.867 224.6 199.933 225 198.867 225C198.067 225 197.267 224.866 196.733 224.466C196.067 224.066 195.667 223.533 195.267 222.733C194.867 221.933 194.733 221.133 194.733 220.066C194.733 219 194.867 218.066 195.267 217.4C195.667 216.733 196.067 216.066 196.733 215.533C197.4 214.866 198.067 214.733 198.867 214.733ZM207.133 218.2C209.8 218.2 211 219.266 211 221.4C211 222.466 210.6 223.266 209.933 223.933C209.267 224.466 208.333 224.733 207.267 224.733H204.2V215H205.267V218.333H207.133V218.2ZM207.267 223.8C208.067 223.8 208.733 223.666 209.267 223.266C209.667 222.866 209.933 222.333 209.933 221.4C209.933 220.6 209.667 220.066 209.267 219.666C208.867 219.266 208.2 219.133 207.133 219.133H205.4V223.8H207.267V223.8ZM220.733 224.733H219.4L216.2 219.933H214.733V224.733H213.667V215H214.733V219.133H216.2L219 215H220.2L217.133 219.533L220.733 224.733Z" fill="#404041"/>
<path fill-rule="evenodd" clip-rule="evenodd" d="M116.6 61.5332C120.733 61.5332 124.2 64.7332 124.733 68.7332H138.333V70.4665H124.733C124.333 74.5999 120.867 77.6665 116.6 77.6665C112.067 77.6665 108.467 74.0665 108.467 69.5332C108.467 65.2665 112.2 61.5332 116.6 61.5332ZM116.6 65.5332C118.867 65.5332 120.733 67.3999 120.733 69.6665C120.733 71.9332 118.867 73.7999 116.6 73.7999C114.333 73.7999 112.467 71.9332 112.467 69.6665C112.467 67.3999 114.333 65.5332 116.6 65.5332ZM116.6 63.3999C120.067 63.3999 122.867 66.1999 122.867 69.6665C122.867 73.1332 120.067 75.9332 116.6 75.9332C113.133 75.9332 110.333 73.1332 110.333 69.6665C110.333 66.1999 113.133 63.3999 116.6 63.3999Z" fill="#00AEEF"/>
<path fill-rule="evenodd" clip-rule="evenodd" d="M153.4 68.7332H165.8C166.2 64.5999 169.667 61.5332 173.933 61.5332C178.467 61.5332 182.067 65.1332 182.067 69.6665C182.067 74.1999 178.467 77.7999 173.933 77.7999C169.8 77.7999 166.333 74.5999 165.8 70.5999H153.4C153 74.3332 149.933 77.3999 146.2 77.7999V90.3332C149.933 90.7332 153 93.7999 153.4 97.5332H165.8C166.2 93.3999 169.667 90.3332 173.933 90.3332C178.467 90.3332 182.067 93.9332 182.067 98.4665C182.067 103 178.467 106.6 173.933 106.6C169.8 106.6 166.333 103.4 165.8 99.3999H153.4C153 103.133 149.933 106.2 146.2 106.6V119.133C150.333 119.533 153.4 123 153.4 127.267C153.4 131.8 149.8 135.4 145.267 135.4C140.733 135.4 137.133 131.8 137.133 127.267C137.133 123.133 140.333 119.667 144.333 119.133V106.6C140.2 106.2 137.133 102.733 137.133 98.4665C137.133 94.3332 140.333 90.8665 144.333 90.3332V77.7999C140.2 77.3999 137.133 73.9332 137.133 69.6665C137.133 65.1332 140.733 61.5332 145.267 61.5332C149.533 61.5332 153 64.7332 153.4 68.7332ZM145.4 120.867C148.867 120.867 151.667 123.667 151.667 127.133C151.667 130.6 148.867 133.4 145.4 133.4C141.933 133.4 139.133 130.6 139.133 127.133C139 123.667 141.8 120.867 145.4 120.867ZM173.933 63.3999C177.4 63.3999 180.2 66.1999 180.2 69.6665C180.2 73.1332 177.4 75.9332 173.933 75.9332C170.467 75.9332 167.667 73.1332 167.667 69.6665C167.667 66.1999 170.467 63.3999 173.933 63.3999ZM173.933 94.1999C176.2 94.1999 178.067 96.0665 178.067 98.3332C178.067 100.6 176.2 102.467 173.933 102.467C171.667 102.467 169.8 100.6 169.8 98.3332C169.667 96.0665 171.533 94.1999 173.933 94.1999ZM173.933 92.0665C177.4 92.0665 180.2 94.8665 180.2 98.3332C180.2 101.8 177.4 104.6 173.933 104.6C170.467 104.6 167.667 101.8 167.667 98.3332C167.533 94.8665 170.467 92.0665 173.933 92.0665ZM145.4 92.0665C148.867 92.0665 151.667 94.8665 151.667 98.3332C151.667 101.8 148.867 104.6 145.4 104.6C141.933 104.6 139.133 101.8 139.133 98.3332C139 94.8665 141.8 92.0665 145.4 92.0665ZM145.4 63.3999C148.867 63.3999 151.667 66.1999 151.667 69.6665C151.667 73.1332 148.867 75.9332 145.4 75.9332C141.933 75.9332 139.133 73.1332 139.133 69.6665C139.133 66.1999 141.8 63.3999 145.4 63.3999Z" fill="#404041"/>
</svg>
