<svg width="290" height="290" viewBox="0 0 290 290" fill="none" xmlns="http://www.w3.org/2000/svg">
<rect width="290" height="290" fill="white"/>
<g clip-path="url(#clip0)">
<path d="M48.8214 170.023C63.0821 170.023 74.6427 158.601 74.6427 144.512C74.6427 130.422 63.0821 119 48.8214 119C34.5606 119 23 130.422 23 144.512C23 158.601 34.5606 170.023 48.8214 170.023Z" fill="#97E213"/>
<path d="M48.8214 155.324C43.0649 155.324 38.2797 151.088 37.5453 145.564H32.0494C32.8074 154.131 40.0327 160.731 48.7977 160.731C57.5628 160.731 64.788 154.107 65.5461 145.564H60.0502C59.3395 151.111 54.5779 155.324 48.8214 155.324Z" fill="white"/>
<path d="M98.711 156.87C96.8158 156.87 94.9917 156.87 93.144 156.87C93.144 149.427 93.144 141.984 93.144 134.518C94.9917 134.518 96.7921 134.518 98.711 134.518C98.711 135.407 98.711 136.297 98.711 137.303C98.9005 137.186 99.0189 137.139 99.0663 137.069C100.582 134.471 103.638 133.746 106.315 134.331C109.537 135.033 111.503 137.537 111.977 140.744C112.261 142.64 112.143 144.512 111.408 146.291C110.177 149.263 107.405 150.948 104.16 150.761C102.217 150.644 100.44 150.176 99.0189 148.772C98.9715 148.725 98.8768 148.725 98.711 148.678C98.711 150.082 98.711 151.44 98.711 152.797C98.711 154.155 98.711 155.489 98.711 156.87ZM102.572 139.012C101.198 139.012 99.9665 139.363 99.2321 140.627C98.5214 141.82 98.5214 143.108 99.2321 144.301C99.9902 145.612 101.269 145.963 102.667 145.94C103.97 145.916 105.131 145.495 105.841 144.325C106.979 142.406 106.268 139.035 102.572 139.012Z" fill="black"/>
<path d="M128.086 148.678C127.92 148.725 127.825 148.725 127.778 148.772C126.356 150.176 124.58 150.668 122.637 150.761C119.392 150.948 116.62 149.263 115.388 146.291C114.654 144.512 114.535 142.64 114.82 140.744C115.293 137.537 117.236 135.056 120.481 134.331C123.158 133.746 126.191 134.471 127.73 137.069C127.778 137.139 127.896 137.186 128.086 137.303C128.086 136.297 128.086 135.407 128.086 134.518C129.981 134.518 131.805 134.518 133.653 134.518C133.653 141.984 133.653 143.342 133.653 150.785C131.805 150.785 129.981 150.785 128.086 150.785C128.086 149.404 128.086 150.106 128.086 148.678ZM120.979 144.325C121.69 145.495 122.85 145.916 124.153 145.94C125.551 145.963 126.854 145.612 127.588 144.301C128.275 143.108 128.275 141.82 127.588 140.627C126.854 139.386 125.622 139.035 124.248 139.012C120.529 139.035 119.818 142.406 120.979 144.325Z" fill="black"/>
<path d="M261.433 148.678C261.267 148.725 261.172 148.725 261.125 148.772C259.704 150.176 257.927 150.668 255.984 150.761C252.739 150.948 249.967 149.263 248.735 146.291C248.001 144.512 247.883 142.64 248.167 140.744C248.641 137.537 250.583 135.056 253.829 134.331C256.506 133.746 259.538 134.471 261.078 137.069C261.125 137.139 261.243 137.186 261.433 137.303C261.433 136.297 261.433 135.407 261.433 134.518C263.328 134.518 265.152 134.518 267 134.518C267 141.984 267 143.342 267 150.785C265.152 150.785 263.328 150.785 261.433 150.785C261.433 149.404 261.433 150.106 261.433 148.678ZM254.302 144.325C255.013 145.495 256.174 145.916 257.477 145.94C258.874 145.963 260.177 145.612 260.912 144.301C261.599 143.108 261.599 141.82 260.912 140.627C260.177 139.386 258.946 139.035 257.572 139.012C253.852 139.035 253.165 142.406 254.302 144.325Z" fill="black"/>
<path d="M143.105 148.679C143.105 151.44 143.105 154.109 143.105 156.847C141.233 156.847 139.409 156.847 137.538 156.847C137.538 149.428 137.538 141.985 137.538 134.518C139.386 134.518 141.21 134.518 143.105 134.518C143.105 135.408 143.105 136.321 143.105 137.374C143.318 137.187 143.436 137.116 143.508 137.023C145.047 134.495 147.985 133.769 150.662 134.331C153.978 135.033 155.897 137.561 156.371 140.768C156.631 142.453 156.513 144.138 155.992 145.776C154.997 148.959 152.036 150.972 148.648 150.808C146.658 150.715 144.834 150.247 143.389 148.796C143.342 148.749 143.247 148.749 143.105 148.679ZM150.709 142.523C150.756 140.417 149.288 139.036 146.99 139.012C144.668 138.989 143.152 140.323 143.129 142.406C143.105 144.489 144.574 145.87 146.871 145.94C149.122 146.01 150.662 144.629 150.709 142.523Z" fill="black"/>
<path d="M246.627 150.481C244.519 150.481 242.529 150.481 240.539 150.457C240.373 150.457 240.184 150.247 240.041 150.106C238.052 147.696 236.085 145.262 234.095 142.851C234.024 142.781 233.977 142.71 233.835 142.547C233.835 145.238 233.835 147.813 233.835 150.457C231.94 150.457 230.116 150.457 228.244 150.457C228.244 143.015 228.244 135.595 228.244 128.129C230.092 128.129 231.892 128.129 233.811 128.129C233.811 132.646 233.811 137.187 233.811 141.704C233.859 141.727 233.906 141.727 233.953 141.751C234.664 140.885 235.375 139.995 236.062 139.129C237.175 137.748 238.265 136.368 239.378 134.963C239.639 134.636 239.899 134.495 240.349 134.519C242.008 134.542 243.642 134.519 245.3 134.519C245.49 134.519 245.703 134.519 246.035 134.519C243.879 137.14 241.818 139.668 239.71 142.219C241.937 144.91 244.234 147.649 246.627 150.481Z" fill="black"/>
<path d="M178.283 143.576C173.925 143.576 169.637 143.576 165.349 143.576C165.254 145.331 166.368 146.689 168.073 146.899C169.566 147.063 170.94 146.899 171.864 145.542C171.935 145.448 172.1 145.378 172.195 145.378C174.09 145.378 176.009 145.378 177.975 145.378C177.644 146.876 176.886 148.023 175.725 148.912C174.351 149.989 172.74 150.504 171.011 150.691C168.618 150.972 166.273 150.878 164.046 149.895C161.44 148.772 159.948 146.782 159.545 144.021C159.261 142.218 159.403 140.44 160.185 138.778C161.132 136.671 162.838 135.384 165.041 134.729C167.623 133.956 170.229 133.933 172.811 134.729C176.507 135.899 178.497 138.778 178.378 142.663C178.331 142.944 178.307 143.201 178.283 143.576ZM172.243 140.697C172.1 138.942 170.537 137.842 168.523 138.005C166.699 138.146 165.373 139.34 165.467 140.697C167.718 140.697 169.968 140.697 172.243 140.697Z" fill="black"/>
<path d="M206.332 134.494C208.298 134.494 210.146 134.494 211.993 134.518C212.135 134.518 212.349 134.775 212.42 134.962C213.557 138.473 214.694 141.96 215.831 145.471C215.878 145.658 215.997 145.822 216.068 145.986C216.115 145.986 216.186 145.963 216.234 145.963C216.376 145.565 216.518 145.167 216.66 144.769C217.702 141.516 218.768 138.239 219.811 134.986C219.906 134.728 219.929 134.471 220.332 134.471C222.085 134.494 223.838 134.471 225.567 134.494C225.638 134.494 225.733 134.518 225.852 134.541C225.638 135.196 225.425 135.828 225.188 136.46C223.601 140.954 221.99 145.448 220.403 149.965C220.261 150.363 220.095 150.527 219.645 150.503C217.11 150.48 214.575 150.48 211.993 150.48C210.122 145.19 208.25 139.901 206.332 134.494Z" fill="black"/>
<path d="M182.05 134.519C183.898 134.519 185.698 134.519 187.593 134.519C187.593 135.432 187.593 136.321 187.593 137.374C188.304 136.625 188.849 135.876 189.56 135.385C190.318 134.87 191.218 134.496 192.118 134.308C192.995 134.121 193.942 134.261 194.89 134.261C194.89 136.298 194.89 138.287 194.89 140.16C193.705 140.066 192.521 139.855 191.336 139.879C189.038 139.926 187.641 141.423 187.617 143.694C187.593 145.707 187.617 147.743 187.617 149.756C187.617 149.966 187.617 150.177 187.617 150.435C185.746 150.435 183.922 150.435 182.05 150.435C182.05 145.168 182.05 139.879 182.05 134.519Z" fill="black"/>
<path d="M203.963 150.48C202.091 150.48 200.291 150.48 198.443 150.48C198.443 145.167 198.443 139.877 198.443 134.541C200.267 134.541 202.091 134.541 203.963 134.541C203.963 139.831 203.963 145.12 203.963 150.48Z" fill="black"/>
<path d="M201.191 132.576C202.853 132.576 204.2 131.245 204.2 129.603C204.2 127.962 202.853 126.631 201.191 126.631C199.53 126.631 198.183 127.962 198.183 129.603C198.183 131.245 199.53 132.576 201.191 132.576Z" fill="black"/>
</g>
<defs>
<clipPath id="clip0">
<rect width="244" height="51" fill="white" transform="translate(23 119)"/>
</clipPath>
</defs>
</svg>
