<svg width="290" height="290" viewBox="0 0 290 290" fill="none" xmlns="http://www.w3.org/2000/svg">
<rect width="290" height="290" fill="white"/>
<g clip-path="url(#clip0)">
<path d="M157.858 110.343C154.209 112.274 152.825 115.507 152.825 124.491C152.825 124.491 154.671 122.686 157.439 121.678C159.452 120.965 161.171 119.831 162.136 119.118C165.24 116.85 165.701 113.912 165.701 109C165.701 109 160.668 108.874 157.858 110.343Z" fill="black"/>
<path d="M136.091 112.442C133.113 115.087 132.232 119.286 132.232 119.286L122.334 157.658L114.114 126.255C113.317 122.896 111.849 118.782 109.584 116.011C106.691 112.442 100.735 112.233 100.106 112.233C99.4768 112.233 93.5631 112.442 90.6273 116.011C88.3206 118.824 86.8946 122.938 86.0977 126.255L77.8774 157.658L67.9794 119.286C67.9794 119.286 67.0986 115.087 64.1208 112.442C59.2557 108.16 52 109.084 52 109.084L70.9572 180.832C70.9572 180.832 77.2063 181.294 80.3518 179.698C84.462 177.599 86.4332 176.004 88.9077 166.222C91.1306 157.532 97.3378 131.964 97.883 130.117C98.1766 129.235 98.5121 127.052 100.106 127.052C101.7 127.052 102.035 129.194 102.329 130.117C102.916 131.922 109.123 157.49 111.304 166.222C113.779 176.004 115.75 177.599 119.86 179.698C123.005 181.294 129.255 180.832 129.255 180.832L148.212 109.084C148.212 109.084 140.956 108.16 136.091 112.442Z" fill="black"/>
<path d="M165.701 120.797C165.701 120.797 164.527 122.644 161.8 124.155C160.081 125.121 158.403 125.793 156.6 126.632C153.622 128.06 152.783 129.655 152.783 132.132V132.93V136.708V136.792V137.632V180.79C152.783 180.79 157.564 181.378 160.71 179.782C164.736 177.725 165.659 175.752 165.701 166.81V123.4V120.797V120.797Z" fill="black"/>
<path d="M212.968 145.147L237 109.336C237 109.336 226.85 107.615 221.817 112.191C218.588 115.129 215.023 120.377 215.023 120.377L206.174 133.14C205.754 133.812 205.167 134.525 204.286 134.525C203.406 134.525 202.818 133.812 202.399 133.14L193.55 120.377C193.55 120.377 189.943 115.087 186.755 112.191C181.722 107.615 171.573 109.336 171.573 109.336L195.605 145.147L171.615 180.832C171.615 180.832 182.184 182.175 187.216 177.599C190.446 174.661 193.55 169.917 193.55 169.917L202.399 157.154C202.818 156.482 203.406 155.768 204.286 155.768C205.167 155.768 205.754 156.482 206.174 157.154L215.023 169.917C215.023 169.917 218.336 174.661 221.524 177.599C226.557 182.175 236.958 180.832 236.958 180.832L212.968 145.147Z" fill="black"/>
</g>
<defs>
<clipPath id="clip0">
<rect width="185" height="72" fill="white" transform="translate(52 109)"/>
</clipPath>
</defs>
</svg>
