<svg width="290" height="290" viewBox="0 0 290 290" fill="none" xmlns="http://www.w3.org/2000/svg">
<rect width="290" height="290" fill="white"/>
<path d="M176.947 80C177.227 80.3088 177.507 80.6177 177.703 80.8423C177.395 81.7126 177.003 82.4987 176.807 83.3129C176.415 85.1378 177.115 86.682 178.347 87.9734C180.306 89.9949 182.797 91.0056 185.483 91.5109C189.178 92.2128 192.872 91.9601 196.566 91.4548C203.395 90.5002 209.972 88.5069 216.605 86.71C218.928 86.0924 221.279 85.8397 223.658 86.4012C227.408 87.2996 229.703 89.8264 231.074 93.3078C232.278 96.368 232.642 99.5686 232.446 102.825C231.97 110.293 229.479 117.06 225.225 123.18C223.238 126.016 220.803 128.43 217.696 130.059C215.206 131.35 212.575 131.827 209.832 131.238C207.565 130.76 206.138 129.104 205.942 126.774C205.662 123.713 206.418 120.878 207.705 118.155C208.545 116.386 209.58 114.701 210.504 112.989C210.756 112.511 211.008 112.034 211.259 111.529C211.064 111.416 210.924 111.304 210.672 111.136C209.804 112.399 208.908 113.634 208.097 114.898C204.654 120.541 202.555 126.661 201.968 133.287C201.912 133.793 201.744 134.129 201.324 134.438C199.897 135.393 198.441 136.235 196.79 136.74C193.684 137.751 190.941 135.505 190.549 132.585C190.185 130.002 190.717 127.504 191.333 125.033C192.48 120.344 194.271 115.937 196.846 111.781C196.734 111.697 196.65 111.613 196.566 111.557C196.454 111.501 196.342 111.473 196.146 111.416C195.587 112.287 194.971 113.157 194.439 114.056C191.193 119.502 189.066 125.398 187.47 131.49C186.883 133.708 186.463 135.954 185.903 138.172C185.819 138.481 185.567 138.846 185.287 138.986C183.3 140.053 181.229 140.924 178.962 141.092C177.955 141.176 176.891 141.12 175.94 140.839C173.589 140.194 172.441 138.116 172.693 135.337C172.945 132.641 173.785 130.087 174.68 127.56C175.604 124.865 176.555 122.169 176.891 119.334C177.283 116.021 177.311 112.764 175.968 109.479C177.563 109.114 179.13 108.721 180.698 108.44C182.489 108.132 184.308 107.963 186.127 108.356C188.31 108.833 189.234 109.956 189.318 112.231C189.402 114.982 188.674 117.565 187.834 120.12C186.883 123.068 185.763 125.988 184.784 128.935C184.252 130.536 183.888 132.22 183.468 133.849C184.336 134.214 184.56 133.821 184.7 133.231C185.819 128.879 187.107 124.584 188.898 120.457C190.549 116.638 192.396 112.876 195.167 109.732C196.146 108.609 197.434 107.739 198.581 106.784C199.029 106.419 199.533 106.391 200.065 106.7C201.324 107.374 202.639 107.935 203.871 108.609C204.487 108.946 205.018 109.395 205.522 109.872C206.362 110.686 206.418 111.22 205.858 112.231C203.507 116.61 201.352 121.046 200.121 125.903C199.701 127.616 199.561 129.385 199.337 131.153C199.253 131.771 199.337 131.771 200.009 132.024C200.205 130.929 200.372 129.834 200.624 128.739C202.36 120.401 205.774 112.904 211.567 106.587C212.183 105.914 212.855 105.296 213.526 104.678C213.694 104.538 214.058 104.426 214.226 104.51C215.737 105.24 217.249 105.97 218.704 106.756C219.152 106.98 219.516 107.402 219.851 107.767C220.775 108.833 220.803 109.732 220.103 110.967C218.816 113.157 217.529 115.347 216.353 117.621C215.793 118.716 215.485 119.979 215.122 121.187C214.982 121.608 215.01 122.057 215.01 122.506C215.038 123.742 215.793 124.331 216.969 123.91C217.752 123.629 218.536 123.208 219.208 122.675C221.223 121.102 222.622 119.025 223.742 116.779C225.505 113.241 226.568 109.507 226.484 105.521C226.456 104.369 226.233 103.19 225.869 102.095C224.441 97.9683 220.859 96.368 216.941 96.6487C214.422 96.8172 212.127 97.7437 209.832 98.614C203.563 100.972 197.21 103.134 190.605 104.51C186.883 105.296 183.104 105.829 179.298 105.689C175.744 105.577 172.273 104.987 169.223 102.994C166.312 101.085 164.241 98.5298 163.737 94.9923C163.318 91.9882 164.241 89.293 165.92 86.8504C168.411 83.2287 171.826 81.0107 176.136 80.1685C176.276 80.1404 176.388 80.0842 176.527 80.0281C176.667 80 176.807 80 176.947 80Z" fill="#E54225"/>
<path d="M117.783 119.054C117.447 118.998 117.195 118.942 116.943 118.942C112.549 118.717 108.239 118.97 104.013 120.289C101.774 120.991 99.731 122.058 98.0518 123.715C97.2961 124.473 96.6245 125.399 96.0927 126.326C95.5609 127.252 95.393 128.319 96.1207 129.246C96.8763 130.228 98.0238 130.565 99.1993 130.369C99.9269 130.228 100.739 129.835 101.27 129.33C101.942 128.684 102.446 127.814 102.922 126.999C103.173 126.578 103.313 126.27 103.901 126.382C104.461 126.494 104.993 126.522 105.133 127.308C105.636 130.088 105.3 132.811 104.713 135.506C103.397 141.599 100.263 146.4 94.8333 149.572C91.139 151.734 87.1648 152.66 82.8828 151.93C77.3414 150.976 74.0109 147.326 72.9754 141.879C72.1358 137.5 73.2552 133.485 75.5502 129.751C77.6212 126.41 80.4199 123.799 83.6664 121.637C89.04 118.071 94.9452 115.938 101.326 114.983C107.26 114.113 113.193 114.225 119.07 115.404C119.574 115.517 119.798 115.348 120.05 114.899C122.261 110.575 124.444 106.224 126.795 101.984C128.726 98.4748 131.021 95.19 133.931 92.3825C138.409 88.0308 143.811 85.6724 150.024 85.2794C153.046 85.0829 155.929 85.7005 158.532 87.3289C159.036 87.6377 159.483 88.0588 159.959 88.3958C158.308 90.6699 156.657 92.8036 155.117 95.0496C148.149 105.129 142.411 115.854 138.465 127.477C136.45 133.373 134.995 139.409 134.379 145.614C134.099 148.561 134.099 151.537 134.015 154.513C133.987 155.075 133.875 155.328 133.316 155.468C130.909 156.029 128.53 156.394 126.039 156.142C121.785 155.693 119.574 153.727 118.258 149.404C117.447 146.708 117.783 143.985 118.314 141.29C119.434 135.843 121.505 130.705 123.632 125.596C124.276 124.023 124.975 122.479 125.703 120.767C124.36 120.374 123.072 119.981 121.785 119.672C121.645 119.644 121.365 119.953 121.253 120.177C119.714 123.49 118.147 126.831 116.663 130.172C113.249 137.752 109.666 145.249 105.133 152.267C101.858 157.349 98.1917 162.122 93.6298 166.137C89.5997 169.702 85.0938 172.426 79.8042 173.605C74.0109 174.896 68.3295 174.391 62.956 171.808C57.3586 169.141 54.4199 164.593 54.0561 158.472C53.6083 151.172 56.2671 144.912 60.745 139.353C62.844 136.742 65.3909 134.636 68.3575 133.064C69.1971 132.615 69.8688 132.558 70.5685 133.148C70.1767 134.636 69.7009 136.124 69.365 137.64C68.6654 140.813 68.5534 143.985 69.3371 147.158C70.6524 152.492 74.1228 155.58 79.3844 156.675C86.2692 158.135 92.2865 156.17 97.632 151.79C100.962 149.067 103.481 145.67 105.552 141.964C109.051 135.675 112.381 129.302 115.796 122.957C116.439 121.693 117.083 120.402 117.783 119.054ZM141.012 92.8878C139.865 92.4948 139.025 92.8036 138.269 93.4213C137.458 94.0951 136.646 94.7408 135.89 95.4988C133.791 97.5764 132.084 99.9628 130.405 102.405C127.466 106.729 125.507 111.586 123.156 116.219C123.128 116.247 123.156 116.303 123.156 116.387C124.304 116.836 125.479 117.313 126.655 117.763C126.739 117.791 126.823 117.791 127.018 117.847C130.825 109.059 135.331 100.665 141.012 92.8878Z" fill="#E54225"/>
<path d="M213.275 154.595C213.387 154.595 213.47 154.595 213.526 154.623C215.542 155.241 215.653 155.353 215.43 157.403C214.618 164.871 213.387 172.255 210.112 179.077C205.186 189.268 198.441 197.944 188.87 204.176C183.524 207.658 177.675 209.876 171.322 210.69C165.109 211.476 159.092 210.802 153.41 207.967C145.798 204.148 143.027 196.708 143.475 190.026C144.118 180.228 151.591 174.585 158.784 173.406C159.567 173.293 160.351 173.209 161.135 173.153C161.75 173.097 162.394 173.153 163.066 173.153C163.234 173.658 163.43 174.136 163.514 174.641C163.542 174.866 163.458 175.175 163.318 175.399C161.666 178.122 160.575 181.042 160.435 184.243C160.183 190.391 164.101 195.445 170.202 196.905C174.596 197.944 178.85 197.326 183.049 195.866C187.61 194.266 191.669 191.767 195.307 188.595C200.708 183.878 205.298 178.487 208.545 172.058C210.056 169.11 211.036 165.966 211.511 162.681C211.595 162.176 211.707 161.614 210.84 161.558C210.7 162.316 210.56 163.074 210.392 163.86C209.692 166.696 208.433 169.223 206.166 171.104C200.596 175.736 193.04 173.771 190.409 167.005C189.262 164.057 189.262 161.025 189.849 157.964C190.829 152.855 192.676 148.138 196.035 144.095C199.337 140.164 203.423 137.441 208.517 136.346C210.224 135.981 211.903 136.094 213.554 136.571C215.346 137.076 216.549 138.283 217.417 139.912C218.368 141.709 218.704 143.702 219.04 145.695C219.18 146.425 219.236 147.183 219.348 147.913C219.376 148.054 219.432 148.194 219.628 148.334C219.852 147.099 219.824 145.892 219.796 144.657C219.768 143.393 219.768 142.13 219.628 140.866C219.516 139.631 219.32 138.396 219.012 137.217C218.704 136.009 218.2 134.83 217.753 133.567C217.697 133.623 217.725 133.567 217.781 133.511C220.775 131.293 223.966 129.58 227.772 129.355C230.151 129.215 232.278 129.917 234.069 131.517C235.328 132.668 235.384 134.184 235.216 135.729C234.853 138.845 233.621 141.709 232.558 144.628C231.158 148.447 229.703 152.237 228.416 156.083C227.604 158.554 227.212 161.137 227.604 163.776C227.716 164.618 227.968 165.488 228.304 166.247C228.919 167.622 230.151 168.212 231.578 167.763C232.642 167.454 233.621 166.892 234.713 166.415C235.049 166.836 235.468 167.37 235.86 167.903C235.944 168.043 236 168.268 235.944 168.436C234.685 173.181 232.222 176.943 227.576 178.909C221.839 181.323 216.745 176.971 216.269 171.918C215.933 168.268 216.241 164.674 216.773 161.081C217.249 157.908 217.808 154.764 218.368 151.619C218.452 151.058 218.424 150.58 218.116 150.075C217.613 149.345 217.165 148.559 216.689 147.829C215.598 146.229 214.114 145.751 212.239 146.145C207.985 147.043 203.927 151.928 203.955 156.139C203.983 159.031 206.362 160.547 208.965 159.284C210.532 158.526 211.623 157.234 212.547 155.831C212.799 155.381 213.051 154.988 213.275 154.595Z" fill="#E54225"/>
<path d="M162.954 113.269C161.89 114.336 160.827 115.262 159.931 116.329C153.634 123.629 149.016 131.799 147.001 141.316C146.357 144.321 145.742 147.353 145.266 150.385C144.958 152.519 145.042 154.68 145.574 156.786C145.658 157.095 145.77 157.404 145.882 157.797C146.161 157.6 146.385 157.488 146.609 157.319C152.319 153.501 158.112 149.823 164.269 146.791C167.348 145.275 170.538 144.012 174.009 143.675C176.835 143.394 179.606 143.562 182.181 144.91C185.455 146.623 186.911 149.795 186.211 153.417C185.623 156.505 184.28 159.088 181.257 160.436C179.69 161.138 178.067 161.334 176.415 160.857C173.589 160.043 172.329 156.87 173.841 154.343C173.981 154.091 174.093 153.838 174.205 153.585C174.568 152.519 174.065 151.62 172.945 151.592C172.022 151.564 170.986 151.62 170.146 152.013C167.991 152.996 165.864 154.063 163.849 155.326C159.259 158.218 155.145 161.755 150.975 165.209C145.77 169.532 140.62 173.968 135.023 177.786C131.496 180.201 127.83 182.391 123.716 183.654C118.734 185.198 113.752 185.086 108.939 183.065C103.537 180.791 101.158 175.877 101.438 170.515C101.718 164.844 104.209 160.099 107.735 155.831C108.799 154.54 110.086 153.417 111.206 152.154C111.933 151.311 112.689 151.255 113.389 151.732C113.556 153.277 113.528 154.737 113.892 156.112C114.536 158.723 116.299 160.492 118.65 161.671C121.869 163.3 125.311 163.749 128.865 163.356C132.084 163.019 135.107 162.064 137.989 160.604C138.381 160.408 138.549 160.211 138.493 159.734C137.709 151.452 138.829 143.338 140.76 135.336C143.699 123.32 148.736 112.23 155.201 101.73C155.453 101.309 155.677 101.225 156.097 101.449C156.489 101.646 156.908 101.814 157.3 102.039C160.155 103.667 161.023 106.082 159.623 109.03C158.616 111.163 157.356 113.213 156.153 115.262C154.949 117.312 153.662 119.333 152.459 121.383C152.347 121.579 152.347 121.888 152.319 122.141C152.403 122.169 152.487 122.197 152.598 122.225C152.766 122.001 152.906 121.804 153.074 121.579C156.433 117.172 159.819 112.792 163.178 108.384C163.821 107.514 164.465 107.233 165.501 107.71C167.124 108.496 168.803 109.086 170.398 109.9C173.001 111.22 173.981 113.606 174.009 116.357C174.149 124.19 172.105 131.322 167.096 137.47C165.808 139.042 164.353 140.39 162.59 141.401C160.631 142.524 158.56 142.804 156.377 142.187C154.194 141.569 153.102 139.941 152.822 137.779C152.403 134.466 153.326 131.406 154.474 128.318C157.02 129.076 158.84 127.924 160.323 126.1C162.562 123.348 164.157 120.288 164.157 116.61C164.073 115.515 163.765 114.392 162.954 113.269Z" fill="#E54225"/>
<path d="M172.05 166.276C174.876 165.041 177.731 164.114 180.866 164.732C183.524 165.265 184.756 167.09 184.112 169.87C183.524 172.481 182.657 175.035 181.929 177.618C181.117 180.426 180.334 183.233 179.466 186.238C179.914 186.238 180.222 186.294 180.502 186.238C181.817 185.929 182.853 185.115 183.748 184.16C184.868 182.981 185.623 181.605 186.015 180.033C186.127 179.556 186.351 179.443 186.799 179.471C188.114 179.556 189.206 180.201 190.185 180.987C190.325 181.1 190.269 181.549 190.157 181.802C189.01 185.171 186.911 187.81 184.056 189.887C180.81 192.246 177.227 193.004 173.337 192.049C170.538 191.375 169.027 189.185 169.475 186.35C169.783 184.413 170.286 182.504 170.874 180.651C171.742 177.871 172.581 175.12 172.777 172.2C172.973 170.178 172.861 168.213 172.05 166.276Z" fill="#E54225"/>
</svg>
