<svg width="290" height="290" viewBox="0 0 290 290" fill="none" xmlns="http://www.w3.org/2000/svg">
<rect width="290" height="290" fill="white"/>
<g clip-path="url(#clip0)">
<path d="M80.6337 143.481C83.9411 141.056 86.5351 137.338 86.5351 131.778V131.616C86.5675 126.897 84.5572 122.856 81.0228 120.14C77.4885 117.392 72.5275 115.938 66.5288 115.938H39V174.03H67.1773C73.7272 174.03 79.2719 172.737 83.2926 169.989C87.3133 167.241 89.6803 162.909 89.6479 157.511V157.349C89.7127 150.334 86.0811 146.067 80.6337 143.481ZM71.4899 133.815C71.4574 135.496 70.8738 136.401 69.7065 137.177C68.5068 137.92 66.4964 138.373 63.9024 138.373H53.7858V129.289H64.6806C67.1125 129.289 68.8959 129.774 69.9335 130.517C70.9711 131.261 71.4574 132.166 71.4899 133.653V133.815ZM53.7858 151.142H66.7882C69.8038 151.142 71.8466 151.724 72.9814 152.5C74.1163 153.308 74.6027 154.278 74.6351 155.83V155.991C74.6027 157.705 74.0515 158.642 72.8842 159.45C71.7169 160.226 69.7713 160.711 67.1773 160.679H53.7858V151.142Z" fill="#FF0200"/>
<path d="M129.79 143.481C133.097 141.056 135.724 137.338 135.691 131.778V131.616C135.691 126.896 133.713 122.856 130.179 120.14C126.677 117.392 121.716 115.97 115.718 115.97H88.1562V174.062H116.366C122.916 174.062 128.461 172.769 132.481 170.021C136.502 167.274 138.869 162.942 138.837 157.543V157.349C138.901 150.334 135.27 146.067 129.79 143.481ZM120.679 133.815C120.646 135.496 120.095 136.401 118.895 137.177C117.695 137.92 115.685 138.373 113.091 138.373H102.974V129.289H113.902C116.334 129.289 118.117 129.774 119.155 130.517C120.192 131.261 120.679 132.166 120.711 133.653V133.815H120.679ZM123.824 155.862V156.024C123.791 157.737 123.24 158.674 122.073 159.483C120.906 160.259 118.96 160.743 116.366 160.711H102.942V151.142H115.945C118.96 151.142 121.003 151.724 122.138 152.5C123.305 153.34 123.791 154.31 123.824 155.862Z" fill="#FF0200"/>
<path d="M183.292 124.246C177.747 119.041 169.9 115.938 160.724 115.938H137.378V174.03H160.724C169.9 174.03 177.747 170.894 183.292 165.657C188.836 160.42 192.046 153.147 192.046 145V144.838C192.046 136.692 188.836 129.418 183.292 124.246ZM176.385 145V145.162C176.32 154.343 170.224 160.323 160.724 160.388H152.488V129.612H160.724C170.224 129.677 176.288 135.787 176.385 145Z" fill="#FF0200"/>
<path d="M243.18 123.728C237.636 118.33 229.789 115 220.742 115C211.696 115 203.816 118.362 198.239 123.793C192.63 129.224 189.322 136.756 189.322 144.968V145.129C189.322 153.341 192.597 160.841 198.142 166.239C203.687 171.638 211.533 174.968 220.58 174.968C229.627 174.968 237.506 171.606 243.083 166.175C248.692 160.744 252 153.211 252 145V144.838C252.032 136.595 248.725 129.127 243.18 123.728ZM205.016 144.838C205.048 135.948 211.371 128.901 220.612 128.901C229.821 128.901 236.339 136.142 236.371 145V145.162C236.339 154.052 230.016 161.099 220.775 161.099C211.566 161.099 205.048 153.858 205.016 145V144.838Z" fill="#FF0200"/>
</g>
<defs>
<clipPath id="clip0">
<rect width="213" height="60" fill="white" transform="translate(39 115)"/>
</clipPath>
</defs>
</svg>
