<svg width="290" height="290" viewBox="0 0 290 290" fill="none" xmlns="http://www.w3.org/2000/svg">
<rect width="290" height="290" fill="white"/>
<path d="M89.6735 166.637C89.6735 169.913 87.0056 172.571 83.718 172.571C80.4305 172.571 77.7626 169.913 77.7626 166.637C77.7626 163.362 80.4239 160.704 83.718 160.704C87.0121 160.704 89.6735 163.362 89.6735 166.637Z" fill="#009B67"/>
<path d="M75.0035 173.131C75.0035 175.659 72.9488 177.706 70.4114 177.706C67.8805 177.706 65.8192 175.659 65.8192 173.131C65.8192 170.609 67.8739 168.556 70.4114 168.556C72.9488 168.556 75.0035 170.603 75.0035 173.131Z" fill="#009B67"/>
<path d="M107.624 198C106.796 195.427 105.543 191.411 104.845 189.312C108.922 188.246 108.407 187.68 108.407 169.283V152.114H113.371H118.328V169.887C118.328 185.952 118.217 187.979 117.122 190.949C115.882 194.335 112.973 197.279 107.624 198ZM134.29 184.698C129.059 183.001 125.764 178.985 124.486 172.136C124.075 169.939 124.238 166.722 124.786 164.136C125.288 161.751 126.599 158.768 127.519 157.462C129.006 155.343 129.887 154.083 133.983 152.64C136.651 151.698 140.904 152.016 143.22 152.984C147.753 154.869 149.795 157.365 151.563 163.148C153.18 168.464 152.182 175.301 149.117 179.915C146.331 184.1 139.378 186.342 134.29 184.698ZM139.704 176.451C141.217 175.873 142.522 172.142 142.522 168.386C142.522 160.724 137.33 157.546 134.766 163.649C132.627 168.763 134.557 176.724 137.975 176.815C138.373 176.821 139.149 176.659 139.704 176.451ZM162.012 184.555C157.635 182.638 156.807 179.512 156.794 164.942L156.781 153.355H161.745H166.709L166.728 164.013C166.748 175.515 166.611 177.881 169.449 177.881C170.283 177.881 173.525 176.789 173.558 174.924L173.845 153.667L183.46 153.654V163.675C183.46 177.062 182.814 176.23 186.552 176.867C185.652 180.201 185.678 180.24 184.51 184.568C182.821 185.386 177.361 187.304 174.432 181.955C169.422 185.458 164.98 185.848 162.012 184.555ZM190.902 169.445V153.348C190.902 153.348 196.819 153.374 200.1 153.374C200.1 155.434 200.145 154.336 200.145 156.078C204.542 151.704 207.425 152.77 210.758 154.687C210.086 157.176 209.936 157.546 208.39 162.602C206.284 161.446 200.83 158.619 200.83 168.867L200.863 185.406L190.902 185.536V169.445ZM215.709 169.445V153.348H220.601C225.128 153.348 222.48 153.322 225.154 153.322L225.161 156.078C225.161 156.078 227.32 152.575 236.602 153.693C238.331 153.901 240.398 155.337 241.494 157.67C242.701 160.23 242.988 162.069 242.988 172.682L243.008 185.295L232.545 185.399L232.604 173.786C232.493 166.411 233.686 158.567 228.253 159.84L225.363 161.069L225.331 185.399L215.716 185.529V169.445H215.709ZM49.6353 152.718L47 151.548V147.552V143.555L48.846 144.478C52.6489 146.369 57.6454 144.484 55.9495 141.807C55.5842 141.235 54.7492 140.468 54.0904 140.111C49.1656 137.407 47.0065 134.6 47.0065 130.922C47.0065 126.503 49.9027 123.299 54.9906 121.479C57.2801 120.66 61.7549 120.082 66.2296 122.656V129.804L63.1377 129.44C59.785 129.044 57.9716 129.882 58.1673 131.754C58.2586 132.579 59.7523 134.093 61.8919 135.731C67.5407 140.059 67.5668 144.679 66.6275 148.156C65.4925 152.367 60.646 153.855 55.3754 153.862C53.673 153.881 51.0899 153.355 49.6353 152.718ZM80.2213 152.705C77.1099 151.158 75.4791 149.618 74.2267 147.051C71.6045 141.67 71.1414 136.757 72.7525 131.455C74.4681 125.82 76.9859 122.85 82.113 121.479C84.5917 120.816 86.5029 120.582 89.0142 121.252C94.0304 122.591 97.3049 125.716 99.0335 131.325C99.751 133.651 99.8423 136.641 99.8423 138.272C99.8423 142.509 98.492 145.992 96.6917 148.669C93.4237 153.556 85.7201 155.441 80.2213 152.705ZM88.9099 143.795C90.3123 141.664 90.795 135.367 89.7513 132.832C88.6294 130.09 87.7031 129.258 85.7984 129.258C83.3001 129.258 81.7346 132.351 81.7346 137.29C81.7346 142.45 83.2806 145.323 86.0463 145.323C87.3444 145.316 88.2119 144.848 88.9099 143.795ZM108.407 123.897V112.57L104.734 112.485C104.734 109.925 104.65 108.989 104.65 105.317C106.293 105.317 106.254 105.265 108.4 105.265C108.4 97.558 110.918 94.9585 113.182 93.6588C115.184 92.5021 117.93 91.1893 123.377 92.6385C123.377 94.8026 123.501 96.2582 123.501 98.4678C118.446 98.4678 118.433 102.321 118.433 105.181C120.722 105.181 119.802 105.155 121.922 105.155C121.922 108.131 121.922 109.203 121.922 112.57H118.328V124.313V136.056H108.348C108.348 132.189 108.407 130.129 108.407 123.897ZM136.625 135.334C131.713 133.534 130.735 130.961 130.735 119.907V111.328H128.876C127.102 111.328 127.017 111.212 127.017 108.703C127.017 106.377 127.408 105.655 130.448 102.367C137.284 94.978 137.656 94.6401 139.163 94.6401C140.617 94.6401 140.663 94.7831 140.663 99.2736V103.92H143.761H146.86V107.624V111.328H143.761H140.663V118.003C140.663 125.502 140.969 126.158 144.453 126.158L146.677 125.664L146.723 133.625C141.726 136.796 138.856 136.153 136.625 135.334Z" fill="#0F0F0F"/>
<path d="M62.6425 169.12C62.6425 170.927 61.1683 172.395 59.3549 172.395C57.5416 172.395 56.0674 170.927 56.0674 169.12C56.0674 167.313 57.5416 165.845 59.3549 165.845C61.1683 165.845 62.6425 167.313 62.6425 169.12Z" fill="#009B67"/>
<path d="M55.6892 162.745C55.6892 163.733 54.8803 164.538 53.8888 164.538C52.8973 164.538 52.0885 163.739 52.0885 162.745C52.0885 161.757 52.8908 160.951 53.8888 160.951C54.8803 160.951 55.6892 161.751 55.6892 162.745Z" fill="#009B67"/>
<path d="M118.277 144.27C118.277 146.999 116.052 149.215 113.313 149.215C110.573 149.215 108.349 146.999 108.349 144.27C108.349 141.54 110.573 139.324 113.313 139.324C116.052 139.324 118.277 141.54 118.277 144.27Z" fill="#0F0F0F"/>
</svg>
