<svg width="290" height="290" viewBox="0 0 290 290" fill="none" xmlns="http://www.w3.org/2000/svg">
<rect width="290" height="290" fill="white"/>
<g clip-path="url(#clip0)">
<path d="M57.7999 105.1C60.6999 104.4 62.6 101.9 62.6 98.9C62.6 96.6 61.5 94.3 59.6 92.9C57.8 91.6 55.7 91.5 53.5 91.5H39.7V119.7H52.6C55.1 119.7 58.1999 119.7 60.4 118.1C62.4 116.7 63.2999 113.9 63.2999 111.5C63.2999 108.1 61.0999 105.7 57.7999 105.1ZM52.4 112.8H47.4V108.3H52.1C52.9 108.3 54.8 108.5 54.8 110.4C54.8 112 54 112.8 52.4 112.8ZM52.4 102.3H47.4V97.8H52.1C52.9 97.8 54.8 98 54.8 99.9C54.8 101.5 54 102.3 52.4 102.3Z" fill="#FAA634"/>
<path d="M91.2001 99.7996C91.2001 96.9996 90.2001 94.8996 87.9001 93.2996C86.0001 91.9996 83.7001 91.5996 80.2001 91.5996H66.6001V119.8H74.4001V108.6H79.0001L84.5001 119.7H94.9001L87.1001 106.7C89.0001 105.8 91.2001 103.3 91.2001 99.7996ZM79.6001 102.4H74.4001V97.6996H79.3001C80.1001 97.6996 82.0001 97.9996 82.0001 99.8996C82.0001 101.5 81.2001 102.4 79.6001 102.4Z" fill="#FAA634"/>
<path d="M194.6 98V91.5H150.6V118.7L138 102.6L146.3 91.5H137.9L130.1 103.1V91.5H121.9V119.7H130.1V113.2L133.1 109L141 119.7H148.3H151.4H174.9V113H159.1V108.7H170.5V102.5H159.1V98H180.5V119.7H188.8V98H194.6Z" fill="#FAA634"/>
<path d="M210.3 91.5H201.2L192.4 119.7H199.4L201.1 114.1H209.9L211.6 119.7H220.9L210.3 91.5ZM202.6 108L205.4 98L208.2 108H202.6Z" fill="#FAA634"/>
<path d="M111.3 108.8C111.3 110.1 111.4 111.6 110.3 112.5C109.6 113.2 108.3 113.4 107.3 113.4C106.2 113.4 104.9 113 104.2 112.1C103.6 111.2 103.7 110 103.7 109V91.5H94.8999V110.1C94.8999 113.5 95.4999 116.1 98.4999 118.1C100.7 119.5 104.1 120.1 106.6 120.1C109.6 120.1 112.5 119.6 114.9 117.7C117.6 115.5 118 112.9 118 109.6V91.5H111.2V108.8H111.3Z" fill="#FAA634"/>
<path d="M251.2 113.5C251 113.5 250.7 113.5 250.5 113.5C249.4 113.5 248.6 113.4 247.7 112.7C250.2 110.4 251.6 107.2 252.3 104L245 103.1C244.6 104.8 244.1 106.6 242.9 107.9L240 104.9C243.2 103.8 245.3 101.4 245.3 97.9996C245.3 92.9996 240.8 91.0996 236.4 91.0996C231.9 91.0996 227.1 92.8996 227.1 98.1996C227.1 100.4 228.1 102.1 229.4 103.7C225.7 105 222.9 107.2 222.9 111.5C222.9 117.7 228.8 120.2 234.2 120.2C236.8 120.2 240.3 119.6 242.3 117.8C244.4 119.4 246.3 120.1 249 120.1C249.7 120.1 250.4 120 251.1 119.9V113.5H251.2ZM234.9 114C232.9 114 231.3 113 231.3 110.9C231.3 109.4 232 108.3 233.4 107.7L238.1 112.8C237.3 113.7 236 114 234.9 114ZM236.8 100.9C235.9 100.2 234.7 99.0996 234.7 97.9996C234.7 96.8996 235.6 96.1996 236.7 96.1996C237.9 96.1996 238.8 96.9996 238.8 98.2996C238.9 99.4996 238 100.5 236.8 100.9Z" fill="#FAA634"/>
<path d="M37 184.5C37 193.2 43.7 199.5 53 199.5C54.3 199.5 58.4 199.3 61.2 196.5C61.2 197.4 61.2 198.9 61.2 198.9H67.5V181.7H53.8V187.9H59.4C58.7 190.2 56.2 192.4 52.8 192.4C47.8 192.4 46 188.3 46 184.5C46 180.7 47.8 176.6 52.8 176.6C55.3 176.6 57.4 177.5 58.2 178.9L58.3 179.1H67.4L67.3 178.6C65.8 171.8 58.6 169.4 53 169.4C43.7 169.6 37 175.9 37 184.5Z" fill="#F0503B"/>
<path d="M100.2 199H124.9V192.5H108.6V188.2H120.3V182.2H108.6V177.3H125.2C128.1 182.3 131.6 188.4 131.7 188.5V199H139.7V188.5C139.8 188.3 149.4 170.8 149.4 170.8H140.9C140.9 170.8 136.4 180 135.7 181.3C135 180 130.5 170.8 130.5 170.8H100.2V199ZM99 199C96.9 195.3 91.7 186.5 91.4 186C93.9 184.8 95.5 182.2 95.5 179C95.5 176.3 94.4 174.2 92.3 172.7C90.6 171.5 88.1 170.9 85.5 170.9H71V199H78.8V188.1H83.3C83.5 188.6 88.8 199 88.8 199H99ZM84 181.8H78.8V177.2H83.7C84.5 177.2 86.5 177.4 86.5 179.4C86.5 180.9 85.7 181.8 84 181.8Z" fill="#F0503B"/>
<path d="M61.1999 137.6V132.2H53.6999L57.2999 126.2H51.6999L49.6999 129.6L47.6999 126.2H41.9999L45.5999 132.2H38.8999V138.7H50.3999L37.8999 154.4V160.4H61.3999V153.7H48.8999L61.1999 137.6Z" fill="#F5833C"/>
<path d="M74.3001 132.2H65.6001V160.4H74.3001V132.2Z" fill="#F5833C"/>
<path d="M96.9001 140L97.5 147.8L97.4001 147.9L88 132.2H79.8V160.4H86.8V147.2C86.8 145.3 86.6001 144.3 86.2001 142.5L86.1 142.2L86.2001 142.1L88.7001 147.2L96.8 160.4H103.9V132.2H96.9001V140Z" fill="#F5833C"/>
<path d="M118.1 132.2H109.4V160.4H118.1V132.2Z" fill="#F5833C"/>
<path d="M142.7 151.8C142.6 152 142.5 152.2 142.3 152.3C141.3 153.4 139.5 154.1 137.3 154.1C133 154.1 131.1 151.1 130.6 147.8C130.5 147.4 130.5 147 130.5 146.7C130.5 146.6 130.5 146.5 130.5 146.3C130.5 146.2 130.5 146.1 130.5 145.9C130.5 145.5 130.5 145.1 130.6 144.7C131 141.4 133 138.4 137.3 138.4C139.5 138.4 141.3 139.1 142.3 140.2C142.4 140.4 142.6 140.5 142.7 140.7C143 141.3 143 142 143 142H152.1C152.1 142 152 141.2 151.9 140.5C151.8 139.9 151.6 139.3 151.3 138.8C149.5 134.3 144.8 132.1 140.4 131.5L144.8 126.2H137.2L134 131.6C126.9 133 121.9 138.4 121.6 145.5C121.6 145.7 121.6 146 121.6 146.2C121.6 146.4 121.6 146.7 121.6 146.9C122 155.2 128.6 161.2 137.6 161.2C142.8 161.2 149.2 159.2 151.4 153.7C151.6 153.2 151.8 152.6 152 152C152.2 151.2 152.2 150.5 152.2 150.5H143.1C142.9 150.5 142.9 151.2 142.7 151.8Z" fill="#F5833C"/>
<path d="M175.9 148.5C177.2 147.2 177.7 145.3 178.1 143.6L185.7 144.5C184.9 147.9 183.4 151.2 180.9 153.5C181.8 154.2 182.7 154.3 183.8 154.3C184.3 154.3 184.9 154.3 185.7 154.2V160.5C184.6 160.8 183.4 161 182.3 161C179.5 161 177.6 160.4 175.4 158.7C173.4 160.5 169.7 161.2 167.1 161.2C161.5 161.2 155.4 158.7 155.4 152.2C155.4 147.8 158.3 145.5 162.2 144.2C160.9 142.5 159.8 140.8 159.8 138.5C159.8 133.1 164.7 131.2 169.4 131.2C173.9 131.2 178.6 133.2 178.6 138.3C178.6 141.8 176.3 144.4 173.1 145.5L175.9 148.5ZM166 148.2C164.6 148.8 163.9 149.9 163.9 151.5C163.9 153.7 165.6 154.7 167.6 154.7C168.7 154.7 170 154.4 170.9 153.5L166 148.2ZM169.6 141.1C170.8 140.7 171.7 139.7 171.7 138.4C171.7 137.1 170.8 136.2 169.5 136.2C168.4 136.2 167.5 136.9 167.5 138.1C167.4 139.3 168.7 140.4 169.6 141.1Z" fill="#F5833C"/>
</g>
<defs>
<clipPath id="clip0">
<rect width="215.4" height="108.5" fill="white" transform="translate(37 91)"/>
</clipPath>
</defs>
</svg>
