<svg width="290" height="290" viewBox="0 0 290 290" fill="none" xmlns="http://www.w3.org/2000/svg">
<rect width="290" height="290" fill="white"/>
<path d="M149.74 124.471H156.793V126.686H152.196V128.506H155.683V130.643H152.196V133.729H149.74V124.471Z" fill="black"/>
<path d="M157.03 126.845H159.249V127.873H159.408C159.408 127.873 159.804 126.766 161.072 126.766H161.785V128.981H160.676C159.883 128.981 159.328 129.535 159.328 130.327V133.729H157.11V126.845H157.03Z" fill="black"/>
<path d="M165.747 126.687C167.966 126.687 169.551 128.348 169.551 130.327C169.551 132.305 167.887 133.967 165.747 133.967C163.528 133.967 161.943 132.305 161.943 130.327C161.864 128.348 163.528 126.687 165.747 126.687ZM165.747 131.988C166.619 131.988 167.253 131.355 167.253 130.247C167.253 129.14 166.619 128.507 165.747 128.507C164.875 128.507 164.242 129.14 164.242 130.247C164.242 131.355 164.875 131.988 165.747 131.988Z" fill="black"/>
<path d="M170.581 126.845H172.8V127.794H172.959C172.959 127.794 173.513 126.687 174.94 126.687C176.683 126.687 177.159 127.953 177.159 127.953H177.317C177.317 127.953 177.793 126.687 179.457 126.687C181.042 126.687 182.072 127.715 182.072 129.535V133.729H179.853V129.852C179.853 128.981 179.457 128.586 178.823 128.586C178.11 128.586 177.555 129.14 177.555 130.01V133.729H175.336V129.852C175.336 128.981 174.94 128.586 174.306 128.586C173.593 128.586 173.038 129.14 173.038 130.01V133.729H170.819V126.845H170.581Z" fill="black"/>
<path d="M187.144 124.471H190.71C193.8 124.471 195.861 126.528 195.861 129.14C195.861 131.751 193.8 133.808 190.71 133.808H187.144V124.471ZM190.71 131.514C192.374 131.514 193.325 130.564 193.325 129.14C193.325 127.715 192.374 126.766 190.71 126.766H189.6V131.514H190.71Z" fill="black"/>
<path d="M200.457 126.687C202.675 126.687 204.26 128.348 204.26 130.327V130.722H199.03C199.189 131.672 199.664 132.147 200.457 132.147C201.487 132.147 201.804 131.434 201.804 131.434H204.181C204.181 131.434 203.547 133.967 200.457 133.967C198.317 133.967 196.653 132.305 196.653 130.327C196.732 128.348 198.317 126.687 200.457 126.687ZM201.883 129.535C201.725 128.902 201.249 128.427 200.457 128.427C199.743 128.427 199.189 128.981 199.03 129.535H201.883Z" fill="black"/>
<path d="M207.193 131.514C207.193 131.514 207.43 132.226 208.461 132.226C209.094 132.226 209.411 131.988 209.411 131.751C209.411 130.801 205.291 131.435 205.291 128.744C205.291 127.636 206.242 126.607 208.302 126.607C211.313 126.607 211.71 128.902 211.71 128.902H209.491C209.491 128.902 209.332 128.269 208.461 128.269C207.906 128.269 207.668 128.507 207.668 128.744C207.668 129.694 211.789 128.981 211.789 131.672C211.789 132.859 210.759 133.888 208.54 133.888C205.449 133.888 205.053 131.435 205.053 131.435H207.193V131.514Z" fill="black"/>
<path d="M213.849 123.917C214.562 123.917 215.117 124.471 215.117 125.025C215.117 125.658 214.562 126.133 213.849 126.133C213.136 126.133 212.581 125.579 212.581 125.025C212.581 124.392 213.136 123.917 213.849 123.917ZM212.74 126.845H214.959V133.729H212.74V126.845Z" fill="black"/>
<path d="M219.159 126.687C220.585 126.687 221.219 127.715 221.219 127.715H221.378V126.845H223.596V136.262H217.019V134.442H221.298V132.621H221.14C221.14 132.621 220.506 133.65 219.079 133.65C217.415 133.65 216.068 132.226 216.068 130.168C216.068 128.111 217.495 126.687 219.159 126.687ZM219.872 131.751C220.744 131.751 221.298 131.118 221.298 130.168C221.298 129.219 220.664 128.586 219.872 128.586C219 128.586 218.445 129.219 218.445 130.168C218.445 131.118 219 131.751 219.872 131.751Z" fill="black"/>
<path d="M224.944 126.845H227.162V127.794H227.321C227.321 127.794 227.955 126.687 229.381 126.687C230.966 126.687 231.996 127.715 231.996 129.535V133.729H229.698V129.852C229.698 129.061 229.223 128.586 228.51 128.586C227.796 128.586 227.162 129.219 227.162 130.089V133.729H224.944V126.845Z" fill="black"/>
<path d="M148.947 140.377H157.268V142.593H154.336V149.635H151.879V142.593H148.947V140.377Z" fill="black"/>
<path d="M158.061 140.377H160.279V143.701H160.438C160.438 143.701 161.072 142.593 162.498 142.593C164.083 142.593 165.113 143.621 165.113 145.441V149.715H162.895V145.837C162.895 145.046 162.419 144.571 161.706 144.571C160.993 144.571 160.359 145.204 160.359 146.075V149.715H158.14V140.377H158.061Z" fill="black"/>
<path d="M167.491 139.743C168.204 139.743 168.759 140.297 168.759 140.851C168.759 141.484 168.204 141.959 167.491 141.959C166.777 141.959 166.223 141.405 166.223 140.851C166.302 140.297 166.777 139.743 167.491 139.743ZM166.381 142.75H168.6V149.635H166.381V142.75Z" fill="black"/>
<path d="M170.026 142.751H172.245V143.701H172.404C172.404 143.701 173.038 142.593 174.464 142.593C176.049 142.593 177.079 143.622 177.079 145.442V149.715H174.86V145.837C174.86 145.046 174.385 144.571 173.672 144.571C172.958 144.571 172.324 145.204 172.324 146.075V149.715H170.106V142.751H170.026Z" fill="black"/>
<path d="M178.347 140.377H180.566V145.204H181.279L182.785 142.751H185.162L183.181 145.995L185.4 149.635H182.943L181.438 147.103H180.566V149.635H178.347V140.377Z" fill="black"/>
<path d="M187.302 139.743C188.015 139.743 188.57 140.297 188.57 140.851C188.57 141.484 188.015 141.959 187.302 141.959C186.589 141.959 186.034 141.405 186.034 140.851C186.034 140.297 186.589 139.743 187.302 139.743ZM186.192 142.75H188.411V149.635H186.192V142.75Z" fill="black"/>
<path d="M189.838 142.751H192.057V143.701H192.215C192.215 143.701 192.849 142.593 194.276 142.593C195.861 142.593 196.891 143.622 196.891 145.442V149.715H194.672V145.837C194.672 145.046 194.196 144.571 193.483 144.571C192.77 144.571 192.136 145.204 192.136 146.075V149.715H189.917V142.751H189.838Z" fill="black"/>
<path d="M200.853 142.514C202.279 142.514 202.913 143.542 202.913 143.542H203.072V142.672H205.291V152.089H198.713V150.348H202.993V148.528H202.834C202.834 148.528 202.2 149.556 200.774 149.556C199.11 149.556 197.762 148.132 197.762 146.075C197.762 144.017 199.189 142.514 200.853 142.514ZM201.566 147.657C202.438 147.657 202.993 147.024 202.993 146.075C202.993 145.125 202.359 144.492 201.566 144.492C200.695 144.492 200.14 145.125 200.14 146.075C200.14 147.024 200.774 147.657 201.566 147.657Z" fill="black"/>
<path d="M209.887 142.751H210.759V141.326H212.978V142.751H214.8V144.571H212.978V147.894H214.879V149.714H210.679V144.65H209.887V142.751Z" fill="black"/>
<path d="M219.238 142.514C221.457 142.514 223.042 144.175 223.042 146.154C223.042 148.132 221.378 149.794 219.238 149.794C217.019 149.794 215.434 148.132 215.434 146.154C215.355 144.175 217.019 142.514 219.238 142.514ZM219.238 147.895C220.11 147.895 220.744 147.262 220.744 146.154C220.744 145.046 220.11 144.413 219.238 144.413C218.366 144.413 217.732 145.046 217.732 146.154C217.732 147.262 218.366 147.895 219.238 147.895Z" fill="black"/>
<path d="M149.74 156.203H153.306C156.396 156.203 158.457 158.261 158.457 160.872C158.457 163.483 156.396 165.541 153.306 165.541H149.74V156.203ZM153.306 163.246C154.97 163.246 155.921 162.296 155.921 160.872C155.921 159.448 154.97 158.498 153.306 158.498H152.196V163.246H153.306Z" fill="black"/>
<path d="M163.053 158.419C165.272 158.419 166.857 160.081 166.857 162.059V162.455H161.547C161.706 163.404 162.181 163.879 162.974 163.879C164.004 163.879 164.321 163.167 164.321 163.167H166.698C166.698 163.167 166.064 165.699 162.974 165.699C160.834 165.699 159.17 164.037 159.17 162.059C159.249 160.081 160.913 158.419 163.053 158.419ZM164.4 161.347C164.242 160.714 163.766 160.239 162.974 160.239C162.26 160.239 161.706 160.793 161.547 161.347H164.4Z" fill="black"/>
<path d="M169.709 163.246C169.709 163.246 169.947 163.958 170.977 163.958C171.611 163.958 171.928 163.721 171.928 163.483C171.928 162.534 167.808 163.167 167.808 160.476C167.808 159.369 168.758 158.34 170.819 158.34C173.83 158.34 174.226 160.635 174.226 160.635H172.008C172.008 160.635 171.849 160.002 170.977 160.002C170.423 160.002 170.185 160.239 170.185 160.476C170.185 161.426 174.306 160.714 174.306 163.404C174.306 164.591 173.275 165.62 171.057 165.62C167.966 165.62 167.57 163.167 167.57 163.167H169.709V163.246Z" fill="black"/>
<path d="M176.445 155.649C177.159 155.649 177.713 156.203 177.713 156.757C177.713 157.39 177.159 157.865 176.445 157.865C175.732 157.865 175.177 157.311 175.177 156.757C175.177 156.124 175.653 155.649 176.445 155.649ZM175.257 158.656H177.476V165.541H175.257V158.656Z" fill="black"/>
<path d="M181.676 158.419C183.102 158.419 183.736 159.448 183.736 159.448H183.894V158.577H186.113V167.994H179.536V166.174H183.815V164.354H183.736C183.736 164.354 183.102 165.383 181.676 165.383C180.011 165.383 178.664 163.958 178.664 161.901C178.664 159.843 180.091 158.419 181.676 158.419ZM182.468 163.483C183.34 163.483 183.894 162.85 183.894 161.901C183.894 160.951 183.261 160.318 182.468 160.318C181.596 160.318 181.042 160.951 181.042 161.901C181.042 162.85 181.596 163.483 182.468 163.483Z" fill="black"/>
<path d="M187.46 158.656H189.679V159.606H189.838C189.838 159.606 190.472 158.498 191.898 158.498C193.483 158.498 194.513 159.527 194.513 161.347V165.62H192.294V161.742C192.294 160.951 191.819 160.476 191.106 160.476C190.393 160.476 189.759 161.109 189.759 161.98V165.62H187.54V158.656H187.46Z" fill="black"/>
<path d="M199.664 156.203H203.23C206.321 156.203 208.381 158.261 208.381 160.872C208.381 163.483 206.321 165.541 203.23 165.541H199.664V156.203ZM203.23 163.246C204.895 163.246 205.845 162.296 205.845 160.872C205.845 159.448 204.895 158.498 203.23 158.498H202.121V163.246H203.23Z" fill="black"/>
<path d="M213.057 158.419C215.276 158.419 216.86 160.081 216.86 162.059C216.86 164.037 215.196 165.699 213.057 165.699C210.838 165.699 209.253 164.037 209.253 162.059C209.253 160.081 210.838 158.419 213.057 158.419ZM213.057 163.8C213.928 163.8 214.562 163.167 214.562 162.059C214.562 160.951 213.928 160.318 213.057 160.318C212.185 160.318 211.551 160.951 211.551 162.059C211.551 163.167 212.185 163.8 213.057 163.8Z" fill="black"/>
<path d="M219.079 155.649C219.793 155.649 220.347 156.203 220.347 156.757C220.347 157.39 219.793 157.865 219.079 157.865C218.366 157.865 217.812 157.311 217.812 156.757C217.812 156.124 218.366 155.649 219.079 155.649ZM217.97 158.656H220.189V165.541H217.97V158.656Z" fill="black"/>
<path d="M221.615 158.656H223.834V159.606H223.993C223.993 159.606 224.627 158.498 226.053 158.498C227.638 158.498 228.668 159.527 228.668 161.347V165.62H226.449V161.742C226.449 160.951 225.974 160.476 225.261 160.476C224.547 160.476 223.913 161.109 223.913 161.98V165.62H221.694V158.656H221.615Z" fill="black"/>
<path d="M232.709 158.419C234.136 158.419 234.77 159.448 234.77 159.448H234.928V158.577H237.147V167.994H230.57V166.174H234.849V164.354H234.691C234.691 164.354 234.057 165.383 232.63 165.383C230.966 165.383 229.619 163.958 229.619 161.901C229.619 159.843 231.045 158.419 232.709 158.419ZM233.423 163.483C234.294 163.483 234.849 162.85 234.849 161.901C234.849 160.951 234.215 160.318 233.423 160.318C232.551 160.318 231.996 160.951 231.996 161.901C231.996 162.85 232.551 163.483 233.423 163.483Z" fill="black"/>
<path d="M213.294 72.6388H222.566V113.709H213.294V105.162L196.574 91.7889V113.709H187.381V72.3223L213.294 93.0551V72.6388Z" fill="black"/>
<path d="M45.9283 72.6387C36.2604 72.6387 30 72.6387 30 72.6387V113.709H44.8981C44.8981 113.709 51.7925 113.392 55.6755 110.543C59.5585 107.694 65.3434 102.551 65.3434 92.6593C65.3434 80.6311 54.0113 72.6387 45.9283 72.6387ZM53.8528 100.573C50.9208 104.846 45.6906 105.321 45.6906 105.321H39.2717V81.0267C39.2717 81.0267 42.9962 81.0267 45.3736 81.0267C51.7132 81.0267 55.9925 87.5948 55.9925 92.8967C56.0717 96.062 55.517 98.1986 53.8528 100.573Z" fill="black"/>
<path d="M94.1095 72.6387V81.7389H80.3209L87.9284 93.1341L80.3209 104.608H94.1095V113.709H63.9963L77.5473 93.1341L63.9963 72.6387H94.1095Z" fill="black"/>
<path d="M188.887 176.145H179.536V217.214H188.887V176.145Z" fill="black"/>
<path d="M139.121 72.5596H129.77V113.629H139.121V72.5596Z" fill="black"/>
<path d="M180.725 79.84L173.751 85.5376C173.751 85.5376 172.166 83.7175 171.057 82.9262C168.6 81.1061 167.015 80.9479 163.766 80.9479C158.774 80.9479 152.355 85.3002 152.355 93.0552C152.355 100.573 158.536 105.004 163.37 105.004C165.43 105.004 167.808 105.004 169.551 104.371C171.691 103.58 172.087 103.026 172.087 103.026V97.3284H162.102L166.064 88.7029H181.121V107.378C181.121 107.378 177.713 110.939 173.83 112.284C169.947 113.63 168.204 114.025 164.4 114.025C159.487 114.025 152.593 112.68 146.808 105.004C144.113 101.522 143.162 95.6666 143.162 92.976C143.162 90.2064 143.242 84.2714 149.819 77.7034C154.098 73.5885 159.566 72.0059 164.876 72.0059C168.679 72.0059 175.257 73.1929 180.725 79.84Z" fill="black"/>
<path d="M194.989 175.907V217.531H204.26V196.007L230.253 218.006V176.461H220.981V198.064L194.989 175.907Z" fill="black"/>
<path d="M122.241 77.2283L116.139 83.7963C116.139 83.7963 115.109 81.9763 113.128 81.0267C111.464 80.2353 108.611 80.7893 107.977 82.1345C107.264 83.638 107.898 85.379 109.087 86.2494C110.909 87.5947 113.524 88.386 116.377 89.8895C119.785 91.7096 122.321 94.0044 123.272 96.3784C124.064 98.2776 125.966 103.975 122.162 109.04C118.358 114.104 113.128 114.025 110.909 114.025C108.69 114.025 104.173 113.709 100.053 110.464C98.1508 109.277 96.5659 106.191 96.5659 106.191L103.54 100.414C103.54 100.414 105.838 104.054 108.928 105.083C112.177 106.191 114.158 104.687 114.158 104.687C114.158 104.687 115.823 103.659 114.792 101.126C113.762 98.5941 109.166 98.0402 106.234 95.9828C103.302 93.9253 98.6263 91.4722 98.3886 84.5085C98.1508 77.5448 103.381 72.6386 109.324 72.0847C115.268 71.5307 119.468 73.7464 122.241 77.2283Z" fill="black"/>
<path d="M30 124.471V165.541H39.2717V149.398H50.9208V140.535H39.2717V133.571H54.4868V124.471H30Z" fill="black"/>
<path d="M60.0339 124.471V165.461H101.083V124.471H60.0339ZM91.8905 156.361H69.3849V133.571H91.9698V156.361H91.8905Z" fill="black"/>
<path d="M109.483 124.471V165.541H118.675V132.78H127.551L121.053 146.786L131.672 165.541H141.736L131.038 146.628L141.419 124.471H109.483Z" fill="black"/>
<path d="M107.106 217.294L90.8604 196.956L105.283 176.224H94.6642L80.2415 196.877V176.224H71.0491V217.294H80.2415V197.906L95.6944 217.294H107.106Z" fill="black"/>
<path d="M30 176.224V202.575C30 202.575 30.1585 205.424 31.1887 207.718C32.2189 210.092 35.9434 217.61 47.0377 217.61C58.1321 217.61 61.6981 209.222 61.6981 209.222C61.6981 209.222 63.6 206.057 63.6 202.496C63.6 199.647 63.6 176.224 63.6 176.224H54.3283V202.1C54.3283 202.1 54.0906 203.999 53.3774 205.265C52.5849 206.452 50.6038 208.905 46.8 208.905C42.9962 208.905 41.3321 206.927 40.2226 205.503C39.1132 204.078 39.1925 201.467 39.1925 201.467V176.224H30Z" fill="black"/>
<path d="M128.74 199.805C128.74 199.805 131.117 199.093 132.86 197.273C134.604 195.453 136.664 192.842 136.664 188.568C136.664 184.295 134.366 180.259 131.117 178.202C127.868 176.145 126.204 176.145 125.491 176.145C124.777 176.145 108.849 176.145 108.849 176.145V217.214H118.042V200.438L131.038 217.214H142.053L128.74 199.805ZM126.6 191.575C125.253 193 123.509 192.921 123.509 192.921H118.2V184.691C118.2 184.691 120.498 184.691 123.589 184.691C126.442 184.691 127.709 187.223 127.709 188.806C127.789 189.835 127.789 190.388 126.6 191.575Z" fill="black"/>
<path d="M261 176.145V185.324C261 185.324 248.479 185.324 248.162 185.324C247.766 185.324 244.834 185.64 244.834 188.489C244.834 191.259 246.656 192.129 247.766 192.129C248.638 192.129 257.513 192.129 257.513 192.129V200.992C257.513 200.992 248.4 200.992 248.004 200.992C247.607 200.992 244.834 201.467 244.834 204.316C244.834 207.006 246.815 208.035 247.766 208.035C248.558 208.035 261 208.035 261 208.035V217.135C261 217.135 250.381 217.135 247.053 217.135C241.981 217.135 235.483 211.833 235.483 204.87C235.483 204.87 235.245 200.517 238.494 196.64C237.464 195.374 235.483 192.921 235.483 188.173C235.483 183.425 239.841 176.065 247.924 176.065C254.977 176.145 261 176.145 261 176.145Z" fill="black"/>
<path d="M157.823 175.828L137.615 217.294H178.189L157.823 175.828ZM151.641 208.114L157.823 194.741L164.162 208.114H151.641Z" fill="black"/>
</svg>
