<svg width="290" height="290" viewBox="0 0 290 290" fill="none" xmlns="http://www.w3.org/2000/svg">
<rect width="290" height="290" fill="white"/>
<g clip-path="url(#clip0)">
<path d="M45.6859 196.851V191.753L42.3704 196.851H41.9183L38.6028 191.753V196.851H38V190.854H38.6028L42.2197 196.251L45.6859 190.854H46.2887V196.851H45.6859Z" fill="#174C60"/>
<path d="M58.3452 196.851L57.5917 195.201H53.5227L52.6184 196.851H52.0156L55.1804 190.854H55.7832L58.948 196.851H58.3452ZM55.4818 191.303L53.6734 194.752H57.2903L55.4818 191.303Z" fill="#174C60"/>
<path d="M65.2774 194.302V196.851H64.6746V190.854H67.6886C68.1408 190.854 68.5929 190.854 68.8943 191.003C69.1957 191.153 69.4971 191.153 69.6478 191.303C69.7985 191.453 69.9492 191.603 70.0999 191.903C70.2506 192.203 70.2506 192.353 70.2506 192.653C70.2506 193.102 70.0999 193.402 69.9492 193.702C69.6478 194.002 69.3464 194.152 68.7436 194.302L70.8534 197.001H70.0999L68.1408 194.452C67.9901 194.452 67.9901 194.452 67.8393 194.452C67.6886 194.452 67.6886 194.452 67.5379 194.452H65.2774V194.302ZM69.7985 192.503C69.7985 192.203 69.7985 192.053 69.6478 191.903C69.4971 191.753 69.3464 191.603 69.1957 191.603C69.045 191.603 68.7436 191.453 68.4422 191.453C68.1408 191.453 67.6886 191.453 67.2365 191.453H65.4281V193.852H67.2365C67.6886 193.852 68.1408 193.852 68.4422 193.852C68.7436 193.852 69.045 193.702 69.1957 193.702C69.3464 193.702 69.4971 193.552 69.6478 193.402C69.7985 192.953 69.7985 192.803 69.7985 192.503Z" fill="#174C60"/>
<path d="M77.3338 193.702L81.8549 190.854H82.6084L78.0873 193.702L82.7591 196.851H81.8549L77.3338 193.702V196.851H76.731V190.854H77.3338V193.702Z" fill="#174C60"/>
<path d="M88.6367 196.851V190.854H93.7607V191.303H89.2395V193.402H93.4593V193.852H89.2395V196.251H93.7607V196.701H88.6367V196.851Z" fill="#174C60"/>
<path d="M102.502 191.303V196.851H101.899V191.303H99.186V190.854H105.214V191.303H102.502Z" fill="#174C60"/>
<path d="M110.941 196.851V190.854H111.544V196.851H110.941Z" fill="#174C60"/>
<path d="M123.901 196.85L118.627 191.453V196.7H118.024V190.703H118.627L123.901 196.101V190.703H124.504V196.7H123.901V196.85Z" fill="#174C60"/>
<path d="M134.752 190.703C135.053 190.703 135.355 190.703 135.506 190.703C135.656 190.703 135.958 190.703 136.259 190.853C136.41 190.853 136.711 191.003 136.862 191.003C137.013 191.003 137.314 191.153 137.465 191.303V191.903C137.314 191.753 137.163 191.753 136.862 191.603C136.561 191.453 136.561 191.453 136.259 191.453C135.958 191.453 135.807 191.303 135.506 191.303C135.204 191.303 135.053 191.303 134.752 191.303C134.149 191.303 133.697 191.303 133.245 191.453C132.793 191.603 132.491 191.753 132.19 192.052C131.889 192.352 131.738 192.502 131.587 192.952C131.437 193.402 131.437 193.702 131.437 194.002C131.437 194.451 131.437 194.751 131.587 195.051C131.738 195.351 131.889 195.651 132.19 195.951C132.491 196.25 132.793 196.4 133.245 196.55C133.697 196.7 134.149 196.7 134.752 196.7C135.053 196.7 135.204 196.7 135.506 196.7C135.807 196.7 135.958 196.7 136.108 196.7C136.259 196.7 136.561 196.7 136.711 196.55C136.862 196.55 137.013 196.55 137.163 196.4V194.601H134.752V194.151H137.766V196.85C137.615 197 137.314 197 137.163 197C137.013 197 136.711 197.15 136.41 197.15C136.108 197.15 135.958 197.15 135.656 197.3C135.355 197.45 135.204 197.3 134.903 197.3C134.3 197.3 133.848 197.3 133.245 197.15C132.793 197 132.341 196.85 132.039 196.55C131.738 196.25 131.437 195.951 131.135 195.501C130.834 195.051 130.834 194.601 130.834 194.151C130.834 193.852 130.834 193.402 130.984 193.252C131.135 192.952 131.286 192.652 131.437 192.502C131.587 192.202 131.889 192.052 132.039 191.903C132.19 191.753 132.491 191.603 132.793 191.453C133.094 191.303 133.396 191.303 133.697 191.153C133.999 190.703 134.3 190.703 134.752 190.703Z" fill="#174C60"/>
<path d="M156.755 191.753C156.604 191.753 156.454 191.603 156.303 191.603C156.152 191.603 156.001 191.453 155.851 191.453C155.7 191.453 155.399 191.303 155.248 191.303C154.946 191.303 154.796 191.303 154.494 191.303C154.193 191.303 153.892 191.303 153.59 191.303C153.289 191.303 153.138 191.453 152.837 191.453C152.686 191.603 152.535 191.603 152.385 191.753C152.234 191.903 152.234 192.053 152.234 192.203C152.234 192.353 152.234 192.503 152.385 192.653C152.535 192.803 152.535 192.803 152.837 192.953C152.987 193.102 153.138 193.102 153.439 193.252C153.59 193.252 153.892 193.402 154.193 193.402C154.494 193.402 154.645 193.552 154.946 193.552C155.248 193.552 155.399 193.702 155.7 193.702C156.001 193.702 156.152 193.852 156.454 194.002C156.604 194.152 156.906 194.152 157.056 194.302C157.207 194.452 157.358 194.602 157.508 194.752C157.659 194.902 157.659 195.052 157.659 195.351C157.659 195.651 157.659 195.801 157.508 195.951C157.358 196.101 157.358 196.251 157.207 196.401C157.056 196.551 156.906 196.551 156.755 196.701C156.604 196.851 156.303 196.851 156.152 196.851C156.001 196.851 155.7 197.001 155.399 197.001C155.097 197.001 154.946 197.001 154.645 197.001C154.193 197.001 153.59 197.001 153.138 196.851C152.686 196.701 152.234 196.701 151.932 196.551V195.951C152.385 196.251 152.686 196.401 153.138 196.401C153.59 196.401 154.042 196.551 154.494 196.551C154.796 196.551 155.097 196.551 155.399 196.551C155.7 196.551 156.001 196.401 156.152 196.401C156.303 196.251 156.604 196.251 156.604 196.101C156.604 195.951 156.755 195.801 156.755 195.501C156.755 195.351 156.755 195.201 156.604 195.052C156.454 194.902 156.454 194.752 156.152 194.752C155.851 194.752 155.851 194.452 155.549 194.302C155.248 194.152 155.097 194.152 154.796 194.152C154.494 194.152 154.344 194.002 154.042 194.002C153.741 194.002 153.59 193.852 153.289 193.852C152.987 193.852 152.837 193.702 152.535 193.552C152.234 193.402 152.083 193.402 151.932 193.252C151.782 193.102 151.631 192.953 151.48 192.803C151.33 192.653 151.33 192.503 151.33 192.203C151.33 192.053 151.33 191.753 151.48 191.603C151.631 191.453 151.631 191.303 151.782 191.153C151.932 191.003 152.083 191.003 152.234 190.854C152.385 190.704 152.535 190.704 152.837 190.704C153.138 190.704 153.289 190.554 153.439 190.554C153.59 190.554 153.892 190.554 154.042 190.554C154.344 190.554 154.494 190.554 154.645 190.554C154.796 190.554 155.097 190.554 155.248 190.704C155.399 190.854 155.7 190.704 155.851 190.854C156.001 191.003 156.152 191.003 156.454 191.003V191.753H156.755Z" fill="#174C60"/>
<path d="M170.771 193.852C170.771 194.452 170.62 194.902 170.469 195.201C170.318 195.651 170.017 195.951 169.716 196.251C169.414 196.551 168.962 196.701 168.51 196.851C168.058 197.001 167.606 197.001 167.003 197.001C166.4 197.001 165.948 197.001 165.496 196.851C165.044 196.701 164.592 196.551 164.29 196.251C163.989 195.951 163.687 195.651 163.537 195.201C163.386 194.752 163.235 194.302 163.235 193.852C163.235 193.552 163.235 193.102 163.386 192.803C163.537 192.503 163.537 192.203 163.838 192.053C163.989 191.753 164.14 191.603 164.441 191.453C164.742 191.303 164.893 191.153 165.195 191.003C165.496 190.854 165.797 190.854 166.099 190.704C166.4 190.704 166.702 190.554 167.154 190.554C167.756 190.554 168.209 190.554 168.661 190.704C169.113 190.854 169.565 191.003 169.866 191.303C170.168 191.603 170.469 191.903 170.62 192.353C170.771 192.803 170.771 193.252 170.771 193.852ZM170.318 193.852C170.318 193.402 170.318 193.102 170.168 192.653C170.017 192.203 169.866 192.053 169.565 191.753C169.264 191.603 168.962 191.303 168.51 191.303C168.058 191.153 167.606 191.153 167.154 191.153C166.551 191.153 166.099 191.153 165.797 191.303C165.345 191.453 165.044 191.603 164.742 191.753C164.441 191.903 164.29 192.203 164.14 192.653C163.989 192.953 163.989 193.402 163.989 193.852C163.989 194.302 163.989 194.602 164.14 195.052C164.29 195.501 164.441 195.651 164.742 195.951C165.044 196.101 165.345 196.401 165.797 196.401C166.249 196.551 166.702 196.551 167.154 196.551C167.756 196.551 168.209 196.551 168.51 196.401C168.811 196.251 169.264 196.101 169.565 195.951C169.866 195.651 170.017 195.501 170.168 195.052C170.318 194.602 170.318 194.302 170.318 193.852Z" fill="#174C60"/>
<path d="M176.949 196.851V190.854H177.552V196.401H181.922V196.851H176.949Z" fill="#174C60"/>
<path d="M193.828 195.801C193.677 196.101 193.527 196.251 193.225 196.401C192.924 196.551 192.623 196.701 192.321 196.851C192.02 197.001 191.568 197.001 190.965 197.001C190.362 197.001 190.061 197.001 189.608 196.851C189.156 196.701 188.855 196.551 188.704 196.401C188.554 196.251 188.252 195.951 188.101 195.801C187.951 195.501 187.951 195.351 187.951 195.051V190.854H188.554V195.051C188.554 195.201 188.554 195.501 188.704 195.651C188.855 195.801 189.006 195.951 189.156 196.101C189.307 196.251 189.608 196.401 189.91 196.401C190.211 196.401 190.513 196.551 190.965 196.551C191.417 196.551 191.718 196.551 192.02 196.401C192.321 196.251 192.623 196.251 192.773 196.101C192.924 195.951 193.075 195.801 193.225 195.651C193.376 195.501 193.376 195.351 193.376 195.051V190.854H193.979V195.051C193.979 195.201 193.828 195.501 193.828 195.801Z" fill="#174C60"/>
<path d="M203.021 191.303V196.851H202.418V191.303H199.706V190.854H205.734V191.303H203.021Z" fill="#174C60"/>
<path d="M211.461 196.851V190.854H212.064V196.851H211.461Z" fill="#174C60"/>
<path d="M225.928 193.852C225.928 194.452 225.777 194.902 225.627 195.201C225.476 195.651 225.175 195.951 224.873 196.251C224.572 196.551 224.12 196.701 223.667 196.851C223.215 197.001 222.763 197.001 222.16 197.001C221.558 197.001 221.105 197.001 220.653 196.851C220.201 196.701 219.749 196.551 219.448 196.251C219.146 195.951 218.845 195.651 218.694 195.201C218.544 194.752 218.393 194.302 218.393 193.852C218.393 193.552 218.393 193.102 218.544 192.803C218.694 192.503 218.694 192.203 218.996 192.053C219.146 191.753 219.297 191.603 219.598 191.453C219.9 191.303 220.051 191.153 220.352 191.003C220.653 190.854 220.955 190.854 221.256 190.704C221.558 190.704 221.859 190.554 222.311 190.554C222.914 190.554 223.366 190.554 223.818 190.704C224.27 190.854 224.722 191.003 225.024 191.303C225.325 191.603 225.627 191.903 225.777 192.353C225.928 192.803 225.928 193.252 225.928 193.852ZM225.325 193.852C225.325 193.402 225.325 193.102 225.175 192.653C225.024 192.203 224.873 192.053 224.572 191.753C224.27 191.603 223.969 191.303 223.517 191.303C223.065 191.153 222.613 191.153 222.16 191.153C221.558 191.153 221.106 191.153 220.804 191.303C220.352 191.453 220.051 191.603 219.749 191.753C219.448 191.903 219.297 192.203 219.146 192.653C218.996 192.953 218.996 193.402 218.996 193.852C218.996 194.302 218.996 194.602 219.146 195.052C219.297 195.501 219.448 195.651 219.749 195.951C220.051 196.101 220.352 196.401 220.804 196.401C221.256 196.551 221.708 196.551 222.16 196.551C222.763 196.551 223.215 196.551 223.517 196.401C223.969 196.251 224.27 196.101 224.572 195.951C224.873 195.651 225.024 195.501 225.175 195.052C225.325 194.602 225.325 194.302 225.325 193.852Z" fill="#174C60"/>
<path d="M237.834 196.851L232.559 191.603V196.851H231.956V190.854H232.559L237.834 196.251V190.854H238.437V196.851H237.834Z" fill="#174C60"/>
<path d="M249.89 191.753C249.74 191.753 249.589 191.603 249.438 191.603C249.287 191.603 249.137 191.453 248.986 191.453C248.835 191.453 248.534 191.303 248.383 191.303C248.082 191.303 247.931 191.303 247.63 191.303C247.328 191.303 247.027 191.303 246.725 191.303C246.424 191.303 246.273 191.453 245.972 191.453C245.821 191.603 245.67 191.603 245.52 191.753C245.369 191.903 245.369 192.052 245.369 192.202C245.369 192.352 245.369 192.502 245.52 192.652C245.67 192.802 245.67 192.802 245.972 192.952C246.273 193.102 246.273 193.102 246.575 193.252C246.725 193.252 247.027 193.402 247.328 193.402C247.63 193.402 247.78 193.552 248.082 193.552C248.383 193.552 248.534 193.702 248.835 193.702C249.137 193.702 249.287 193.852 249.589 194.002C249.739 194.151 250.041 194.151 250.192 194.301C250.342 194.451 250.493 194.601 250.644 194.751C250.794 194.901 250.794 195.051 250.794 195.351C250.794 195.651 250.794 195.801 250.644 195.951C250.493 196.101 250.493 196.25 250.342 196.4C250.192 196.55 250.041 196.55 249.89 196.7C249.74 196.85 249.438 196.85 249.287 196.85C249.137 196.85 248.835 197 248.534 197C248.232 197 248.082 197 247.78 197C247.328 197 246.725 197 246.273 196.85C245.821 196.7 245.369 196.7 245.068 196.55V195.951C245.52 196.25 245.821 196.4 246.273 196.4C246.725 196.55 247.178 196.55 247.63 196.55C247.931 196.55 248.232 196.55 248.534 196.55C248.835 196.55 249.137 196.4 249.287 196.4C249.438 196.25 249.739 196.25 249.739 196.101C249.89 195.951 249.89 195.801 249.89 195.501C249.89 195.351 249.89 195.201 249.739 195.051C249.589 194.901 249.438 194.751 249.287 194.751C249.137 194.601 248.986 194.601 248.685 194.451C248.534 194.451 248.232 194.301 247.931 194.301C247.63 194.301 247.479 194.151 247.178 194.151C246.876 194.151 246.725 194.002 246.424 194.002C246.123 194.002 245.972 193.852 245.67 193.702C245.52 193.552 245.218 193.552 245.068 193.402C244.917 193.252 244.766 193.102 244.616 192.952C244.465 192.802 244.465 192.652 244.465 192.352C244.465 192.202 244.465 191.903 244.616 191.753C244.766 191.603 244.766 191.453 244.917 191.303C245.068 191.153 245.218 191.153 245.369 191.003C245.52 190.853 245.67 190.853 245.972 190.853C246.123 190.853 246.424 190.703 246.575 190.703C246.725 190.703 247.027 190.703 247.178 190.703C247.479 190.703 247.63 190.703 247.78 190.703C247.931 190.703 248.232 190.703 248.383 190.853C248.534 190.853 248.835 190.853 248.986 191.003C249.137 191.003 249.287 191.153 249.589 191.153V191.753H249.89Z" fill="#174C60"/>
<path d="M62.4141 178.259L40.2606 155.919V178.109H38V152.921H40.562L62.5648 175.26V152.921H64.8253V178.109H62.4141V178.259Z" fill="#174C60"/>
<path d="M104.159 165.665C104.159 167.914 103.707 169.863 102.954 171.512C102.2 173.161 100.994 174.51 99.4873 175.56C97.9803 176.609 96.3225 177.359 94.3634 177.959C92.4042 178.409 90.2944 178.708 88.0338 178.708C85.7732 178.708 83.6634 178.409 81.7042 177.959C79.7451 177.509 78.0873 176.609 76.5803 175.56C75.0732 174.51 74.0183 173.161 73.1141 171.512C72.3606 169.863 71.9084 167.914 71.9084 165.665C71.9084 164.165 72.0592 162.816 72.5113 161.617C72.9634 160.417 73.4155 159.218 74.169 158.318C74.9225 157.419 75.6761 156.519 76.731 155.77C77.6352 155.02 78.8408 154.42 80.0465 153.97C81.2521 153.521 82.6084 153.221 83.9648 152.921C85.3211 152.621 86.8282 152.621 88.3352 152.621C90.5958 152.621 92.7056 152.921 94.6648 153.371C96.6239 153.821 98.2817 154.72 99.7887 155.77C101.296 156.819 102.351 158.168 103.255 159.818C103.707 161.317 104.159 163.416 104.159 165.665ZM101.748 165.665C101.748 163.866 101.446 162.366 100.844 160.867C100.241 159.518 99.3366 158.318 98.2817 157.419C97.0761 156.519 95.7197 155.77 94.062 155.32C92.4042 154.87 90.4451 154.57 88.1845 154.57C85.9239 154.57 83.9648 154.87 82.1563 155.32C80.3479 155.77 78.9915 156.519 77.7859 157.419C76.5803 158.318 75.8268 159.518 75.2239 160.867C74.6211 162.216 74.3197 163.866 74.3197 165.515C74.3197 167.314 74.6211 168.813 75.2239 170.313C75.8268 171.662 76.731 172.861 77.7859 173.761C78.9915 174.66 80.3479 175.41 82.1563 175.86C83.8141 176.31 85.9239 176.609 88.1845 176.609C90.4451 176.609 92.4042 176.31 94.062 175.86C95.7197 175.41 97.2268 174.66 98.2817 173.761C99.4873 172.861 100.241 171.662 100.844 170.313C101.446 168.963 101.748 167.464 101.748 165.665Z" fill="#174C60"/>
<path d="M131.738 156.669C131.286 156.369 130.683 156.219 130.08 155.919C129.477 155.62 128.724 155.47 127.97 155.17C127.217 154.87 126.313 154.72 125.258 154.72C124.203 154.57 123.148 154.57 121.942 154.57C120.435 154.57 119.079 154.72 118.024 154.87C116.969 155.02 115.914 155.32 115.01 155.62C114.256 155.919 113.653 156.369 113.201 156.969C112.749 157.569 112.599 158.168 112.599 158.918C112.599 159.518 112.749 160.117 113.201 160.567C113.653 161.017 114.106 161.467 114.859 161.767C115.613 162.067 116.366 162.516 117.27 162.816C118.175 163.116 119.23 163.416 120.134 163.716C121.189 164.016 122.244 164.315 123.299 164.465C124.353 164.765 125.408 165.065 126.463 165.365C127.518 165.665 128.422 165.965 129.327 166.414C130.231 166.864 130.984 167.314 131.738 167.764C132.491 168.214 132.944 168.813 133.396 169.563C133.848 170.163 133.999 171.062 133.999 171.812C133.999 172.711 133.848 173.611 133.396 174.211C133.094 174.96 132.491 175.56 131.889 176.01C131.286 176.46 130.532 176.909 129.779 177.209C129.025 177.509 128.121 177.809 127.217 177.959C126.313 178.109 125.258 178.259 124.353 178.409C123.449 178.559 122.394 178.559 121.49 178.559C119.23 178.559 117.27 178.409 115.462 178.109C113.653 177.959 111.845 177.509 110.338 176.909V174.061C111.996 175.11 113.804 175.71 115.613 176.16C117.421 176.46 119.38 176.759 121.49 176.759C122.997 176.759 124.353 176.609 125.559 176.46C126.765 176.31 127.82 176.01 128.724 175.71C129.628 175.41 130.382 174.81 130.834 174.211C131.286 173.611 131.587 172.861 131.587 171.962C131.587 171.212 131.437 170.612 130.984 170.163C130.532 169.563 130.08 169.113 129.327 168.813C128.573 168.513 127.82 168.064 126.915 167.764C126.011 167.464 124.956 167.164 124.052 166.864C122.997 166.564 121.942 166.414 120.887 166.115C119.832 165.815 118.777 165.665 117.722 165.365C116.668 165.065 115.763 164.765 114.859 164.315C113.955 164.016 113.201 163.566 112.448 162.966C111.694 162.516 111.242 161.917 110.79 161.317C110.338 160.717 110.187 159.968 110.187 159.068C110.187 158.168 110.338 157.419 110.639 156.819C110.941 156.219 111.393 155.62 111.996 155.17C112.599 154.72 113.201 154.27 113.955 153.97C114.708 153.671 115.462 153.371 116.366 153.221C117.27 153.071 118.175 152.921 119.079 152.771C119.983 152.621 120.887 152.621 121.791 152.621C122.846 152.621 123.751 152.621 124.655 152.771C125.559 152.921 126.313 152.921 127.217 153.071C128.121 153.221 128.875 153.371 129.628 153.521C130.382 153.671 131.135 153.97 132.039 154.12V156.669H131.738Z" fill="#174C60"/>
<path d="M151.782 155.02V178.109H149.521V155.02H137.917V152.921H163.235V155.02H151.782Z" fill="#174C60"/>
<path d="M170.921 167.464V178.259H168.661V152.921H181.169C183.128 152.921 184.786 153.071 186.142 153.371C187.499 153.671 188.704 154.12 189.458 154.72C190.362 155.32 190.965 156.069 191.417 156.969C191.869 157.868 192.02 158.918 192.02 160.117C192.02 162.066 191.568 163.566 190.513 164.615C189.458 165.665 187.951 166.564 185.69 166.864L194.28 177.959H191.417L183.279 167.164C182.978 167.164 182.525 167.164 182.224 167.164C181.923 167.164 181.471 167.164 181.169 167.164H170.921V167.464ZM189.759 160.267C189.759 159.218 189.609 158.318 189.156 157.719C188.704 157.119 188.101 156.519 187.348 156.219C186.444 155.919 185.389 155.62 184.032 155.47C182.676 155.32 180.868 155.32 178.909 155.32H171.072V165.515H178.909C180.868 165.515 182.676 165.515 184.032 165.365C185.389 165.215 186.594 165.065 187.499 164.615C188.403 164.315 189.006 163.716 189.458 163.116C189.609 162.216 189.759 161.317 189.759 160.267Z" fill="#174C60"/>
<path d="M200.459 178.259V152.921H221.558V155.02H202.87V163.716H220.503V165.965H202.87V176.16H221.859V178.259H200.459V178.259Z" fill="#174C60"/>
<path d="M249.89 156.67C249.438 156.37 248.835 156.22 248.232 155.92C247.629 155.62 246.876 155.47 246.122 155.17C245.369 154.871 244.465 154.721 243.41 154.721C242.355 154.571 241.3 154.571 240.094 154.571C238.587 154.571 237.231 154.721 236.176 154.871C235.121 155.02 234.066 155.32 233.162 155.62C232.408 155.92 231.806 156.37 231.353 156.969C230.901 157.569 230.751 158.169 230.751 158.919C230.751 159.518 230.901 160.118 231.353 160.568C231.806 161.018 232.258 161.467 233.011 161.767C233.765 162.067 234.518 162.517 235.422 162.817C236.327 163.117 237.382 163.416 238.286 163.716C239.341 164.016 240.396 164.316 241.451 164.466C242.506 164.766 243.56 165.066 244.615 165.365C245.67 165.665 246.575 165.965 247.479 166.415C248.383 166.865 249.137 167.314 249.89 167.764C250.644 168.214 251.096 168.814 251.548 169.563C252 170.163 252.151 171.063 252.151 171.812C252.151 172.712 252 173.611 251.548 174.211C251.246 174.961 250.644 175.56 250.041 176.01C249.438 176.46 248.684 176.91 247.931 177.21C247.177 177.51 246.273 177.809 245.369 177.959C244.465 178.109 243.41 178.259 242.506 178.409C241.601 178.559 240.546 178.559 239.642 178.559C237.382 178.559 235.422 178.409 233.614 178.109C231.806 177.809 230.148 177.36 228.49 176.76V173.911C230.148 174.961 231.956 175.56 233.765 176.01C235.573 176.31 237.532 176.61 239.642 176.61C241.149 176.61 242.506 176.46 243.711 176.31C244.917 176.16 245.972 175.86 246.876 175.56C247.78 175.261 248.534 174.661 248.986 174.061C249.438 173.461 249.739 172.712 249.739 171.812C249.739 171.063 249.589 170.463 249.137 170.013C248.684 169.413 248.232 168.964 247.479 168.664C246.725 168.364 245.972 167.914 245.068 167.614C244.163 167.314 243.108 167.015 242.204 166.715C241.149 166.415 240.094 166.265 239.039 165.965C237.984 165.665 236.929 165.515 235.875 165.215C234.82 164.916 233.915 164.616 233.011 164.166C232.107 163.866 231.353 163.416 230.6 162.817C229.846 162.367 229.394 161.767 228.942 161.167C228.49 160.568 228.339 159.818 228.339 158.919C228.339 158.019 228.49 157.269 228.791 156.67C229.093 156.07 229.545 155.47 230.148 155.02C230.751 154.571 231.353 154.121 232.107 153.821C232.86 153.521 233.614 153.221 234.518 153.071C235.422 152.921 236.327 152.772 237.231 152.622C238.135 152.472 239.039 152.472 239.944 152.472C240.999 152.472 241.903 152.472 242.807 152.622C243.711 152.772 244.465 152.772 245.369 152.921C246.273 153.071 247.027 153.221 247.78 153.371C248.534 153.521 249.287 153.821 250.191 153.971V156.67H249.89Z" fill="#174C60"/>
<path d="M174.237 136.88L158.564 139.728C156.604 131.782 149.22 125.935 140.63 125.935C138.369 125.935 136.109 126.385 134.149 127.134C138.52 123.236 144.397 120.837 150.727 120.837C161.578 120.687 170.771 127.434 174.237 136.88Z" fill="#174C60"/>
<path d="M145.452 102.996C177.1 102.996 182.978 134.781 178.758 136.13H178.456C175.442 136.13 175.442 129.533 166.702 123.236C163.235 120.688 157.961 118.289 151.028 118.289C144.699 118.289 139.726 120.388 135.506 123.086C126.916 128.784 124.203 139.728 114.709 136.73C105.516 133.731 112.749 102.996 145.452 102.996Z" fill="#174C60"/>
<path d="M194.431 133.431L182.525 135.53C182.676 134.18 182.827 132.981 182.827 131.632C182.827 114.84 167.455 100.597 145.452 100.597C123.449 100.597 107.173 114.69 107.173 131.632C107.173 132.981 107.324 134.18 107.475 135.53L95.5691 133.431C95.5691 132.831 95.5691 132.231 95.5691 131.632C95.5691 110.792 118.175 94 145.452 94C172.73 94 194.431 110.792 194.431 131.632C194.431 132.231 194.431 132.831 194.431 133.431Z" fill="#174C60"/>
</g>
<defs>
<clipPath id="clip0">
<rect width="214" height="103" fill="white" transform="translate(38 94)"/>
</clipPath>
</defs>
</svg>
