<svg width="290" height="290" viewBox="0 0 290 290" fill="none" xmlns="http://www.w3.org/2000/svg">
<rect width="290" height="290" fill="white"/>
<g clip-path="url(#clip0)">
<path fill-rule="evenodd" clip-rule="evenodd" d="M54.8 135C51.3 129 44.8 125 37.3 125C26.1 125 17 134.1 17 145.3C17 156.5 26.1 165.6 37.3 165.6C42.7 165.6 47.6 163.5 51.3 160H52.8C55.5 160 57.6 157.8 57.6 155.2V139.4C57.6 137.4 56.4 135.8 54.8 135ZM56 155.2C56 157.9 54.7 158.4 52 158.4H29.7C27.1 158.4 25.7 157.9 25.7 155.2V140.1C25.7 137.4 27 136.1 29.7 136.1H34.5L36.1 133L37.7 132.2H43.3L44.9 133L46.5 136.2H52C54.6 136.2 56 137.5 56 140.2V155.2Z" fill="#3C3C3C"/>
<path fill-rule="evenodd" clip-rule="evenodd" d="M50.3999 140.9V141.6C50.3999 142.1 50.7999 142.4 51.1999 142.4H52.6999C53.1999 142.4 53.4999 142 53.4999 141.6V140.9C53.4999 140.4 53.0999 140.1 52.6999 140.1H51.1999C50.7999 140.1 50.3999 140.5 50.3999 140.9Z" fill="#3C3C3C"/>
<path fill-rule="evenodd" clip-rule="evenodd" d="M40.5 138.5C35.4 138.5 31.3 142.6 31.3 147.6C31.3 152.7 35.4 156.8 40.5 156.8C45.6 156.8 49.7001 152.7 49.7001 147.6C49.6001 142.6 45.5 138.5 40.5 138.5ZM40.5 155.2C36.3 155.2 32.9 151.8 32.9 147.6C32.9 143.4 36.3 140 40.5 140C44.7 140 48.1 143.4 48.1 147.6C48.1 151.8 44.6 155.2 40.5 155.2Z" fill="#3C3C3C"/>
<path fill-rule="evenodd" clip-rule="evenodd" d="M40.5 141.7C37.2 141.7 34.5 144.4 34.5 147.7C34.5 151 37.2 153.7 40.5 153.7C43.8 153.7 46.5 151 46.5 147.7C46.4 144.4 43.8 141.7 40.5 141.7ZM43.8 151.1C42.9 152.2 41.6 152.8 40.1 152.8C37.5 152.8 35.3 150.7 35.3 148C35.3 146.5 36 145.2 37 144.3L37.1 144.2L36.9 144.5C36.4 145.3 36.1 146.2 36.1 147.2C36.1 149.8 38.2 152 40.9 152C41.9 152 42.8 151.7 43.6 151.2L43.8 151.1Z" fill="#3C3C3C"/>
<path d="M77.5999 139V127.9H82.5999V143.9C82.5999 146.2 82.5999 147.7 82.4999 148.3C82.3999 149 82.2999 149.7 81.9999 150.4C81.3999 152.1 80.2999 153.7 78.6999 155C76.8999 156.5 74.7999 157.3 72.3999 157.3C69.4999 157.3 66.9999 156.2 64.9999 154C63.2999 152.1 62.3999 149.8 62.3999 147.3C62.3999 145.6 62.7999 143.9 63.6999 142.3C64.5999 140.6 65.8999 139.4 67.3999 138.5C68.8999 137.6 70.4999 137.2 72.2999 137.2C74.6999 137.2 76.3999 137.8 77.5999 139ZM72.3999 142.1C70.7999 142.1 69.4999 142.7 68.4999 143.9C67.6999 144.8 67.2999 145.9 67.2999 147.2C67.2999 148.4 67.6999 149.4 68.4999 150.4C69.5999 151.7 70.8999 152.4 72.4999 152.4C74.0999 152.4 75.3999 151.8 76.4999 150.6C77.3999 149.6 77.7999 148.5 77.7999 147.2C77.7999 145.7 77.1999 144.4 75.9999 143.3C74.9999 142.5 73.7999 142.1 72.3999 142.1Z" fill="#3C3C3C"/>
<path d="M100.9 141.5L90.3999 152C91.0999 152.3 91.5999 152.4 92.0999 152.4C93.0999 152.4 94.0999 152.3 94.9999 152C95.9999 151.7 97.3999 150.9 99.0999 149.7L98.9999 155C98.1999 155.5 97.4999 155.9 96.8999 156.2C95.4999 156.9 93.9999 157.3 92.2999 157.3C90.4999 157.3 88.7999 156.9 87.1999 156C85.5999 155.1 84.2999 153.8 83.3999 152.2C82.4999 150.7 82.0999 149.1 82.0999 147.3C82.0999 145.5 82.5999 143.8 83.4999 142.2C84.3999 140.5 85.6999 139.3 87.2999 138.3C88.8999 137.4 90.4999 137 92.2999 137C94.5999 137 96.5999 137.7 98.4999 139.1C99.1999 139.7 99.9999 140.5 100.9 141.5ZM87.4999 149.1L94.0999 142.4C93.2999 142.1 92.6999 142 92.0999 142C90.4999 142 89.2999 142.6 88.2999 143.8C87.3999 144.9 86.8999 146 86.8999 147.3C86.9999 147.7 87.1999 148.3 87.4999 149.1Z" fill="#3C3C3C"/>
<path d="M105.4 163.601H100.5L100.4 147.501C100.4 145.401 100.8 143.701 101.7 142.201C102.6 140.601 103.8 139.401 105.3 138.501C106.9 137.601 108.5 137.101 110.3 137.101C113.3 137.101 115.7 138.201 117.7 140.401C119.4 142.301 120.3 144.501 120.3 147.101C120.3 150.101 119.2 152.501 117 154.501C115.1 156.201 112.9 157.101 110.3 157.101C108.9 157.101 107.7 156.801 106.7 156.301C106.4 156.201 106 155.901 105.4 155.501V163.601ZM110.1 142.001C108.6 142.001 107.4 142.601 106.4 143.701C105.5 144.701 105.1 145.901 105.1 147.201C105.1 148.901 105.8 150.201 107.1 151.301C108.1 152.101 109.1 152.401 110.4 152.401C111.8 152.401 113.1 151.901 114.1 150.901C115.1 149.901 115.7 148.601 115.7 147.201C115.7 145.701 115.1 144.401 113.9 143.301C112.7 142.501 111.5 142.001 110.1 142.001Z" fill="#3C3C3C"/>
<path d="M130.2 137.101C131.9 137.101 133.5 137.501 135 138.401C136.6 139.301 137.9 140.601 138.8 142.201C139.7 143.701 140.1 145.401 140.1 147.101C140.1 148.901 139.6 150.601 138.7 152.201C137.8 153.801 136.5 155.001 134.9 156.001C133.3 156.901 131.7 157.401 129.9 157.401C128.1 157.401 126.4 156.901 124.9 156.001C123.3 155.101 122 153.801 121.1 152.301C120.2 150.801 119.8 149.101 119.8 147.401C119.8 145.101 120.4 143.101 121.7 141.401C122.7 140.101 123.9 139.001 125.3 138.301C126.9 137.501 128.5 137.101 130.2 137.101ZM129.9 141.901C128.4 141.901 127.1 142.401 126.2 143.401C125.2 144.401 124.7 145.601 124.7 147.101C124.7 148.701 125.3 149.901 126.4 151.001C127.4 151.901 128.5 152.301 129.8 152.301C131.4 152.301 132.8 151.701 133.8 150.501C134.7 149.501 135.1 148.401 135.1 147.001C135.1 145.501 134.5 144.201 133.3 143.101C132.5 142.401 131.3 141.901 129.9 141.901Z" fill="#3C3C3C"/>
<path d="M139.3 153.7L142.3 150.1C143.5 151.8 144.5 152.6 145.3 152.6C145.7 152.6 146.1 152.4 146.4 152.1C146.7 151.8 146.8 151.5 146.8 151.1C146.8 150.8 146.7 150.5 146.5 150.2C146.3 149.9 145.5 149.5 144.3 149.1C142.8 148.6 141.7 147.7 140.9 146.6C140.3 145.7 140 144.6 140 143.4C140 142.4 140.3 141.4 140.8 140.5C142 138.3 143.9 137.2 146.4 137.2C148.2 137.2 149.7 137.8 150.9 139C151.4 139.5 151.9 140.2 152.5 141.1L149.2 144.2C148.7 143.3 148.2 142.8 147.8 142.5C147.3 142.1 146.8 142 146.3 142C145.9 142 145.6 142.1 145.4 142.4C145.2 142.6 145.1 142.9 145.1 143.2C145.1 143.5 145.2 143.7 145.4 144C145.6 144.3 146.5 144.8 147.9 145.4C149.4 146 150.5 146.9 151.2 148C151.8 149 152.1 150 152.1 151.1C152.1 153 151.4 154.6 149.9 156C148.7 157.1 147.3 157.7 145.6 157.7C144 157.7 142.6 157.2 141.3 156.1C140.6 155.4 140 154.7 139.3 153.7Z" fill="#3C3C3C"/>
<path d="M155.6 129.7C156.4 129.7 157.1 129.9 157.7 130.4C158.5 131 158.8 131.9 158.8 132.9C158.8 133.9 158.4 134.7 157.7 135.3C157.1 135.8 156.4 136.1 155.6 136.1C154.6 136.1 153.8 135.7 153.2 135C152.6 134.4 152.3 133.6 152.3 132.8C152.3 131.8 152.7 131 153.4 130.4C154.1 129.9 154.8 129.7 155.6 129.7ZM152.9 156.8V137.5H158V156.8H152.9Z" fill="#3C3C3C"/>
<path d="M159.3 142.301V137.601H160.7V133.901L165.8 132.601V137.601H170.3V142.301H165.6V150.001V151.301C165.6 151.601 165.8 151.901 166 152.101C166.3 152.401 166.7 152.501 167.2 152.501C167.6 152.501 168.6 152.301 170.1 152.001V156.701C168.9 157.001 167.9 157.101 167.1 157.101C164.4 157.101 162.5 156.201 161.5 154.301C161 153.401 160.8 152.301 160.8 151.001V142.201H159.3V142.301Z" fill="#3C3C3C"/>
<path d="M176 163.6H171.1L171 147.6C171 145.5 171.4 143.8 172.3 142.3C173.2 140.7 174.4 139.5 175.9 138.6C177.5 137.7 179.1 137.2 180.9 137.2C183.9 137.2 186.3 138.3 188.3 140.5C190 142.4 190.9 144.6 190.9 147.2C190.9 150.2 189.8 152.6 187.6 154.6C185.7 156.3 183.5 157.2 180.9 157.2C179.5 157.2 178.3 156.9 177.3 156.4C177 156.3 176.6 156 176 155.6V163.6ZM180.7 142C179.2 142 178 142.6 177 143.7C176.1 144.7 175.7 145.9 175.7 147.2C175.7 148.9 176.4 150.2 177.7 151.3C178.7 152.1 179.7 152.4 181 152.4C182.4 152.4 183.7 151.9 184.7 150.9C185.7 149.9 186.3 148.6 186.3 147.2C186.3 145.7 185.7 144.4 184.5 143.3C183.3 142.5 182.1 142 180.7 142Z" fill="#3C3C3C"/>
<path d="M191.8 156.8V127.9H196.8V138.7C197.5 138 198.2 137.5 198.7 137.3C199.4 137 200.2 136.8 200.9 136.8C202.1 136.8 203.1 137.2 204.1 137.9C205.1 138.6 205.9 140.1 206.7 142.3L211.7 156.8H206.4L202 143.7C201.7 142.8 201.4 142.2 201 142C200.7 141.8 200.3 141.7 200 141.7C199.2 141.7 198.4 142.1 197.7 142.9C197.1 143.5 196.8 144.5 196.8 145.7V156.8H191.8V156.8Z" fill="#3C3C3C"/>
<path d="M220.1 137.101C221.8 137.101 223.4 137.501 224.9 138.401C226.5 139.301 227.8 140.601 228.7 142.201C229.6 143.701 230 145.401 230 147.101C230 148.901 229.5 150.601 228.6 152.201C227.7 153.801 226.4 155.001 224.8 156.001C223.2 156.901 221.6 157.401 219.8 157.401C218 157.401 216.3 156.901 214.8 156.001C213.2 155.101 211.9 153.801 211 152.301C210.1 150.801 209.7 149.101 209.7 147.401C209.7 145.101 210.3 143.101 211.6 141.401C212.6 140.101 213.8 139.001 215.2 138.301C216.7 137.501 218.3 137.101 220.1 137.101ZM219.8 141.901C218.3 141.901 217 142.401 216.1 143.401C215.1 144.401 214.6 145.601 214.6 147.101C214.6 148.701 215.2 149.901 216.3 151.001C217.3 151.901 218.4 152.301 219.7 152.301C221.3 152.301 222.7 151.701 223.7 150.501C224.6 149.501 225 148.401 225 147.001C225 145.501 224.4 144.201 223.2 143.101C222.3 142.401 221.2 141.901 219.8 141.901Z" fill="#3C3C3C"/>
<path d="M229.6 142.301V137.601H231V133.901L236.1 132.601V137.601H240.6V142.301H235.9V150.001V151.301C235.9 151.601 236.1 151.901 236.3 152.101C236.6 152.401 237 152.501 237.5 152.501C237.9 152.501 238.9 152.301 240.4 152.001V156.701C239.2 157.001 238.2 157.101 237.4 157.101C234.7 157.101 232.8 156.201 231.8 154.301C231.3 153.401 231.1 152.301 231.1 151.001V142.201H229.6V142.301Z" fill="#3C3C3C"/>
<path d="M249.9 137.101C251.6 137.101 253.2 137.501 254.7 138.401C256.3 139.301 257.6 140.601 258.5 142.201C259.4 143.701 259.8 145.401 259.8 147.101C259.8 148.901 259.3 150.601 258.4 152.201C257.5 153.801 256.2 155.001 254.6 156.001C253 156.901 251.4 157.401 249.6 157.401C247.8 157.401 246.1 156.901 244.6 156.001C243 155.101 241.7 153.801 240.8 152.301C239.9 150.801 239.5 149.101 239.5 147.401C239.5 145.101 240.1 143.101 241.4 141.401C242.4 140.101 243.6 139.001 245 138.301C246.5 137.501 248.1 137.101 249.9 137.101ZM249.6 141.901C248.1 141.901 246.8 142.401 245.9 143.401C244.9 144.401 244.4 145.601 244.4 147.101C244.4 148.701 245 149.901 246.1 151.001C247.1 151.901 248.2 152.301 249.5 152.301C251.1 152.301 252.5 151.701 253.5 150.501C254.4 149.501 254.8 148.401 254.8 147.001C254.8 145.501 254.2 144.201 253 143.101C252.1 142.401 251 141.901 249.6 141.901Z" fill="#3C3C3C"/>
<path d="M258.9 153.7L261.9 150.1C263.1 151.8 264.1 152.6 264.9 152.6C265.3 152.6 265.7 152.4 266 152.1C266.3 151.8 266.4 151.5 266.4 151.1C266.4 150.8 266.3 150.5 266.1 150.2C265.9 149.9 265.1 149.5 263.9 149.1C262.4 148.6 261.3 147.7 260.5 146.6C259.9 145.7 259.6 144.6 259.6 143.4C259.6 142.4 259.9 141.4 260.4 140.5C261.6 138.3 263.5 137.2 266 137.2C267.8 137.2 269.3 137.8 270.5 139C271 139.5 271.5 140.2 272.1 141.1L268.8 144.2C268.3 143.3 267.8 142.8 267.4 142.5C266.9 142.1 266.4 142 265.9 142C265.5 142 265.2 142.1 265 142.4C264.8 142.6 264.7 142.9 264.7 143.2C264.7 143.5 264.8 143.7 265 144C265.2 144.3 266.1 144.8 267.5 145.4C269 146 270.1 146.9 270.8 148C271.4 149 271.7 150 271.7 151.1C271.7 153 271 154.6 269.5 156C268.3 157.1 266.9 157.7 265.2 157.7C263.6 157.7 262.2 157.2 260.9 156.1C260.2 155.4 259.6 154.7 258.9 153.7Z" fill="#3C3C3C"/>
</g>
<defs>
<clipPath id="clip0">
<rect width="255.1" height="40.6" fill="white" transform="translate(17 125)"/>
</clipPath>
</defs>
</svg>
